%TF.GenerationSoftware,KiCad,Pcbnew,9.0.9*%
%TF.CreationDate,2026-09-11T15:24:08-07:00*%
%TF.ProjectId,muon_detector_head,6d756f6e-5f64-4657-9465-63746f725f68,rev?*%
%TF.SameCoordinates,Original*%
%TF.FileFunction,Legend,Top*%
%TF.FilePolarity,Positive*%
%FSLAX46Y46*%
G04 Gerber Fmt 4.6, Leading zero omitted, Abs format (unit mm)*
G04 Created by KiCad (PCBNEW 9.0.9) date 2026-09-11 15:24:08*
%MOMM*%
%LPD*%
G01*
G04 APERTURE LIST*
G04 Aperture macros list*
%AMRoundRect*
0 Rectangle with rounded corners*
0 $1 Rounding radius*
0 $2 $3 $4 $5 $6 $7 $8 $9 X,Y pos of 4 corners*
0 Add a 4 corners polygon primitive as box body*
4,1,4,$2,$3,$4,$5,$6,$7,$8,$9,$2,$3,0*
0 Add four circle primitives for the rounded corners*
1,1,$1+$1,$2,$3*
1,1,$1+$1,$4,$5*
1,1,$1+$1,$6,$7*
1,1,$1+$1,$8,$9*
0 Add four rect primitives between the rounded corners*
20,1,$1+$1,$2,$3,$4,$5,0*
20,1,$1+$1,$4,$5,$6,$7,0*
20,1,$1+$1,$6,$7,$8,$9,0*
20,1,$1+$1,$8,$9,$2,$3,0*%
G04 Aperture macros list end*
%ADD10C,0.150000*%
%ADD11C,0.240000*%
%ADD12C,0.120000*%
%ADD13C,3.200000*%
%ADD14RoundRect,0.250000X-0.600000X-0.725000X0.600000X-0.725000X0.600000X0.725000X-0.600000X0.725000X0*%
%ADD15O,1.700000X1.950000*%
%ADD16C,2.000000*%
%ADD17RoundRect,0.250000X0.475000X-0.250000X0.475000X0.250000X-0.475000X0.250000X-0.475000X-0.250000X0*%
%ADD18RoundRect,0.250000X-0.262500X-0.450000X0.262500X-0.450000X0.262500X0.450000X-0.262500X0.450000X0*%
%ADD19RoundRect,0.100000X0.562500X0.100000X-0.562500X0.100000X-0.562500X-0.100000X0.562500X-0.100000X0*%
%ADD20RoundRect,0.250000X-0.250000X-0.475000X0.250000X-0.475000X0.250000X0.475000X-0.250000X0.475000X0*%
%ADD21R,1.700000X1.700000*%
%ADD22C,1.700000*%
%ADD23RoundRect,0.150000X0.150000X-0.825000X0.150000X0.825000X-0.150000X0.825000X-0.150000X-0.825000X0*%
%ADD24R,0.300000X1.600000*%
%ADD25RoundRect,0.250000X0.450000X-0.262500X0.450000X0.262500X-0.450000X0.262500X-0.450000X-0.262500X0*%
%ADD26RoundRect,0.250000X-0.475000X0.250000X-0.475000X-0.250000X0.475000X-0.250000X0.475000X0.250000X0*%
%ADD27RoundRect,0.250000X0.262500X0.450000X-0.262500X0.450000X-0.262500X-0.450000X0.262500X-0.450000X0*%
%ADD28RoundRect,0.150000X-0.825000X-0.150000X0.825000X-0.150000X0.825000X0.150000X-0.825000X0.150000X0*%
%ADD29C,1.800000*%
%ADD30RoundRect,0.150000X-0.150000X0.587500X-0.150000X-0.587500X0.150000X-0.587500X0.150000X0.587500X0*%
%ADD31C,1.440000*%
%ADD32RoundRect,0.250000X-0.325000X-0.650000X0.325000X-0.650000X0.325000X0.650000X-0.325000X0.650000X0*%
%ADD33RoundRect,0.150000X-0.150000X0.825000X-0.150000X-0.825000X0.150000X-0.825000X0.150000X0.825000X0*%
%ADD34RoundRect,0.250000X-0.450000X0.262500X-0.450000X-0.262500X0.450000X-0.262500X0.450000X0.262500X0*%
%ADD35RoundRect,0.150000X0.587500X0.150000X-0.587500X0.150000X-0.587500X-0.150000X0.587500X-0.150000X0*%
G04 APERTURE END LIST*
D10*
X2676191Y-21962295D02*
X2676191Y-21162295D01*
X3057143Y-21962295D02*
X3057143Y-21162295D01*
X3057143Y-21162295D02*
X3514286Y-21962295D01*
X3514286Y-21962295D02*
X3514286Y-21162295D01*
X4123809Y-21162295D02*
X4123809Y-21733723D01*
X4123809Y-21733723D02*
X4085714Y-21848009D01*
X4085714Y-21848009D02*
X4009523Y-21924200D01*
X4009523Y-21924200D02*
X3895238Y-21962295D01*
X3895238Y-21962295D02*
X3819047Y-21962295D01*
X3528572Y-39362295D02*
X3528572Y-38562295D01*
X3528572Y-38943247D02*
X3985715Y-38943247D01*
X3985715Y-39362295D02*
X3985715Y-38562295D01*
X4519048Y-38562295D02*
X4671429Y-38562295D01*
X4671429Y-38562295D02*
X4747619Y-38600390D01*
X4747619Y-38600390D02*
X4823810Y-38676580D01*
X4823810Y-38676580D02*
X4861905Y-38828961D01*
X4861905Y-38828961D02*
X4861905Y-39095628D01*
X4861905Y-39095628D02*
X4823810Y-39248009D01*
X4823810Y-39248009D02*
X4747619Y-39324200D01*
X4747619Y-39324200D02*
X4671429Y-39362295D01*
X4671429Y-39362295D02*
X4519048Y-39362295D01*
X4519048Y-39362295D02*
X4442857Y-39324200D01*
X4442857Y-39324200D02*
X4366667Y-39248009D01*
X4366667Y-39248009D02*
X4328571Y-39095628D01*
X4328571Y-39095628D02*
X4328571Y-38828961D01*
X4328571Y-38828961D02*
X4366667Y-38676580D01*
X4366667Y-38676580D02*
X4442857Y-38600390D01*
X4442857Y-38600390D02*
X4519048Y-38562295D01*
X5585714Y-39362295D02*
X5204762Y-39362295D01*
X5204762Y-39362295D02*
X5204762Y-38562295D01*
X5852381Y-39362295D02*
X5852381Y-38562295D01*
X5852381Y-38562295D02*
X6042857Y-38562295D01*
X6042857Y-38562295D02*
X6157143Y-38600390D01*
X6157143Y-38600390D02*
X6233333Y-38676580D01*
X6233333Y-38676580D02*
X6271428Y-38752771D01*
X6271428Y-38752771D02*
X6309524Y-38905152D01*
X6309524Y-38905152D02*
X6309524Y-39019438D01*
X6309524Y-39019438D02*
X6271428Y-39171819D01*
X6271428Y-39171819D02*
X6233333Y-39248009D01*
X6233333Y-39248009D02*
X6157143Y-39324200D01*
X6157143Y-39324200D02*
X6042857Y-39362295D01*
X6042857Y-39362295D02*
X5852381Y-39362295D01*
X5330476Y-21200390D02*
X5254286Y-21162295D01*
X5254286Y-21162295D02*
X5140000Y-21162295D01*
X5140000Y-21162295D02*
X5025714Y-21200390D01*
X5025714Y-21200390D02*
X4949524Y-21276580D01*
X4949524Y-21276580D02*
X4911429Y-21352771D01*
X4911429Y-21352771D02*
X4873333Y-21505152D01*
X4873333Y-21505152D02*
X4873333Y-21619438D01*
X4873333Y-21619438D02*
X4911429Y-21771819D01*
X4911429Y-21771819D02*
X4949524Y-21848009D01*
X4949524Y-21848009D02*
X5025714Y-21924200D01*
X5025714Y-21924200D02*
X5140000Y-21962295D01*
X5140000Y-21962295D02*
X5216191Y-21962295D01*
X5216191Y-21962295D02*
X5330476Y-21924200D01*
X5330476Y-21924200D02*
X5368572Y-21886104D01*
X5368572Y-21886104D02*
X5368572Y-21619438D01*
X5368572Y-21619438D02*
X5216191Y-21619438D01*
X5711429Y-21962295D02*
X5711429Y-21162295D01*
X5711429Y-21162295D02*
X6168572Y-21962295D01*
X6168572Y-21962295D02*
X6168572Y-21162295D01*
X6549524Y-21962295D02*
X6549524Y-21162295D01*
X6549524Y-21162295D02*
X6740000Y-21162295D01*
X6740000Y-21162295D02*
X6854286Y-21200390D01*
X6854286Y-21200390D02*
X6930476Y-21276580D01*
X6930476Y-21276580D02*
X6968571Y-21352771D01*
X6968571Y-21352771D02*
X7006667Y-21505152D01*
X7006667Y-21505152D02*
X7006667Y-21619438D01*
X7006667Y-21619438D02*
X6968571Y-21771819D01*
X6968571Y-21771819D02*
X6930476Y-21848009D01*
X6930476Y-21848009D02*
X6854286Y-21924200D01*
X6854286Y-21924200D02*
X6740000Y-21962295D01*
X6740000Y-21962295D02*
X6549524Y-21962295D01*
X10161905Y-58262295D02*
X9895238Y-57881342D01*
X9704762Y-58262295D02*
X9704762Y-57462295D01*
X9704762Y-57462295D02*
X10009524Y-57462295D01*
X10009524Y-57462295D02*
X10085714Y-57500390D01*
X10085714Y-57500390D02*
X10123809Y-57538485D01*
X10123809Y-57538485D02*
X10161905Y-57614676D01*
X10161905Y-57614676D02*
X10161905Y-57728961D01*
X10161905Y-57728961D02*
X10123809Y-57805152D01*
X10123809Y-57805152D02*
X10085714Y-57843247D01*
X10085714Y-57843247D02*
X10009524Y-57881342D01*
X10009524Y-57881342D02*
X9704762Y-57881342D01*
X10466666Y-58224200D02*
X10580952Y-58262295D01*
X10580952Y-58262295D02*
X10771428Y-58262295D01*
X10771428Y-58262295D02*
X10847619Y-58224200D01*
X10847619Y-58224200D02*
X10885714Y-58186104D01*
X10885714Y-58186104D02*
X10923809Y-58109914D01*
X10923809Y-58109914D02*
X10923809Y-58033723D01*
X10923809Y-58033723D02*
X10885714Y-57957533D01*
X10885714Y-57957533D02*
X10847619Y-57919438D01*
X10847619Y-57919438D02*
X10771428Y-57881342D01*
X10771428Y-57881342D02*
X10619047Y-57843247D01*
X10619047Y-57843247D02*
X10542857Y-57805152D01*
X10542857Y-57805152D02*
X10504762Y-57767057D01*
X10504762Y-57767057D02*
X10466666Y-57690866D01*
X10466666Y-57690866D02*
X10466666Y-57614676D01*
X10466666Y-57614676D02*
X10504762Y-57538485D01*
X10504762Y-57538485D02*
X10542857Y-57500390D01*
X10542857Y-57500390D02*
X10619047Y-57462295D01*
X10619047Y-57462295D02*
X10809524Y-57462295D01*
X10809524Y-57462295D02*
X10923809Y-57500390D01*
X11152381Y-57462295D02*
X11609524Y-57462295D01*
X11380952Y-58262295D02*
X11380952Y-57462295D01*
X9685714Y-53462295D02*
X9685714Y-52662295D01*
X9685714Y-52662295D02*
X9990476Y-52662295D01*
X9990476Y-52662295D02*
X10066666Y-52700390D01*
X10066666Y-52700390D02*
X10104761Y-52738485D01*
X10104761Y-52738485D02*
X10142857Y-52814676D01*
X10142857Y-52814676D02*
X10142857Y-52928961D01*
X10142857Y-52928961D02*
X10104761Y-53005152D01*
X10104761Y-53005152D02*
X10066666Y-53043247D01*
X10066666Y-53043247D02*
X9990476Y-53081342D01*
X9990476Y-53081342D02*
X9685714Y-53081342D01*
X10485714Y-53043247D02*
X10752380Y-53043247D01*
X10866666Y-53462295D02*
X10485714Y-53462295D01*
X10485714Y-53462295D02*
X10485714Y-52662295D01*
X10485714Y-52662295D02*
X10866666Y-52662295D01*
X11171428Y-53233723D02*
X11552381Y-53233723D01*
X11095238Y-53462295D02*
X11361905Y-52662295D01*
X11361905Y-52662295D02*
X11628571Y-53462295D01*
X11895238Y-53462295D02*
X11895238Y-52662295D01*
X12352381Y-53462295D02*
X12009523Y-53005152D01*
X12352381Y-52662295D02*
X11895238Y-53119438D01*
X10552380Y-23633723D02*
X10933333Y-23633723D01*
X10476190Y-23862295D02*
X10742857Y-23062295D01*
X10742857Y-23062295D02*
X11009523Y-23862295D01*
X11276190Y-23862295D02*
X11276190Y-23062295D01*
X11276190Y-23062295D02*
X11542856Y-23633723D01*
X11542856Y-23633723D02*
X11809523Y-23062295D01*
X11809523Y-23062295D02*
X11809523Y-23862295D01*
X12190476Y-23862295D02*
X12190476Y-23062295D01*
X12190476Y-23062295D02*
X12495238Y-23062295D01*
X12495238Y-23062295D02*
X12571428Y-23100390D01*
X12571428Y-23100390D02*
X12609523Y-23138485D01*
X12609523Y-23138485D02*
X12647619Y-23214676D01*
X12647619Y-23214676D02*
X12647619Y-23328961D01*
X12647619Y-23328961D02*
X12609523Y-23405152D01*
X12609523Y-23405152D02*
X12571428Y-23443247D01*
X12571428Y-23443247D02*
X12495238Y-23481342D01*
X12495238Y-23481342D02*
X12190476Y-23481342D01*
X11047619Y-30462295D02*
X10780952Y-30081342D01*
X10590476Y-30462295D02*
X10590476Y-29662295D01*
X10590476Y-29662295D02*
X10895238Y-29662295D01*
X10895238Y-29662295D02*
X10971428Y-29700390D01*
X10971428Y-29700390D02*
X11009523Y-29738485D01*
X11009523Y-29738485D02*
X11047619Y-29814676D01*
X11047619Y-29814676D02*
X11047619Y-29928961D01*
X11047619Y-29928961D02*
X11009523Y-30005152D01*
X11009523Y-30005152D02*
X10971428Y-30043247D01*
X10971428Y-30043247D02*
X10895238Y-30081342D01*
X10895238Y-30081342D02*
X10590476Y-30081342D01*
X11352380Y-30233723D02*
X11733333Y-30233723D01*
X11276190Y-30462295D02*
X11542857Y-29662295D01*
X11542857Y-29662295D02*
X11809523Y-30462295D01*
X11999999Y-29662295D02*
X12190475Y-30462295D01*
X12190475Y-30462295D02*
X12342856Y-29890866D01*
X12342856Y-29890866D02*
X12495237Y-30462295D01*
X12495237Y-30462295D02*
X12685714Y-29662295D01*
X16047618Y-60138485D02*
X16085714Y-60100390D01*
X16085714Y-60100390D02*
X16161904Y-60062295D01*
X16161904Y-60062295D02*
X16352380Y-60062295D01*
X16352380Y-60062295D02*
X16428571Y-60100390D01*
X16428571Y-60100390D02*
X16466666Y-60138485D01*
X16466666Y-60138485D02*
X16504761Y-60214676D01*
X16504761Y-60214676D02*
X16504761Y-60290866D01*
X16504761Y-60290866D02*
X16466666Y-60405152D01*
X16466666Y-60405152D02*
X16009523Y-60862295D01*
X16009523Y-60862295D02*
X16504761Y-60862295D01*
X16771428Y-60062295D02*
X17304762Y-60062295D01*
X17304762Y-60062295D02*
X16961904Y-60862295D01*
X17495238Y-60062295D02*
X17761905Y-60862295D01*
X17761905Y-60862295D02*
X18028571Y-60062295D01*
X20147619Y-24962295D02*
X20414286Y-25762295D01*
X20414286Y-25762295D02*
X20680952Y-24962295D01*
X21214285Y-25343247D02*
X21328571Y-25381342D01*
X21328571Y-25381342D02*
X21366666Y-25419438D01*
X21366666Y-25419438D02*
X21404762Y-25495628D01*
X21404762Y-25495628D02*
X21404762Y-25609914D01*
X21404762Y-25609914D02*
X21366666Y-25686104D01*
X21366666Y-25686104D02*
X21328571Y-25724200D01*
X21328571Y-25724200D02*
X21252381Y-25762295D01*
X21252381Y-25762295D02*
X20947619Y-25762295D01*
X20947619Y-25762295D02*
X20947619Y-24962295D01*
X20947619Y-24962295D02*
X21214285Y-24962295D01*
X21214285Y-24962295D02*
X21290476Y-25000390D01*
X21290476Y-25000390D02*
X21328571Y-25038485D01*
X21328571Y-25038485D02*
X21366666Y-25114676D01*
X21366666Y-25114676D02*
X21366666Y-25190866D01*
X21366666Y-25190866D02*
X21328571Y-25267057D01*
X21328571Y-25267057D02*
X21290476Y-25305152D01*
X21290476Y-25305152D02*
X21214285Y-25343247D01*
X21214285Y-25343247D02*
X20947619Y-25343247D01*
X21709523Y-25533723D02*
X22090476Y-25533723D01*
X21633333Y-25762295D02*
X21900000Y-24962295D01*
X21900000Y-24962295D02*
X22166666Y-25762295D01*
X22395237Y-25724200D02*
X22509523Y-25762295D01*
X22509523Y-25762295D02*
X22699999Y-25762295D01*
X22699999Y-25762295D02*
X22776190Y-25724200D01*
X22776190Y-25724200D02*
X22814285Y-25686104D01*
X22814285Y-25686104D02*
X22852380Y-25609914D01*
X22852380Y-25609914D02*
X22852380Y-25533723D01*
X22852380Y-25533723D02*
X22814285Y-25457533D01*
X22814285Y-25457533D02*
X22776190Y-25419438D01*
X22776190Y-25419438D02*
X22699999Y-25381342D01*
X22699999Y-25381342D02*
X22547618Y-25343247D01*
X22547618Y-25343247D02*
X22471428Y-25305152D01*
X22471428Y-25305152D02*
X22433333Y-25267057D01*
X22433333Y-25267057D02*
X22395237Y-25190866D01*
X22395237Y-25190866D02*
X22395237Y-25114676D01*
X22395237Y-25114676D02*
X22433333Y-25038485D01*
X22433333Y-25038485D02*
X22471428Y-25000390D01*
X22471428Y-25000390D02*
X22547618Y-24962295D01*
X22547618Y-24962295D02*
X22738095Y-24962295D01*
X22738095Y-24962295D02*
X22852380Y-25000390D01*
X23195238Y-25343247D02*
X23461904Y-25343247D01*
X23576190Y-25762295D02*
X23195238Y-25762295D01*
X23195238Y-25762295D02*
X23195238Y-24962295D01*
X23195238Y-24962295D02*
X23576190Y-24962295D01*
X22683333Y-67362295D02*
X22226190Y-67362295D01*
X22454762Y-67362295D02*
X22454762Y-66562295D01*
X22454762Y-66562295D02*
X22378571Y-66676580D01*
X22378571Y-66676580D02*
X22302381Y-66752771D01*
X22302381Y-66752771D02*
X22226190Y-66790866D01*
X23026191Y-67286104D02*
X23064286Y-67324200D01*
X23064286Y-67324200D02*
X23026191Y-67362295D01*
X23026191Y-67362295D02*
X22988095Y-67324200D01*
X22988095Y-67324200D02*
X23026191Y-67286104D01*
X23026191Y-67286104D02*
X23026191Y-67362295D01*
X23026191Y-66867057D02*
X23064286Y-66905152D01*
X23064286Y-66905152D02*
X23026191Y-66943247D01*
X23026191Y-66943247D02*
X22988095Y-66905152D01*
X22988095Y-66905152D02*
X23026191Y-66867057D01*
X23026191Y-66867057D02*
X23026191Y-66943247D01*
X23369047Y-66638485D02*
X23407143Y-66600390D01*
X23407143Y-66600390D02*
X23483333Y-66562295D01*
X23483333Y-66562295D02*
X23673809Y-66562295D01*
X23673809Y-66562295D02*
X23750000Y-66600390D01*
X23750000Y-66600390D02*
X23788095Y-66638485D01*
X23788095Y-66638485D02*
X23826190Y-66714676D01*
X23826190Y-66714676D02*
X23826190Y-66790866D01*
X23826190Y-66790866D02*
X23788095Y-66905152D01*
X23788095Y-66905152D02*
X23330952Y-67362295D01*
X23330952Y-67362295D02*
X23826190Y-67362295D01*
X24092857Y-66562295D02*
X24626191Y-66562295D01*
X24626191Y-66562295D02*
X24283333Y-67362295D01*
X24816667Y-66562295D02*
X25083334Y-67362295D01*
X25083334Y-67362295D02*
X25350000Y-66562295D01*
X27569047Y-66562295D02*
X28064285Y-66562295D01*
X28064285Y-66562295D02*
X27797619Y-66867057D01*
X27797619Y-66867057D02*
X27911904Y-66867057D01*
X27911904Y-66867057D02*
X27988095Y-66905152D01*
X27988095Y-66905152D02*
X28026190Y-66943247D01*
X28026190Y-66943247D02*
X28064285Y-67019438D01*
X28064285Y-67019438D02*
X28064285Y-67209914D01*
X28064285Y-67209914D02*
X28026190Y-67286104D01*
X28026190Y-67286104D02*
X27988095Y-67324200D01*
X27988095Y-67324200D02*
X27911904Y-67362295D01*
X27911904Y-67362295D02*
X27683333Y-67362295D01*
X27683333Y-67362295D02*
X27607142Y-67324200D01*
X27607142Y-67324200D02*
X27569047Y-67286104D01*
X28407143Y-67286104D02*
X28445238Y-67324200D01*
X28445238Y-67324200D02*
X28407143Y-67362295D01*
X28407143Y-67362295D02*
X28369047Y-67324200D01*
X28369047Y-67324200D02*
X28407143Y-67286104D01*
X28407143Y-67286104D02*
X28407143Y-67362295D01*
X28407143Y-66867057D02*
X28445238Y-66905152D01*
X28445238Y-66905152D02*
X28407143Y-66943247D01*
X28407143Y-66943247D02*
X28369047Y-66905152D01*
X28369047Y-66905152D02*
X28407143Y-66867057D01*
X28407143Y-66867057D02*
X28407143Y-66943247D01*
X29169047Y-66562295D02*
X28788095Y-66562295D01*
X28788095Y-66562295D02*
X28749999Y-66943247D01*
X28749999Y-66943247D02*
X28788095Y-66905152D01*
X28788095Y-66905152D02*
X28864285Y-66867057D01*
X28864285Y-66867057D02*
X29054761Y-66867057D01*
X29054761Y-66867057D02*
X29130952Y-66905152D01*
X29130952Y-66905152D02*
X29169047Y-66943247D01*
X29169047Y-66943247D02*
X29207142Y-67019438D01*
X29207142Y-67019438D02*
X29207142Y-67209914D01*
X29207142Y-67209914D02*
X29169047Y-67286104D01*
X29169047Y-67286104D02*
X29130952Y-67324200D01*
X29130952Y-67324200D02*
X29054761Y-67362295D01*
X29054761Y-67362295D02*
X28864285Y-67362295D01*
X28864285Y-67362295D02*
X28788095Y-67324200D01*
X28788095Y-67324200D02*
X28749999Y-67286104D01*
X29435714Y-66562295D02*
X29702381Y-67362295D01*
X29702381Y-67362295D02*
X29969047Y-66562295D01*
X28647619Y-53862295D02*
X28266667Y-53862295D01*
X28266667Y-53862295D02*
X28228571Y-54243247D01*
X28228571Y-54243247D02*
X28266667Y-54205152D01*
X28266667Y-54205152D02*
X28342857Y-54167057D01*
X28342857Y-54167057D02*
X28533333Y-54167057D01*
X28533333Y-54167057D02*
X28609524Y-54205152D01*
X28609524Y-54205152D02*
X28647619Y-54243247D01*
X28647619Y-54243247D02*
X28685714Y-54319438D01*
X28685714Y-54319438D02*
X28685714Y-54509914D01*
X28685714Y-54509914D02*
X28647619Y-54586104D01*
X28647619Y-54586104D02*
X28609524Y-54624200D01*
X28609524Y-54624200D02*
X28533333Y-54662295D01*
X28533333Y-54662295D02*
X28342857Y-54662295D01*
X28342857Y-54662295D02*
X28266667Y-54624200D01*
X28266667Y-54624200D02*
X28228571Y-54586104D01*
X28914286Y-53862295D02*
X29180953Y-54662295D01*
X29180953Y-54662295D02*
X29447619Y-53862295D01*
X32454762Y-66562295D02*
X32073810Y-66562295D01*
X32073810Y-66562295D02*
X32035714Y-66943247D01*
X32035714Y-66943247D02*
X32073810Y-66905152D01*
X32073810Y-66905152D02*
X32150000Y-66867057D01*
X32150000Y-66867057D02*
X32340476Y-66867057D01*
X32340476Y-66867057D02*
X32416667Y-66905152D01*
X32416667Y-66905152D02*
X32454762Y-66943247D01*
X32454762Y-66943247D02*
X32492857Y-67019438D01*
X32492857Y-67019438D02*
X32492857Y-67209914D01*
X32492857Y-67209914D02*
X32454762Y-67286104D01*
X32454762Y-67286104D02*
X32416667Y-67324200D01*
X32416667Y-67324200D02*
X32340476Y-67362295D01*
X32340476Y-67362295D02*
X32150000Y-67362295D01*
X32150000Y-67362295D02*
X32073810Y-67324200D01*
X32073810Y-67324200D02*
X32035714Y-67286104D01*
X32835715Y-67286104D02*
X32873810Y-67324200D01*
X32873810Y-67324200D02*
X32835715Y-67362295D01*
X32835715Y-67362295D02*
X32797619Y-67324200D01*
X32797619Y-67324200D02*
X32835715Y-67286104D01*
X32835715Y-67286104D02*
X32835715Y-67362295D01*
X32835715Y-66867057D02*
X32873810Y-66905152D01*
X32873810Y-66905152D02*
X32835715Y-66943247D01*
X32835715Y-66943247D02*
X32797619Y-66905152D01*
X32797619Y-66905152D02*
X32835715Y-66867057D01*
X32835715Y-66867057D02*
X32835715Y-66943247D01*
X33140476Y-66562295D02*
X33635714Y-66562295D01*
X33635714Y-66562295D02*
X33369048Y-66867057D01*
X33369048Y-66867057D02*
X33483333Y-66867057D01*
X33483333Y-66867057D02*
X33559524Y-66905152D01*
X33559524Y-66905152D02*
X33597619Y-66943247D01*
X33597619Y-66943247D02*
X33635714Y-67019438D01*
X33635714Y-67019438D02*
X33635714Y-67209914D01*
X33635714Y-67209914D02*
X33597619Y-67286104D01*
X33597619Y-67286104D02*
X33559524Y-67324200D01*
X33559524Y-67324200D02*
X33483333Y-67362295D01*
X33483333Y-67362295D02*
X33254762Y-67362295D01*
X33254762Y-67362295D02*
X33178571Y-67324200D01*
X33178571Y-67324200D02*
X33140476Y-67286104D01*
X33978572Y-67286104D02*
X34016667Y-67324200D01*
X34016667Y-67324200D02*
X33978572Y-67362295D01*
X33978572Y-67362295D02*
X33940476Y-67324200D01*
X33940476Y-67324200D02*
X33978572Y-67286104D01*
X33978572Y-67286104D02*
X33978572Y-67362295D01*
X34283333Y-66562295D02*
X34778571Y-66562295D01*
X34778571Y-66562295D02*
X34511905Y-66867057D01*
X34511905Y-66867057D02*
X34626190Y-66867057D01*
X34626190Y-66867057D02*
X34702381Y-66905152D01*
X34702381Y-66905152D02*
X34740476Y-66943247D01*
X34740476Y-66943247D02*
X34778571Y-67019438D01*
X34778571Y-67019438D02*
X34778571Y-67209914D01*
X34778571Y-67209914D02*
X34740476Y-67286104D01*
X34740476Y-67286104D02*
X34702381Y-67324200D01*
X34702381Y-67324200D02*
X34626190Y-67362295D01*
X34626190Y-67362295D02*
X34397619Y-67362295D01*
X34397619Y-67362295D02*
X34321428Y-67324200D01*
X34321428Y-67324200D02*
X34283333Y-67286104D01*
X35007143Y-66562295D02*
X35273810Y-67362295D01*
X35273810Y-67362295D02*
X35540476Y-66562295D01*
X36609523Y-53862295D02*
X37104761Y-53862295D01*
X37104761Y-53862295D02*
X36838095Y-54167057D01*
X36838095Y-54167057D02*
X36952380Y-54167057D01*
X36952380Y-54167057D02*
X37028571Y-54205152D01*
X37028571Y-54205152D02*
X37066666Y-54243247D01*
X37066666Y-54243247D02*
X37104761Y-54319438D01*
X37104761Y-54319438D02*
X37104761Y-54509914D01*
X37104761Y-54509914D02*
X37066666Y-54586104D01*
X37066666Y-54586104D02*
X37028571Y-54624200D01*
X37028571Y-54624200D02*
X36952380Y-54662295D01*
X36952380Y-54662295D02*
X36723809Y-54662295D01*
X36723809Y-54662295D02*
X36647618Y-54624200D01*
X36647618Y-54624200D02*
X36609523Y-54586104D01*
X37333333Y-53862295D02*
X37600000Y-54662295D01*
X37600000Y-54662295D02*
X37866666Y-53862295D01*
X38057142Y-53862295D02*
X38552380Y-53862295D01*
X38552380Y-53862295D02*
X38285714Y-54167057D01*
X38285714Y-54167057D02*
X38399999Y-54167057D01*
X38399999Y-54167057D02*
X38476190Y-54205152D01*
X38476190Y-54205152D02*
X38514285Y-54243247D01*
X38514285Y-54243247D02*
X38552380Y-54319438D01*
X38552380Y-54319438D02*
X38552380Y-54509914D01*
X38552380Y-54509914D02*
X38514285Y-54586104D01*
X38514285Y-54586104D02*
X38476190Y-54624200D01*
X38476190Y-54624200D02*
X38399999Y-54662295D01*
X38399999Y-54662295D02*
X38171428Y-54662295D01*
X38171428Y-54662295D02*
X38095237Y-54624200D01*
X38095237Y-54624200D02*
X38057142Y-54586104D01*
X41709524Y-10462295D02*
X41976191Y-11262295D01*
X41976191Y-11262295D02*
X42242857Y-10462295D01*
X42395238Y-10462295D02*
X42852381Y-10462295D01*
X42623809Y-11262295D02*
X42623809Y-10462295D01*
X43119048Y-11262295D02*
X43119048Y-10462295D01*
X43119048Y-10843247D02*
X43576191Y-10843247D01*
X43576191Y-11262295D02*
X43576191Y-10462295D01*
X44942857Y-43043247D02*
X45057143Y-43081342D01*
X45057143Y-43081342D02*
X45095238Y-43119438D01*
X45095238Y-43119438D02*
X45133334Y-43195628D01*
X45133334Y-43195628D02*
X45133334Y-43309914D01*
X45133334Y-43309914D02*
X45095238Y-43386104D01*
X45095238Y-43386104D02*
X45057143Y-43424200D01*
X45057143Y-43424200D02*
X44980953Y-43462295D01*
X44980953Y-43462295D02*
X44676191Y-43462295D01*
X44676191Y-43462295D02*
X44676191Y-42662295D01*
X44676191Y-42662295D02*
X44942857Y-42662295D01*
X44942857Y-42662295D02*
X45019048Y-42700390D01*
X45019048Y-42700390D02*
X45057143Y-42738485D01*
X45057143Y-42738485D02*
X45095238Y-42814676D01*
X45095238Y-42814676D02*
X45095238Y-42890866D01*
X45095238Y-42890866D02*
X45057143Y-42967057D01*
X45057143Y-42967057D02*
X45019048Y-43005152D01*
X45019048Y-43005152D02*
X44942857Y-43043247D01*
X44942857Y-43043247D02*
X44676191Y-43043247D01*
X45476191Y-43462295D02*
X45476191Y-42662295D01*
X45819047Y-43233723D02*
X46200000Y-43233723D01*
X45742857Y-43462295D02*
X46009524Y-42662295D01*
X46009524Y-42662295D02*
X46276190Y-43462295D01*
X46504761Y-43424200D02*
X46619047Y-43462295D01*
X46619047Y-43462295D02*
X46809523Y-43462295D01*
X46809523Y-43462295D02*
X46885714Y-43424200D01*
X46885714Y-43424200D02*
X46923809Y-43386104D01*
X46923809Y-43386104D02*
X46961904Y-43309914D01*
X46961904Y-43309914D02*
X46961904Y-43233723D01*
X46961904Y-43233723D02*
X46923809Y-43157533D01*
X46923809Y-43157533D02*
X46885714Y-43119438D01*
X46885714Y-43119438D02*
X46809523Y-43081342D01*
X46809523Y-43081342D02*
X46657142Y-43043247D01*
X46657142Y-43043247D02*
X46580952Y-43005152D01*
X46580952Y-43005152D02*
X46542857Y-42967057D01*
X46542857Y-42967057D02*
X46504761Y-42890866D01*
X46504761Y-42890866D02*
X46504761Y-42814676D01*
X46504761Y-42814676D02*
X46542857Y-42738485D01*
X46542857Y-42738485D02*
X46580952Y-42700390D01*
X46580952Y-42700390D02*
X46657142Y-42662295D01*
X46657142Y-42662295D02*
X46847619Y-42662295D01*
X46847619Y-42662295D02*
X46961904Y-42700390D01*
X46097618Y-67362295D02*
X45640475Y-67362295D01*
X45869047Y-67362295D02*
X45869047Y-66562295D01*
X45869047Y-66562295D02*
X45792856Y-66676580D01*
X45792856Y-66676580D02*
X45716666Y-66752771D01*
X45716666Y-66752771D02*
X45640475Y-66790866D01*
X46592857Y-66562295D02*
X46669047Y-66562295D01*
X46669047Y-66562295D02*
X46745238Y-66600390D01*
X46745238Y-66600390D02*
X46783333Y-66638485D01*
X46783333Y-66638485D02*
X46821428Y-66714676D01*
X46821428Y-66714676D02*
X46859523Y-66867057D01*
X46859523Y-66867057D02*
X46859523Y-67057533D01*
X46859523Y-67057533D02*
X46821428Y-67209914D01*
X46821428Y-67209914D02*
X46783333Y-67286104D01*
X46783333Y-67286104D02*
X46745238Y-67324200D01*
X46745238Y-67324200D02*
X46669047Y-67362295D01*
X46669047Y-67362295D02*
X46592857Y-67362295D01*
X46592857Y-67362295D02*
X46516666Y-67324200D01*
X46516666Y-67324200D02*
X46478571Y-67286104D01*
X46478571Y-67286104D02*
X46440476Y-67209914D01*
X46440476Y-67209914D02*
X46402380Y-67057533D01*
X46402380Y-67057533D02*
X46402380Y-66867057D01*
X46402380Y-66867057D02*
X46440476Y-66714676D01*
X46440476Y-66714676D02*
X46478571Y-66638485D01*
X46478571Y-66638485D02*
X46516666Y-66600390D01*
X46516666Y-66600390D02*
X46592857Y-66562295D01*
X56580952Y-45862295D02*
X57038095Y-45862295D01*
X56809523Y-46662295D02*
X56809523Y-45862295D01*
X57761905Y-46662295D02*
X57495238Y-46281342D01*
X57304762Y-46662295D02*
X57304762Y-45862295D01*
X57304762Y-45862295D02*
X57609524Y-45862295D01*
X57609524Y-45862295D02*
X57685714Y-45900390D01*
X57685714Y-45900390D02*
X57723809Y-45938485D01*
X57723809Y-45938485D02*
X57761905Y-46014676D01*
X57761905Y-46014676D02*
X57761905Y-46128961D01*
X57761905Y-46128961D02*
X57723809Y-46205152D01*
X57723809Y-46205152D02*
X57685714Y-46243247D01*
X57685714Y-46243247D02*
X57609524Y-46281342D01*
X57609524Y-46281342D02*
X57304762Y-46281342D01*
X58104762Y-46662295D02*
X58104762Y-45862295D01*
X58904761Y-45900390D02*
X58828571Y-45862295D01*
X58828571Y-45862295D02*
X58714285Y-45862295D01*
X58714285Y-45862295D02*
X58599999Y-45900390D01*
X58599999Y-45900390D02*
X58523809Y-45976580D01*
X58523809Y-45976580D02*
X58485714Y-46052771D01*
X58485714Y-46052771D02*
X58447618Y-46205152D01*
X58447618Y-46205152D02*
X58447618Y-46319438D01*
X58447618Y-46319438D02*
X58485714Y-46471819D01*
X58485714Y-46471819D02*
X58523809Y-46548009D01*
X58523809Y-46548009D02*
X58599999Y-46624200D01*
X58599999Y-46624200D02*
X58714285Y-46662295D01*
X58714285Y-46662295D02*
X58790476Y-46662295D01*
X58790476Y-46662295D02*
X58904761Y-46624200D01*
X58904761Y-46624200D02*
X58942857Y-46586104D01*
X58942857Y-46586104D02*
X58942857Y-46319438D01*
X58942857Y-46319438D02*
X58790476Y-46319438D01*
X59171429Y-17786104D02*
X59133333Y-17824200D01*
X59133333Y-17824200D02*
X59019048Y-17862295D01*
X59019048Y-17862295D02*
X58942857Y-17862295D01*
X58942857Y-17862295D02*
X58828571Y-17824200D01*
X58828571Y-17824200D02*
X58752381Y-17748009D01*
X58752381Y-17748009D02*
X58714286Y-17671819D01*
X58714286Y-17671819D02*
X58676190Y-17519438D01*
X58676190Y-17519438D02*
X58676190Y-17405152D01*
X58676190Y-17405152D02*
X58714286Y-17252771D01*
X58714286Y-17252771D02*
X58752381Y-17176580D01*
X58752381Y-17176580D02*
X58828571Y-17100390D01*
X58828571Y-17100390D02*
X58942857Y-17062295D01*
X58942857Y-17062295D02*
X59019048Y-17062295D01*
X59019048Y-17062295D02*
X59133333Y-17100390D01*
X59133333Y-17100390D02*
X59171429Y-17138485D01*
X59666667Y-17062295D02*
X59819048Y-17062295D01*
X59819048Y-17062295D02*
X59895238Y-17100390D01*
X59895238Y-17100390D02*
X59971429Y-17176580D01*
X59971429Y-17176580D02*
X60009524Y-17328961D01*
X60009524Y-17328961D02*
X60009524Y-17595628D01*
X60009524Y-17595628D02*
X59971429Y-17748009D01*
X59971429Y-17748009D02*
X59895238Y-17824200D01*
X59895238Y-17824200D02*
X59819048Y-17862295D01*
X59819048Y-17862295D02*
X59666667Y-17862295D01*
X59666667Y-17862295D02*
X59590476Y-17824200D01*
X59590476Y-17824200D02*
X59514286Y-17748009D01*
X59514286Y-17748009D02*
X59476190Y-17595628D01*
X59476190Y-17595628D02*
X59476190Y-17328961D01*
X59476190Y-17328961D02*
X59514286Y-17176580D01*
X59514286Y-17176580D02*
X59590476Y-17100390D01*
X59590476Y-17100390D02*
X59666667Y-17062295D01*
X60352381Y-17862295D02*
X60352381Y-17062295D01*
X60352381Y-17062295D02*
X60619047Y-17633723D01*
X60619047Y-17633723D02*
X60885714Y-17062295D01*
X60885714Y-17062295D02*
X60885714Y-17862295D01*
X61266667Y-17862295D02*
X61266667Y-17062295D01*
X61266667Y-17062295D02*
X61571429Y-17062295D01*
X61571429Y-17062295D02*
X61647619Y-17100390D01*
X61647619Y-17100390D02*
X61685714Y-17138485D01*
X61685714Y-17138485D02*
X61723810Y-17214676D01*
X61723810Y-17214676D02*
X61723810Y-17328961D01*
X61723810Y-17328961D02*
X61685714Y-17405152D01*
X61685714Y-17405152D02*
X61647619Y-17443247D01*
X61647619Y-17443247D02*
X61571429Y-17481342D01*
X61571429Y-17481342D02*
X61266667Y-17481342D01*
X53709524Y-4854819D02*
X54042857Y-5854819D01*
X54042857Y-5854819D02*
X54376190Y-4854819D01*
X54566667Y-4854819D02*
X55138095Y-4854819D01*
X54852381Y-5854819D02*
X54852381Y-4854819D01*
X55471429Y-5854819D02*
X55471429Y-4854819D01*
X55471429Y-5331009D02*
X56042857Y-5331009D01*
X56042857Y-5854819D02*
X56042857Y-4854819D01*
X57280953Y-5473866D02*
X58042858Y-5473866D01*
X57661905Y-5854819D02*
X57661905Y-5092914D01*
X59852381Y-5759580D02*
X59804762Y-5807200D01*
X59804762Y-5807200D02*
X59661905Y-5854819D01*
X59661905Y-5854819D02*
X59566667Y-5854819D01*
X59566667Y-5854819D02*
X59423810Y-5807200D01*
X59423810Y-5807200D02*
X59328572Y-5711961D01*
X59328572Y-5711961D02*
X59280953Y-5616723D01*
X59280953Y-5616723D02*
X59233334Y-5426247D01*
X59233334Y-5426247D02*
X59233334Y-5283390D01*
X59233334Y-5283390D02*
X59280953Y-5092914D01*
X59280953Y-5092914D02*
X59328572Y-4997676D01*
X59328572Y-4997676D02*
X59423810Y-4902438D01*
X59423810Y-4902438D02*
X59566667Y-4854819D01*
X59566667Y-4854819D02*
X59661905Y-4854819D01*
X59661905Y-4854819D02*
X59804762Y-4902438D01*
X59804762Y-4902438D02*
X59852381Y-4950057D01*
X60185715Y-4854819D02*
X60423810Y-5854819D01*
X60423810Y-5854819D02*
X60614286Y-5140533D01*
X60614286Y-5140533D02*
X60804762Y-5854819D01*
X60804762Y-5854819D02*
X61042858Y-4854819D01*
D11*
X12114285Y-3228377D02*
X12057142Y-3285520D01*
X12057142Y-3285520D02*
X11885714Y-3342662D01*
X11885714Y-3342662D02*
X11771428Y-3342662D01*
X11771428Y-3342662D02*
X11599999Y-3285520D01*
X11599999Y-3285520D02*
X11485714Y-3171234D01*
X11485714Y-3171234D02*
X11428571Y-3056948D01*
X11428571Y-3056948D02*
X11371428Y-2828377D01*
X11371428Y-2828377D02*
X11371428Y-2656948D01*
X11371428Y-2656948D02*
X11428571Y-2428377D01*
X11428571Y-2428377D02*
X11485714Y-2314091D01*
X11485714Y-2314091D02*
X11599999Y-2199805D01*
X11599999Y-2199805D02*
X11771428Y-2142662D01*
X11771428Y-2142662D02*
X11885714Y-2142662D01*
X11885714Y-2142662D02*
X12057142Y-2199805D01*
X12057142Y-2199805D02*
X12114285Y-2256948D01*
X12857142Y-2142662D02*
X13085714Y-2142662D01*
X13085714Y-2142662D02*
X13199999Y-2199805D01*
X13199999Y-2199805D02*
X13314285Y-2314091D01*
X13314285Y-2314091D02*
X13371428Y-2542662D01*
X13371428Y-2542662D02*
X13371428Y-2942662D01*
X13371428Y-2942662D02*
X13314285Y-3171234D01*
X13314285Y-3171234D02*
X13199999Y-3285520D01*
X13199999Y-3285520D02*
X13085714Y-3342662D01*
X13085714Y-3342662D02*
X12857142Y-3342662D01*
X12857142Y-3342662D02*
X12742857Y-3285520D01*
X12742857Y-3285520D02*
X12628571Y-3171234D01*
X12628571Y-3171234D02*
X12571428Y-2942662D01*
X12571428Y-2942662D02*
X12571428Y-2542662D01*
X12571428Y-2542662D02*
X12628571Y-2314091D01*
X12628571Y-2314091D02*
X12742857Y-2199805D01*
X12742857Y-2199805D02*
X12857142Y-2142662D01*
X13885714Y-3342662D02*
X13885714Y-2142662D01*
X13885714Y-2142662D02*
X14285714Y-2999805D01*
X14285714Y-2999805D02*
X14685714Y-2142662D01*
X14685714Y-2142662D02*
X14685714Y-3342662D01*
X15257143Y-3342662D02*
X15257143Y-2142662D01*
X15257143Y-2142662D02*
X15714286Y-2142662D01*
X15714286Y-2142662D02*
X15828571Y-2199805D01*
X15828571Y-2199805D02*
X15885714Y-2256948D01*
X15885714Y-2256948D02*
X15942857Y-2371234D01*
X15942857Y-2371234D02*
X15942857Y-2542662D01*
X15942857Y-2542662D02*
X15885714Y-2656948D01*
X15885714Y-2656948D02*
X15828571Y-2714091D01*
X15828571Y-2714091D02*
X15714286Y-2771234D01*
X15714286Y-2771234D02*
X15257143Y-2771234D01*
X16685714Y-2142662D02*
X16914286Y-2142662D01*
X16914286Y-2142662D02*
X17028571Y-2199805D01*
X17028571Y-2199805D02*
X17142857Y-2314091D01*
X17142857Y-2314091D02*
X17200000Y-2542662D01*
X17200000Y-2542662D02*
X17200000Y-2942662D01*
X17200000Y-2942662D02*
X17142857Y-3171234D01*
X17142857Y-3171234D02*
X17028571Y-3285520D01*
X17028571Y-3285520D02*
X16914286Y-3342662D01*
X16914286Y-3342662D02*
X16685714Y-3342662D01*
X16685714Y-3342662D02*
X16571429Y-3285520D01*
X16571429Y-3285520D02*
X16457143Y-3171234D01*
X16457143Y-3171234D02*
X16400000Y-2942662D01*
X16400000Y-2942662D02*
X16400000Y-2542662D01*
X16400000Y-2542662D02*
X16457143Y-2314091D01*
X16457143Y-2314091D02*
X16571429Y-2199805D01*
X16571429Y-2199805D02*
X16685714Y-2142662D01*
X17714286Y-3342662D02*
X17714286Y-2142662D01*
X17714286Y-2142662D02*
X18400000Y-3342662D01*
X18400000Y-3342662D02*
X18400000Y-2142662D01*
X18971429Y-2714091D02*
X19371429Y-2714091D01*
X19542857Y-3342662D02*
X18971429Y-3342662D01*
X18971429Y-3342662D02*
X18971429Y-2142662D01*
X18971429Y-2142662D02*
X19542857Y-2142662D01*
X20057143Y-3342662D02*
X20057143Y-2142662D01*
X20057143Y-2142662D02*
X20742857Y-3342662D01*
X20742857Y-3342662D02*
X20742857Y-2142662D01*
X21142857Y-2142662D02*
X21828572Y-2142662D01*
X21485714Y-3342662D02*
X21485714Y-2142662D01*
X23085715Y-3285520D02*
X23257144Y-3342662D01*
X23257144Y-3342662D02*
X23542858Y-3342662D01*
X23542858Y-3342662D02*
X23657144Y-3285520D01*
X23657144Y-3285520D02*
X23714286Y-3228377D01*
X23714286Y-3228377D02*
X23771429Y-3114091D01*
X23771429Y-3114091D02*
X23771429Y-2999805D01*
X23771429Y-2999805D02*
X23714286Y-2885520D01*
X23714286Y-2885520D02*
X23657144Y-2828377D01*
X23657144Y-2828377D02*
X23542858Y-2771234D01*
X23542858Y-2771234D02*
X23314286Y-2714091D01*
X23314286Y-2714091D02*
X23200001Y-2656948D01*
X23200001Y-2656948D02*
X23142858Y-2599805D01*
X23142858Y-2599805D02*
X23085715Y-2485520D01*
X23085715Y-2485520D02*
X23085715Y-2371234D01*
X23085715Y-2371234D02*
X23142858Y-2256948D01*
X23142858Y-2256948D02*
X23200001Y-2199805D01*
X23200001Y-2199805D02*
X23314286Y-2142662D01*
X23314286Y-2142662D02*
X23600001Y-2142662D01*
X23600001Y-2142662D02*
X23771429Y-2199805D01*
X24285715Y-3342662D02*
X24285715Y-2142662D01*
X24857144Y-3342662D02*
X24857144Y-2142662D01*
X24857144Y-2142662D02*
X25142858Y-2142662D01*
X25142858Y-2142662D02*
X25314287Y-2199805D01*
X25314287Y-2199805D02*
X25428572Y-2314091D01*
X25428572Y-2314091D02*
X25485715Y-2428377D01*
X25485715Y-2428377D02*
X25542858Y-2656948D01*
X25542858Y-2656948D02*
X25542858Y-2828377D01*
X25542858Y-2828377D02*
X25485715Y-3056948D01*
X25485715Y-3056948D02*
X25428572Y-3171234D01*
X25428572Y-3171234D02*
X25314287Y-3285520D01*
X25314287Y-3285520D02*
X25142858Y-3342662D01*
X25142858Y-3342662D02*
X24857144Y-3342662D01*
X26057144Y-2714091D02*
X26457144Y-2714091D01*
X26628572Y-3342662D02*
X26057144Y-3342662D01*
X26057144Y-3342662D02*
X26057144Y-2142662D01*
X26057144Y-2142662D02*
X26628572Y-2142662D01*
D10*
X19507618Y-62087294D02*
X19507618Y-62658722D01*
X19507618Y-62658722D02*
X19469523Y-62773008D01*
X19469523Y-62773008D02*
X19393332Y-62849199D01*
X19393332Y-62849199D02*
X19279047Y-62887294D01*
X19279047Y-62887294D02*
X19202856Y-62887294D01*
X20307618Y-62887294D02*
X19850475Y-62887294D01*
X20079047Y-62887294D02*
X20079047Y-62087294D01*
X20079047Y-62087294D02*
X20002856Y-62201579D01*
X20002856Y-62201579D02*
X19926666Y-62277770D01*
X19926666Y-62277770D02*
X19850475Y-62315865D01*
X53966667Y-21859854D02*
X53928571Y-21897950D01*
X53928571Y-21897950D02*
X53814286Y-21936045D01*
X53814286Y-21936045D02*
X53738095Y-21936045D01*
X53738095Y-21936045D02*
X53623809Y-21897950D01*
X53623809Y-21897950D02*
X53547619Y-21821759D01*
X53547619Y-21821759D02*
X53509524Y-21745569D01*
X53509524Y-21745569D02*
X53471428Y-21593188D01*
X53471428Y-21593188D02*
X53471428Y-21478902D01*
X53471428Y-21478902D02*
X53509524Y-21326521D01*
X53509524Y-21326521D02*
X53547619Y-21250330D01*
X53547619Y-21250330D02*
X53623809Y-21174140D01*
X53623809Y-21174140D02*
X53738095Y-21136045D01*
X53738095Y-21136045D02*
X53814286Y-21136045D01*
X53814286Y-21136045D02*
X53928571Y-21174140D01*
X53928571Y-21174140D02*
X53966667Y-21212235D01*
X54652381Y-21402711D02*
X54652381Y-21936045D01*
X54461905Y-21097950D02*
X54271428Y-21669378D01*
X54271428Y-21669378D02*
X54766667Y-21669378D01*
X33566667Y-10859854D02*
X33528571Y-10897950D01*
X33528571Y-10897950D02*
X33414286Y-10936045D01*
X33414286Y-10936045D02*
X33338095Y-10936045D01*
X33338095Y-10936045D02*
X33223809Y-10897950D01*
X33223809Y-10897950D02*
X33147619Y-10821759D01*
X33147619Y-10821759D02*
X33109524Y-10745569D01*
X33109524Y-10745569D02*
X33071428Y-10593188D01*
X33071428Y-10593188D02*
X33071428Y-10478902D01*
X33071428Y-10478902D02*
X33109524Y-10326521D01*
X33109524Y-10326521D02*
X33147619Y-10250330D01*
X33147619Y-10250330D02*
X33223809Y-10174140D01*
X33223809Y-10174140D02*
X33338095Y-10136045D01*
X33338095Y-10136045D02*
X33414286Y-10136045D01*
X33414286Y-10136045D02*
X33528571Y-10174140D01*
X33528571Y-10174140D02*
X33566667Y-10212235D01*
X33871428Y-10212235D02*
X33909524Y-10174140D01*
X33909524Y-10174140D02*
X33985714Y-10136045D01*
X33985714Y-10136045D02*
X34176190Y-10136045D01*
X34176190Y-10136045D02*
X34252381Y-10174140D01*
X34252381Y-10174140D02*
X34290476Y-10212235D01*
X34290476Y-10212235D02*
X34328571Y-10288426D01*
X34328571Y-10288426D02*
X34328571Y-10364616D01*
X34328571Y-10364616D02*
X34290476Y-10478902D01*
X34290476Y-10478902D02*
X33833333Y-10936045D01*
X33833333Y-10936045D02*
X34328571Y-10936045D01*
X39385714Y-2886045D02*
X39119047Y-2505092D01*
X38928571Y-2886045D02*
X38928571Y-2086045D01*
X38928571Y-2086045D02*
X39233333Y-2086045D01*
X39233333Y-2086045D02*
X39309523Y-2124140D01*
X39309523Y-2124140D02*
X39347618Y-2162235D01*
X39347618Y-2162235D02*
X39385714Y-2238426D01*
X39385714Y-2238426D02*
X39385714Y-2352711D01*
X39385714Y-2352711D02*
X39347618Y-2428902D01*
X39347618Y-2428902D02*
X39309523Y-2466997D01*
X39309523Y-2466997D02*
X39233333Y-2505092D01*
X39233333Y-2505092D02*
X38928571Y-2505092D01*
X40147618Y-2886045D02*
X39690475Y-2886045D01*
X39919047Y-2886045D02*
X39919047Y-2086045D01*
X39919047Y-2086045D02*
X39842856Y-2200330D01*
X39842856Y-2200330D02*
X39766666Y-2276521D01*
X39766666Y-2276521D02*
X39690475Y-2314616D01*
X40909523Y-2886045D02*
X40452380Y-2886045D01*
X40680952Y-2886045D02*
X40680952Y-2086045D01*
X40680952Y-2086045D02*
X40604761Y-2200330D01*
X40604761Y-2200330D02*
X40528571Y-2276521D01*
X40528571Y-2276521D02*
X40452380Y-2314616D01*
X5690476Y-31986045D02*
X5690476Y-32633664D01*
X5690476Y-32633664D02*
X5728571Y-32709854D01*
X5728571Y-32709854D02*
X5766666Y-32747950D01*
X5766666Y-32747950D02*
X5842857Y-32786045D01*
X5842857Y-32786045D02*
X5995238Y-32786045D01*
X5995238Y-32786045D02*
X6071428Y-32747950D01*
X6071428Y-32747950D02*
X6109523Y-32709854D01*
X6109523Y-32709854D02*
X6147619Y-32633664D01*
X6147619Y-32633664D02*
X6147619Y-31986045D01*
X6871428Y-32252711D02*
X6871428Y-32786045D01*
X6680952Y-31947950D02*
X6490475Y-32519378D01*
X6490475Y-32519378D02*
X6985714Y-32519378D01*
X37285714Y-8712354D02*
X37247618Y-8750450D01*
X37247618Y-8750450D02*
X37133333Y-8788545D01*
X37133333Y-8788545D02*
X37057142Y-8788545D01*
X37057142Y-8788545D02*
X36942856Y-8750450D01*
X36942856Y-8750450D02*
X36866666Y-8674259D01*
X36866666Y-8674259D02*
X36828571Y-8598069D01*
X36828571Y-8598069D02*
X36790475Y-8445688D01*
X36790475Y-8445688D02*
X36790475Y-8331402D01*
X36790475Y-8331402D02*
X36828571Y-8179021D01*
X36828571Y-8179021D02*
X36866666Y-8102830D01*
X36866666Y-8102830D02*
X36942856Y-8026640D01*
X36942856Y-8026640D02*
X37057142Y-7988545D01*
X37057142Y-7988545D02*
X37133333Y-7988545D01*
X37133333Y-7988545D02*
X37247618Y-8026640D01*
X37247618Y-8026640D02*
X37285714Y-8064735D01*
X38047618Y-8788545D02*
X37590475Y-8788545D01*
X37819047Y-8788545D02*
X37819047Y-7988545D01*
X37819047Y-7988545D02*
X37742856Y-8102830D01*
X37742856Y-8102830D02*
X37666666Y-8179021D01*
X37666666Y-8179021D02*
X37590475Y-8217116D01*
X38352380Y-8064735D02*
X38390476Y-8026640D01*
X38390476Y-8026640D02*
X38466666Y-7988545D01*
X38466666Y-7988545D02*
X38657142Y-7988545D01*
X38657142Y-7988545D02*
X38733333Y-8026640D01*
X38733333Y-8026640D02*
X38771428Y-8064735D01*
X38771428Y-8064735D02*
X38809523Y-8140926D01*
X38809523Y-8140926D02*
X38809523Y-8217116D01*
X38809523Y-8217116D02*
X38771428Y-8331402D01*
X38771428Y-8331402D02*
X38314285Y-8788545D01*
X38314285Y-8788545D02*
X38809523Y-8788545D01*
X55885714Y-36192354D02*
X55847618Y-36230450D01*
X55847618Y-36230450D02*
X55733333Y-36268545D01*
X55733333Y-36268545D02*
X55657142Y-36268545D01*
X55657142Y-36268545D02*
X55542856Y-36230450D01*
X55542856Y-36230450D02*
X55466666Y-36154259D01*
X55466666Y-36154259D02*
X55428571Y-36078069D01*
X55428571Y-36078069D02*
X55390475Y-35925688D01*
X55390475Y-35925688D02*
X55390475Y-35811402D01*
X55390475Y-35811402D02*
X55428571Y-35659021D01*
X55428571Y-35659021D02*
X55466666Y-35582830D01*
X55466666Y-35582830D02*
X55542856Y-35506640D01*
X55542856Y-35506640D02*
X55657142Y-35468545D01*
X55657142Y-35468545D02*
X55733333Y-35468545D01*
X55733333Y-35468545D02*
X55847618Y-35506640D01*
X55847618Y-35506640D02*
X55885714Y-35544735D01*
X56647618Y-36268545D02*
X56190475Y-36268545D01*
X56419047Y-36268545D02*
X56419047Y-35468545D01*
X56419047Y-35468545D02*
X56342856Y-35582830D01*
X56342856Y-35582830D02*
X56266666Y-35659021D01*
X56266666Y-35659021D02*
X56190475Y-35697116D01*
X57333333Y-35735211D02*
X57333333Y-36268545D01*
X57142857Y-35430450D02*
X56952380Y-36001878D01*
X56952380Y-36001878D02*
X57447619Y-36001878D01*
X4408333Y-26258545D02*
X4408333Y-26829973D01*
X4408333Y-26829973D02*
X4370238Y-26944259D01*
X4370238Y-26944259D02*
X4294047Y-27020450D01*
X4294047Y-27020450D02*
X4179762Y-27058545D01*
X4179762Y-27058545D02*
X4103571Y-27058545D01*
X4751190Y-26334735D02*
X4789286Y-26296640D01*
X4789286Y-26296640D02*
X4865476Y-26258545D01*
X4865476Y-26258545D02*
X5055952Y-26258545D01*
X5055952Y-26258545D02*
X5132143Y-26296640D01*
X5132143Y-26296640D02*
X5170238Y-26334735D01*
X5170238Y-26334735D02*
X5208333Y-26410926D01*
X5208333Y-26410926D02*
X5208333Y-26487116D01*
X5208333Y-26487116D02*
X5170238Y-26601402D01*
X5170238Y-26601402D02*
X4713095Y-27058545D01*
X4713095Y-27058545D02*
X5208333Y-27058545D01*
X34390476Y-13936045D02*
X34390476Y-14583664D01*
X34390476Y-14583664D02*
X34428571Y-14659854D01*
X34428571Y-14659854D02*
X34466666Y-14697950D01*
X34466666Y-14697950D02*
X34542857Y-14736045D01*
X34542857Y-14736045D02*
X34695238Y-14736045D01*
X34695238Y-14736045D02*
X34771428Y-14697950D01*
X34771428Y-14697950D02*
X34809523Y-14659854D01*
X34809523Y-14659854D02*
X34847619Y-14583664D01*
X34847619Y-14583664D02*
X34847619Y-13936045D01*
X35647618Y-14736045D02*
X35190475Y-14736045D01*
X35419047Y-14736045D02*
X35419047Y-13936045D01*
X35419047Y-13936045D02*
X35342856Y-14050330D01*
X35342856Y-14050330D02*
X35266666Y-14126521D01*
X35266666Y-14126521D02*
X35190475Y-14164616D01*
X51600476Y-28562295D02*
X51600476Y-29209914D01*
X51600476Y-29209914D02*
X51638571Y-29286104D01*
X51638571Y-29286104D02*
X51676666Y-29324200D01*
X51676666Y-29324200D02*
X51752857Y-29362295D01*
X51752857Y-29362295D02*
X51905238Y-29362295D01*
X51905238Y-29362295D02*
X51981428Y-29324200D01*
X51981428Y-29324200D02*
X52019523Y-29286104D01*
X52019523Y-29286104D02*
X52057619Y-29209914D01*
X52057619Y-29209914D02*
X52057619Y-28562295D01*
X52819523Y-28562295D02*
X52438571Y-28562295D01*
X52438571Y-28562295D02*
X52400475Y-28943247D01*
X52400475Y-28943247D02*
X52438571Y-28905152D01*
X52438571Y-28905152D02*
X52514761Y-28867057D01*
X52514761Y-28867057D02*
X52705237Y-28867057D01*
X52705237Y-28867057D02*
X52781428Y-28905152D01*
X52781428Y-28905152D02*
X52819523Y-28943247D01*
X52819523Y-28943247D02*
X52857618Y-29019438D01*
X52857618Y-29019438D02*
X52857618Y-29209914D01*
X52857618Y-29209914D02*
X52819523Y-29286104D01*
X52819523Y-29286104D02*
X52781428Y-29324200D01*
X52781428Y-29324200D02*
X52705237Y-29362295D01*
X52705237Y-29362295D02*
X52514761Y-29362295D01*
X52514761Y-29362295D02*
X52438571Y-29324200D01*
X52438571Y-29324200D02*
X52400475Y-29286104D01*
X52885714Y-19368543D02*
X52619047Y-18987590D01*
X52428571Y-19368543D02*
X52428571Y-18568543D01*
X52428571Y-18568543D02*
X52733333Y-18568543D01*
X52733333Y-18568543D02*
X52809523Y-18606638D01*
X52809523Y-18606638D02*
X52847618Y-18644733D01*
X52847618Y-18644733D02*
X52885714Y-18720924D01*
X52885714Y-18720924D02*
X52885714Y-18835209D01*
X52885714Y-18835209D02*
X52847618Y-18911400D01*
X52847618Y-18911400D02*
X52809523Y-18949495D01*
X52809523Y-18949495D02*
X52733333Y-18987590D01*
X52733333Y-18987590D02*
X52428571Y-18987590D01*
X53647618Y-19368543D02*
X53190475Y-19368543D01*
X53419047Y-19368543D02*
X53419047Y-18568543D01*
X53419047Y-18568543D02*
X53342856Y-18682828D01*
X53342856Y-18682828D02*
X53266666Y-18759019D01*
X53266666Y-18759019D02*
X53190475Y-18797114D01*
X54028571Y-19368543D02*
X54180952Y-19368543D01*
X54180952Y-19368543D02*
X54257142Y-19330448D01*
X54257142Y-19330448D02*
X54295238Y-19292352D01*
X54295238Y-19292352D02*
X54371428Y-19178067D01*
X54371428Y-19178067D02*
X54409523Y-19025686D01*
X54409523Y-19025686D02*
X54409523Y-18720924D01*
X54409523Y-18720924D02*
X54371428Y-18644733D01*
X54371428Y-18644733D02*
X54333333Y-18606638D01*
X54333333Y-18606638D02*
X54257142Y-18568543D01*
X54257142Y-18568543D02*
X54104761Y-18568543D01*
X54104761Y-18568543D02*
X54028571Y-18606638D01*
X54028571Y-18606638D02*
X53990476Y-18644733D01*
X53990476Y-18644733D02*
X53952380Y-18720924D01*
X53952380Y-18720924D02*
X53952380Y-18911400D01*
X53952380Y-18911400D02*
X53990476Y-18987590D01*
X53990476Y-18987590D02*
X54028571Y-19025686D01*
X54028571Y-19025686D02*
X54104761Y-19063781D01*
X54104761Y-19063781D02*
X54257142Y-19063781D01*
X54257142Y-19063781D02*
X54333333Y-19025686D01*
X54333333Y-19025686D02*
X54371428Y-18987590D01*
X54371428Y-18987590D02*
X54409523Y-18911400D01*
X10203809Y-39986104D02*
X10165713Y-40024200D01*
X10165713Y-40024200D02*
X10051428Y-40062295D01*
X10051428Y-40062295D02*
X9975237Y-40062295D01*
X9975237Y-40062295D02*
X9860951Y-40024200D01*
X9860951Y-40024200D02*
X9784761Y-39948009D01*
X9784761Y-39948009D02*
X9746666Y-39871819D01*
X9746666Y-39871819D02*
X9708570Y-39719438D01*
X9708570Y-39719438D02*
X9708570Y-39605152D01*
X9708570Y-39605152D02*
X9746666Y-39452771D01*
X9746666Y-39452771D02*
X9784761Y-39376580D01*
X9784761Y-39376580D02*
X9860951Y-39300390D01*
X9860951Y-39300390D02*
X9975237Y-39262295D01*
X9975237Y-39262295D02*
X10051428Y-39262295D01*
X10051428Y-39262295D02*
X10165713Y-39300390D01*
X10165713Y-39300390D02*
X10203809Y-39338485D01*
X10965713Y-40062295D02*
X10508570Y-40062295D01*
X10737142Y-40062295D02*
X10737142Y-39262295D01*
X10737142Y-39262295D02*
X10660951Y-39376580D01*
X10660951Y-39376580D02*
X10584761Y-39452771D01*
X10584761Y-39452771D02*
X10508570Y-39490866D01*
X11651428Y-39262295D02*
X11499047Y-39262295D01*
X11499047Y-39262295D02*
X11422856Y-39300390D01*
X11422856Y-39300390D02*
X11384761Y-39338485D01*
X11384761Y-39338485D02*
X11308571Y-39452771D01*
X11308571Y-39452771D02*
X11270475Y-39605152D01*
X11270475Y-39605152D02*
X11270475Y-39909914D01*
X11270475Y-39909914D02*
X11308571Y-39986104D01*
X11308571Y-39986104D02*
X11346666Y-40024200D01*
X11346666Y-40024200D02*
X11422856Y-40062295D01*
X11422856Y-40062295D02*
X11575237Y-40062295D01*
X11575237Y-40062295D02*
X11651428Y-40024200D01*
X11651428Y-40024200D02*
X11689523Y-39986104D01*
X11689523Y-39986104D02*
X11727618Y-39909914D01*
X11727618Y-39909914D02*
X11727618Y-39719438D01*
X11727618Y-39719438D02*
X11689523Y-39643247D01*
X11689523Y-39643247D02*
X11651428Y-39605152D01*
X11651428Y-39605152D02*
X11575237Y-39567057D01*
X11575237Y-39567057D02*
X11422856Y-39567057D01*
X11422856Y-39567057D02*
X11346666Y-39605152D01*
X11346666Y-39605152D02*
X11308571Y-39643247D01*
X11308571Y-39643247D02*
X11270475Y-39719438D01*
X32467619Y-29862295D02*
X32200952Y-29481342D01*
X32010476Y-29862295D02*
X32010476Y-29062295D01*
X32010476Y-29062295D02*
X32315238Y-29062295D01*
X32315238Y-29062295D02*
X32391428Y-29100390D01*
X32391428Y-29100390D02*
X32429523Y-29138485D01*
X32429523Y-29138485D02*
X32467619Y-29214676D01*
X32467619Y-29214676D02*
X32467619Y-29328961D01*
X32467619Y-29328961D02*
X32429523Y-29405152D01*
X32429523Y-29405152D02*
X32391428Y-29443247D01*
X32391428Y-29443247D02*
X32315238Y-29481342D01*
X32315238Y-29481342D02*
X32010476Y-29481342D01*
X33229523Y-29862295D02*
X32772380Y-29862295D01*
X33000952Y-29862295D02*
X33000952Y-29062295D01*
X33000952Y-29062295D02*
X32924761Y-29176580D01*
X32924761Y-29176580D02*
X32848571Y-29252771D01*
X32848571Y-29252771D02*
X32772380Y-29290866D01*
X18390476Y-33936045D02*
X18390476Y-34583664D01*
X18390476Y-34583664D02*
X18428571Y-34659854D01*
X18428571Y-34659854D02*
X18466666Y-34697950D01*
X18466666Y-34697950D02*
X18542857Y-34736045D01*
X18542857Y-34736045D02*
X18695238Y-34736045D01*
X18695238Y-34736045D02*
X18771428Y-34697950D01*
X18771428Y-34697950D02*
X18809523Y-34659854D01*
X18809523Y-34659854D02*
X18847619Y-34583664D01*
X18847619Y-34583664D02*
X18847619Y-33936045D01*
X19152380Y-33936045D02*
X19647618Y-33936045D01*
X19647618Y-33936045D02*
X19380952Y-34240807D01*
X19380952Y-34240807D02*
X19495237Y-34240807D01*
X19495237Y-34240807D02*
X19571428Y-34278902D01*
X19571428Y-34278902D02*
X19609523Y-34316997D01*
X19609523Y-34316997D02*
X19647618Y-34393188D01*
X19647618Y-34393188D02*
X19647618Y-34583664D01*
X19647618Y-34583664D02*
X19609523Y-34659854D01*
X19609523Y-34659854D02*
X19571428Y-34697950D01*
X19571428Y-34697950D02*
X19495237Y-34736045D01*
X19495237Y-34736045D02*
X19266666Y-34736045D01*
X19266666Y-34736045D02*
X19190475Y-34697950D01*
X19190475Y-34697950D02*
X19152380Y-34659854D01*
X4835714Y-37036104D02*
X4797618Y-37074200D01*
X4797618Y-37074200D02*
X4683333Y-37112295D01*
X4683333Y-37112295D02*
X4607142Y-37112295D01*
X4607142Y-37112295D02*
X4492856Y-37074200D01*
X4492856Y-37074200D02*
X4416666Y-36998009D01*
X4416666Y-36998009D02*
X4378571Y-36921819D01*
X4378571Y-36921819D02*
X4340475Y-36769438D01*
X4340475Y-36769438D02*
X4340475Y-36655152D01*
X4340475Y-36655152D02*
X4378571Y-36502771D01*
X4378571Y-36502771D02*
X4416666Y-36426580D01*
X4416666Y-36426580D02*
X4492856Y-36350390D01*
X4492856Y-36350390D02*
X4607142Y-36312295D01*
X4607142Y-36312295D02*
X4683333Y-36312295D01*
X4683333Y-36312295D02*
X4797618Y-36350390D01*
X4797618Y-36350390D02*
X4835714Y-36388485D01*
X5597618Y-37112295D02*
X5140475Y-37112295D01*
X5369047Y-37112295D02*
X5369047Y-36312295D01*
X5369047Y-36312295D02*
X5292856Y-36426580D01*
X5292856Y-36426580D02*
X5216666Y-36502771D01*
X5216666Y-36502771D02*
X5140475Y-36540866D01*
X6054761Y-36655152D02*
X5978571Y-36617057D01*
X5978571Y-36617057D02*
X5940476Y-36578961D01*
X5940476Y-36578961D02*
X5902380Y-36502771D01*
X5902380Y-36502771D02*
X5902380Y-36464676D01*
X5902380Y-36464676D02*
X5940476Y-36388485D01*
X5940476Y-36388485D02*
X5978571Y-36350390D01*
X5978571Y-36350390D02*
X6054761Y-36312295D01*
X6054761Y-36312295D02*
X6207142Y-36312295D01*
X6207142Y-36312295D02*
X6283333Y-36350390D01*
X6283333Y-36350390D02*
X6321428Y-36388485D01*
X6321428Y-36388485D02*
X6359523Y-36464676D01*
X6359523Y-36464676D02*
X6359523Y-36502771D01*
X6359523Y-36502771D02*
X6321428Y-36578961D01*
X6321428Y-36578961D02*
X6283333Y-36617057D01*
X6283333Y-36617057D02*
X6207142Y-36655152D01*
X6207142Y-36655152D02*
X6054761Y-36655152D01*
X6054761Y-36655152D02*
X5978571Y-36693247D01*
X5978571Y-36693247D02*
X5940476Y-36731342D01*
X5940476Y-36731342D02*
X5902380Y-36807533D01*
X5902380Y-36807533D02*
X5902380Y-36959914D01*
X5902380Y-36959914D02*
X5940476Y-37036104D01*
X5940476Y-37036104D02*
X5978571Y-37074200D01*
X5978571Y-37074200D02*
X6054761Y-37112295D01*
X6054761Y-37112295D02*
X6207142Y-37112295D01*
X6207142Y-37112295D02*
X6283333Y-37074200D01*
X6283333Y-37074200D02*
X6321428Y-37036104D01*
X6321428Y-37036104D02*
X6359523Y-36959914D01*
X6359523Y-36959914D02*
X6359523Y-36807533D01*
X6359523Y-36807533D02*
X6321428Y-36731342D01*
X6321428Y-36731342D02*
X6283333Y-36693247D01*
X6283333Y-36693247D02*
X6207142Y-36655152D01*
X33405714Y-25786104D02*
X33367618Y-25824200D01*
X33367618Y-25824200D02*
X33253333Y-25862295D01*
X33253333Y-25862295D02*
X33177142Y-25862295D01*
X33177142Y-25862295D02*
X33062856Y-25824200D01*
X33062856Y-25824200D02*
X32986666Y-25748009D01*
X32986666Y-25748009D02*
X32948571Y-25671819D01*
X32948571Y-25671819D02*
X32910475Y-25519438D01*
X32910475Y-25519438D02*
X32910475Y-25405152D01*
X32910475Y-25405152D02*
X32948571Y-25252771D01*
X32948571Y-25252771D02*
X32986666Y-25176580D01*
X32986666Y-25176580D02*
X33062856Y-25100390D01*
X33062856Y-25100390D02*
X33177142Y-25062295D01*
X33177142Y-25062295D02*
X33253333Y-25062295D01*
X33253333Y-25062295D02*
X33367618Y-25100390D01*
X33367618Y-25100390D02*
X33405714Y-25138485D01*
X34167618Y-25862295D02*
X33710475Y-25862295D01*
X33939047Y-25862295D02*
X33939047Y-25062295D01*
X33939047Y-25062295D02*
X33862856Y-25176580D01*
X33862856Y-25176580D02*
X33786666Y-25252771D01*
X33786666Y-25252771D02*
X33710475Y-25290866D01*
X9823808Y-32782235D02*
X9747618Y-32744140D01*
X9747618Y-32744140D02*
X9671427Y-32667950D01*
X9671427Y-32667950D02*
X9557141Y-32553664D01*
X9557141Y-32553664D02*
X9480951Y-32515569D01*
X9480951Y-32515569D02*
X9404760Y-32515569D01*
X9442856Y-32706045D02*
X9366665Y-32667950D01*
X9366665Y-32667950D02*
X9290475Y-32591759D01*
X9290475Y-32591759D02*
X9252379Y-32439378D01*
X9252379Y-32439378D02*
X9252379Y-32172711D01*
X9252379Y-32172711D02*
X9290475Y-32020330D01*
X9290475Y-32020330D02*
X9366665Y-31944140D01*
X9366665Y-31944140D02*
X9442856Y-31906045D01*
X9442856Y-31906045D02*
X9595237Y-31906045D01*
X9595237Y-31906045D02*
X9671427Y-31944140D01*
X9671427Y-31944140D02*
X9747618Y-32020330D01*
X9747618Y-32020330D02*
X9785713Y-32172711D01*
X9785713Y-32172711D02*
X9785713Y-32439378D01*
X9785713Y-32439378D02*
X9747618Y-32591759D01*
X9747618Y-32591759D02*
X9671427Y-32667950D01*
X9671427Y-32667950D02*
X9595237Y-32706045D01*
X9595237Y-32706045D02*
X9442856Y-32706045D01*
X10547617Y-32706045D02*
X10090474Y-32706045D01*
X10319046Y-32706045D02*
X10319046Y-31906045D01*
X10319046Y-31906045D02*
X10242855Y-32020330D01*
X10242855Y-32020330D02*
X10166665Y-32096521D01*
X10166665Y-32096521D02*
X10090474Y-32134616D01*
X38666667Y-27768544D02*
X38400000Y-27387591D01*
X38209524Y-27768544D02*
X38209524Y-26968544D01*
X38209524Y-26968544D02*
X38514286Y-26968544D01*
X38514286Y-26968544D02*
X38590476Y-27006639D01*
X38590476Y-27006639D02*
X38628571Y-27044734D01*
X38628571Y-27044734D02*
X38666667Y-27120925D01*
X38666667Y-27120925D02*
X38666667Y-27235210D01*
X38666667Y-27235210D02*
X38628571Y-27311401D01*
X38628571Y-27311401D02*
X38590476Y-27349496D01*
X38590476Y-27349496D02*
X38514286Y-27387591D01*
X38514286Y-27387591D02*
X38209524Y-27387591D01*
X38971428Y-27044734D02*
X39009524Y-27006639D01*
X39009524Y-27006639D02*
X39085714Y-26968544D01*
X39085714Y-26968544D02*
X39276190Y-26968544D01*
X39276190Y-26968544D02*
X39352381Y-27006639D01*
X39352381Y-27006639D02*
X39390476Y-27044734D01*
X39390476Y-27044734D02*
X39428571Y-27120925D01*
X39428571Y-27120925D02*
X39428571Y-27197115D01*
X39428571Y-27197115D02*
X39390476Y-27311401D01*
X39390476Y-27311401D02*
X38933333Y-27768544D01*
X38933333Y-27768544D02*
X39428571Y-27768544D01*
X23885714Y-36356045D02*
X23619047Y-35975092D01*
X23428571Y-36356045D02*
X23428571Y-35556045D01*
X23428571Y-35556045D02*
X23733333Y-35556045D01*
X23733333Y-35556045D02*
X23809523Y-35594140D01*
X23809523Y-35594140D02*
X23847618Y-35632235D01*
X23847618Y-35632235D02*
X23885714Y-35708426D01*
X23885714Y-35708426D02*
X23885714Y-35822711D01*
X23885714Y-35822711D02*
X23847618Y-35898902D01*
X23847618Y-35898902D02*
X23809523Y-35936997D01*
X23809523Y-35936997D02*
X23733333Y-35975092D01*
X23733333Y-35975092D02*
X23428571Y-35975092D01*
X24647618Y-36356045D02*
X24190475Y-36356045D01*
X24419047Y-36356045D02*
X24419047Y-35556045D01*
X24419047Y-35556045D02*
X24342856Y-35670330D01*
X24342856Y-35670330D02*
X24266666Y-35746521D01*
X24266666Y-35746521D02*
X24190475Y-35784616D01*
X25333333Y-35822711D02*
X25333333Y-36356045D01*
X25142857Y-35517950D02*
X24952380Y-36089378D01*
X24952380Y-36089378D02*
X25447619Y-36089378D01*
X40885714Y-9638545D02*
X40619047Y-9257592D01*
X40428571Y-9638545D02*
X40428571Y-8838545D01*
X40428571Y-8838545D02*
X40733333Y-8838545D01*
X40733333Y-8838545D02*
X40809523Y-8876640D01*
X40809523Y-8876640D02*
X40847618Y-8914735D01*
X40847618Y-8914735D02*
X40885714Y-8990926D01*
X40885714Y-8990926D02*
X40885714Y-9105211D01*
X40885714Y-9105211D02*
X40847618Y-9181402D01*
X40847618Y-9181402D02*
X40809523Y-9219497D01*
X40809523Y-9219497D02*
X40733333Y-9257592D01*
X40733333Y-9257592D02*
X40428571Y-9257592D01*
X41647618Y-9638545D02*
X41190475Y-9638545D01*
X41419047Y-9638545D02*
X41419047Y-8838545D01*
X41419047Y-8838545D02*
X41342856Y-8952830D01*
X41342856Y-8952830D02*
X41266666Y-9029021D01*
X41266666Y-9029021D02*
X41190475Y-9067116D01*
X42142857Y-8838545D02*
X42219047Y-8838545D01*
X42219047Y-8838545D02*
X42295238Y-8876640D01*
X42295238Y-8876640D02*
X42333333Y-8914735D01*
X42333333Y-8914735D02*
X42371428Y-8990926D01*
X42371428Y-8990926D02*
X42409523Y-9143307D01*
X42409523Y-9143307D02*
X42409523Y-9333783D01*
X42409523Y-9333783D02*
X42371428Y-9486164D01*
X42371428Y-9486164D02*
X42333333Y-9562354D01*
X42333333Y-9562354D02*
X42295238Y-9600450D01*
X42295238Y-9600450D02*
X42219047Y-9638545D01*
X42219047Y-9638545D02*
X42142857Y-9638545D01*
X42142857Y-9638545D02*
X42066666Y-9600450D01*
X42066666Y-9600450D02*
X42028571Y-9562354D01*
X42028571Y-9562354D02*
X41990476Y-9486164D01*
X41990476Y-9486164D02*
X41952380Y-9333783D01*
X41952380Y-9333783D02*
X41952380Y-9143307D01*
X41952380Y-9143307D02*
X41990476Y-8990926D01*
X41990476Y-8990926D02*
X42028571Y-8914735D01*
X42028571Y-8914735D02*
X42066666Y-8876640D01*
X42066666Y-8876640D02*
X42142857Y-8838545D01*
X40866667Y-46838545D02*
X40600000Y-46457592D01*
X40409524Y-46838545D02*
X40409524Y-46038545D01*
X40409524Y-46038545D02*
X40714286Y-46038545D01*
X40714286Y-46038545D02*
X40790476Y-46076640D01*
X40790476Y-46076640D02*
X40828571Y-46114735D01*
X40828571Y-46114735D02*
X40866667Y-46190926D01*
X40866667Y-46190926D02*
X40866667Y-46305211D01*
X40866667Y-46305211D02*
X40828571Y-46381402D01*
X40828571Y-46381402D02*
X40790476Y-46419497D01*
X40790476Y-46419497D02*
X40714286Y-46457592D01*
X40714286Y-46457592D02*
X40409524Y-46457592D01*
X41247619Y-46838545D02*
X41400000Y-46838545D01*
X41400000Y-46838545D02*
X41476190Y-46800450D01*
X41476190Y-46800450D02*
X41514286Y-46762354D01*
X41514286Y-46762354D02*
X41590476Y-46648069D01*
X41590476Y-46648069D02*
X41628571Y-46495688D01*
X41628571Y-46495688D02*
X41628571Y-46190926D01*
X41628571Y-46190926D02*
X41590476Y-46114735D01*
X41590476Y-46114735D02*
X41552381Y-46076640D01*
X41552381Y-46076640D02*
X41476190Y-46038545D01*
X41476190Y-46038545D02*
X41323809Y-46038545D01*
X41323809Y-46038545D02*
X41247619Y-46076640D01*
X41247619Y-46076640D02*
X41209524Y-46114735D01*
X41209524Y-46114735D02*
X41171428Y-46190926D01*
X41171428Y-46190926D02*
X41171428Y-46381402D01*
X41171428Y-46381402D02*
X41209524Y-46457592D01*
X41209524Y-46457592D02*
X41247619Y-46495688D01*
X41247619Y-46495688D02*
X41323809Y-46533783D01*
X41323809Y-46533783D02*
X41476190Y-46533783D01*
X41476190Y-46533783D02*
X41552381Y-46495688D01*
X41552381Y-46495688D02*
X41590476Y-46457592D01*
X41590476Y-46457592D02*
X41628571Y-46381402D01*
X47983810Y-2176045D02*
X47717143Y-1795092D01*
X47526667Y-2176045D02*
X47526667Y-1376045D01*
X47526667Y-1376045D02*
X47831429Y-1376045D01*
X47831429Y-1376045D02*
X47907619Y-1414140D01*
X47907619Y-1414140D02*
X47945714Y-1452235D01*
X47945714Y-1452235D02*
X47983810Y-1528426D01*
X47983810Y-1528426D02*
X47983810Y-1642711D01*
X47983810Y-1642711D02*
X47945714Y-1718902D01*
X47945714Y-1718902D02*
X47907619Y-1756997D01*
X47907619Y-1756997D02*
X47831429Y-1795092D01*
X47831429Y-1795092D02*
X47526667Y-1795092D01*
X48212381Y-1376045D02*
X48479048Y-2176045D01*
X48479048Y-2176045D02*
X48745714Y-1376045D01*
X49431428Y-2176045D02*
X48974285Y-2176045D01*
X49202857Y-2176045D02*
X49202857Y-1376045D01*
X49202857Y-1376045D02*
X49126666Y-1490330D01*
X49126666Y-1490330D02*
X49050476Y-1566521D01*
X49050476Y-1566521D02*
X48974285Y-1604616D01*
X12909524Y-33406044D02*
X12909524Y-32606044D01*
X12909524Y-32606044D02*
X13100000Y-32606044D01*
X13100000Y-32606044D02*
X13214286Y-32644139D01*
X13214286Y-32644139D02*
X13290476Y-32720329D01*
X13290476Y-32720329D02*
X13328571Y-32796520D01*
X13328571Y-32796520D02*
X13366667Y-32948901D01*
X13366667Y-32948901D02*
X13366667Y-33063187D01*
X13366667Y-33063187D02*
X13328571Y-33215568D01*
X13328571Y-33215568D02*
X13290476Y-33291758D01*
X13290476Y-33291758D02*
X13214286Y-33367949D01*
X13214286Y-33367949D02*
X13100000Y-33406044D01*
X13100000Y-33406044D02*
X12909524Y-33406044D01*
X13671428Y-32682234D02*
X13709524Y-32644139D01*
X13709524Y-32644139D02*
X13785714Y-32606044D01*
X13785714Y-32606044D02*
X13976190Y-32606044D01*
X13976190Y-32606044D02*
X14052381Y-32644139D01*
X14052381Y-32644139D02*
X14090476Y-32682234D01*
X14090476Y-32682234D02*
X14128571Y-32758425D01*
X14128571Y-32758425D02*
X14128571Y-32834615D01*
X14128571Y-32834615D02*
X14090476Y-32948901D01*
X14090476Y-32948901D02*
X13633333Y-33406044D01*
X13633333Y-33406044D02*
X14128571Y-33406044D01*
X43466667Y-17512353D02*
X43428571Y-17550449D01*
X43428571Y-17550449D02*
X43314286Y-17588544D01*
X43314286Y-17588544D02*
X43238095Y-17588544D01*
X43238095Y-17588544D02*
X43123809Y-17550449D01*
X43123809Y-17550449D02*
X43047619Y-17474258D01*
X43047619Y-17474258D02*
X43009524Y-17398068D01*
X43009524Y-17398068D02*
X42971428Y-17245687D01*
X42971428Y-17245687D02*
X42971428Y-17131401D01*
X42971428Y-17131401D02*
X43009524Y-16979020D01*
X43009524Y-16979020D02*
X43047619Y-16902829D01*
X43047619Y-16902829D02*
X43123809Y-16826639D01*
X43123809Y-16826639D02*
X43238095Y-16788544D01*
X43238095Y-16788544D02*
X43314286Y-16788544D01*
X43314286Y-16788544D02*
X43428571Y-16826639D01*
X43428571Y-16826639D02*
X43466667Y-16864734D01*
X43847619Y-17588544D02*
X44000000Y-17588544D01*
X44000000Y-17588544D02*
X44076190Y-17550449D01*
X44076190Y-17550449D02*
X44114286Y-17512353D01*
X44114286Y-17512353D02*
X44190476Y-17398068D01*
X44190476Y-17398068D02*
X44228571Y-17245687D01*
X44228571Y-17245687D02*
X44228571Y-16940925D01*
X44228571Y-16940925D02*
X44190476Y-16864734D01*
X44190476Y-16864734D02*
X44152381Y-16826639D01*
X44152381Y-16826639D02*
X44076190Y-16788544D01*
X44076190Y-16788544D02*
X43923809Y-16788544D01*
X43923809Y-16788544D02*
X43847619Y-16826639D01*
X43847619Y-16826639D02*
X43809524Y-16864734D01*
X43809524Y-16864734D02*
X43771428Y-16940925D01*
X43771428Y-16940925D02*
X43771428Y-17131401D01*
X43771428Y-17131401D02*
X43809524Y-17207591D01*
X43809524Y-17207591D02*
X43847619Y-17245687D01*
X43847619Y-17245687D02*
X43923809Y-17283782D01*
X43923809Y-17283782D02*
X44076190Y-17283782D01*
X44076190Y-17283782D02*
X44152381Y-17245687D01*
X44152381Y-17245687D02*
X44190476Y-17207591D01*
X44190476Y-17207591D02*
X44228571Y-17131401D01*
X15685714Y-31386045D02*
X15419047Y-31005092D01*
X15228571Y-31386045D02*
X15228571Y-30586045D01*
X15228571Y-30586045D02*
X15533333Y-30586045D01*
X15533333Y-30586045D02*
X15609523Y-30624140D01*
X15609523Y-30624140D02*
X15647618Y-30662235D01*
X15647618Y-30662235D02*
X15685714Y-30738426D01*
X15685714Y-30738426D02*
X15685714Y-30852711D01*
X15685714Y-30852711D02*
X15647618Y-30928902D01*
X15647618Y-30928902D02*
X15609523Y-30966997D01*
X15609523Y-30966997D02*
X15533333Y-31005092D01*
X15533333Y-31005092D02*
X15228571Y-31005092D01*
X16447618Y-31386045D02*
X15990475Y-31386045D01*
X16219047Y-31386045D02*
X16219047Y-30586045D01*
X16219047Y-30586045D02*
X16142856Y-30700330D01*
X16142856Y-30700330D02*
X16066666Y-30776521D01*
X16066666Y-30776521D02*
X15990475Y-30814616D01*
X16714285Y-30586045D02*
X17209523Y-30586045D01*
X17209523Y-30586045D02*
X16942857Y-30890807D01*
X16942857Y-30890807D02*
X17057142Y-30890807D01*
X17057142Y-30890807D02*
X17133333Y-30928902D01*
X17133333Y-30928902D02*
X17171428Y-30966997D01*
X17171428Y-30966997D02*
X17209523Y-31043188D01*
X17209523Y-31043188D02*
X17209523Y-31233664D01*
X17209523Y-31233664D02*
X17171428Y-31309854D01*
X17171428Y-31309854D02*
X17133333Y-31347950D01*
X17133333Y-31347950D02*
X17057142Y-31386045D01*
X17057142Y-31386045D02*
X16828571Y-31386045D01*
X16828571Y-31386045D02*
X16752380Y-31347950D01*
X16752380Y-31347950D02*
X16714285Y-31309854D01*
X39366667Y-36379854D02*
X39328571Y-36417950D01*
X39328571Y-36417950D02*
X39214286Y-36456045D01*
X39214286Y-36456045D02*
X39138095Y-36456045D01*
X39138095Y-36456045D02*
X39023809Y-36417950D01*
X39023809Y-36417950D02*
X38947619Y-36341759D01*
X38947619Y-36341759D02*
X38909524Y-36265569D01*
X38909524Y-36265569D02*
X38871428Y-36113188D01*
X38871428Y-36113188D02*
X38871428Y-35998902D01*
X38871428Y-35998902D02*
X38909524Y-35846521D01*
X38909524Y-35846521D02*
X38947619Y-35770330D01*
X38947619Y-35770330D02*
X39023809Y-35694140D01*
X39023809Y-35694140D02*
X39138095Y-35656045D01*
X39138095Y-35656045D02*
X39214286Y-35656045D01*
X39214286Y-35656045D02*
X39328571Y-35694140D01*
X39328571Y-35694140D02*
X39366667Y-35732235D01*
X39633333Y-35656045D02*
X40166667Y-35656045D01*
X40166667Y-35656045D02*
X39823809Y-36456045D01*
X38045714Y-41486104D02*
X38007618Y-41524200D01*
X38007618Y-41524200D02*
X37893333Y-41562295D01*
X37893333Y-41562295D02*
X37817142Y-41562295D01*
X37817142Y-41562295D02*
X37702856Y-41524200D01*
X37702856Y-41524200D02*
X37626666Y-41448009D01*
X37626666Y-41448009D02*
X37588571Y-41371819D01*
X37588571Y-41371819D02*
X37550475Y-41219438D01*
X37550475Y-41219438D02*
X37550475Y-41105152D01*
X37550475Y-41105152D02*
X37588571Y-40952771D01*
X37588571Y-40952771D02*
X37626666Y-40876580D01*
X37626666Y-40876580D02*
X37702856Y-40800390D01*
X37702856Y-40800390D02*
X37817142Y-40762295D01*
X37817142Y-40762295D02*
X37893333Y-40762295D01*
X37893333Y-40762295D02*
X38007618Y-40800390D01*
X38007618Y-40800390D02*
X38045714Y-40838485D01*
X38502856Y-41105152D02*
X38426666Y-41067057D01*
X38426666Y-41067057D02*
X38388571Y-41028961D01*
X38388571Y-41028961D02*
X38350475Y-40952771D01*
X38350475Y-40952771D02*
X38350475Y-40914676D01*
X38350475Y-40914676D02*
X38388571Y-40838485D01*
X38388571Y-40838485D02*
X38426666Y-40800390D01*
X38426666Y-40800390D02*
X38502856Y-40762295D01*
X38502856Y-40762295D02*
X38655237Y-40762295D01*
X38655237Y-40762295D02*
X38731428Y-40800390D01*
X38731428Y-40800390D02*
X38769523Y-40838485D01*
X38769523Y-40838485D02*
X38807618Y-40914676D01*
X38807618Y-40914676D02*
X38807618Y-40952771D01*
X38807618Y-40952771D02*
X38769523Y-41028961D01*
X38769523Y-41028961D02*
X38731428Y-41067057D01*
X38731428Y-41067057D02*
X38655237Y-41105152D01*
X38655237Y-41105152D02*
X38502856Y-41105152D01*
X38502856Y-41105152D02*
X38426666Y-41143247D01*
X38426666Y-41143247D02*
X38388571Y-41181342D01*
X38388571Y-41181342D02*
X38350475Y-41257533D01*
X38350475Y-41257533D02*
X38350475Y-41409914D01*
X38350475Y-41409914D02*
X38388571Y-41486104D01*
X38388571Y-41486104D02*
X38426666Y-41524200D01*
X38426666Y-41524200D02*
X38502856Y-41562295D01*
X38502856Y-41562295D02*
X38655237Y-41562295D01*
X38655237Y-41562295D02*
X38731428Y-41524200D01*
X38731428Y-41524200D02*
X38769523Y-41486104D01*
X38769523Y-41486104D02*
X38807618Y-41409914D01*
X38807618Y-41409914D02*
X38807618Y-41257533D01*
X38807618Y-41257533D02*
X38769523Y-41181342D01*
X38769523Y-41181342D02*
X38731428Y-41143247D01*
X38731428Y-41143247D02*
X38655237Y-41105152D01*
X58285714Y-28479854D02*
X58247618Y-28517950D01*
X58247618Y-28517950D02*
X58133333Y-28556045D01*
X58133333Y-28556045D02*
X58057142Y-28556045D01*
X58057142Y-28556045D02*
X57942856Y-28517950D01*
X57942856Y-28517950D02*
X57866666Y-28441759D01*
X57866666Y-28441759D02*
X57828571Y-28365569D01*
X57828571Y-28365569D02*
X57790475Y-28213188D01*
X57790475Y-28213188D02*
X57790475Y-28098902D01*
X57790475Y-28098902D02*
X57828571Y-27946521D01*
X57828571Y-27946521D02*
X57866666Y-27870330D01*
X57866666Y-27870330D02*
X57942856Y-27794140D01*
X57942856Y-27794140D02*
X58057142Y-27756045D01*
X58057142Y-27756045D02*
X58133333Y-27756045D01*
X58133333Y-27756045D02*
X58247618Y-27794140D01*
X58247618Y-27794140D02*
X58285714Y-27832235D01*
X59047618Y-28556045D02*
X58590475Y-28556045D01*
X58819047Y-28556045D02*
X58819047Y-27756045D01*
X58819047Y-27756045D02*
X58742856Y-27870330D01*
X58742856Y-27870330D02*
X58666666Y-27946521D01*
X58666666Y-27946521D02*
X58590475Y-27984616D01*
X59771428Y-27756045D02*
X59390476Y-27756045D01*
X59390476Y-27756045D02*
X59352380Y-28136997D01*
X59352380Y-28136997D02*
X59390476Y-28098902D01*
X59390476Y-28098902D02*
X59466666Y-28060807D01*
X59466666Y-28060807D02*
X59657142Y-28060807D01*
X59657142Y-28060807D02*
X59733333Y-28098902D01*
X59733333Y-28098902D02*
X59771428Y-28136997D01*
X59771428Y-28136997D02*
X59809523Y-28213188D01*
X59809523Y-28213188D02*
X59809523Y-28403664D01*
X59809523Y-28403664D02*
X59771428Y-28479854D01*
X59771428Y-28479854D02*
X59733333Y-28517950D01*
X59733333Y-28517950D02*
X59657142Y-28556045D01*
X59657142Y-28556045D02*
X59466666Y-28556045D01*
X59466666Y-28556045D02*
X59390476Y-28517950D01*
X59390476Y-28517950D02*
X59352380Y-28479854D01*
X27485714Y-20459854D02*
X27447618Y-20497950D01*
X27447618Y-20497950D02*
X27333333Y-20536045D01*
X27333333Y-20536045D02*
X27257142Y-20536045D01*
X27257142Y-20536045D02*
X27142856Y-20497950D01*
X27142856Y-20497950D02*
X27066666Y-20421759D01*
X27066666Y-20421759D02*
X27028571Y-20345569D01*
X27028571Y-20345569D02*
X26990475Y-20193188D01*
X26990475Y-20193188D02*
X26990475Y-20078902D01*
X26990475Y-20078902D02*
X27028571Y-19926521D01*
X27028571Y-19926521D02*
X27066666Y-19850330D01*
X27066666Y-19850330D02*
X27142856Y-19774140D01*
X27142856Y-19774140D02*
X27257142Y-19736045D01*
X27257142Y-19736045D02*
X27333333Y-19736045D01*
X27333333Y-19736045D02*
X27447618Y-19774140D01*
X27447618Y-19774140D02*
X27485714Y-19812235D01*
X28247618Y-20536045D02*
X27790475Y-20536045D01*
X28019047Y-20536045D02*
X28019047Y-19736045D01*
X28019047Y-19736045D02*
X27942856Y-19850330D01*
X27942856Y-19850330D02*
X27866666Y-19926521D01*
X27866666Y-19926521D02*
X27790475Y-19964616D01*
X29009523Y-20536045D02*
X28552380Y-20536045D01*
X28780952Y-20536045D02*
X28780952Y-19736045D01*
X28780952Y-19736045D02*
X28704761Y-19850330D01*
X28704761Y-19850330D02*
X28628571Y-19926521D01*
X28628571Y-19926521D02*
X28552380Y-19964616D01*
X43466666Y-23768544D02*
X43199999Y-23387591D01*
X43009523Y-23768544D02*
X43009523Y-22968544D01*
X43009523Y-22968544D02*
X43314285Y-22968544D01*
X43314285Y-22968544D02*
X43390475Y-23006639D01*
X43390475Y-23006639D02*
X43428570Y-23044734D01*
X43428570Y-23044734D02*
X43466666Y-23120925D01*
X43466666Y-23120925D02*
X43466666Y-23235210D01*
X43466666Y-23235210D02*
X43428570Y-23311401D01*
X43428570Y-23311401D02*
X43390475Y-23349496D01*
X43390475Y-23349496D02*
X43314285Y-23387591D01*
X43314285Y-23387591D02*
X43009523Y-23387591D01*
X43923808Y-23311401D02*
X43847618Y-23273306D01*
X43847618Y-23273306D02*
X43809523Y-23235210D01*
X43809523Y-23235210D02*
X43771427Y-23159020D01*
X43771427Y-23159020D02*
X43771427Y-23120925D01*
X43771427Y-23120925D02*
X43809523Y-23044734D01*
X43809523Y-23044734D02*
X43847618Y-23006639D01*
X43847618Y-23006639D02*
X43923808Y-22968544D01*
X43923808Y-22968544D02*
X44076189Y-22968544D01*
X44076189Y-22968544D02*
X44152380Y-23006639D01*
X44152380Y-23006639D02*
X44190475Y-23044734D01*
X44190475Y-23044734D02*
X44228570Y-23120925D01*
X44228570Y-23120925D02*
X44228570Y-23159020D01*
X44228570Y-23159020D02*
X44190475Y-23235210D01*
X44190475Y-23235210D02*
X44152380Y-23273306D01*
X44152380Y-23273306D02*
X44076189Y-23311401D01*
X44076189Y-23311401D02*
X43923808Y-23311401D01*
X43923808Y-23311401D02*
X43847618Y-23349496D01*
X43847618Y-23349496D02*
X43809523Y-23387591D01*
X43809523Y-23387591D02*
X43771427Y-23463782D01*
X43771427Y-23463782D02*
X43771427Y-23616163D01*
X43771427Y-23616163D02*
X43809523Y-23692353D01*
X43809523Y-23692353D02*
X43847618Y-23730449D01*
X43847618Y-23730449D02*
X43923808Y-23768544D01*
X43923808Y-23768544D02*
X44076189Y-23768544D01*
X44076189Y-23768544D02*
X44152380Y-23730449D01*
X44152380Y-23730449D02*
X44190475Y-23692353D01*
X44190475Y-23692353D02*
X44228570Y-23616163D01*
X44228570Y-23616163D02*
X44228570Y-23463782D01*
X44228570Y-23463782D02*
X44190475Y-23387591D01*
X44190475Y-23387591D02*
X44152380Y-23349496D01*
X44152380Y-23349496D02*
X44076189Y-23311401D01*
X47390476Y-15936045D02*
X47390476Y-16583664D01*
X47390476Y-16583664D02*
X47428571Y-16659854D01*
X47428571Y-16659854D02*
X47466666Y-16697950D01*
X47466666Y-16697950D02*
X47542857Y-16736045D01*
X47542857Y-16736045D02*
X47695238Y-16736045D01*
X47695238Y-16736045D02*
X47771428Y-16697950D01*
X47771428Y-16697950D02*
X47809523Y-16659854D01*
X47809523Y-16659854D02*
X47847619Y-16583664D01*
X47847619Y-16583664D02*
X47847619Y-15936045D01*
X48190475Y-16012235D02*
X48228571Y-15974140D01*
X48228571Y-15974140D02*
X48304761Y-15936045D01*
X48304761Y-15936045D02*
X48495237Y-15936045D01*
X48495237Y-15936045D02*
X48571428Y-15974140D01*
X48571428Y-15974140D02*
X48609523Y-16012235D01*
X48609523Y-16012235D02*
X48647618Y-16088426D01*
X48647618Y-16088426D02*
X48647618Y-16164616D01*
X48647618Y-16164616D02*
X48609523Y-16278902D01*
X48609523Y-16278902D02*
X48152380Y-16736045D01*
X48152380Y-16736045D02*
X48647618Y-16736045D01*
X48585713Y-10779854D02*
X48547617Y-10817950D01*
X48547617Y-10817950D02*
X48433332Y-10856045D01*
X48433332Y-10856045D02*
X48357141Y-10856045D01*
X48357141Y-10856045D02*
X48242855Y-10817950D01*
X48242855Y-10817950D02*
X48166665Y-10741759D01*
X48166665Y-10741759D02*
X48128570Y-10665569D01*
X48128570Y-10665569D02*
X48090474Y-10513188D01*
X48090474Y-10513188D02*
X48090474Y-10398902D01*
X48090474Y-10398902D02*
X48128570Y-10246521D01*
X48128570Y-10246521D02*
X48166665Y-10170330D01*
X48166665Y-10170330D02*
X48242855Y-10094140D01*
X48242855Y-10094140D02*
X48357141Y-10056045D01*
X48357141Y-10056045D02*
X48433332Y-10056045D01*
X48433332Y-10056045D02*
X48547617Y-10094140D01*
X48547617Y-10094140D02*
X48585713Y-10132235D01*
X49347617Y-10856045D02*
X48890474Y-10856045D01*
X49119046Y-10856045D02*
X49119046Y-10056045D01*
X49119046Y-10056045D02*
X49042855Y-10170330D01*
X49042855Y-10170330D02*
X48966665Y-10246521D01*
X48966665Y-10246521D02*
X48890474Y-10284616D01*
X49614284Y-10056045D02*
X50109522Y-10056045D01*
X50109522Y-10056045D02*
X49842856Y-10360807D01*
X49842856Y-10360807D02*
X49957141Y-10360807D01*
X49957141Y-10360807D02*
X50033332Y-10398902D01*
X50033332Y-10398902D02*
X50071427Y-10436997D01*
X50071427Y-10436997D02*
X50109522Y-10513188D01*
X50109522Y-10513188D02*
X50109522Y-10703664D01*
X50109522Y-10703664D02*
X50071427Y-10779854D01*
X50071427Y-10779854D02*
X50033332Y-10817950D01*
X50033332Y-10817950D02*
X49957141Y-10856045D01*
X49957141Y-10856045D02*
X49728570Y-10856045D01*
X49728570Y-10856045D02*
X49652379Y-10817950D01*
X49652379Y-10817950D02*
X49614284Y-10779854D01*
X51195714Y-38562295D02*
X50929047Y-38181342D01*
X50738571Y-38562295D02*
X50738571Y-37762295D01*
X50738571Y-37762295D02*
X51043333Y-37762295D01*
X51043333Y-37762295D02*
X51119523Y-37800390D01*
X51119523Y-37800390D02*
X51157618Y-37838485D01*
X51157618Y-37838485D02*
X51195714Y-37914676D01*
X51195714Y-37914676D02*
X51195714Y-38028961D01*
X51195714Y-38028961D02*
X51157618Y-38105152D01*
X51157618Y-38105152D02*
X51119523Y-38143247D01*
X51119523Y-38143247D02*
X51043333Y-38181342D01*
X51043333Y-38181342D02*
X50738571Y-38181342D01*
X51462380Y-37762295D02*
X51995714Y-37762295D01*
X51995714Y-37762295D02*
X51652856Y-38562295D01*
X29285713Y-34738545D02*
X29019046Y-34357592D01*
X28828570Y-34738545D02*
X28828570Y-33938545D01*
X28828570Y-33938545D02*
X29133332Y-33938545D01*
X29133332Y-33938545D02*
X29209522Y-33976640D01*
X29209522Y-33976640D02*
X29247617Y-34014735D01*
X29247617Y-34014735D02*
X29285713Y-34090926D01*
X29285713Y-34090926D02*
X29285713Y-34205211D01*
X29285713Y-34205211D02*
X29247617Y-34281402D01*
X29247617Y-34281402D02*
X29209522Y-34319497D01*
X29209522Y-34319497D02*
X29133332Y-34357592D01*
X29133332Y-34357592D02*
X28828570Y-34357592D01*
X30047617Y-34738545D02*
X29590474Y-34738545D01*
X29819046Y-34738545D02*
X29819046Y-33938545D01*
X29819046Y-33938545D02*
X29742855Y-34052830D01*
X29742855Y-34052830D02*
X29666665Y-34129021D01*
X29666665Y-34129021D02*
X29590474Y-34167116D01*
X30352379Y-34014735D02*
X30390475Y-33976640D01*
X30390475Y-33976640D02*
X30466665Y-33938545D01*
X30466665Y-33938545D02*
X30657141Y-33938545D01*
X30657141Y-33938545D02*
X30733332Y-33976640D01*
X30733332Y-33976640D02*
X30771427Y-34014735D01*
X30771427Y-34014735D02*
X30809522Y-34090926D01*
X30809522Y-34090926D02*
X30809522Y-34167116D01*
X30809522Y-34167116D02*
X30771427Y-34281402D01*
X30771427Y-34281402D02*
X30314284Y-34738545D01*
X30314284Y-34738545D02*
X30809522Y-34738545D01*
X30266667Y-20556045D02*
X30000000Y-20175092D01*
X29809524Y-20556045D02*
X29809524Y-19756045D01*
X29809524Y-19756045D02*
X30114286Y-19756045D01*
X30114286Y-19756045D02*
X30190476Y-19794140D01*
X30190476Y-19794140D02*
X30228571Y-19832235D01*
X30228571Y-19832235D02*
X30266667Y-19908426D01*
X30266667Y-19908426D02*
X30266667Y-20022711D01*
X30266667Y-20022711D02*
X30228571Y-20098902D01*
X30228571Y-20098902D02*
X30190476Y-20136997D01*
X30190476Y-20136997D02*
X30114286Y-20175092D01*
X30114286Y-20175092D02*
X29809524Y-20175092D01*
X30990476Y-19756045D02*
X30609524Y-19756045D01*
X30609524Y-19756045D02*
X30571428Y-20136997D01*
X30571428Y-20136997D02*
X30609524Y-20098902D01*
X30609524Y-20098902D02*
X30685714Y-20060807D01*
X30685714Y-20060807D02*
X30876190Y-20060807D01*
X30876190Y-20060807D02*
X30952381Y-20098902D01*
X30952381Y-20098902D02*
X30990476Y-20136997D01*
X30990476Y-20136997D02*
X31028571Y-20213188D01*
X31028571Y-20213188D02*
X31028571Y-20403664D01*
X31028571Y-20403664D02*
X30990476Y-20479854D01*
X30990476Y-20479854D02*
X30952381Y-20517950D01*
X30952381Y-20517950D02*
X30876190Y-20556045D01*
X30876190Y-20556045D02*
X30685714Y-20556045D01*
X30685714Y-20556045D02*
X30609524Y-20517950D01*
X30609524Y-20517950D02*
X30571428Y-20479854D01*
X18965714Y-57286104D02*
X18927618Y-57324200D01*
X18927618Y-57324200D02*
X18813333Y-57362295D01*
X18813333Y-57362295D02*
X18737142Y-57362295D01*
X18737142Y-57362295D02*
X18622856Y-57324200D01*
X18622856Y-57324200D02*
X18546666Y-57248009D01*
X18546666Y-57248009D02*
X18508571Y-57171819D01*
X18508571Y-57171819D02*
X18470475Y-57019438D01*
X18470475Y-57019438D02*
X18470475Y-56905152D01*
X18470475Y-56905152D02*
X18508571Y-56752771D01*
X18508571Y-56752771D02*
X18546666Y-56676580D01*
X18546666Y-56676580D02*
X18622856Y-56600390D01*
X18622856Y-56600390D02*
X18737142Y-56562295D01*
X18737142Y-56562295D02*
X18813333Y-56562295D01*
X18813333Y-56562295D02*
X18927618Y-56600390D01*
X18927618Y-56600390D02*
X18965714Y-56638485D01*
X19651428Y-56562295D02*
X19499047Y-56562295D01*
X19499047Y-56562295D02*
X19422856Y-56600390D01*
X19422856Y-56600390D02*
X19384761Y-56638485D01*
X19384761Y-56638485D02*
X19308571Y-56752771D01*
X19308571Y-56752771D02*
X19270475Y-56905152D01*
X19270475Y-56905152D02*
X19270475Y-57209914D01*
X19270475Y-57209914D02*
X19308571Y-57286104D01*
X19308571Y-57286104D02*
X19346666Y-57324200D01*
X19346666Y-57324200D02*
X19422856Y-57362295D01*
X19422856Y-57362295D02*
X19575237Y-57362295D01*
X19575237Y-57362295D02*
X19651428Y-57324200D01*
X19651428Y-57324200D02*
X19689523Y-57286104D01*
X19689523Y-57286104D02*
X19727618Y-57209914D01*
X19727618Y-57209914D02*
X19727618Y-57019438D01*
X19727618Y-57019438D02*
X19689523Y-56943247D01*
X19689523Y-56943247D02*
X19651428Y-56905152D01*
X19651428Y-56905152D02*
X19575237Y-56867057D01*
X19575237Y-56867057D02*
X19422856Y-56867057D01*
X19422856Y-56867057D02*
X19346666Y-56905152D01*
X19346666Y-56905152D02*
X19308571Y-56943247D01*
X19308571Y-56943247D02*
X19270475Y-57019438D01*
X29937619Y-26882295D02*
X29670952Y-26501342D01*
X29480476Y-26882295D02*
X29480476Y-26082295D01*
X29480476Y-26082295D02*
X29785238Y-26082295D01*
X29785238Y-26082295D02*
X29861428Y-26120390D01*
X29861428Y-26120390D02*
X29899523Y-26158485D01*
X29899523Y-26158485D02*
X29937619Y-26234676D01*
X29937619Y-26234676D02*
X29937619Y-26348961D01*
X29937619Y-26348961D02*
X29899523Y-26425152D01*
X29899523Y-26425152D02*
X29861428Y-26463247D01*
X29861428Y-26463247D02*
X29785238Y-26501342D01*
X29785238Y-26501342D02*
X29480476Y-26501342D01*
X30623333Y-26082295D02*
X30470952Y-26082295D01*
X30470952Y-26082295D02*
X30394761Y-26120390D01*
X30394761Y-26120390D02*
X30356666Y-26158485D01*
X30356666Y-26158485D02*
X30280476Y-26272771D01*
X30280476Y-26272771D02*
X30242380Y-26425152D01*
X30242380Y-26425152D02*
X30242380Y-26729914D01*
X30242380Y-26729914D02*
X30280476Y-26806104D01*
X30280476Y-26806104D02*
X30318571Y-26844200D01*
X30318571Y-26844200D02*
X30394761Y-26882295D01*
X30394761Y-26882295D02*
X30547142Y-26882295D01*
X30547142Y-26882295D02*
X30623333Y-26844200D01*
X30623333Y-26844200D02*
X30661428Y-26806104D01*
X30661428Y-26806104D02*
X30699523Y-26729914D01*
X30699523Y-26729914D02*
X30699523Y-26539438D01*
X30699523Y-26539438D02*
X30661428Y-26463247D01*
X30661428Y-26463247D02*
X30623333Y-26425152D01*
X30623333Y-26425152D02*
X30547142Y-26387057D01*
X30547142Y-26387057D02*
X30394761Y-26387057D01*
X30394761Y-26387057D02*
X30318571Y-26425152D01*
X30318571Y-26425152D02*
X30280476Y-26463247D01*
X30280476Y-26463247D02*
X30242380Y-26539438D01*
X16085714Y-50038545D02*
X15819047Y-49657592D01*
X15628571Y-50038545D02*
X15628571Y-49238545D01*
X15628571Y-49238545D02*
X15933333Y-49238545D01*
X15933333Y-49238545D02*
X16009523Y-49276640D01*
X16009523Y-49276640D02*
X16047618Y-49314735D01*
X16047618Y-49314735D02*
X16085714Y-49390926D01*
X16085714Y-49390926D02*
X16085714Y-49505211D01*
X16085714Y-49505211D02*
X16047618Y-49581402D01*
X16047618Y-49581402D02*
X16009523Y-49619497D01*
X16009523Y-49619497D02*
X15933333Y-49657592D01*
X15933333Y-49657592D02*
X15628571Y-49657592D01*
X16847618Y-50038545D02*
X16390475Y-50038545D01*
X16619047Y-50038545D02*
X16619047Y-49238545D01*
X16619047Y-49238545D02*
X16542856Y-49352830D01*
X16542856Y-49352830D02*
X16466666Y-49429021D01*
X16466666Y-49429021D02*
X16390475Y-49467116D01*
X17571428Y-49238545D02*
X17190476Y-49238545D01*
X17190476Y-49238545D02*
X17152380Y-49619497D01*
X17152380Y-49619497D02*
X17190476Y-49581402D01*
X17190476Y-49581402D02*
X17266666Y-49543307D01*
X17266666Y-49543307D02*
X17457142Y-49543307D01*
X17457142Y-49543307D02*
X17533333Y-49581402D01*
X17533333Y-49581402D02*
X17571428Y-49619497D01*
X17571428Y-49619497D02*
X17609523Y-49695688D01*
X17609523Y-49695688D02*
X17609523Y-49886164D01*
X17609523Y-49886164D02*
X17571428Y-49962354D01*
X17571428Y-49962354D02*
X17533333Y-50000450D01*
X17533333Y-50000450D02*
X17457142Y-50038545D01*
X17457142Y-50038545D02*
X17266666Y-50038545D01*
X17266666Y-50038545D02*
X17190476Y-50000450D01*
X17190476Y-50000450D02*
X17152380Y-49962354D01*
X55809524Y-12136045D02*
X55809524Y-11336045D01*
X55809524Y-11336045D02*
X56000000Y-11336045D01*
X56000000Y-11336045D02*
X56114286Y-11374140D01*
X56114286Y-11374140D02*
X56190476Y-11450330D01*
X56190476Y-11450330D02*
X56228571Y-11526521D01*
X56228571Y-11526521D02*
X56266667Y-11678902D01*
X56266667Y-11678902D02*
X56266667Y-11793188D01*
X56266667Y-11793188D02*
X56228571Y-11945569D01*
X56228571Y-11945569D02*
X56190476Y-12021759D01*
X56190476Y-12021759D02*
X56114286Y-12097950D01*
X56114286Y-12097950D02*
X56000000Y-12136045D01*
X56000000Y-12136045D02*
X55809524Y-12136045D01*
X56533333Y-11336045D02*
X57028571Y-11336045D01*
X57028571Y-11336045D02*
X56761905Y-11640807D01*
X56761905Y-11640807D02*
X56876190Y-11640807D01*
X56876190Y-11640807D02*
X56952381Y-11678902D01*
X56952381Y-11678902D02*
X56990476Y-11716997D01*
X56990476Y-11716997D02*
X57028571Y-11793188D01*
X57028571Y-11793188D02*
X57028571Y-11983664D01*
X57028571Y-11983664D02*
X56990476Y-12059854D01*
X56990476Y-12059854D02*
X56952381Y-12097950D01*
X56952381Y-12097950D02*
X56876190Y-12136045D01*
X56876190Y-12136045D02*
X56647619Y-12136045D01*
X56647619Y-12136045D02*
X56571428Y-12097950D01*
X56571428Y-12097950D02*
X56533333Y-12059854D01*
X47967619Y-14886104D02*
X47929523Y-14924200D01*
X47929523Y-14924200D02*
X47815238Y-14962295D01*
X47815238Y-14962295D02*
X47739047Y-14962295D01*
X47739047Y-14962295D02*
X47624761Y-14924200D01*
X47624761Y-14924200D02*
X47548571Y-14848009D01*
X47548571Y-14848009D02*
X47510476Y-14771819D01*
X47510476Y-14771819D02*
X47472380Y-14619438D01*
X47472380Y-14619438D02*
X47472380Y-14505152D01*
X47472380Y-14505152D02*
X47510476Y-14352771D01*
X47510476Y-14352771D02*
X47548571Y-14276580D01*
X47548571Y-14276580D02*
X47624761Y-14200390D01*
X47624761Y-14200390D02*
X47739047Y-14162295D01*
X47739047Y-14162295D02*
X47815238Y-14162295D01*
X47815238Y-14162295D02*
X47929523Y-14200390D01*
X47929523Y-14200390D02*
X47967619Y-14238485D01*
X48729523Y-14962295D02*
X48272380Y-14962295D01*
X48500952Y-14962295D02*
X48500952Y-14162295D01*
X48500952Y-14162295D02*
X48424761Y-14276580D01*
X48424761Y-14276580D02*
X48348571Y-14352771D01*
X48348571Y-14352771D02*
X48272380Y-14390866D01*
X49224762Y-14162295D02*
X49300952Y-14162295D01*
X49300952Y-14162295D02*
X49377143Y-14200390D01*
X49377143Y-14200390D02*
X49415238Y-14238485D01*
X49415238Y-14238485D02*
X49453333Y-14314676D01*
X49453333Y-14314676D02*
X49491428Y-14467057D01*
X49491428Y-14467057D02*
X49491428Y-14657533D01*
X49491428Y-14657533D02*
X49453333Y-14809914D01*
X49453333Y-14809914D02*
X49415238Y-14886104D01*
X49415238Y-14886104D02*
X49377143Y-14924200D01*
X49377143Y-14924200D02*
X49300952Y-14962295D01*
X49300952Y-14962295D02*
X49224762Y-14962295D01*
X49224762Y-14962295D02*
X49148571Y-14924200D01*
X49148571Y-14924200D02*
X49110476Y-14886104D01*
X49110476Y-14886104D02*
X49072381Y-14809914D01*
X49072381Y-14809914D02*
X49034285Y-14657533D01*
X49034285Y-14657533D02*
X49034285Y-14467057D01*
X49034285Y-14467057D02*
X49072381Y-14314676D01*
X49072381Y-14314676D02*
X49110476Y-14238485D01*
X49110476Y-14238485D02*
X49148571Y-14200390D01*
X49148571Y-14200390D02*
X49224762Y-14162295D01*
X38066667Y-10856045D02*
X37800000Y-10475092D01*
X37609524Y-10856045D02*
X37609524Y-10056045D01*
X37609524Y-10056045D02*
X37914286Y-10056045D01*
X37914286Y-10056045D02*
X37990476Y-10094140D01*
X37990476Y-10094140D02*
X38028571Y-10132235D01*
X38028571Y-10132235D02*
X38066667Y-10208426D01*
X38066667Y-10208426D02*
X38066667Y-10322711D01*
X38066667Y-10322711D02*
X38028571Y-10398902D01*
X38028571Y-10398902D02*
X37990476Y-10436997D01*
X37990476Y-10436997D02*
X37914286Y-10475092D01*
X37914286Y-10475092D02*
X37609524Y-10475092D01*
X38752381Y-10322711D02*
X38752381Y-10856045D01*
X38561905Y-10017950D02*
X38371428Y-10589378D01*
X38371428Y-10589378D02*
X38866667Y-10589378D01*
X50285714Y-32756044D02*
X50019047Y-32375091D01*
X49828571Y-32756044D02*
X49828571Y-31956044D01*
X49828571Y-31956044D02*
X50133333Y-31956044D01*
X50133333Y-31956044D02*
X50209523Y-31994139D01*
X50209523Y-31994139D02*
X50247618Y-32032234D01*
X50247618Y-32032234D02*
X50285714Y-32108425D01*
X50285714Y-32108425D02*
X50285714Y-32222710D01*
X50285714Y-32222710D02*
X50247618Y-32298901D01*
X50247618Y-32298901D02*
X50209523Y-32336996D01*
X50209523Y-32336996D02*
X50133333Y-32375091D01*
X50133333Y-32375091D02*
X49828571Y-32375091D01*
X51047618Y-32756044D02*
X50590475Y-32756044D01*
X50819047Y-32756044D02*
X50819047Y-31956044D01*
X50819047Y-31956044D02*
X50742856Y-32070329D01*
X50742856Y-32070329D02*
X50666666Y-32146520D01*
X50666666Y-32146520D02*
X50590475Y-32184615D01*
X51504761Y-32298901D02*
X51428571Y-32260806D01*
X51428571Y-32260806D02*
X51390476Y-32222710D01*
X51390476Y-32222710D02*
X51352380Y-32146520D01*
X51352380Y-32146520D02*
X51352380Y-32108425D01*
X51352380Y-32108425D02*
X51390476Y-32032234D01*
X51390476Y-32032234D02*
X51428571Y-31994139D01*
X51428571Y-31994139D02*
X51504761Y-31956044D01*
X51504761Y-31956044D02*
X51657142Y-31956044D01*
X51657142Y-31956044D02*
X51733333Y-31994139D01*
X51733333Y-31994139D02*
X51771428Y-32032234D01*
X51771428Y-32032234D02*
X51809523Y-32108425D01*
X51809523Y-32108425D02*
X51809523Y-32146520D01*
X51809523Y-32146520D02*
X51771428Y-32222710D01*
X51771428Y-32222710D02*
X51733333Y-32260806D01*
X51733333Y-32260806D02*
X51657142Y-32298901D01*
X51657142Y-32298901D02*
X51504761Y-32298901D01*
X51504761Y-32298901D02*
X51428571Y-32336996D01*
X51428571Y-32336996D02*
X51390476Y-32375091D01*
X51390476Y-32375091D02*
X51352380Y-32451282D01*
X51352380Y-32451282D02*
X51352380Y-32603663D01*
X51352380Y-32603663D02*
X51390476Y-32679853D01*
X51390476Y-32679853D02*
X51428571Y-32717949D01*
X51428571Y-32717949D02*
X51504761Y-32756044D01*
X51504761Y-32756044D02*
X51657142Y-32756044D01*
X51657142Y-32756044D02*
X51733333Y-32717949D01*
X51733333Y-32717949D02*
X51771428Y-32679853D01*
X51771428Y-32679853D02*
X51809523Y-32603663D01*
X51809523Y-32603663D02*
X51809523Y-32451282D01*
X51809523Y-32451282D02*
X51771428Y-32375091D01*
X51771428Y-32375091D02*
X51733333Y-32336996D01*
X51733333Y-32336996D02*
X51657142Y-32298901D01*
X21785714Y-29879854D02*
X21747618Y-29917950D01*
X21747618Y-29917950D02*
X21633333Y-29956045D01*
X21633333Y-29956045D02*
X21557142Y-29956045D01*
X21557142Y-29956045D02*
X21442856Y-29917950D01*
X21442856Y-29917950D02*
X21366666Y-29841759D01*
X21366666Y-29841759D02*
X21328571Y-29765569D01*
X21328571Y-29765569D02*
X21290475Y-29613188D01*
X21290475Y-29613188D02*
X21290475Y-29498902D01*
X21290475Y-29498902D02*
X21328571Y-29346521D01*
X21328571Y-29346521D02*
X21366666Y-29270330D01*
X21366666Y-29270330D02*
X21442856Y-29194140D01*
X21442856Y-29194140D02*
X21557142Y-29156045D01*
X21557142Y-29156045D02*
X21633333Y-29156045D01*
X21633333Y-29156045D02*
X21747618Y-29194140D01*
X21747618Y-29194140D02*
X21785714Y-29232235D01*
X22547618Y-29956045D02*
X22090475Y-29956045D01*
X22319047Y-29956045D02*
X22319047Y-29156045D01*
X22319047Y-29156045D02*
X22242856Y-29270330D01*
X22242856Y-29270330D02*
X22166666Y-29346521D01*
X22166666Y-29346521D02*
X22090475Y-29384616D01*
X22814285Y-29156045D02*
X23347619Y-29156045D01*
X23347619Y-29156045D02*
X23004761Y-29956045D01*
X36166667Y-10956045D02*
X35900000Y-10575092D01*
X35709524Y-10956045D02*
X35709524Y-10156045D01*
X35709524Y-10156045D02*
X36014286Y-10156045D01*
X36014286Y-10156045D02*
X36090476Y-10194140D01*
X36090476Y-10194140D02*
X36128571Y-10232235D01*
X36128571Y-10232235D02*
X36166667Y-10308426D01*
X36166667Y-10308426D02*
X36166667Y-10422711D01*
X36166667Y-10422711D02*
X36128571Y-10498902D01*
X36128571Y-10498902D02*
X36090476Y-10536997D01*
X36090476Y-10536997D02*
X36014286Y-10575092D01*
X36014286Y-10575092D02*
X35709524Y-10575092D01*
X36433333Y-10156045D02*
X36928571Y-10156045D01*
X36928571Y-10156045D02*
X36661905Y-10460807D01*
X36661905Y-10460807D02*
X36776190Y-10460807D01*
X36776190Y-10460807D02*
X36852381Y-10498902D01*
X36852381Y-10498902D02*
X36890476Y-10536997D01*
X36890476Y-10536997D02*
X36928571Y-10613188D01*
X36928571Y-10613188D02*
X36928571Y-10803664D01*
X36928571Y-10803664D02*
X36890476Y-10879854D01*
X36890476Y-10879854D02*
X36852381Y-10917950D01*
X36852381Y-10917950D02*
X36776190Y-10956045D01*
X36776190Y-10956045D02*
X36547619Y-10956045D01*
X36547619Y-10956045D02*
X36471428Y-10917950D01*
X36471428Y-10917950D02*
X36433333Y-10879854D01*
X51385714Y-31256045D02*
X51119047Y-30875092D01*
X50928571Y-31256045D02*
X50928571Y-30456045D01*
X50928571Y-30456045D02*
X51233333Y-30456045D01*
X51233333Y-30456045D02*
X51309523Y-30494140D01*
X51309523Y-30494140D02*
X51347618Y-30532235D01*
X51347618Y-30532235D02*
X51385714Y-30608426D01*
X51385714Y-30608426D02*
X51385714Y-30722711D01*
X51385714Y-30722711D02*
X51347618Y-30798902D01*
X51347618Y-30798902D02*
X51309523Y-30836997D01*
X51309523Y-30836997D02*
X51233333Y-30875092D01*
X51233333Y-30875092D02*
X50928571Y-30875092D01*
X52147618Y-31256045D02*
X51690475Y-31256045D01*
X51919047Y-31256045D02*
X51919047Y-30456045D01*
X51919047Y-30456045D02*
X51842856Y-30570330D01*
X51842856Y-30570330D02*
X51766666Y-30646521D01*
X51766666Y-30646521D02*
X51690475Y-30684616D01*
X52414285Y-30456045D02*
X52947619Y-30456045D01*
X52947619Y-30456045D02*
X52604761Y-31256045D01*
X29466667Y-16512354D02*
X29428571Y-16550450D01*
X29428571Y-16550450D02*
X29314286Y-16588545D01*
X29314286Y-16588545D02*
X29238095Y-16588545D01*
X29238095Y-16588545D02*
X29123809Y-16550450D01*
X29123809Y-16550450D02*
X29047619Y-16474259D01*
X29047619Y-16474259D02*
X29009524Y-16398069D01*
X29009524Y-16398069D02*
X28971428Y-16245688D01*
X28971428Y-16245688D02*
X28971428Y-16131402D01*
X28971428Y-16131402D02*
X29009524Y-15979021D01*
X29009524Y-15979021D02*
X29047619Y-15902830D01*
X29047619Y-15902830D02*
X29123809Y-15826640D01*
X29123809Y-15826640D02*
X29238095Y-15788545D01*
X29238095Y-15788545D02*
X29314286Y-15788545D01*
X29314286Y-15788545D02*
X29428571Y-15826640D01*
X29428571Y-15826640D02*
X29466667Y-15864735D01*
X29733333Y-15788545D02*
X30228571Y-15788545D01*
X30228571Y-15788545D02*
X29961905Y-16093307D01*
X29961905Y-16093307D02*
X30076190Y-16093307D01*
X30076190Y-16093307D02*
X30152381Y-16131402D01*
X30152381Y-16131402D02*
X30190476Y-16169497D01*
X30190476Y-16169497D02*
X30228571Y-16245688D01*
X30228571Y-16245688D02*
X30228571Y-16436164D01*
X30228571Y-16436164D02*
X30190476Y-16512354D01*
X30190476Y-16512354D02*
X30152381Y-16550450D01*
X30152381Y-16550450D02*
X30076190Y-16588545D01*
X30076190Y-16588545D02*
X29847619Y-16588545D01*
X29847619Y-16588545D02*
X29771428Y-16550450D01*
X29771428Y-16550450D02*
X29733333Y-16512354D01*
X59685714Y-36238545D02*
X59419047Y-35857592D01*
X59228571Y-36238545D02*
X59228571Y-35438545D01*
X59228571Y-35438545D02*
X59533333Y-35438545D01*
X59533333Y-35438545D02*
X59609523Y-35476640D01*
X59609523Y-35476640D02*
X59647618Y-35514735D01*
X59647618Y-35514735D02*
X59685714Y-35590926D01*
X59685714Y-35590926D02*
X59685714Y-35705211D01*
X59685714Y-35705211D02*
X59647618Y-35781402D01*
X59647618Y-35781402D02*
X59609523Y-35819497D01*
X59609523Y-35819497D02*
X59533333Y-35857592D01*
X59533333Y-35857592D02*
X59228571Y-35857592D01*
X60447618Y-36238545D02*
X59990475Y-36238545D01*
X60219047Y-36238545D02*
X60219047Y-35438545D01*
X60219047Y-35438545D02*
X60142856Y-35552830D01*
X60142856Y-35552830D02*
X60066666Y-35629021D01*
X60066666Y-35629021D02*
X59990475Y-35667116D01*
X61133333Y-35438545D02*
X60980952Y-35438545D01*
X60980952Y-35438545D02*
X60904761Y-35476640D01*
X60904761Y-35476640D02*
X60866666Y-35514735D01*
X60866666Y-35514735D02*
X60790476Y-35629021D01*
X60790476Y-35629021D02*
X60752380Y-35781402D01*
X60752380Y-35781402D02*
X60752380Y-36086164D01*
X60752380Y-36086164D02*
X60790476Y-36162354D01*
X60790476Y-36162354D02*
X60828571Y-36200450D01*
X60828571Y-36200450D02*
X60904761Y-36238545D01*
X60904761Y-36238545D02*
X61057142Y-36238545D01*
X61057142Y-36238545D02*
X61133333Y-36200450D01*
X61133333Y-36200450D02*
X61171428Y-36162354D01*
X61171428Y-36162354D02*
X61209523Y-36086164D01*
X61209523Y-36086164D02*
X61209523Y-35895688D01*
X61209523Y-35895688D02*
X61171428Y-35819497D01*
X61171428Y-35819497D02*
X61133333Y-35781402D01*
X61133333Y-35781402D02*
X61057142Y-35743307D01*
X61057142Y-35743307D02*
X60904761Y-35743307D01*
X60904761Y-35743307D02*
X60828571Y-35781402D01*
X60828571Y-35781402D02*
X60790476Y-35819497D01*
X60790476Y-35819497D02*
X60752380Y-35895688D01*
X33666667Y-58912354D02*
X33628571Y-58950450D01*
X33628571Y-58950450D02*
X33514286Y-58988545D01*
X33514286Y-58988545D02*
X33438095Y-58988545D01*
X33438095Y-58988545D02*
X33323809Y-58950450D01*
X33323809Y-58950450D02*
X33247619Y-58874259D01*
X33247619Y-58874259D02*
X33209524Y-58798069D01*
X33209524Y-58798069D02*
X33171428Y-58645688D01*
X33171428Y-58645688D02*
X33171428Y-58531402D01*
X33171428Y-58531402D02*
X33209524Y-58379021D01*
X33209524Y-58379021D02*
X33247619Y-58302830D01*
X33247619Y-58302830D02*
X33323809Y-58226640D01*
X33323809Y-58226640D02*
X33438095Y-58188545D01*
X33438095Y-58188545D02*
X33514286Y-58188545D01*
X33514286Y-58188545D02*
X33628571Y-58226640D01*
X33628571Y-58226640D02*
X33666667Y-58264735D01*
X34390476Y-58188545D02*
X34009524Y-58188545D01*
X34009524Y-58188545D02*
X33971428Y-58569497D01*
X33971428Y-58569497D02*
X34009524Y-58531402D01*
X34009524Y-58531402D02*
X34085714Y-58493307D01*
X34085714Y-58493307D02*
X34276190Y-58493307D01*
X34276190Y-58493307D02*
X34352381Y-58531402D01*
X34352381Y-58531402D02*
X34390476Y-58569497D01*
X34390476Y-58569497D02*
X34428571Y-58645688D01*
X34428571Y-58645688D02*
X34428571Y-58836164D01*
X34428571Y-58836164D02*
X34390476Y-58912354D01*
X34390476Y-58912354D02*
X34352381Y-58950450D01*
X34352381Y-58950450D02*
X34276190Y-58988545D01*
X34276190Y-58988545D02*
X34085714Y-58988545D01*
X34085714Y-58988545D02*
X34009524Y-58950450D01*
X34009524Y-58950450D02*
X33971428Y-58912354D01*
D12*
%TO.C,J1*%
X20900000Y-59250000D02*
X20900000Y-60500000D01*
X21200000Y-61800000D02*
X21950000Y-61800000D01*
X21950000Y-61800000D02*
X21950000Y-64750000D01*
X21950000Y-64750000D02*
X35000000Y-64750000D01*
X22150000Y-59250000D02*
X20900000Y-59250000D01*
X48050000Y-61800000D02*
X48050000Y-64750000D01*
X48050000Y-64750000D02*
X35000000Y-64750000D01*
X48800000Y-61800000D02*
X48050000Y-61800000D01*
X21190000Y-59540000D02*
X48810000Y-59540000D01*
X48810000Y-65510000D01*
X21190000Y-65510000D01*
X21190000Y-59540000D01*
X21200000Y-59550000D02*
X23000000Y-59550000D01*
X23000000Y-60300000D01*
X21200000Y-60300000D01*
X21200000Y-59550000D01*
X24500000Y-59550000D02*
X45500000Y-59550000D01*
X45500000Y-60300000D01*
X24500000Y-60300000D01*
X24500000Y-59550000D01*
X47000000Y-59550000D02*
X48800000Y-59550000D01*
X48800000Y-60300000D01*
X47000000Y-60300000D01*
X47000000Y-59550000D01*
%TO.C,TP7*%
X12800000Y-21400000D02*
G75*
G02*
X10400000Y-21400000I-1200000J0D01*
G01*
X10400000Y-21400000D02*
G75*
G02*
X12800000Y-21400000I1200000J0D01*
G01*
%TO.C,C4*%
X51865000Y-24461252D02*
X51865000Y-23938748D01*
X53335000Y-24461252D02*
X53335000Y-23938748D01*
%TO.C,TP10*%
X59000000Y-44200000D02*
G75*
G02*
X56600000Y-44200000I-1200000J0D01*
G01*
X56600000Y-44200000D02*
G75*
G02*
X59000000Y-44200000I1200000J0D01*
G01*
%TO.C,C2*%
X31465000Y-13461252D02*
X31465000Y-12938748D01*
X32935000Y-13461252D02*
X32935000Y-12938748D01*
%TO.C,R11*%
X41172936Y-3665000D02*
X41627064Y-3665000D01*
X41172936Y-5135000D02*
X41627064Y-5135000D01*
%TO.C,U4*%
X5565000Y-33490000D02*
X7035000Y-33490000D01*
X5565000Y-34790000D02*
X5565000Y-34410000D01*
X6899252Y-35710000D02*
X5565000Y-35710000D01*
X7330000Y-35910000D02*
X7050000Y-35910000D01*
X7190000Y-35720000D01*
X7330000Y-35910000D01*
G36*
X7330000Y-35910000D02*
G01*
X7050000Y-35910000D01*
X7190000Y-35720000D01*
X7330000Y-35910000D01*
G37*
%TO.C,TP8*%
X46200000Y-11000000D02*
G75*
G02*
X43800000Y-11000000I-1200000J0D01*
G01*
X43800000Y-11000000D02*
G75*
G02*
X46200000Y-11000000I1200000J0D01*
G01*
%TO.C,C12*%
X37065000Y-6061252D02*
X37065000Y-5538748D01*
X38535000Y-6061252D02*
X38535000Y-5538748D01*
%TO.C,C14*%
X56138748Y-33265000D02*
X56661252Y-33265000D01*
X56138748Y-34735000D02*
X56661252Y-34735000D01*
%TO.C,TP13*%
X11800000Y-55800000D02*
G75*
G02*
X9400000Y-55800000I-1200000J0D01*
G01*
X9400000Y-55800000D02*
G75*
G02*
X11800000Y-55800000I1200000J0D01*
G01*
%TO.C,J2*%
X2020000Y-25380000D02*
X2020000Y-24000000D01*
X3400000Y-25380000D02*
X2020000Y-25380000D01*
X4670000Y-22620000D02*
X7320000Y-22620000D01*
X4670000Y-25380000D02*
X4670000Y-22620000D01*
X4670000Y-25380000D02*
X7320000Y-25380000D01*
X7320000Y-25380000D02*
X7320000Y-22620000D01*
%TO.C,U1*%
X32440000Y-16940000D02*
X32535000Y-16940000D01*
X32440000Y-21060000D02*
X32440000Y-16940000D01*
X32535000Y-21060000D02*
X32440000Y-21060000D01*
X37465000Y-16940000D02*
X37560000Y-16940000D01*
X37560000Y-16940000D02*
X37560000Y-21060000D01*
X37560000Y-21060000D02*
X37465000Y-21060000D01*
X32530000Y-21600000D02*
X32200000Y-21840000D01*
X32200000Y-21360000D01*
X32530000Y-21600000D01*
G36*
X32530000Y-21600000D02*
G01*
X32200000Y-21840000D01*
X32200000Y-21360000D01*
X32530000Y-21600000D01*
G37*
%TO.C,U5*%
X53500000Y-30500000D02*
X53500000Y-27500000D01*
X56500000Y-30500000D02*
X56500000Y-27500000D01*
X56730000Y-27390000D02*
X56400000Y-27150000D01*
X56730000Y-26910000D01*
X56730000Y-27390000D01*
G36*
X56730000Y-27390000D02*
G01*
X56400000Y-27150000D01*
X56730000Y-26910000D01*
X56730000Y-27390000D01*
G37*
%TO.C,TP6*%
X12800000Y-28000000D02*
G75*
G02*
X10400000Y-28000000I-1200000J0D01*
G01*
X10400000Y-28000000D02*
G75*
G02*
X12800000Y-28000000I1200000J0D01*
G01*
%TO.C,R19*%
X52665000Y-16627063D02*
X52665000Y-16172935D01*
X54135000Y-16627063D02*
X54135000Y-16172935D01*
%TO.C,C16*%
X12465000Y-39438748D02*
X12465000Y-39961252D01*
X13935000Y-39438748D02*
X13935000Y-39961252D01*
%TO.C,TP9*%
X61400000Y-19600000D02*
G75*
G02*
X59000000Y-19600000I-1200000J0D01*
G01*
X59000000Y-19600000D02*
G75*
G02*
X61400000Y-19600000I1200000J0D01*
G01*
%TO.C,R1*%
X30027064Y-28765000D02*
X29572936Y-28765000D01*
X30027064Y-30235000D02*
X29572936Y-30235000D01*
%TO.C,U3*%
X16940000Y-35440000D02*
X21060000Y-35440000D01*
X16940000Y-35535000D02*
X16940000Y-35440000D01*
X16940000Y-40560000D02*
X16940000Y-40465000D01*
X21060000Y-35440000D02*
X21060000Y-35535000D01*
X21060000Y-40465000D02*
X21060000Y-40560000D01*
X21060000Y-40560000D02*
X16940000Y-40560000D01*
X16400000Y-35530000D02*
X16160000Y-35200000D01*
X16640000Y-35200000D01*
X16400000Y-35530000D01*
G36*
X16400000Y-35530000D02*
G01*
X16160000Y-35200000D01*
X16640000Y-35200000D01*
X16400000Y-35530000D01*
G37*
%TO.C,C18*%
X2565000Y-35861252D02*
X2565000Y-35338748D01*
X4035000Y-35861252D02*
X4035000Y-35338748D01*
%TO.C,TP17*%
X63100000Y-22000000D02*
G75*
G02*
X63100000Y-17000000I1753846J2500000D01*
G01*
%TO.C,C1*%
X34905000Y-25761252D02*
X34905000Y-25238748D01*
X36375000Y-25761252D02*
X36375000Y-25238748D01*
%TO.C,Q1*%
X8340000Y-34440000D02*
X8390000Y-34440000D01*
X8340000Y-35960000D02*
X8340000Y-34440000D01*
X9340000Y-35960000D02*
X8340000Y-35960000D01*
X9510000Y-34440000D02*
X10290000Y-34440000D01*
X11410000Y-34440000D02*
X11460000Y-34440000D01*
X11460000Y-34440000D02*
X11460000Y-35960000D01*
X11460000Y-35960000D02*
X10460000Y-35960000D01*
X10280000Y-33900000D02*
X9950000Y-34140000D01*
X9950000Y-33660000D01*
X10280000Y-33900000D01*
G36*
X10280000Y-33900000D02*
G01*
X9950000Y-34140000D01*
X9950000Y-33660000D01*
X10280000Y-33900000D01*
G37*
%TO.C,R2*%
X38065000Y-25027064D02*
X38065000Y-24572936D01*
X39535000Y-25027064D02*
X39535000Y-24572936D01*
%TO.C,R14*%
X23665000Y-38827064D02*
X23665000Y-38372936D01*
X25135000Y-38827064D02*
X25135000Y-38372936D01*
%TO.C,TP11*%
X9100000Y-38800000D02*
G75*
G02*
X6700000Y-38800000I-1200000J0D01*
G01*
X6700000Y-38800000D02*
G75*
G02*
X9100000Y-38800000I1200000J0D01*
G01*
%TO.C,R10*%
X41172936Y-6665000D02*
X41627064Y-6665000D01*
X41172936Y-8135000D02*
X41627064Y-8135000D01*
%TO.C,TP2*%
X47000000Y-41000000D02*
G75*
G02*
X44600000Y-41000000I-1200000J0D01*
G01*
X44600000Y-41000000D02*
G75*
G02*
X47000000Y-41000000I1200000J0D01*
G01*
%TO.C,R9*%
X41227064Y-43865000D02*
X40772936Y-43865000D01*
X41227064Y-45335000D02*
X40772936Y-45335000D01*
%TO.C,TP18*%
X62900000Y-41400000D02*
G75*
G02*
X62900000Y-46400000I-1753846J-2500000D01*
G01*
%TO.C,RV1*%
X43585000Y-2880000D02*
X53335000Y-2880000D01*
X43585000Y-7930000D02*
X43585000Y-2880000D01*
X53335000Y-2880000D02*
X53335000Y-7930000D01*
X53335000Y-7930000D02*
X43585000Y-7930000D01*
%TO.C,TP12*%
X12200000Y-51000000D02*
G75*
G02*
X9800000Y-51000000I-1200000J0D01*
G01*
X9800000Y-51000000D02*
G75*
G02*
X12200000Y-51000000I1200000J0D01*
G01*
%TO.C,D2*%
X11940000Y-35140000D02*
X11990000Y-35140000D01*
X11940000Y-36660000D02*
X11940000Y-35140000D01*
X12940000Y-36660000D02*
X11940000Y-36660000D01*
X13110000Y-35140000D02*
X13890000Y-35140000D01*
X15010000Y-35140000D02*
X15060000Y-35140000D01*
X15060000Y-35140000D02*
X15060000Y-36660000D01*
X15060000Y-36660000D02*
X14060000Y-36660000D01*
X13880000Y-34600000D02*
X13550000Y-34840000D01*
X13550000Y-34360000D01*
X13880000Y-34600000D01*
G36*
X13880000Y-34600000D02*
G01*
X13550000Y-34840000D01*
X13550000Y-34360000D01*
X13880000Y-34600000D01*
G37*
%TO.C,C9*%
X42865000Y-14861252D02*
X42865000Y-14338748D01*
X44335000Y-14861252D02*
X44335000Y-14338748D01*
%TO.C,R13*%
X16427064Y-32165000D02*
X15972936Y-32165000D01*
X16427064Y-33635000D02*
X15972936Y-33635000D01*
%TO.C,C7*%
X40738748Y-37265000D02*
X41261252Y-37265000D01*
X40738748Y-38735000D02*
X41261252Y-38735000D01*
%TO.C,C8*%
X40888748Y-40290000D02*
X42311252Y-40290000D01*
X40888748Y-42110000D02*
X42311252Y-42110000D01*
%TO.C,C15*%
X58538748Y-29865000D02*
X59061252Y-29865000D01*
X58538748Y-31335000D02*
X59061252Y-31335000D01*
%TO.C,TP19*%
X2600000Y-41700000D02*
G75*
G02*
X7600000Y-41700000I2500000J-1753846D01*
G01*
%TO.C,C11*%
X27265000Y-23061252D02*
X27265000Y-22538748D01*
X28735000Y-23061252D02*
X28735000Y-22538748D01*
%TO.C,TP4*%
X38800000Y-56400000D02*
G75*
G02*
X36400000Y-56400000I-1200000J0D01*
G01*
X36400000Y-56400000D02*
G75*
G02*
X38800000Y-56400000I1200000J0D01*
G01*
%TO.C,TP1*%
X15200000Y-60500000D02*
G75*
G02*
X12800000Y-60500000I-1200000J0D01*
G01*
X12800000Y-60500000D02*
G75*
G02*
X15200000Y-60500000I1200000J0D01*
G01*
%TO.C,R8*%
X42865000Y-21027064D02*
X42865000Y-20572936D01*
X44335000Y-21027064D02*
X44335000Y-20572936D01*
%TO.C,U2*%
X45440000Y-18940000D02*
X45535000Y-18940000D01*
X45440000Y-23060000D02*
X45440000Y-18940000D01*
X45535000Y-23060000D02*
X45440000Y-23060000D01*
X50465000Y-18940000D02*
X50560000Y-18940000D01*
X50560000Y-18940000D02*
X50560000Y-23060000D01*
X50560000Y-23060000D02*
X50465000Y-23060000D01*
X50800000Y-18640000D02*
X50470000Y-18400000D01*
X50800000Y-18160000D01*
X50800000Y-18640000D01*
G36*
X50800000Y-18640000D02*
G01*
X50470000Y-18400000D01*
X50800000Y-18160000D01*
X50800000Y-18640000D01*
G37*
%TO.C,C13*%
X50338748Y-11665000D02*
X50861252Y-11665000D01*
X50338748Y-13135000D02*
X50861252Y-13135000D01*
%TO.C,TP5*%
X26400000Y-25400000D02*
G75*
G02*
X24000000Y-25400000I-1200000J0D01*
G01*
X24000000Y-25400000D02*
G75*
G02*
X26400000Y-25400000I1200000J0D01*
G01*
%TO.C,R7*%
X52665000Y-37972936D02*
X52665000Y-38427064D01*
X54135000Y-37972936D02*
X54135000Y-38427064D01*
%TO.C,TP14*%
X16200000Y-64900000D02*
G75*
G02*
X11200000Y-64900000I-2500000J1753846D01*
G01*
%TO.C,R12*%
X30027064Y-31765000D02*
X29572936Y-31765000D01*
X30027064Y-33235000D02*
X29572936Y-33235000D01*
%TO.C,R5*%
X29665000Y-22572936D02*
X29665000Y-23027064D01*
X31135000Y-22572936D02*
X31135000Y-23027064D01*
%TO.C,C6*%
X20465000Y-57261252D02*
X20465000Y-56738748D01*
X21935000Y-57261252D02*
X21935000Y-56738748D01*
%TO.C,TP15*%
X7600000Y-29300000D02*
G75*
G02*
X2600000Y-29300000I-2500000J1753846D01*
G01*
%TO.C,TP3*%
X30000000Y-56400000D02*
G75*
G02*
X27600000Y-56400000I-1200000J0D01*
G01*
X27600000Y-56400000D02*
G75*
G02*
X30000000Y-56400000I1200000J0D01*
G01*
%TO.C,R6*%
X27265000Y-26292936D02*
X27265000Y-26747064D01*
X28735000Y-26292936D02*
X28735000Y-26747064D01*
%TO.C,R15*%
X16372936Y-47065000D02*
X16827064Y-47065000D01*
X16372936Y-48535000D02*
X16827064Y-48535000D01*
%TO.C,D3*%
X55640000Y-12840000D02*
X57160000Y-12840000D01*
X55640000Y-13840000D02*
X55640000Y-12840000D01*
X55640000Y-15960000D02*
X55640000Y-14960000D01*
X57160000Y-12840000D02*
X57160000Y-12890000D01*
X57160000Y-14010000D02*
X57160000Y-14790000D01*
X57160000Y-15910000D02*
X57160000Y-15960000D01*
X57160000Y-15960000D02*
X55640000Y-15960000D01*
X57700000Y-14780000D02*
X57460000Y-14450000D01*
X57940000Y-14450000D01*
X57700000Y-14780000D01*
G36*
X57700000Y-14780000D02*
G01*
X57460000Y-14450000D01*
X57940000Y-14450000D01*
X57700000Y-14780000D01*
G37*
%TO.C,C10*%
X45265000Y-14861252D02*
X45265000Y-14338748D01*
X46735000Y-14861252D02*
X46735000Y-14338748D01*
%TO.C,R4*%
X40465000Y-13827064D02*
X40465000Y-13372936D01*
X41935000Y-13827064D02*
X41935000Y-13372936D01*
%TO.C,TP20*%
X2600000Y-49700000D02*
G75*
G02*
X7600000Y-49700000I2500000J-1753846D01*
G01*
%TO.C,R18*%
X50065000Y-34772936D02*
X50065000Y-35227064D01*
X51535000Y-34772936D02*
X51535000Y-35227064D01*
%TO.C,C17*%
X23538748Y-33165000D02*
X24061252Y-33165000D01*
X23538748Y-34635000D02*
X24061252Y-34635000D01*
%TO.C,R3*%
X37065000Y-12972936D02*
X37065000Y-13427064D01*
X38535000Y-12972936D02*
X38535000Y-13427064D01*
%TO.C,R17*%
X52665000Y-33772936D02*
X52665000Y-34227064D01*
X54135000Y-33772936D02*
X54135000Y-34227064D01*
%TO.C,TP16*%
X2600000Y-18700000D02*
G75*
G02*
X7600000Y-18700000I2500000J-1753846D01*
G01*
%TO.C,C3*%
X28865000Y-13861252D02*
X28865000Y-13338748D01*
X30335000Y-13861252D02*
X30335000Y-13338748D01*
%TO.C,R16*%
X60427064Y-33265000D02*
X59972936Y-33265000D01*
X60427064Y-34735000D02*
X59972936Y-34735000D01*
%TO.C,C5*%
X33065000Y-56261252D02*
X33065000Y-55738748D01*
X34535000Y-56261252D02*
X34535000Y-55738748D01*
%TD*%
%LPC*%
D13*
%TO.C,H1*%
X5000000Y-5000000D03*
%TD*%
D14*
%TO.C,J1*%
X23750000Y-62000000D03*
D15*
X26250000Y-62000000D03*
X28750000Y-62000000D03*
X31250000Y-62000000D03*
X33750000Y-62000000D03*
X36250000Y-62000000D03*
X38750000Y-62000000D03*
X41250000Y-62000000D03*
X43750000Y-62000000D03*
X46250000Y-62000000D03*
%TD*%
D16*
%TO.C,TP7*%
X11600000Y-21400000D03*
%TD*%
D17*
%TO.C,C4*%
X52600000Y-25150000D03*
X52600000Y-23250000D03*
%TD*%
D16*
%TO.C,TP10*%
X57800000Y-44200000D03*
%TD*%
D17*
%TO.C,C2*%
X32200000Y-14150000D03*
X32200000Y-12250000D03*
%TD*%
D18*
%TO.C,R11*%
X40487500Y-4400000D03*
X42312500Y-4400000D03*
%TD*%
D19*
%TO.C,U4*%
X7187500Y-35250000D03*
X7187500Y-34600000D03*
X7187500Y-33950000D03*
X5412500Y-33950000D03*
X5412500Y-35250000D03*
%TD*%
D16*
%TO.C,TP8*%
X45000000Y-11000000D03*
%TD*%
D17*
%TO.C,C12*%
X37800000Y-6750000D03*
X37800000Y-4850000D03*
%TD*%
D20*
%TO.C,C14*%
X55450000Y-34000000D03*
X57350000Y-34000000D03*
%TD*%
D16*
%TO.C,TP13*%
X10600000Y-55800000D03*
%TD*%
D21*
%TO.C,J2*%
X3400000Y-24000000D03*
D22*
X5940000Y-24000000D03*
%TD*%
D23*
%TO.C,U1*%
X33095000Y-21475000D03*
X34365000Y-21475000D03*
X35635000Y-21475000D03*
X36905000Y-21475000D03*
X36905000Y-16525000D03*
X35635000Y-16525000D03*
X34365000Y-16525000D03*
X33095000Y-16525000D03*
%TD*%
D24*
%TO.C,U5*%
X55975000Y-27300000D03*
X55325000Y-27300000D03*
X54675000Y-27300000D03*
X54025000Y-27300000D03*
X54025000Y-30700000D03*
X54675000Y-30700000D03*
X55325000Y-30700000D03*
X55975000Y-30700000D03*
%TD*%
D13*
%TO.C,H2*%
X65000000Y-5000000D03*
%TD*%
D16*
%TO.C,TP6*%
X11600000Y-28000000D03*
%TD*%
D25*
%TO.C,R19*%
X53400000Y-17312499D03*
X53400000Y-15487499D03*
%TD*%
D26*
%TO.C,C16*%
X13200000Y-38750000D03*
X13200000Y-40650000D03*
%TD*%
D16*
%TO.C,TP9*%
X60200000Y-19600000D03*
%TD*%
D27*
%TO.C,R1*%
X30712500Y-29500000D03*
X28887500Y-29500000D03*
%TD*%
D28*
%TO.C,U3*%
X16525000Y-36095000D03*
X16525000Y-37365000D03*
X16525000Y-38635000D03*
X16525000Y-39905000D03*
X21475000Y-39905000D03*
X21475000Y-38635000D03*
X21475000Y-37365000D03*
X21475000Y-36095000D03*
%TD*%
D17*
%TO.C,C18*%
X3300000Y-36550000D03*
X3300000Y-34650000D03*
%TD*%
D29*
%TO.C,TP17*%
X64400000Y-22000000D03*
X64400000Y-17000000D03*
%TD*%
D17*
%TO.C,C1*%
X35640000Y-26450000D03*
X35640000Y-24550000D03*
%TD*%
D30*
%TO.C,Q1*%
X10850000Y-34262500D03*
X8950000Y-34262500D03*
X9900000Y-36137500D03*
%TD*%
D25*
%TO.C,R2*%
X38800000Y-25712500D03*
X38800000Y-23887500D03*
%TD*%
%TO.C,R14*%
X24400000Y-39512500D03*
X24400000Y-37687500D03*
%TD*%
D16*
%TO.C,TP11*%
X7900000Y-38800000D03*
%TD*%
D18*
%TO.C,R10*%
X40487500Y-7400000D03*
X42312500Y-7400000D03*
%TD*%
D16*
%TO.C,TP2*%
X45800000Y-41000000D03*
%TD*%
D27*
%TO.C,R9*%
X41912500Y-44600000D03*
X40087500Y-44600000D03*
%TD*%
D29*
%TO.C,TP18*%
X61600000Y-41400000D03*
X61600000Y-46400000D03*
%TD*%
D31*
%TO.C,RV1*%
X51000000Y-5400000D03*
X48460000Y-5400000D03*
X45920000Y-5400000D03*
%TD*%
D16*
%TO.C,TP12*%
X11000000Y-51000000D03*
%TD*%
D30*
%TO.C,D2*%
X14450000Y-34962500D03*
X12550000Y-34962500D03*
X13500000Y-36837500D03*
%TD*%
D17*
%TO.C,C9*%
X43600000Y-15550000D03*
X43600000Y-13650000D03*
%TD*%
D27*
%TO.C,R13*%
X17112500Y-32900000D03*
X15287500Y-32900000D03*
%TD*%
D20*
%TO.C,C7*%
X40050000Y-38000000D03*
X41950000Y-38000000D03*
%TD*%
D32*
%TO.C,C8*%
X40125000Y-41200000D03*
X43075000Y-41200000D03*
%TD*%
D13*
%TO.C,H3*%
X65000000Y-65000000D03*
%TD*%
D20*
%TO.C,C15*%
X57850000Y-30600000D03*
X59750000Y-30600000D03*
%TD*%
D29*
%TO.C,TP19*%
X2600000Y-43000000D03*
X7600000Y-43000000D03*
%TD*%
D17*
%TO.C,C11*%
X28000000Y-23750000D03*
X28000000Y-21850000D03*
%TD*%
D16*
%TO.C,TP4*%
X37600000Y-56400000D03*
%TD*%
%TO.C,TP1*%
X14000000Y-60500000D03*
%TD*%
D25*
%TO.C,R8*%
X43600000Y-21712500D03*
X43600000Y-19887500D03*
%TD*%
D33*
%TO.C,U2*%
X49905000Y-18525000D03*
X48635000Y-18525000D03*
X47365000Y-18525000D03*
X46095000Y-18525000D03*
X46095000Y-23475000D03*
X47365000Y-23475000D03*
X48635000Y-23475000D03*
X49905000Y-23475000D03*
%TD*%
D20*
%TO.C,C13*%
X49650000Y-12400000D03*
X51550000Y-12400000D03*
%TD*%
D16*
%TO.C,TP5*%
X25200000Y-25400000D03*
%TD*%
D34*
%TO.C,R7*%
X53400000Y-37287500D03*
X53400000Y-39112500D03*
%TD*%
D13*
%TO.C,H4*%
X5000000Y-65000000D03*
%TD*%
D29*
%TO.C,TP14*%
X16200000Y-63600000D03*
X11200000Y-63600000D03*
%TD*%
D27*
%TO.C,R12*%
X30712500Y-32500000D03*
X28887500Y-32500000D03*
%TD*%
D34*
%TO.C,R5*%
X30400000Y-21887500D03*
X30400000Y-23712500D03*
%TD*%
D17*
%TO.C,C6*%
X21200000Y-57950000D03*
X21200000Y-56050000D03*
%TD*%
D29*
%TO.C,TP15*%
X7600000Y-28000000D03*
X2600000Y-28000000D03*
%TD*%
D16*
%TO.C,TP3*%
X28800000Y-56400000D03*
%TD*%
D34*
%TO.C,R6*%
X28000000Y-25607500D03*
X28000000Y-27432500D03*
%TD*%
D18*
%TO.C,R15*%
X15687500Y-47800000D03*
X17512500Y-47800000D03*
%TD*%
D35*
%TO.C,D3*%
X57337500Y-15350000D03*
X57337500Y-13450000D03*
X55462500Y-14400000D03*
%TD*%
D17*
%TO.C,C10*%
X46000000Y-15550000D03*
X46000000Y-13650000D03*
%TD*%
D25*
%TO.C,R4*%
X41200000Y-14512500D03*
X41200000Y-12687500D03*
%TD*%
D29*
%TO.C,TP20*%
X2600000Y-51000000D03*
X7600000Y-51000000D03*
%TD*%
D34*
%TO.C,R18*%
X50800000Y-34087500D03*
X50800000Y-35912500D03*
%TD*%
D20*
%TO.C,C17*%
X22850000Y-33900000D03*
X24750000Y-33900000D03*
%TD*%
D34*
%TO.C,R3*%
X37800000Y-12287500D03*
X37800000Y-14112500D03*
%TD*%
%TO.C,R17*%
X53400000Y-33087500D03*
X53400000Y-34912500D03*
%TD*%
D29*
%TO.C,TP16*%
X2600000Y-20000000D03*
X7600000Y-20000000D03*
%TD*%
D17*
%TO.C,C3*%
X29600000Y-14550000D03*
X29600000Y-12650000D03*
%TD*%
D27*
%TO.C,R16*%
X61112500Y-34000000D03*
X59287500Y-34000000D03*
%TD*%
D17*
%TO.C,C5*%
X33800000Y-56950000D03*
X33800000Y-55050000D03*
%TD*%
%LPD*%
M02*
