%TF.GenerationSoftware,KiCad,Pcbnew,9.0.9*%
%TF.CreationDate,2026-09-11T15:24:08-07:00*%
%TF.ProjectId,muon_detector_head,6d756f6e-5f64-4657-9465-63746f725f68,rev?*%
%TF.SameCoordinates,Original*%
%TF.FileFunction,Soldermask,Top*%
%TF.FilePolarity,Negative*%
%FSLAX46Y46*%
G04 Gerber Fmt 4.6, Leading zero omitted, Abs format (unit mm)*
G04 Created by KiCad (PCBNEW 9.0.9) date 2026-09-11 15:24:08*
%MOMM*%
%LPD*%
G01*
G04 APERTURE LIST*
G04 Aperture macros list*
%AMRoundRect*
0 Rectangle with rounded corners*
0 $1 Rounding radius*
0 $2 $3 $4 $5 $6 $7 $8 $9 X,Y pos of 4 corners*
0 Add a 4 corners polygon primitive as box body*
4,1,4,$2,$3,$4,$5,$6,$7,$8,$9,$2,$3,0*
0 Add four circle primitives for the rounded corners*
1,1,$1+$1,$2,$3*
1,1,$1+$1,$4,$5*
1,1,$1+$1,$6,$7*
1,1,$1+$1,$8,$9*
0 Add four rect primitives between the rounded corners*
20,1,$1+$1,$2,$3,$4,$5,0*
20,1,$1+$1,$4,$5,$6,$7,0*
20,1,$1+$1,$6,$7,$8,$9,0*
20,1,$1+$1,$8,$9,$2,$3,0*%
G04 Aperture macros list end*
%ADD10C,3.200000*%
%ADD11RoundRect,0.250000X-0.600000X-0.725000X0.600000X-0.725000X0.600000X0.725000X-0.600000X0.725000X0*%
%ADD12O,1.700000X1.950000*%
%ADD13C,2.000000*%
%ADD14RoundRect,0.250000X0.475000X-0.250000X0.475000X0.250000X-0.475000X0.250000X-0.475000X-0.250000X0*%
%ADD15RoundRect,0.250000X-0.262500X-0.450000X0.262500X-0.450000X0.262500X0.450000X-0.262500X0.450000X0*%
%ADD16RoundRect,0.100000X0.562500X0.100000X-0.562500X0.100000X-0.562500X-0.100000X0.562500X-0.100000X0*%
%ADD17RoundRect,0.250000X-0.250000X-0.475000X0.250000X-0.475000X0.250000X0.475000X-0.250000X0.475000X0*%
%ADD18R,1.700000X1.700000*%
%ADD19C,1.700000*%
%ADD20RoundRect,0.150000X0.150000X-0.825000X0.150000X0.825000X-0.150000X0.825000X-0.150000X-0.825000X0*%
%ADD21R,0.300000X1.600000*%
%ADD22RoundRect,0.250000X0.450000X-0.262500X0.450000X0.262500X-0.450000X0.262500X-0.450000X-0.262500X0*%
%ADD23RoundRect,0.250000X-0.475000X0.250000X-0.475000X-0.250000X0.475000X-0.250000X0.475000X0.250000X0*%
%ADD24RoundRect,0.250000X0.262500X0.450000X-0.262500X0.450000X-0.262500X-0.450000X0.262500X-0.450000X0*%
%ADD25RoundRect,0.150000X-0.825000X-0.150000X0.825000X-0.150000X0.825000X0.150000X-0.825000X0.150000X0*%
%ADD26C,1.800000*%
%ADD27RoundRect,0.150000X-0.150000X0.587500X-0.150000X-0.587500X0.150000X-0.587500X0.150000X0.587500X0*%
%ADD28C,1.440000*%
%ADD29RoundRect,0.250000X-0.325000X-0.650000X0.325000X-0.650000X0.325000X0.650000X-0.325000X0.650000X0*%
%ADD30RoundRect,0.150000X-0.150000X0.825000X-0.150000X-0.825000X0.150000X-0.825000X0.150000X0.825000X0*%
%ADD31RoundRect,0.250000X-0.450000X0.262500X-0.450000X-0.262500X0.450000X-0.262500X0.450000X0.262500X0*%
%ADD32RoundRect,0.150000X0.587500X0.150000X-0.587500X0.150000X-0.587500X-0.150000X0.587500X-0.150000X0*%
G04 APERTURE END LIST*
D10*
%TO.C,H1*%
X5000000Y-5000000D03*
%TD*%
D11*
%TO.C,J1*%
X23750000Y-62000000D03*
D12*
X26250000Y-62000000D03*
X28750000Y-62000000D03*
X31250000Y-62000000D03*
X33750000Y-62000000D03*
X36250000Y-62000000D03*
X38750000Y-62000000D03*
X41250000Y-62000000D03*
X43750000Y-62000000D03*
X46250000Y-62000000D03*
%TD*%
D13*
%TO.C,TP7*%
X11600000Y-21400000D03*
%TD*%
D14*
%TO.C,C4*%
X52600000Y-25150000D03*
X52600000Y-23250000D03*
%TD*%
D13*
%TO.C,TP10*%
X57800000Y-44200000D03*
%TD*%
D14*
%TO.C,C2*%
X32200000Y-14150000D03*
X32200000Y-12250000D03*
%TD*%
D15*
%TO.C,R11*%
X40487500Y-4400000D03*
X42312500Y-4400000D03*
%TD*%
D16*
%TO.C,U4*%
X7187500Y-35250000D03*
X7187500Y-34600000D03*
X7187500Y-33950000D03*
X5412500Y-33950000D03*
X5412500Y-35250000D03*
%TD*%
D13*
%TO.C,TP8*%
X45000000Y-11000000D03*
%TD*%
D14*
%TO.C,C12*%
X37800000Y-6750000D03*
X37800000Y-4850000D03*
%TD*%
D17*
%TO.C,C14*%
X55450000Y-34000000D03*
X57350000Y-34000000D03*
%TD*%
D13*
%TO.C,TP13*%
X10600000Y-55800000D03*
%TD*%
D18*
%TO.C,J2*%
X3400000Y-24000000D03*
D19*
X5940000Y-24000000D03*
%TD*%
D20*
%TO.C,U1*%
X33095000Y-21475000D03*
X34365000Y-21475000D03*
X35635000Y-21475000D03*
X36905000Y-21475000D03*
X36905000Y-16525000D03*
X35635000Y-16525000D03*
X34365000Y-16525000D03*
X33095000Y-16525000D03*
%TD*%
D21*
%TO.C,U5*%
X55975000Y-27300000D03*
X55325000Y-27300000D03*
X54675000Y-27300000D03*
X54025000Y-27300000D03*
X54025000Y-30700000D03*
X54675000Y-30700000D03*
X55325000Y-30700000D03*
X55975000Y-30700000D03*
%TD*%
D10*
%TO.C,H2*%
X65000000Y-5000000D03*
%TD*%
D13*
%TO.C,TP6*%
X11600000Y-28000000D03*
%TD*%
D22*
%TO.C,R19*%
X53400000Y-17312499D03*
X53400000Y-15487499D03*
%TD*%
D23*
%TO.C,C16*%
X13200000Y-38750000D03*
X13200000Y-40650000D03*
%TD*%
D13*
%TO.C,TP9*%
X60200000Y-19600000D03*
%TD*%
D24*
%TO.C,R1*%
X30712500Y-29500000D03*
X28887500Y-29500000D03*
%TD*%
D25*
%TO.C,U3*%
X16525000Y-36095000D03*
X16525000Y-37365000D03*
X16525000Y-38635000D03*
X16525000Y-39905000D03*
X21475000Y-39905000D03*
X21475000Y-38635000D03*
X21475000Y-37365000D03*
X21475000Y-36095000D03*
%TD*%
D14*
%TO.C,C18*%
X3300000Y-36550000D03*
X3300000Y-34650000D03*
%TD*%
D26*
%TO.C,TP17*%
X64400000Y-22000000D03*
X64400000Y-17000000D03*
%TD*%
D14*
%TO.C,C1*%
X35640000Y-26450000D03*
X35640000Y-24550000D03*
%TD*%
D27*
%TO.C,Q1*%
X10850000Y-34262500D03*
X8950000Y-34262500D03*
X9900000Y-36137500D03*
%TD*%
D22*
%TO.C,R2*%
X38800000Y-25712500D03*
X38800000Y-23887500D03*
%TD*%
%TO.C,R14*%
X24400000Y-39512500D03*
X24400000Y-37687500D03*
%TD*%
D13*
%TO.C,TP11*%
X7900000Y-38800000D03*
%TD*%
D15*
%TO.C,R10*%
X40487500Y-7400000D03*
X42312500Y-7400000D03*
%TD*%
D13*
%TO.C,TP2*%
X45800000Y-41000000D03*
%TD*%
D24*
%TO.C,R9*%
X41912500Y-44600000D03*
X40087500Y-44600000D03*
%TD*%
D26*
%TO.C,TP18*%
X61600000Y-41400000D03*
X61600000Y-46400000D03*
%TD*%
D28*
%TO.C,RV1*%
X51000000Y-5400000D03*
X48460000Y-5400000D03*
X45920000Y-5400000D03*
%TD*%
D13*
%TO.C,TP12*%
X11000000Y-51000000D03*
%TD*%
D27*
%TO.C,D2*%
X14450000Y-34962500D03*
X12550000Y-34962500D03*
X13500000Y-36837500D03*
%TD*%
D14*
%TO.C,C9*%
X43600000Y-15550000D03*
X43600000Y-13650000D03*
%TD*%
D24*
%TO.C,R13*%
X17112500Y-32900000D03*
X15287500Y-32900000D03*
%TD*%
D17*
%TO.C,C7*%
X40050000Y-38000000D03*
X41950000Y-38000000D03*
%TD*%
D29*
%TO.C,C8*%
X40125000Y-41200000D03*
X43075000Y-41200000D03*
%TD*%
D10*
%TO.C,H3*%
X65000000Y-65000000D03*
%TD*%
D17*
%TO.C,C15*%
X57850000Y-30600000D03*
X59750000Y-30600000D03*
%TD*%
D26*
%TO.C,TP19*%
X2600000Y-43000000D03*
X7600000Y-43000000D03*
%TD*%
D14*
%TO.C,C11*%
X28000000Y-23750000D03*
X28000000Y-21850000D03*
%TD*%
D13*
%TO.C,TP4*%
X37600000Y-56400000D03*
%TD*%
%TO.C,TP1*%
X14000000Y-60500000D03*
%TD*%
D22*
%TO.C,R8*%
X43600000Y-21712500D03*
X43600000Y-19887500D03*
%TD*%
D30*
%TO.C,U2*%
X49905000Y-18525000D03*
X48635000Y-18525000D03*
X47365000Y-18525000D03*
X46095000Y-18525000D03*
X46095000Y-23475000D03*
X47365000Y-23475000D03*
X48635000Y-23475000D03*
X49905000Y-23475000D03*
%TD*%
D17*
%TO.C,C13*%
X49650000Y-12400000D03*
X51550000Y-12400000D03*
%TD*%
D13*
%TO.C,TP5*%
X25200000Y-25400000D03*
%TD*%
D31*
%TO.C,R7*%
X53400000Y-37287500D03*
X53400000Y-39112500D03*
%TD*%
D10*
%TO.C,H4*%
X5000000Y-65000000D03*
%TD*%
D26*
%TO.C,TP14*%
X16200000Y-63600000D03*
X11200000Y-63600000D03*
%TD*%
D24*
%TO.C,R12*%
X30712500Y-32500000D03*
X28887500Y-32500000D03*
%TD*%
D31*
%TO.C,R5*%
X30400000Y-21887500D03*
X30400000Y-23712500D03*
%TD*%
D14*
%TO.C,C6*%
X21200000Y-57950000D03*
X21200000Y-56050000D03*
%TD*%
D26*
%TO.C,TP15*%
X7600000Y-28000000D03*
X2600000Y-28000000D03*
%TD*%
D13*
%TO.C,TP3*%
X28800000Y-56400000D03*
%TD*%
D31*
%TO.C,R6*%
X28000000Y-25607500D03*
X28000000Y-27432500D03*
%TD*%
D15*
%TO.C,R15*%
X15687500Y-47800000D03*
X17512500Y-47800000D03*
%TD*%
D32*
%TO.C,D3*%
X57337500Y-15350000D03*
X57337500Y-13450000D03*
X55462500Y-14400000D03*
%TD*%
D14*
%TO.C,C10*%
X46000000Y-15550000D03*
X46000000Y-13650000D03*
%TD*%
D22*
%TO.C,R4*%
X41200000Y-14512500D03*
X41200000Y-12687500D03*
%TD*%
D26*
%TO.C,TP20*%
X2600000Y-51000000D03*
X7600000Y-51000000D03*
%TD*%
D31*
%TO.C,R18*%
X50800000Y-34087500D03*
X50800000Y-35912500D03*
%TD*%
D17*
%TO.C,C17*%
X22850000Y-33900000D03*
X24750000Y-33900000D03*
%TD*%
D31*
%TO.C,R3*%
X37800000Y-12287500D03*
X37800000Y-14112500D03*
%TD*%
%TO.C,R17*%
X53400000Y-33087500D03*
X53400000Y-34912500D03*
%TD*%
D26*
%TO.C,TP16*%
X2600000Y-20000000D03*
X7600000Y-20000000D03*
%TD*%
D14*
%TO.C,C3*%
X29600000Y-14550000D03*
X29600000Y-12650000D03*
%TD*%
D24*
%TO.C,R16*%
X61112500Y-34000000D03*
X59287500Y-34000000D03*
%TD*%
D14*
%TO.C,C5*%
X33800000Y-56950000D03*
X33800000Y-55050000D03*
%TD*%
M02*
