%TF.GenerationSoftware,KiCad,Pcbnew,9.0.9*%
%TF.CreationDate,2026-09-11T15:24:08-07:00*%
%TF.ProjectId,muon_detector_head,6d756f6e-5f64-4657-9465-63746f725f68,rev?*%
%TF.SameCoordinates,Original*%
%TF.FileFunction,Copper,L1,Top*%
%TF.FilePolarity,Positive*%
%FSLAX46Y46*%
G04 Gerber Fmt 4.6, Leading zero omitted, Abs format (unit mm)*
G04 Created by KiCad (PCBNEW 9.0.9) date 2026-09-11 15:24:08*
%MOMM*%
%LPD*%
G01*
G04 APERTURE LIST*
G04 Aperture macros list*
%AMRoundRect*
0 Rectangle with rounded corners*
0 $1 Rounding radius*
0 $2 $3 $4 $5 $6 $7 $8 $9 X,Y pos of 4 corners*
0 Add a 4 corners polygon primitive as box body*
4,1,4,$2,$3,$4,$5,$6,$7,$8,$9,$2,$3,0*
0 Add four circle primitives for the rounded corners*
1,1,$1+$1,$2,$3*
1,1,$1+$1,$4,$5*
1,1,$1+$1,$6,$7*
1,1,$1+$1,$8,$9*
0 Add four rect primitives between the rounded corners*
20,1,$1+$1,$2,$3,$4,$5,0*
20,1,$1+$1,$4,$5,$6,$7,0*
20,1,$1+$1,$6,$7,$8,$9,0*
20,1,$1+$1,$8,$9,$2,$3,0*%
G04 Aperture macros list end*
%TA.AperFunction,ComponentPad*%
%ADD10RoundRect,0.250000X-0.600000X-0.725000X0.600000X-0.725000X0.600000X0.725000X-0.600000X0.725000X0*%
%TD*%
%TA.AperFunction,ComponentPad*%
%ADD11O,1.700000X1.950000*%
%TD*%
%TA.AperFunction,SMDPad,CuDef*%
%ADD12C,2.000000*%
%TD*%
%TA.AperFunction,SMDPad,CuDef*%
%ADD13RoundRect,0.250000X0.475000X-0.250000X0.475000X0.250000X-0.475000X0.250000X-0.475000X-0.250000X0*%
%TD*%
%TA.AperFunction,SMDPad,CuDef*%
%ADD14RoundRect,0.250000X-0.262500X-0.450000X0.262500X-0.450000X0.262500X0.450000X-0.262500X0.450000X0*%
%TD*%
%TA.AperFunction,SMDPad,CuDef*%
%ADD15RoundRect,0.100000X0.562500X0.100000X-0.562500X0.100000X-0.562500X-0.100000X0.562500X-0.100000X0*%
%TD*%
%TA.AperFunction,SMDPad,CuDef*%
%ADD16RoundRect,0.250000X-0.250000X-0.475000X0.250000X-0.475000X0.250000X0.475000X-0.250000X0.475000X0*%
%TD*%
%TA.AperFunction,ComponentPad*%
%ADD17R,1.700000X1.700000*%
%TD*%
%TA.AperFunction,ComponentPad*%
%ADD18C,1.700000*%
%TD*%
%TA.AperFunction,SMDPad,CuDef*%
%ADD19RoundRect,0.150000X0.150000X-0.825000X0.150000X0.825000X-0.150000X0.825000X-0.150000X-0.825000X0*%
%TD*%
%TA.AperFunction,SMDPad,CuDef*%
%ADD20R,0.300000X1.600000*%
%TD*%
%TA.AperFunction,SMDPad,CuDef*%
%ADD21RoundRect,0.250000X0.450000X-0.262500X0.450000X0.262500X-0.450000X0.262500X-0.450000X-0.262500X0*%
%TD*%
%TA.AperFunction,SMDPad,CuDef*%
%ADD22RoundRect,0.250000X-0.475000X0.250000X-0.475000X-0.250000X0.475000X-0.250000X0.475000X0.250000X0*%
%TD*%
%TA.AperFunction,SMDPad,CuDef*%
%ADD23RoundRect,0.250000X0.262500X0.450000X-0.262500X0.450000X-0.262500X-0.450000X0.262500X-0.450000X0*%
%TD*%
%TA.AperFunction,SMDPad,CuDef*%
%ADD24RoundRect,0.150000X-0.825000X-0.150000X0.825000X-0.150000X0.825000X0.150000X-0.825000X0.150000X0*%
%TD*%
%TA.AperFunction,ComponentPad*%
%ADD25C,1.800000*%
%TD*%
%TA.AperFunction,SMDPad,CuDef*%
%ADD26RoundRect,0.150000X-0.150000X0.587500X-0.150000X-0.587500X0.150000X-0.587500X0.150000X0.587500X0*%
%TD*%
%TA.AperFunction,ComponentPad*%
%ADD27C,1.440000*%
%TD*%
%TA.AperFunction,SMDPad,CuDef*%
%ADD28RoundRect,0.250000X-0.325000X-0.650000X0.325000X-0.650000X0.325000X0.650000X-0.325000X0.650000X0*%
%TD*%
%TA.AperFunction,SMDPad,CuDef*%
%ADD29RoundRect,0.150000X-0.150000X0.825000X-0.150000X-0.825000X0.150000X-0.825000X0.150000X0.825000X0*%
%TD*%
%TA.AperFunction,SMDPad,CuDef*%
%ADD30RoundRect,0.250000X-0.450000X0.262500X-0.450000X-0.262500X0.450000X-0.262500X0.450000X0.262500X0*%
%TD*%
%TA.AperFunction,SMDPad,CuDef*%
%ADD31RoundRect,0.150000X0.587500X0.150000X-0.587500X0.150000X-0.587500X-0.150000X0.587500X-0.150000X0*%
%TD*%
%TA.AperFunction,ViaPad*%
%ADD32C,1.000000*%
%TD*%
%TA.AperFunction,Conductor*%
%ADD33C,0.400000*%
%TD*%
%TA.AperFunction,Conductor*%
%ADD34C,0.600000*%
%TD*%
%TA.AperFunction,Conductor*%
%ADD35C,0.300000*%
%TD*%
G04 APERTURE END LIST*
D10*
%TO.P,J1,1,BIAS_27V*%
%TO.N,VBIAS*%
X23750000Y-62000000D03*
D11*
%TO.P,J1,2,GND*%
%TO.N,GND*%
X26250000Y-62000000D03*
%TO.P,J1,3,+5VA*%
%TO.N,+5V*%
X28750000Y-62000000D03*
%TO.P,J1,4,GND*%
%TO.N,GND*%
X31250000Y-62000000D03*
%TO.P,J1,5,+3V3_LOCAL*%
%TO.N,+3.3V*%
X33750000Y-62000000D03*
%TO.P,J1,6,GND*%
%TO.N,GND*%
X36250000Y-62000000D03*
%TO.P,J1,7,TRIG_OUT*%
%TO.N,/TRIG*%
X38750000Y-62000000D03*
%TO.P,J1,8,GND*%
%TO.N,GND*%
X41250000Y-62000000D03*
%TO.P,J1,9,PEAK_OUT*%
%TO.N,/PEAK_OUT*%
X43750000Y-62000000D03*
%TO.P,J1,10,PEAK_RESET*%
%TO.N,/PEAK_RESET*%
X46250000Y-62000000D03*
%TD*%
D12*
%TO.P,TP7,1*%
%TO.N,/AMP_OUT*%
X11600000Y-21400000D03*
%TD*%
D13*
%TO.P,C4,1*%
%TO.N,+3.3V*%
X52600000Y-25150000D03*
%TO.P,C4,2*%
%TO.N,GND*%
X52600000Y-23250000D03*
%TD*%
D12*
%TO.P,TP10,1*%
%TO.N,/TRIG*%
X57800000Y-44200000D03*
%TD*%
D13*
%TO.P,C2,1*%
%TO.N,+5V*%
X32200000Y-14150000D03*
%TO.P,C2,2*%
%TO.N,GND*%
X32200000Y-12250000D03*
%TD*%
D14*
%TO.P,R11,1*%
%TO.N,Net-(C12-Pad1)*%
X40487500Y-4400000D03*
%TO.P,R11,2*%
%TO.N,GND*%
X42312500Y-4400000D03*
%TD*%
D15*
%TO.P,U4,1*%
%TO.N,/PEAK_HOLD*%
X7187500Y-35250000D03*
%TO.P,U4,2*%
%TO.N,/VBASE*%
X7187500Y-34600000D03*
%TO.P,U4,3*%
%TO.N,GND*%
X7187500Y-33950000D03*
%TO.P,U4,4*%
%TO.N,/PEAK_RESET*%
X5412500Y-33950000D03*
%TO.P,U4,5*%
%TO.N,+5V*%
X5412500Y-35250000D03*
%TD*%
D12*
%TO.P,TP8,1*%
%TO.N,/VTH*%
X45000000Y-11000000D03*
%TD*%
D13*
%TO.P,C12,1*%
%TO.N,Net-(C12-Pad1)*%
X37800000Y-6750000D03*
%TO.P,C12,2*%
%TO.N,GND*%
X37800000Y-4850000D03*
%TD*%
D16*
%TO.P,C14,1*%
%TO.N,Net-(U5A-Cext)*%
X55450000Y-34000000D03*
%TO.P,C14,2*%
%TO.N,Net-(U5A-RCext)*%
X57350000Y-34000000D03*
%TD*%
D12*
%TO.P,TP13,1*%
%TO.N,/PEAK_RESET*%
X10600000Y-55800000D03*
%TD*%
D17*
%TO.P,J2,1*%
%TO.N,/INJECT*%
X3400000Y-24000000D03*
D18*
%TO.P,J2,2*%
%TO.N,GND*%
X5940000Y-24000000D03*
%TD*%
D19*
%TO.P,U1,1*%
%TO.N,/AMP_OUT*%
X33095000Y-21475000D03*
%TO.P,U1,2,-*%
%TO.N,/AMP_FB*%
X34365000Y-21475000D03*
%TO.P,U1,3,+*%
%TO.N,/AMP_IN*%
X35635000Y-21475000D03*
%TO.P,U1,4,V-*%
%TO.N,GND*%
X36905000Y-21475000D03*
%TO.P,U1,5,+*%
%TO.N,/VBASE_DIV*%
X36905000Y-16525000D03*
%TO.P,U1,6,-*%
%TO.N,/VBASE*%
X35635000Y-16525000D03*
%TO.P,U1,7*%
X34365000Y-16525000D03*
%TO.P,U1,8,V+*%
%TO.N,+5V*%
X33095000Y-16525000D03*
%TD*%
D20*
%TO.P,U5,1*%
%TO.N,GND*%
X55975000Y-27300000D03*
%TO.P,U5,2*%
%TO.N,/COMP_RAW*%
X55325000Y-27300000D03*
%TO.P,U5,3*%
%TO.N,+3.3V*%
X54675000Y-27300000D03*
%TO.P,U5,4*%
%TO.N,GND*%
X54025000Y-27300000D03*
%TO.P,U5,5*%
%TO.N,Net-(U5A-Q)*%
X54025000Y-30700000D03*
%TO.P,U5,6*%
%TO.N,Net-(U5A-Cext)*%
X54675000Y-30700000D03*
%TO.P,U5,7*%
%TO.N,Net-(U5A-RCext)*%
X55325000Y-30700000D03*
%TO.P,U5,8*%
%TO.N,+3.3V*%
X55975000Y-30700000D03*
%TD*%
D12*
%TO.P,TP6,1*%
%TO.N,/SIPM_RAW*%
X11600000Y-28000000D03*
%TD*%
D21*
%TO.P,R19,1*%
%TO.N,/COMP_RAW*%
X53400000Y-17312499D03*
%TO.P,R19,2*%
%TO.N,/COMP_IN*%
X53400000Y-15487499D03*
%TD*%
D22*
%TO.P,C16,1*%
%TO.N,/PEAK_HOLD*%
X13200000Y-38750000D03*
%TO.P,C16,2*%
%TO.N,GND*%
X13200000Y-40650000D03*
%TD*%
D12*
%TO.P,TP9,1*%
%TO.N,/COMP_RAW*%
X60200000Y-19600000D03*
%TD*%
D23*
%TO.P,R1,1*%
%TO.N,/SIPM_RAW*%
X30712500Y-29500000D03*
%TO.P,R1,2*%
%TO.N,GND*%
X28887500Y-29500000D03*
%TD*%
D24*
%TO.P,U3,1*%
%TO.N,Net-(R13-Pad1)*%
X16525000Y-36095000D03*
%TO.P,U3,2*%
%TO.N,/PEAK_HOLD*%
X16525000Y-37365000D03*
%TO.P,U3,3*%
%TO.N,/AMP_OUT*%
X16525000Y-38635000D03*
%TO.P,U3,4*%
%TO.N,GND*%
X16525000Y-39905000D03*
%TO.P,U3,5*%
%TO.N,/PEAK_HOLD*%
X21475000Y-39905000D03*
%TO.P,U3,6*%
%TO.N,/PEAK_GUARD*%
X21475000Y-38635000D03*
%TO.P,U3,7*%
X21475000Y-37365000D03*
%TO.P,U3,8*%
%TO.N,+5V*%
X21475000Y-36095000D03*
%TD*%
D13*
%TO.P,C18,1*%
%TO.N,+5V*%
X3300000Y-36550000D03*
%TO.P,C18,2*%
%TO.N,GND*%
X3300000Y-34650000D03*
%TD*%
D25*
%TO.P,TP17,1*%
%TO.N,GND*%
X64400000Y-22000000D03*
X64400000Y-17000000D03*
%TD*%
D13*
%TO.P,C1,1*%
%TO.N,/SIPM_RAW*%
X35640000Y-26450000D03*
%TO.P,C1,2*%
%TO.N,/AMP_IN*%
X35640000Y-24550000D03*
%TD*%
D26*
%TO.P,Q1,1*%
%TO.N,/PEAK_RESET*%
X10850000Y-34262500D03*
%TO.P,Q1,2*%
%TO.N,/VBASE*%
X8950000Y-34262500D03*
%TO.P,Q1,3*%
%TO.N,/PEAK_HOLD*%
X9900000Y-36137500D03*
%TD*%
D21*
%TO.P,R2,1*%
%TO.N,/AMP_IN*%
X38800000Y-25712500D03*
%TO.P,R2,2*%
%TO.N,/VBASE*%
X38800000Y-23887500D03*
%TD*%
%TO.P,R14,1*%
%TO.N,/PEAK_GUARD*%
X24400000Y-39512500D03*
%TO.P,R14,2*%
%TO.N,/PEAK_OUT*%
X24400000Y-37687500D03*
%TD*%
D12*
%TO.P,TP11,1*%
%TO.N,/PEAK_HOLD*%
X7900000Y-38800000D03*
%TD*%
D14*
%TO.P,R10,1*%
%TO.N,+3.3V*%
X40487500Y-7400000D03*
%TO.P,R10,2*%
%TO.N,Net-(C12-Pad1)*%
X42312500Y-7400000D03*
%TD*%
D12*
%TO.P,TP2,1*%
%TO.N,/BIAS_LOCAL*%
X45800000Y-41000000D03*
%TD*%
D23*
%TO.P,R9,1*%
%TO.N,VBIAS*%
X41912500Y-44600000D03*
%TO.P,R9,2*%
%TO.N,/BIAS_LOCAL*%
X40087500Y-44600000D03*
%TD*%
D25*
%TO.P,TP18,1*%
%TO.N,GND*%
X61600000Y-41400000D03*
X61600000Y-46400000D03*
%TD*%
D27*
%TO.P,RV1,1*%
%TO.N,GND*%
X51000000Y-5400000D03*
%TO.P,RV1,2*%
%TO.N,/VTH*%
X48460000Y-5400000D03*
%TO.P,RV1,3*%
%TO.N,Net-(C12-Pad1)*%
X45920000Y-5400000D03*
%TD*%
D12*
%TO.P,TP12,1*%
%TO.N,/PEAK_OUT*%
X11000000Y-51000000D03*
%TD*%
D26*
%TO.P,D2,1*%
%TO.N,Net-(D2-A)*%
X14450000Y-34962500D03*
%TO.P,D2,2*%
%TO.N,unconnected-(D2-NC-Pad2)*%
X12550000Y-34962500D03*
%TO.P,D2,3*%
%TO.N,/PEAK_HOLD*%
X13500000Y-36837500D03*
%TD*%
D13*
%TO.P,C9,1*%
%TO.N,/VBASE_DIV*%
X43600000Y-15550000D03*
%TO.P,C9,2*%
%TO.N,GND*%
X43600000Y-13650000D03*
%TD*%
D23*
%TO.P,R13,1*%
%TO.N,Net-(R13-Pad1)*%
X17112500Y-32900000D03*
%TO.P,R13,2*%
%TO.N,Net-(D2-A)*%
X15287500Y-32900000D03*
%TD*%
D16*
%TO.P,C7,1*%
%TO.N,/BIAS_LOCAL*%
X40050000Y-38000000D03*
%TO.P,C7,2*%
%TO.N,GND*%
X41950000Y-38000000D03*
%TD*%
D28*
%TO.P,C8,1*%
%TO.N,/BIAS_LOCAL*%
X40125000Y-41200000D03*
%TO.P,C8,2*%
%TO.N,GND*%
X43075000Y-41200000D03*
%TD*%
D16*
%TO.P,C15,1*%
%TO.N,+3.3V*%
X57850000Y-30600000D03*
%TO.P,C15,2*%
%TO.N,GND*%
X59750000Y-30600000D03*
%TD*%
D25*
%TO.P,TP19,1*%
%TO.N,GND*%
X2600000Y-43000000D03*
X7600000Y-43000000D03*
%TD*%
D13*
%TO.P,C11,1*%
%TO.N,/AMP_FB*%
X28000000Y-23750000D03*
%TO.P,C11,2*%
%TO.N,/AMP_OUT*%
X28000000Y-21850000D03*
%TD*%
D12*
%TO.P,TP4,1*%
%TO.N,+3.3V*%
X37600000Y-56400000D03*
%TD*%
%TO.P,TP1,1*%
%TO.N,VBIAS*%
X14000000Y-60500000D03*
%TD*%
D21*
%TO.P,R8,1*%
%TO.N,/AMP_OUT*%
X43600000Y-21712500D03*
%TO.P,R8,2*%
%TO.N,/COMP_IN*%
X43600000Y-19887500D03*
%TD*%
D29*
%TO.P,U2,1*%
%TO.N,/COMP_RAW*%
X49905000Y-18525000D03*
%TO.P,U2,2,-*%
%TO.N,/VTH*%
X48635000Y-18525000D03*
%TO.P,U2,3,+*%
%TO.N,/COMP_IN*%
X47365000Y-18525000D03*
%TO.P,U2,4,V-*%
%TO.N,GND*%
X46095000Y-18525000D03*
%TO.P,U2,5,+*%
X46095000Y-23475000D03*
%TO.P,U2,6,-*%
%TO.N,+3.3V*%
X47365000Y-23475000D03*
%TO.P,U2,7*%
%TO.N,unconnected-(U2-Pad7)*%
X48635000Y-23475000D03*
%TO.P,U2,8,V+*%
%TO.N,+3.3V*%
X49905000Y-23475000D03*
%TD*%
D16*
%TO.P,C13,1*%
%TO.N,/VTH*%
X49650000Y-12400000D03*
%TO.P,C13,2*%
%TO.N,GND*%
X51550000Y-12400000D03*
%TD*%
D12*
%TO.P,TP5,1*%
%TO.N,/VBASE*%
X25200000Y-25400000D03*
%TD*%
D30*
%TO.P,R7,1*%
%TO.N,Net-(R17-Pad2)*%
X53400000Y-37287500D03*
%TO.P,R7,2*%
%TO.N,/TRIG*%
X53400000Y-39112500D03*
%TD*%
D25*
%TO.P,TP14,1*%
%TO.N,GND*%
X16200000Y-63600000D03*
X11200000Y-63600000D03*
%TD*%
D23*
%TO.P,R12,1*%
%TO.N,/SIPM_RAW*%
X30712500Y-32500000D03*
%TO.P,R12,2*%
%TO.N,/INJECT*%
X28887500Y-32500000D03*
%TD*%
D30*
%TO.P,R5,1*%
%TO.N,/AMP_OUT*%
X30400000Y-21887500D03*
%TO.P,R5,2*%
%TO.N,/AMP_FB*%
X30400000Y-23712500D03*
%TD*%
D13*
%TO.P,C6,1*%
%TO.N,VBIAS*%
X21200000Y-57950000D03*
%TO.P,C6,2*%
%TO.N,GND*%
X21200000Y-56050000D03*
%TD*%
D25*
%TO.P,TP15,1*%
%TO.N,GND*%
X7600000Y-28000000D03*
X2600000Y-28000000D03*
%TD*%
D12*
%TO.P,TP3,1*%
%TO.N,+5V*%
X28800000Y-56400000D03*
%TD*%
D30*
%TO.P,R6,1*%
%TO.N,/AMP_FB*%
X28000000Y-25607500D03*
%TO.P,R6,2*%
%TO.N,/VBASE*%
X28000000Y-27432500D03*
%TD*%
D14*
%TO.P,R15,1*%
%TO.N,/PEAK_RESET*%
X15687500Y-47800000D03*
%TO.P,R15,2*%
%TO.N,GND*%
X17512500Y-47800000D03*
%TD*%
D31*
%TO.P,D3,1*%
%TO.N,GND*%
X57337500Y-15350000D03*
%TO.P,D3,2*%
%TO.N,+3.3V*%
X57337500Y-13450000D03*
%TO.P,D3,3*%
%TO.N,/COMP_IN*%
X55462500Y-14400000D03*
%TD*%
D13*
%TO.P,C10,1*%
%TO.N,/VBASE_DIV*%
X46000000Y-15550000D03*
%TO.P,C10,2*%
%TO.N,GND*%
X46000000Y-13650000D03*
%TD*%
D21*
%TO.P,R4,1*%
%TO.N,/VBASE_DIV*%
X41200000Y-14512500D03*
%TO.P,R4,2*%
%TO.N,GND*%
X41200000Y-12687500D03*
%TD*%
D25*
%TO.P,TP20,1*%
%TO.N,GND*%
X2600000Y-51000000D03*
X7600000Y-51000000D03*
%TD*%
D30*
%TO.P,R18,1*%
%TO.N,/COMP_RAW*%
X50800000Y-34087500D03*
%TO.P,R18,2*%
%TO.N,Net-(R17-Pad2)*%
X50800000Y-35912500D03*
%TD*%
D16*
%TO.P,C17,1*%
%TO.N,+5V*%
X22850000Y-33900000D03*
%TO.P,C17,2*%
%TO.N,GND*%
X24750000Y-33900000D03*
%TD*%
D30*
%TO.P,R3,1*%
%TO.N,+3.3V*%
X37800000Y-12287500D03*
%TO.P,R3,2*%
%TO.N,/VBASE_DIV*%
X37800000Y-14112500D03*
%TD*%
%TO.P,R17,1*%
%TO.N,Net-(U5A-Q)*%
X53400000Y-33087500D03*
%TO.P,R17,2*%
%TO.N,Net-(R17-Pad2)*%
X53400000Y-34912500D03*
%TD*%
D25*
%TO.P,TP16,1*%
%TO.N,GND*%
X2600000Y-20000000D03*
X7600000Y-20000000D03*
%TD*%
D13*
%TO.P,C3,1*%
%TO.N,+5V*%
X29600000Y-14550000D03*
%TO.P,C3,2*%
%TO.N,GND*%
X29600000Y-12650000D03*
%TD*%
D23*
%TO.P,R16,1*%
%TO.N,+3.3V*%
X61112500Y-34000000D03*
%TO.P,R16,2*%
%TO.N,Net-(U5A-RCext)*%
X59287500Y-34000000D03*
%TD*%
D13*
%TO.P,C5,1*%
%TO.N,+3.3V*%
X33800000Y-56950000D03*
%TO.P,C5,2*%
%TO.N,GND*%
X33800000Y-55050000D03*
%TD*%
D32*
%TO.N,/SIPM_RAW*%
X31600000Y-32700000D03*
X22300000Y-31300000D03*
X20600000Y-33000000D03*
%TO.N,GND*%
X40400000Y-11900000D03*
X42400000Y-37000000D03*
X42900000Y-3500000D03*
X3300000Y-33299999D03*
X7900000Y-32700000D03*
X45600000Y-17300000D03*
X36800000Y-22800000D03*
X60200000Y-29600000D03*
X31400000Y-11500000D03*
X56500000Y-26100000D03*
X19000000Y-39910000D03*
X37000000Y-4099999D03*
X45600000Y-22300000D03*
X33000000Y-54300000D03*
X43800000Y-42100000D03*
X25600000Y-33800000D03*
X51800000Y-22500000D03*
X20400000Y-55300000D03*
X58200000Y-14800000D03*
X27900000Y-29000000D03*
X28800000Y-11900000D03*
X46700000Y-12900000D03*
X18100000Y-46900000D03*
X42800000Y-12900000D03*
X53200000Y-26700000D03*
X11600000Y-41250000D03*
X52000000Y-11400000D03*
%TO.N,+5V*%
X25000000Y-20400000D03*
X29700000Y-51600000D03*
X3300000Y-37900000D03*
X27800000Y-39100000D03*
X21600000Y-27900000D03*
X25000000Y-22900000D03*
X20600000Y-31300000D03*
%TO.N,+3.3V*%
X40400000Y-55100000D03*
X40700000Y-21100000D03*
X42100000Y-53400000D03*
X40700000Y-18600000D03*
%TO.N,/TRIG*%
X55500000Y-41800000D03*
X53700000Y-40000000D03*
X42200000Y-56900000D03*
X43900000Y-55200000D03*
%TO.N,VBIAS*%
X27100000Y-52100000D03*
X37300000Y-48600000D03*
X35600000Y-50300000D03*
X28900000Y-50300000D03*
%TO.N,/VBASE*%
X34900000Y-28800000D03*
X38300000Y-21100000D03*
X38300000Y-18600000D03*
X8700000Y-25900000D03*
X33200000Y-27100000D03*
X11200000Y-25900000D03*
%TO.N,/VBASE_DIV*%
X37900000Y-15400000D03*
X40600000Y-15400000D03*
%TO.N,/VTH*%
X51100000Y-17100000D03*
X51100000Y-14600000D03*
%TO.N,/PEAK_OUT*%
X39700000Y-48900000D03*
X37900000Y-47100000D03*
X42200000Y-58600000D03*
X40500000Y-56900000D03*
%TO.N,/PEAK_RESET*%
X8300000Y-29500000D03*
X6300000Y-30300000D03*
%TO.N,/COMP_RAW*%
X54200000Y-25500000D03*
X57400000Y-19300000D03*
X50700000Y-25600000D03*
X55600000Y-17500000D03*
X50600000Y-21500000D03*
%TO.N,/BIAS_LOCAL*%
X38300000Y-38700000D03*
%TO.N,/INJECT*%
X8700000Y-24300000D03*
X25700000Y-32200000D03*
X25700000Y-29700000D03*
X11200000Y-24300000D03*
X21000000Y-25100000D03*
X24400000Y-28400000D03*
%TD*%
D33*
%TO.N,/AMP_IN*%
X35640000Y-24550000D02*
X35600000Y-24000000D01*
X36200000Y-25000000D02*
X35640000Y-24550000D01*
X37900000Y-25000000D02*
X36200000Y-25000000D01*
X38800000Y-25712000D02*
X38100000Y-25200000D01*
X38100000Y-25200000D02*
X37900000Y-25000000D01*
X35600000Y-22400000D02*
X35635000Y-21475000D01*
X35600000Y-24000000D02*
X35600000Y-22400000D01*
%TO.N,/SIPM_RAW*%
X30300000Y-30100000D02*
X30712000Y-29500000D01*
X15900000Y-28300000D02*
X20600000Y-33000000D01*
X30400000Y-31800000D02*
X30712000Y-32500000D01*
X30712000Y-29500000D02*
X31200000Y-28900000D01*
X35100000Y-26900000D02*
X35640000Y-26450000D01*
X29500000Y-30900000D02*
X30300000Y-30100000D01*
X33100000Y-28900000D02*
X35100000Y-26900000D01*
X31200000Y-28900000D02*
X33100000Y-28900000D01*
X12700000Y-28300000D02*
X15900000Y-28300000D01*
X30712000Y-32500000D02*
X31200000Y-32700000D01*
X22700000Y-30900000D02*
X29300000Y-30900000D01*
X11600000Y-28000000D02*
X12500000Y-28200000D01*
X29500000Y-30900000D02*
X30400000Y-31800000D01*
X22300000Y-31300000D02*
X22700000Y-30900000D01*
X31200000Y-32700000D02*
X31600000Y-32700000D01*
D34*
%TO.N,GND*%
X51550000Y-12400000D02*
X51800000Y-11600000D01*
X42312000Y-4400000D02*
X42700000Y-3700000D01*
D35*
X56100000Y-26500000D02*
X56500000Y-26100000D01*
D34*
X20600000Y-55500000D02*
X20400000Y-55300000D01*
X43600000Y-13650000D02*
X43000000Y-13100000D01*
X46000000Y-13650000D02*
X46500000Y-13100000D01*
X60000000Y-29800000D02*
X60200000Y-29600000D01*
X51800000Y-11600000D02*
X52000000Y-11400000D01*
D35*
X53800000Y-26700000D02*
X53200000Y-26700000D01*
D34*
X40600000Y-12100000D02*
X40400000Y-11900000D01*
X42200000Y-37200000D02*
X42400000Y-37000000D01*
X37800000Y-4850000D02*
X37200000Y-4300000D01*
X43600000Y-41900000D02*
X43800000Y-42100000D01*
X29600000Y-12650000D02*
X29000000Y-12100000D01*
X29000000Y-12100000D02*
X28800000Y-11900000D01*
D33*
X16520000Y-39910000D02*
X19000000Y-39910000D01*
D34*
X36905000Y-21475000D02*
X36800000Y-22400000D01*
X17900000Y-47100000D02*
X18100000Y-46900000D01*
X52000000Y-22700000D02*
X51800000Y-22500000D01*
X57337000Y-15350000D02*
X58000000Y-15000000D01*
X42700000Y-3700000D02*
X42900000Y-3500000D01*
X32200000Y-12250000D02*
X31600000Y-11700000D01*
D35*
X7500000Y-33950000D02*
X7900000Y-33299999D01*
D34*
X46095000Y-18525000D02*
X45800000Y-17500000D01*
X17512000Y-47800000D02*
X17900000Y-47100000D01*
D33*
X12200000Y-40650000D02*
X11600000Y-41250000D01*
D35*
X7900000Y-33299999D02*
X7900000Y-32700000D01*
D34*
X46095000Y-23475000D02*
X45800000Y-22500000D01*
D33*
X3300000Y-34650000D02*
X3300000Y-33299999D01*
D34*
X33200000Y-54500000D02*
X33000000Y-54300000D01*
X28300000Y-29000000D02*
X27900000Y-29000000D01*
X59750000Y-30600000D02*
X60000000Y-29800000D01*
X41950000Y-38000000D02*
X42200000Y-37200000D01*
X36800000Y-22400000D02*
X36800000Y-22800000D01*
X43075000Y-41200000D02*
X43600000Y-41900000D01*
X37200000Y-4300000D02*
X37000000Y-4099999D01*
X43000000Y-13100000D02*
X42800000Y-12900000D01*
X33800000Y-55050000D02*
X33200000Y-54500000D01*
D35*
X54025000Y-27300000D02*
X53800000Y-26700000D01*
D34*
X25200000Y-33800000D02*
X25600000Y-33800000D01*
D33*
X13200000Y-40650000D02*
X12200000Y-40650000D01*
D34*
X52600000Y-23250000D02*
X52000000Y-22700000D01*
X58000000Y-15000000D02*
X58200000Y-14800000D01*
X21200000Y-56050000D02*
X20600000Y-55500000D01*
X28887000Y-29500000D02*
X28300000Y-29000000D01*
X45800000Y-17500000D02*
X45600000Y-17300000D01*
X31600000Y-11700000D02*
X31400000Y-11500000D01*
X24750000Y-33900000D02*
X25200000Y-33800000D01*
X41200000Y-12688000D02*
X40600000Y-12100000D01*
D35*
X55975000Y-27300000D02*
X56100000Y-26500000D01*
D34*
X46500000Y-13100000D02*
X46700000Y-12900000D01*
X45800000Y-22500000D02*
X45600000Y-22300000D01*
D33*
%TO.N,+5V*%
X4400000Y-35900000D02*
X3300000Y-36550000D01*
D34*
X21600000Y-26300000D02*
X25000000Y-22900000D01*
X25000000Y-20400000D02*
X28500000Y-16900000D01*
X27600000Y-38500000D02*
X24700000Y-35600000D01*
X28800000Y-51600000D02*
X29700000Y-51600000D01*
X24700000Y-35600000D02*
X22800000Y-35600000D01*
X28800000Y-57300000D02*
X28800000Y-56400000D01*
D33*
X3300000Y-36550000D02*
X3300000Y-37900000D01*
D34*
X32600000Y-14600000D02*
X32200000Y-14150000D01*
X28500000Y-16900000D02*
X32700000Y-16900000D01*
X21475000Y-36095000D02*
X22300000Y-35700000D01*
X32700000Y-16900000D02*
X33095000Y-16524999D01*
D33*
X20600000Y-31300000D02*
X22600000Y-33299999D01*
D34*
X22300000Y-35700000D02*
X22500000Y-35500000D01*
X22500000Y-35500000D02*
X22500000Y-34600000D01*
X33095000Y-16524999D02*
X32799999Y-15500000D01*
X29600000Y-15000000D02*
X29600000Y-14550000D01*
X21600000Y-27900000D02*
X21600000Y-26300000D01*
X28500000Y-55400000D02*
X28500000Y-51700000D01*
X29600000Y-16900000D02*
X29600000Y-15000000D01*
X22500000Y-34600000D02*
X22850000Y-33900000D01*
X27800000Y-39100000D02*
X27800000Y-38800000D01*
X28800000Y-56400000D02*
X28500000Y-55400000D01*
X32600000Y-15300000D02*
X32600000Y-14600000D01*
X32799999Y-15500000D02*
X32600000Y-15300000D01*
D33*
X22600000Y-33299999D02*
X22850000Y-33900000D01*
X5410000Y-35250000D02*
X4400000Y-35900000D01*
D34*
X28750000Y-62000000D02*
X28800000Y-61000000D01*
X28800000Y-61000000D02*
X28800000Y-57300000D01*
%TO.N,+3.3V*%
X49905000Y-23475000D02*
X49700000Y-24400000D01*
X33800000Y-56950000D02*
X34500000Y-56600000D01*
X33800000Y-57400000D02*
X33800000Y-56950000D01*
X51800000Y-24800000D02*
X50800000Y-23800000D01*
X52600000Y-25150000D02*
X51800000Y-24800000D01*
X50800000Y-23800000D02*
X50200000Y-23800000D01*
X44800000Y-25200000D02*
X40700000Y-21100000D01*
X54000000Y-29200000D02*
X52100000Y-27300000D01*
X38300000Y-9700000D02*
X40000000Y-8000000D01*
X40700000Y-18600000D02*
X39300000Y-17200000D01*
X54100000Y-24000000D02*
X54100000Y-20800000D01*
X58000000Y-13500000D02*
X57337000Y-13450000D01*
X40000000Y-8000000D02*
X40487000Y-7400000D01*
X58800000Y-13500000D02*
X58000000Y-13500000D01*
X37600000Y-56400000D02*
X38500000Y-56100000D01*
X38500000Y-56100000D02*
X39500000Y-55100000D01*
X34500000Y-56600000D02*
X36600000Y-56600000D01*
X53300000Y-24800000D02*
X54100000Y-24000000D01*
D35*
X54600000Y-29200000D02*
X54600000Y-28100000D01*
D34*
X38300000Y-11700000D02*
X38300000Y-9700000D01*
X47500000Y-24400000D02*
X47365000Y-23475000D01*
X42100000Y-53400000D02*
X60800000Y-34700000D01*
D35*
X54600000Y-28100000D02*
X54675000Y-27300000D01*
D34*
X33800000Y-61000000D02*
X33800000Y-57400000D01*
X52100000Y-27300000D02*
X52100000Y-25600000D01*
X59800000Y-32200000D02*
X59100000Y-32200000D01*
X57300000Y-30000000D02*
X56500000Y-29200000D01*
D35*
X57850000Y-30600000D02*
X57300000Y-30700000D01*
D34*
X50200000Y-23800000D02*
X49905000Y-23475000D01*
X39300000Y-13300000D02*
X38500000Y-12500000D01*
X49700000Y-24400000D02*
X49700000Y-24700000D01*
X59500000Y-14200000D02*
X58800000Y-13500000D01*
X59500000Y-15400000D02*
X59500000Y-14200000D01*
X33750000Y-62000000D02*
X33800000Y-61000000D01*
X52600000Y-25150000D02*
X53300000Y-24800000D01*
X39500000Y-55100000D02*
X40400000Y-55100000D01*
X60800000Y-33200000D02*
X59800000Y-32200000D01*
X39300000Y-17200000D02*
X39300000Y-13300000D01*
D35*
X56100000Y-30700000D02*
X55975000Y-30700000D01*
D34*
X57850000Y-30600000D02*
X57300000Y-30000000D01*
X49700000Y-24700000D02*
X49200000Y-25200000D01*
X36600000Y-56600000D02*
X37600000Y-56400000D01*
X61112000Y-34000000D02*
X60800000Y-33200000D01*
X38500000Y-12500000D02*
X37800000Y-12287000D01*
X59100000Y-32200000D02*
X58100000Y-31200000D01*
X47500000Y-24800000D02*
X47500000Y-24400000D01*
X47100000Y-25200000D02*
X44800000Y-25200000D01*
X60800000Y-34700000D02*
X61112000Y-34000000D01*
D35*
X57300000Y-30700000D02*
X56100000Y-30700000D01*
D34*
X47900000Y-25200000D02*
X47500000Y-24800000D01*
X52100000Y-25600000D02*
X52600000Y-25150000D01*
X54100000Y-20800000D02*
X59500000Y-15400000D01*
X37800000Y-12287000D02*
X38300000Y-11700000D01*
X49200000Y-25200000D02*
X47900000Y-25200000D01*
X56500000Y-29200000D02*
X54000000Y-29200000D01*
X58100000Y-31200000D02*
X57850000Y-30600000D01*
X47500000Y-24800000D02*
X47100000Y-25200000D01*
D33*
%TO.N,/TRIG*%
X57100000Y-44900000D02*
X57800000Y-44200000D01*
X57800000Y-44200000D02*
X57100000Y-43400000D01*
X38900000Y-61000000D02*
X38900000Y-60200000D01*
X38900000Y-60200000D02*
X42200000Y-56900000D01*
X53700000Y-40000000D02*
X53700000Y-39600000D01*
X54200000Y-44900000D02*
X57100000Y-44900000D01*
X43900000Y-55200000D02*
X54200000Y-44900000D01*
X53700000Y-39600000D02*
X53400000Y-39112000D01*
X57100000Y-43400000D02*
X55500000Y-41800000D01*
X38750000Y-62000000D02*
X38900000Y-61000000D01*
D34*
%TO.N,VBIAS*%
X27100000Y-52400000D02*
X27100000Y-52100000D01*
X22900000Y-59700000D02*
X21600000Y-58400000D01*
X28900000Y-50300000D02*
X35600000Y-50300000D01*
X21200000Y-57950000D02*
X21900000Y-57600000D01*
X23750000Y-62000000D02*
X22900000Y-61000000D01*
X21200000Y-57950000D02*
X20400000Y-58200000D01*
X37300000Y-48600000D02*
X38300000Y-48600000D01*
X38300000Y-48600000D02*
X41700000Y-45200000D01*
X41700000Y-45200000D02*
X41913000Y-44600000D01*
X21900000Y-57600000D02*
X27100000Y-52400000D01*
X18100000Y-60200000D02*
X20000000Y-58300000D01*
X14000000Y-60500000D02*
X14900000Y-60200000D01*
X21600000Y-58400000D02*
X21200000Y-57950000D01*
X14900000Y-60200000D02*
X18100000Y-60200000D01*
X22900000Y-61000000D02*
X22900000Y-59700000D01*
D33*
%TO.N,/VBASE*%
X28700000Y-27100000D02*
X33200000Y-27100000D01*
X40200000Y-25000000D02*
X39400000Y-24200000D01*
X37700000Y-28800000D02*
X40200000Y-26300000D01*
X35700000Y-17500000D02*
X35635000Y-16524999D01*
X25200000Y-25400000D02*
X26000000Y-25800000D01*
X34900000Y-28800000D02*
X37700000Y-28800000D01*
X8900000Y-31500000D02*
X6000000Y-28600000D01*
X7400000Y-25900000D02*
X8700000Y-25900000D01*
X24900000Y-26300000D02*
X21500000Y-29700000D01*
X25200000Y-25400000D02*
X24900000Y-26300000D01*
X8950000Y-34263000D02*
X8900000Y-33500000D01*
X11200000Y-25900000D02*
X17000000Y-25900000D01*
X39400000Y-24200000D02*
X38800000Y-23887000D01*
X6000000Y-27300000D02*
X7400000Y-25900000D01*
X38800000Y-23887000D02*
X38300000Y-23300000D01*
X28000000Y-27433000D02*
X28700000Y-27100000D01*
X27300000Y-27100000D02*
X28000000Y-27433000D01*
X26000000Y-25800000D02*
X27300000Y-27100000D01*
X40200000Y-26300000D02*
X40200000Y-25000000D01*
X8900000Y-33500000D02*
X8900000Y-31500000D01*
X35635000Y-16524999D02*
X35300000Y-16500000D01*
X38300000Y-23300000D02*
X38300000Y-21100000D01*
X34600000Y-16500000D02*
X34365000Y-16524999D01*
X21000000Y-29900000D02*
X21500000Y-29700000D01*
D35*
X7190000Y-34600000D02*
X8950000Y-34600000D01*
D33*
X35300000Y-16500000D02*
X34600000Y-16500000D01*
X36800000Y-18600000D02*
X35700000Y-17500000D01*
X17000000Y-25900000D02*
X21000000Y-29900000D01*
X38300000Y-18600000D02*
X36800000Y-18600000D01*
X6000000Y-28600000D02*
X6000000Y-27300000D01*
%TO.N,/VBASE_DIV*%
X37900000Y-15400000D02*
X37900000Y-14600000D01*
X40600000Y-15000000D02*
X40600000Y-15400000D01*
X45200000Y-15600000D02*
X46000000Y-15550000D01*
X41200000Y-14512000D02*
X40600000Y-15000000D01*
X41700000Y-15000000D02*
X41200000Y-14512000D01*
X37900000Y-14600000D02*
X37800000Y-14113000D01*
X37200000Y-16100000D02*
X36905000Y-16524999D01*
X44300000Y-15600000D02*
X45200000Y-15600000D01*
X37900000Y-15400000D02*
X37200000Y-16100000D01*
X42600000Y-15000000D02*
X41700000Y-15000000D01*
X43600000Y-15550000D02*
X44300000Y-15600000D01*
X43600000Y-15550000D02*
X42800000Y-15200000D01*
X42800000Y-15200000D02*
X42600000Y-15000000D01*
%TO.N,/AMP_OUT*%
X28700000Y-21900000D02*
X29700000Y-21900000D01*
X17500000Y-38500000D02*
X18300000Y-37700000D01*
X28000000Y-21850000D02*
X28700000Y-21900000D01*
X30400000Y-21887000D02*
X31100000Y-21600000D01*
X33299999Y-20500000D02*
X33299999Y-20200000D01*
X29700000Y-21900000D02*
X30400000Y-21887000D01*
X27200000Y-21600000D02*
X28000000Y-21850000D01*
X18300000Y-37700000D02*
X18300000Y-32000000D01*
X33095000Y-21475000D02*
X33299999Y-20500000D01*
X10800000Y-29600000D02*
X10100000Y-28900000D01*
X31100000Y-21600000D02*
X32700000Y-21600000D01*
X42900000Y-21300000D02*
X43600000Y-21712000D01*
X11600000Y-21400000D02*
X11300000Y-22300000D01*
X33700000Y-19800000D02*
X41400000Y-19800000D01*
X32700000Y-21600000D02*
X33095000Y-21475000D01*
X9900000Y-23700000D02*
X9900000Y-28700000D01*
X10100000Y-28900000D02*
X10100000Y-28800000D01*
X18300000Y-32000000D02*
X15900000Y-29600000D01*
X11600000Y-21400000D02*
X12500000Y-21600000D01*
X41400000Y-19800000D02*
X42900000Y-21300000D01*
X12500000Y-21600000D02*
X27200000Y-21600000D01*
X16524999Y-38635000D02*
X17500000Y-38500000D01*
X11300000Y-22300000D02*
X9900000Y-23700000D01*
X15900000Y-29600000D02*
X10800000Y-29600000D01*
X33299999Y-20200000D02*
X33700000Y-19800000D01*
%TO.N,/VTH*%
X48300000Y-7700000D02*
X45700000Y-10300000D01*
X49300000Y-16800000D02*
X48600000Y-17500000D01*
X45700000Y-10300000D02*
X45000000Y-11000000D01*
X49100000Y-11900000D02*
X49650000Y-12400000D01*
X49900000Y-13400000D02*
X51100000Y-14600000D01*
X48600000Y-17500000D02*
X48635000Y-18525000D01*
X49900000Y-13100000D02*
X49900000Y-13400000D01*
X51100000Y-17100000D02*
X50800000Y-16800000D01*
X48300000Y-6100000D02*
X48300000Y-7700000D01*
X50800000Y-16800000D02*
X49300000Y-16800000D01*
X46600000Y-9400000D02*
X49100000Y-11900000D01*
X49650000Y-12400000D02*
X49900000Y-13100000D01*
X48460000Y-5400000D02*
X48300000Y-6100000D01*
%TO.N,/PEAK_OUT*%
X41500000Y-54500000D02*
X39700000Y-52700000D01*
X40500000Y-56900000D02*
X41500000Y-55900000D01*
X28400000Y-41400000D02*
X19500000Y-50300000D01*
X41500000Y-55900000D02*
X41500000Y-54500000D01*
X43750000Y-62000000D02*
X43500000Y-61000000D01*
X28200000Y-41100000D02*
X28500000Y-41400000D01*
X37900000Y-47100000D02*
X32200000Y-41400000D01*
X32200000Y-41400000D02*
X28500000Y-41400000D01*
X43500000Y-61000000D02*
X43500000Y-58400000D01*
X24400000Y-37688000D02*
X25000000Y-38000000D01*
X43300000Y-58600000D02*
X42200000Y-58600000D01*
X28100000Y-41100000D02*
X28200000Y-41100000D01*
X19500000Y-50300000D02*
X11700000Y-50300000D01*
X11700000Y-50300000D02*
X11000000Y-51000000D01*
X25000000Y-38000000D02*
X28100000Y-41100000D01*
X39700000Y-52700000D02*
X39700000Y-48900000D01*
%TO.N,/PEAK_RESET*%
X9300000Y-50200000D02*
X9300000Y-53200000D01*
X11200000Y-48300000D02*
X9300000Y-50200000D01*
X13200000Y-62100000D02*
X11700000Y-60600000D01*
X11500000Y-56500000D02*
X11500000Y-56000000D01*
X14600000Y-62000000D02*
X14500000Y-62100000D01*
X10500000Y-33500000D02*
X10850000Y-34263000D01*
X46250000Y-62000000D02*
X45500000Y-62600000D01*
X9300000Y-53200000D02*
X11100000Y-55000000D01*
X6000000Y-33700000D02*
X6000000Y-30600000D01*
X15688000Y-47800000D02*
X15100000Y-48300000D01*
X11700000Y-60600000D02*
X11700000Y-56600000D01*
X15200000Y-47100000D02*
X15688000Y-47800000D01*
X2700000Y-32000000D02*
X1800000Y-32900000D01*
X1800000Y-38100000D02*
X5100000Y-41400000D01*
X1800000Y-32900000D02*
X1800000Y-38100000D01*
X6000000Y-30600000D02*
X6300000Y-30300000D01*
X5100000Y-41400000D02*
X9500000Y-41400000D01*
X14500000Y-62100000D02*
X13200000Y-62100000D01*
X44300000Y-63600000D02*
X19000000Y-63600000D01*
X5800000Y-32000000D02*
X2700000Y-32000000D01*
X8300000Y-29500000D02*
X10500000Y-31700000D01*
X9500000Y-41400000D02*
X15200000Y-47100000D01*
X11500000Y-56000000D02*
X10600000Y-55800000D01*
X19000000Y-63600000D02*
X17400000Y-62000000D01*
X11100000Y-55000000D02*
X10600000Y-55800000D01*
X45500000Y-62600000D02*
X44500000Y-63600000D01*
X5412000Y-33950000D02*
X6000000Y-33700000D01*
X17400000Y-62000000D02*
X14600000Y-62000000D01*
X15100000Y-48300000D02*
X11200000Y-48300000D01*
X10500000Y-31700000D02*
X10500000Y-33500000D01*
%TO.N,/AMP_FB*%
X28000000Y-24200000D02*
X28000000Y-25000000D01*
X31100000Y-23400000D02*
X33299999Y-23400000D01*
X29700000Y-23800000D02*
X28700000Y-23800000D01*
X33299999Y-23400000D02*
X34300000Y-22400000D01*
X34300000Y-22400000D02*
X34365000Y-21475000D01*
X28000000Y-23750000D02*
X28000000Y-24200000D01*
X30400000Y-23712000D02*
X31100000Y-23400000D01*
X30400000Y-23712000D02*
X29700000Y-23800000D01*
X28000000Y-25000000D02*
X28000000Y-25608000D01*
X28700000Y-23800000D02*
X28000000Y-23750000D01*
%TO.N,Net-(C12-Pad1)*%
X45200000Y-5700000D02*
X44000000Y-5700000D01*
X45920000Y-5400000D02*
X45200000Y-5700000D01*
X39900000Y-4900000D02*
X38400000Y-6400000D01*
X44000000Y-5700000D02*
X42800000Y-6900000D01*
X38400000Y-6400000D02*
X37800000Y-6750000D01*
X41800000Y-6700000D02*
X41800000Y-6000000D01*
X42312000Y-7400000D02*
X41800000Y-6700000D01*
X40800000Y-5000000D02*
X40487000Y-4400000D01*
X40487000Y-4400000D02*
X39900000Y-4900000D01*
X42800000Y-6900000D02*
X42312000Y-7400000D01*
X41800000Y-6000000D02*
X40800000Y-5000000D01*
%TO.N,/COMP_RAW*%
X50700000Y-25600000D02*
X50700000Y-33500000D01*
X55600000Y-17500000D02*
X54100000Y-17500000D01*
X52700000Y-17700000D02*
X52100000Y-18300000D01*
X50000000Y-19500000D02*
X50600000Y-20100000D01*
D35*
X55300000Y-26500000D02*
X55325000Y-27300000D01*
D33*
X59200000Y-19300000D02*
X57400000Y-19300000D01*
X50700000Y-33500000D02*
X50800000Y-34087000D01*
D35*
X54200000Y-25500000D02*
X54400000Y-25500000D01*
D33*
X53400000Y-17312000D02*
X52700000Y-17700000D01*
X60200000Y-19600000D02*
X59200000Y-19300000D01*
X50600000Y-20100000D02*
X50600000Y-21500000D01*
X49905000Y-18525000D02*
X50000000Y-19500000D01*
X52100000Y-18300000D02*
X50200000Y-18300000D01*
D35*
X55300000Y-26400000D02*
X55300000Y-26500000D01*
D33*
X50200000Y-18300000D02*
X49905000Y-18525000D01*
D35*
X54400000Y-25500000D02*
X55300000Y-26400000D01*
D33*
X54100000Y-17500000D02*
X53400000Y-17312000D01*
%TO.N,/COMP_IN*%
X47200000Y-19500000D02*
X46500000Y-20200000D01*
X47600000Y-17500000D02*
X47365000Y-18525000D01*
X53400000Y-15487000D02*
X52700000Y-15900000D01*
X52700000Y-15900000D02*
X48900000Y-15900000D01*
X46500000Y-20200000D02*
X44200000Y-20200000D01*
X54700000Y-14600000D02*
X55462000Y-14400000D01*
X53400000Y-15487000D02*
X54100000Y-15200000D01*
X48900000Y-15900000D02*
X47600000Y-17200000D01*
X44200000Y-20200000D02*
X43600000Y-19887000D01*
X54100000Y-15200000D02*
X54700000Y-14600000D01*
X47600000Y-17200000D02*
X47600000Y-17500000D01*
X47365000Y-18525000D02*
X47200000Y-19500000D01*
%TO.N,Net-(R17-Pad2)*%
X51400000Y-35400000D02*
X52800000Y-35400000D01*
X53400000Y-36700000D02*
X53400000Y-37288000D01*
X53400000Y-35400000D02*
X53400000Y-36700000D01*
X52800000Y-35400000D02*
X53400000Y-34913000D01*
X50800000Y-35913000D02*
X51400000Y-35400000D01*
X53400000Y-34913000D02*
X53400000Y-35400000D01*
%TO.N,/BIAS_LOCAL*%
X39500000Y-38500000D02*
X39300000Y-38700000D01*
X40000000Y-40200000D02*
X40000000Y-38700000D01*
X40050000Y-38000000D02*
X39500000Y-38500000D01*
X40700000Y-40600000D02*
X40125000Y-41200000D01*
X40125000Y-41200000D02*
X40000000Y-40200000D01*
X40100000Y-42100000D02*
X40100000Y-43800000D01*
X40000000Y-38700000D02*
X40050000Y-38000000D01*
X44900000Y-40500000D02*
X43900000Y-39500000D01*
X40100000Y-43800000D02*
X40087000Y-44600000D01*
X45800000Y-41000000D02*
X44900000Y-40500000D01*
X40125000Y-41200000D02*
X40100000Y-42100000D01*
X43900000Y-39500000D02*
X41800000Y-39500000D01*
X39300000Y-38700000D02*
X38300000Y-38700000D01*
X41800000Y-39500000D02*
X40700000Y-40600000D01*
%TO.N,Net-(R13-Pad1)*%
X17110000Y-32900000D02*
X17110000Y-36090000D01*
D35*
%TO.N,/PEAK_HOLD*%
X21000000Y-41500000D02*
X21000000Y-39910000D01*
X13500000Y-37370000D02*
X13500000Y-38750000D01*
X14900000Y-41500000D02*
X21000000Y-41500000D01*
X14900000Y-37370000D02*
X14900000Y-41500000D01*
X9900000Y-38600000D02*
X8600000Y-38750000D01*
X13500000Y-37370000D02*
X16520000Y-37370000D01*
X7400000Y-38000000D02*
X7400000Y-35300000D01*
X13200000Y-38600000D02*
X9900000Y-38600000D01*
X9900000Y-38600000D02*
X9900000Y-36140000D01*
%TO.N,/PEAK_GUARD*%
X14330000Y-39700000D02*
X10600000Y-39700000D01*
X6400000Y-40350000D02*
X6400000Y-37300000D01*
X23100000Y-42200000D02*
X14330000Y-42200000D01*
X9950000Y-40350000D02*
X6400000Y-40350000D01*
X14330000Y-42200000D02*
X14330000Y-39700000D01*
X22200000Y-38630000D02*
X23100000Y-38630000D01*
X10600000Y-39700000D02*
X9950000Y-40350000D01*
X23100000Y-38630000D02*
X23100000Y-42200000D01*
X22200000Y-37370000D02*
X22200000Y-38630000D01*
X23100000Y-39510000D02*
X24400000Y-39510000D01*
D33*
%TO.N,Net-(D2-A)*%
X15290000Y-32900000D02*
X14450000Y-34960000D01*
D35*
%TO.N,Net-(U5A-Q)*%
X53400000Y-33087000D02*
X53900000Y-32500000D01*
X53900000Y-31500000D02*
X54025000Y-30700000D01*
X53900000Y-32500000D02*
X53900000Y-31500000D01*
%TO.N,Net-(U5A-Cext)*%
X54600000Y-32700000D02*
X54600000Y-31500000D01*
X54600000Y-31500000D02*
X54675000Y-30700000D01*
X55100000Y-33200000D02*
X54600000Y-32700000D01*
X55450000Y-34000000D02*
X55100000Y-33200000D01*
%TO.N,Net-(U5A-RCext)*%
X57350000Y-34000000D02*
X56900000Y-33299999D01*
X56900000Y-33299999D02*
X55300000Y-31700000D01*
D33*
X57350000Y-34000000D02*
X57800000Y-34000000D01*
D35*
X55300000Y-31500000D02*
X55325000Y-30700000D01*
X55300000Y-31700000D02*
X55300000Y-31500000D01*
D33*
X57800000Y-34000000D02*
X58700000Y-34000000D01*
X58700000Y-34000000D02*
X59288000Y-34000000D01*
%TO.N,/INJECT*%
X20200000Y-24300000D02*
X11200000Y-24300000D01*
X28300000Y-32200000D02*
X25700000Y-32200000D01*
X7700000Y-24300000D02*
X6500000Y-25500000D01*
X21000000Y-25100000D02*
X20200000Y-24300000D01*
X6500000Y-25500000D02*
X4800000Y-25500000D01*
X4099999Y-24800000D02*
X3400000Y-24000000D01*
X4800000Y-25500000D02*
X4099999Y-24800000D01*
X25700000Y-29700000D02*
X24400000Y-28400000D01*
X28887000Y-32500000D02*
X28300000Y-32200000D01*
X8700000Y-24300000D02*
X7700000Y-24300000D01*
%TD*%
M02*
