%TF.GenerationSoftware,KiCad,Pcbnew,9.0.9*%
%TF.CreationDate,2026-09-11T15:24:08-07:00*%
%TF.ProjectId,muon_detector_head,6d756f6e-5f64-4657-9465-63746f725f68,rev?*%
%TF.SameCoordinates,Original*%
%TF.FileFunction,Legend,Bot*%
%TF.FilePolarity,Positive*%
%FSLAX46Y46*%
G04 Gerber Fmt 4.6, Leading zero omitted, Abs format (unit mm)*
G04 Created by KiCad (PCBNEW 9.0.9) date 2026-09-11 15:24:08*
%MOMM*%
%LPD*%
G01*
G04 APERTURE LIST*
G04 Aperture macros list*
%AMRoundRect*
0 Rectangle with rounded corners*
0 $1 Rounding radius*
0 $2 $3 $4 $5 $6 $7 $8 $9 X,Y pos of 4 corners*
0 Add a 4 corners polygon primitive as box body*
4,1,4,$2,$3,$4,$5,$6,$7,$8,$9,$2,$3,0*
0 Add four circle primitives for the rounded corners*
1,1,$1+$1,$2,$3*
1,1,$1+$1,$4,$5*
1,1,$1+$1,$6,$7*
1,1,$1+$1,$8,$9*
0 Add four rect primitives between the rounded corners*
20,1,$1+$1,$2,$3,$4,$5,0*
20,1,$1+$1,$4,$5,$6,$7,0*
20,1,$1+$1,$6,$7,$8,$9,0*
20,1,$1+$1,$8,$9,$2,$3,0*%
G04 Aperture macros list end*
%ADD10C,0.150000*%
%ADD11C,0.240000*%
%ADD12C,0.120000*%
%ADD13C,0.300000*%
%ADD14C,3.200000*%
%ADD15RoundRect,0.250000X-0.600000X-0.725000X0.600000X-0.725000X0.600000X0.725000X-0.600000X0.725000X0*%
%ADD16O,1.700000X1.950000*%
%ADD17R,1.700000X1.700000*%
%ADD18C,1.700000*%
%ADD19C,1.800000*%
%ADD20C,1.440000*%
%ADD21RoundRect,0.200000X-0.200000X-0.450000X0.200000X-0.450000X0.200000X0.450000X-0.200000X0.450000X0*%
%ADD22RoundRect,0.200000X-0.450000X-0.200000X0.450000X-0.200000X0.450000X0.200000X-0.450000X0.200000X0*%
G04 APERTURE END LIST*
D10*
X4123808Y-21962295D02*
X4123808Y-21162295D01*
X3742856Y-21962295D02*
X3742856Y-21162295D01*
X3742856Y-21162295D02*
X3285713Y-21962295D01*
X3285713Y-21962295D02*
X3285713Y-21162295D01*
X2676190Y-21162295D02*
X2676190Y-21733723D01*
X2676190Y-21733723D02*
X2714285Y-21848009D01*
X2714285Y-21848009D02*
X2790476Y-21924200D01*
X2790476Y-21924200D02*
X2904761Y-21962295D01*
X2904761Y-21962295D02*
X2980952Y-21962295D01*
X6549523Y-21200390D02*
X6625713Y-21162295D01*
X6625713Y-21162295D02*
X6739999Y-21162295D01*
X6739999Y-21162295D02*
X6854285Y-21200390D01*
X6854285Y-21200390D02*
X6930475Y-21276580D01*
X6930475Y-21276580D02*
X6968570Y-21352771D01*
X6968570Y-21352771D02*
X7006666Y-21505152D01*
X7006666Y-21505152D02*
X7006666Y-21619438D01*
X7006666Y-21619438D02*
X6968570Y-21771819D01*
X6968570Y-21771819D02*
X6930475Y-21848009D01*
X6930475Y-21848009D02*
X6854285Y-21924200D01*
X6854285Y-21924200D02*
X6739999Y-21962295D01*
X6739999Y-21962295D02*
X6663808Y-21962295D01*
X6663808Y-21962295D02*
X6549523Y-21924200D01*
X6549523Y-21924200D02*
X6511427Y-21886104D01*
X6511427Y-21886104D02*
X6511427Y-21619438D01*
X6511427Y-21619438D02*
X6663808Y-21619438D01*
X6168570Y-21962295D02*
X6168570Y-21162295D01*
X6168570Y-21162295D02*
X5711427Y-21962295D01*
X5711427Y-21962295D02*
X5711427Y-21162295D01*
X5330475Y-21962295D02*
X5330475Y-21162295D01*
X5330475Y-21162295D02*
X5139999Y-21162295D01*
X5139999Y-21162295D02*
X5025713Y-21200390D01*
X5025713Y-21200390D02*
X4949523Y-21276580D01*
X4949523Y-21276580D02*
X4911428Y-21352771D01*
X4911428Y-21352771D02*
X4873332Y-21505152D01*
X4873332Y-21505152D02*
X4873332Y-21619438D01*
X4873332Y-21619438D02*
X4911428Y-21771819D01*
X4911428Y-21771819D02*
X4949523Y-21848009D01*
X4949523Y-21848009D02*
X5025713Y-21924200D01*
X5025713Y-21924200D02*
X5139999Y-21962295D01*
X5139999Y-21962295D02*
X5330475Y-21962295D01*
X24816666Y-67362295D02*
X25273809Y-67362295D01*
X25045237Y-67362295D02*
X25045237Y-66562295D01*
X25045237Y-66562295D02*
X25121428Y-66676580D01*
X25121428Y-66676580D02*
X25197618Y-66752771D01*
X25197618Y-66752771D02*
X25273809Y-66790866D01*
X24473808Y-67286104D02*
X24435713Y-67324200D01*
X24435713Y-67324200D02*
X24473808Y-67362295D01*
X24473808Y-67362295D02*
X24511904Y-67324200D01*
X24511904Y-67324200D02*
X24473808Y-67286104D01*
X24473808Y-67286104D02*
X24473808Y-67362295D01*
X24473808Y-66867057D02*
X24435713Y-66905152D01*
X24435713Y-66905152D02*
X24473808Y-66943247D01*
X24473808Y-66943247D02*
X24511904Y-66905152D01*
X24511904Y-66905152D02*
X24473808Y-66867057D01*
X24473808Y-66867057D02*
X24473808Y-66943247D01*
X24130952Y-66638485D02*
X24092856Y-66600390D01*
X24092856Y-66600390D02*
X24016666Y-66562295D01*
X24016666Y-66562295D02*
X23826190Y-66562295D01*
X23826190Y-66562295D02*
X23749999Y-66600390D01*
X23749999Y-66600390D02*
X23711904Y-66638485D01*
X23711904Y-66638485D02*
X23673809Y-66714676D01*
X23673809Y-66714676D02*
X23673809Y-66790866D01*
X23673809Y-66790866D02*
X23711904Y-66905152D01*
X23711904Y-66905152D02*
X24169047Y-67362295D01*
X24169047Y-67362295D02*
X23673809Y-67362295D01*
X23407142Y-66562295D02*
X22873808Y-66562295D01*
X22873808Y-66562295D02*
X23216666Y-67362295D01*
X22683332Y-66562295D02*
X22416665Y-67362295D01*
X22416665Y-67362295D02*
X22149999Y-66562295D01*
X29930952Y-66562295D02*
X29435714Y-66562295D01*
X29435714Y-66562295D02*
X29702380Y-66867057D01*
X29702380Y-66867057D02*
X29588095Y-66867057D01*
X29588095Y-66867057D02*
X29511904Y-66905152D01*
X29511904Y-66905152D02*
X29473809Y-66943247D01*
X29473809Y-66943247D02*
X29435714Y-67019438D01*
X29435714Y-67019438D02*
X29435714Y-67209914D01*
X29435714Y-67209914D02*
X29473809Y-67286104D01*
X29473809Y-67286104D02*
X29511904Y-67324200D01*
X29511904Y-67324200D02*
X29588095Y-67362295D01*
X29588095Y-67362295D02*
X29816666Y-67362295D01*
X29816666Y-67362295D02*
X29892857Y-67324200D01*
X29892857Y-67324200D02*
X29930952Y-67286104D01*
X29092856Y-67286104D02*
X29054761Y-67324200D01*
X29054761Y-67324200D02*
X29092856Y-67362295D01*
X29092856Y-67362295D02*
X29130952Y-67324200D01*
X29130952Y-67324200D02*
X29092856Y-67286104D01*
X29092856Y-67286104D02*
X29092856Y-67362295D01*
X29092856Y-66867057D02*
X29054761Y-66905152D01*
X29054761Y-66905152D02*
X29092856Y-66943247D01*
X29092856Y-66943247D02*
X29130952Y-66905152D01*
X29130952Y-66905152D02*
X29092856Y-66867057D01*
X29092856Y-66867057D02*
X29092856Y-66943247D01*
X28330952Y-66562295D02*
X28711904Y-66562295D01*
X28711904Y-66562295D02*
X28750000Y-66943247D01*
X28750000Y-66943247D02*
X28711904Y-66905152D01*
X28711904Y-66905152D02*
X28635714Y-66867057D01*
X28635714Y-66867057D02*
X28445238Y-66867057D01*
X28445238Y-66867057D02*
X28369047Y-66905152D01*
X28369047Y-66905152D02*
X28330952Y-66943247D01*
X28330952Y-66943247D02*
X28292857Y-67019438D01*
X28292857Y-67019438D02*
X28292857Y-67209914D01*
X28292857Y-67209914D02*
X28330952Y-67286104D01*
X28330952Y-67286104D02*
X28369047Y-67324200D01*
X28369047Y-67324200D02*
X28445238Y-67362295D01*
X28445238Y-67362295D02*
X28635714Y-67362295D01*
X28635714Y-67362295D02*
X28711904Y-67324200D01*
X28711904Y-67324200D02*
X28750000Y-67286104D01*
X28064285Y-66562295D02*
X27797618Y-67362295D01*
X27797618Y-67362295D02*
X27530952Y-66562295D01*
X35045237Y-66562295D02*
X35426189Y-66562295D01*
X35426189Y-66562295D02*
X35464285Y-66943247D01*
X35464285Y-66943247D02*
X35426189Y-66905152D01*
X35426189Y-66905152D02*
X35349999Y-66867057D01*
X35349999Y-66867057D02*
X35159523Y-66867057D01*
X35159523Y-66867057D02*
X35083332Y-66905152D01*
X35083332Y-66905152D02*
X35045237Y-66943247D01*
X35045237Y-66943247D02*
X35007142Y-67019438D01*
X35007142Y-67019438D02*
X35007142Y-67209914D01*
X35007142Y-67209914D02*
X35045237Y-67286104D01*
X35045237Y-67286104D02*
X35083332Y-67324200D01*
X35083332Y-67324200D02*
X35159523Y-67362295D01*
X35159523Y-67362295D02*
X35349999Y-67362295D01*
X35349999Y-67362295D02*
X35426189Y-67324200D01*
X35426189Y-67324200D02*
X35464285Y-67286104D01*
X34664284Y-67286104D02*
X34626189Y-67324200D01*
X34626189Y-67324200D02*
X34664284Y-67362295D01*
X34664284Y-67362295D02*
X34702380Y-67324200D01*
X34702380Y-67324200D02*
X34664284Y-67286104D01*
X34664284Y-67286104D02*
X34664284Y-67362295D01*
X34664284Y-66867057D02*
X34626189Y-66905152D01*
X34626189Y-66905152D02*
X34664284Y-66943247D01*
X34664284Y-66943247D02*
X34702380Y-66905152D01*
X34702380Y-66905152D02*
X34664284Y-66867057D01*
X34664284Y-66867057D02*
X34664284Y-66943247D01*
X34359523Y-66562295D02*
X33864285Y-66562295D01*
X33864285Y-66562295D02*
X34130951Y-66867057D01*
X34130951Y-66867057D02*
X34016666Y-66867057D01*
X34016666Y-66867057D02*
X33940475Y-66905152D01*
X33940475Y-66905152D02*
X33902380Y-66943247D01*
X33902380Y-66943247D02*
X33864285Y-67019438D01*
X33864285Y-67019438D02*
X33864285Y-67209914D01*
X33864285Y-67209914D02*
X33902380Y-67286104D01*
X33902380Y-67286104D02*
X33940475Y-67324200D01*
X33940475Y-67324200D02*
X34016666Y-67362295D01*
X34016666Y-67362295D02*
X34245237Y-67362295D01*
X34245237Y-67362295D02*
X34321428Y-67324200D01*
X34321428Y-67324200D02*
X34359523Y-67286104D01*
X33521427Y-67286104D02*
X33483332Y-67324200D01*
X33483332Y-67324200D02*
X33521427Y-67362295D01*
X33521427Y-67362295D02*
X33559523Y-67324200D01*
X33559523Y-67324200D02*
X33521427Y-67286104D01*
X33521427Y-67286104D02*
X33521427Y-67362295D01*
X33216666Y-66562295D02*
X32721428Y-66562295D01*
X32721428Y-66562295D02*
X32988094Y-66867057D01*
X32988094Y-66867057D02*
X32873809Y-66867057D01*
X32873809Y-66867057D02*
X32797618Y-66905152D01*
X32797618Y-66905152D02*
X32759523Y-66943247D01*
X32759523Y-66943247D02*
X32721428Y-67019438D01*
X32721428Y-67019438D02*
X32721428Y-67209914D01*
X32721428Y-67209914D02*
X32759523Y-67286104D01*
X32759523Y-67286104D02*
X32797618Y-67324200D01*
X32797618Y-67324200D02*
X32873809Y-67362295D01*
X32873809Y-67362295D02*
X33102380Y-67362295D01*
X33102380Y-67362295D02*
X33178571Y-67324200D01*
X33178571Y-67324200D02*
X33216666Y-67286104D01*
X32492856Y-66562295D02*
X32226189Y-67362295D01*
X32226189Y-67362295D02*
X31959523Y-66562295D01*
X46402381Y-67362295D02*
X46859524Y-67362295D01*
X46630952Y-67362295D02*
X46630952Y-66562295D01*
X46630952Y-66562295D02*
X46707143Y-66676580D01*
X46707143Y-66676580D02*
X46783333Y-66752771D01*
X46783333Y-66752771D02*
X46859524Y-66790866D01*
X45907142Y-66562295D02*
X45830952Y-66562295D01*
X45830952Y-66562295D02*
X45754761Y-66600390D01*
X45754761Y-66600390D02*
X45716666Y-66638485D01*
X45716666Y-66638485D02*
X45678571Y-66714676D01*
X45678571Y-66714676D02*
X45640476Y-66867057D01*
X45640476Y-66867057D02*
X45640476Y-67057533D01*
X45640476Y-67057533D02*
X45678571Y-67209914D01*
X45678571Y-67209914D02*
X45716666Y-67286104D01*
X45716666Y-67286104D02*
X45754761Y-67324200D01*
X45754761Y-67324200D02*
X45830952Y-67362295D01*
X45830952Y-67362295D02*
X45907142Y-67362295D01*
X45907142Y-67362295D02*
X45983333Y-67324200D01*
X45983333Y-67324200D02*
X46021428Y-67286104D01*
X46021428Y-67286104D02*
X46059523Y-67209914D01*
X46059523Y-67209914D02*
X46097619Y-67057533D01*
X46097619Y-67057533D02*
X46097619Y-66867057D01*
X46097619Y-66867057D02*
X46059523Y-66714676D01*
X46059523Y-66714676D02*
X46021428Y-66638485D01*
X46021428Y-66638485D02*
X45983333Y-66600390D01*
X45983333Y-66600390D02*
X45907142Y-66562295D01*
D11*
X24514286Y-2142662D02*
X24285714Y-2142662D01*
X24285714Y-2142662D02*
X24171429Y-2199805D01*
X24171429Y-2199805D02*
X24057143Y-2314091D01*
X24057143Y-2314091D02*
X24000000Y-2542662D01*
X24000000Y-2542662D02*
X24000000Y-2942662D01*
X24000000Y-2942662D02*
X24057143Y-3171234D01*
X24057143Y-3171234D02*
X24171429Y-3285520D01*
X24171429Y-3285520D02*
X24285714Y-3342662D01*
X24285714Y-3342662D02*
X24514286Y-3342662D01*
X24514286Y-3342662D02*
X24628572Y-3285520D01*
X24628572Y-3285520D02*
X24742857Y-3171234D01*
X24742857Y-3171234D02*
X24800000Y-2942662D01*
X24800000Y-2942662D02*
X24800000Y-2542662D01*
X24800000Y-2542662D02*
X24742857Y-2314091D01*
X24742857Y-2314091D02*
X24628572Y-2199805D01*
X24628572Y-2199805D02*
X24514286Y-2142662D01*
X23485714Y-3342662D02*
X23485714Y-2142662D01*
X23485714Y-2142662D02*
X23028571Y-2142662D01*
X23028571Y-2142662D02*
X22914286Y-2199805D01*
X22914286Y-2199805D02*
X22857143Y-2256948D01*
X22857143Y-2256948D02*
X22800000Y-2371234D01*
X22800000Y-2371234D02*
X22800000Y-2542662D01*
X22800000Y-2542662D02*
X22857143Y-2656948D01*
X22857143Y-2656948D02*
X22914286Y-2714091D01*
X22914286Y-2714091D02*
X23028571Y-2771234D01*
X23028571Y-2771234D02*
X23485714Y-2771234D01*
X22457143Y-2142662D02*
X21771429Y-2142662D01*
X22114286Y-3342662D02*
X22114286Y-2142662D01*
X21371428Y-3342662D02*
X21371428Y-2142662D01*
X20114285Y-3228377D02*
X20171428Y-3285520D01*
X20171428Y-3285520D02*
X20342856Y-3342662D01*
X20342856Y-3342662D02*
X20457142Y-3342662D01*
X20457142Y-3342662D02*
X20628571Y-3285520D01*
X20628571Y-3285520D02*
X20742856Y-3171234D01*
X20742856Y-3171234D02*
X20799999Y-3056948D01*
X20799999Y-3056948D02*
X20857142Y-2828377D01*
X20857142Y-2828377D02*
X20857142Y-2656948D01*
X20857142Y-2656948D02*
X20799999Y-2428377D01*
X20799999Y-2428377D02*
X20742856Y-2314091D01*
X20742856Y-2314091D02*
X20628571Y-2199805D01*
X20628571Y-2199805D02*
X20457142Y-2142662D01*
X20457142Y-2142662D02*
X20342856Y-2142662D01*
X20342856Y-2142662D02*
X20171428Y-2199805D01*
X20171428Y-2199805D02*
X20114285Y-2256948D01*
X19657142Y-2999805D02*
X19085714Y-2999805D01*
X19771428Y-3342662D02*
X19371428Y-2142662D01*
X19371428Y-2142662D02*
X18971428Y-3342662D01*
X18000000Y-3342662D02*
X18571428Y-3342662D01*
X18571428Y-3342662D02*
X18571428Y-2142662D01*
X16742856Y-3285520D02*
X16571428Y-3342662D01*
X16571428Y-3342662D02*
X16285713Y-3342662D01*
X16285713Y-3342662D02*
X16171428Y-3285520D01*
X16171428Y-3285520D02*
X16114285Y-3228377D01*
X16114285Y-3228377D02*
X16057142Y-3114091D01*
X16057142Y-3114091D02*
X16057142Y-2999805D01*
X16057142Y-2999805D02*
X16114285Y-2885520D01*
X16114285Y-2885520D02*
X16171428Y-2828377D01*
X16171428Y-2828377D02*
X16285713Y-2771234D01*
X16285713Y-2771234D02*
X16514285Y-2714091D01*
X16514285Y-2714091D02*
X16628570Y-2656948D01*
X16628570Y-2656948D02*
X16685713Y-2599805D01*
X16685713Y-2599805D02*
X16742856Y-2485520D01*
X16742856Y-2485520D02*
X16742856Y-2371234D01*
X16742856Y-2371234D02*
X16685713Y-2256948D01*
X16685713Y-2256948D02*
X16628570Y-2199805D01*
X16628570Y-2199805D02*
X16514285Y-2142662D01*
X16514285Y-2142662D02*
X16228570Y-2142662D01*
X16228570Y-2142662D02*
X16057142Y-2199805D01*
X15542856Y-3342662D02*
X15542856Y-2142662D01*
X14971427Y-3342662D02*
X14971427Y-2142662D01*
X14971427Y-2142662D02*
X14685713Y-2142662D01*
X14685713Y-2142662D02*
X14514284Y-2199805D01*
X14514284Y-2199805D02*
X14399999Y-2314091D01*
X14399999Y-2314091D02*
X14342856Y-2428377D01*
X14342856Y-2428377D02*
X14285713Y-2656948D01*
X14285713Y-2656948D02*
X14285713Y-2828377D01*
X14285713Y-2828377D02*
X14342856Y-3056948D01*
X14342856Y-3056948D02*
X14399999Y-3171234D01*
X14399999Y-3171234D02*
X14514284Y-3285520D01*
X14514284Y-3285520D02*
X14685713Y-3342662D01*
X14685713Y-3342662D02*
X14971427Y-3342662D01*
X13771427Y-2714091D02*
X13371427Y-2714091D01*
X13199999Y-3342662D02*
X13771427Y-3342662D01*
X13771427Y-3342662D02*
X13771427Y-2142662D01*
X13771427Y-2142662D02*
X13199999Y-2142662D01*
D10*
X35590475Y-40238545D02*
X35590475Y-39438545D01*
X35590475Y-39438545D02*
X35399999Y-39438545D01*
X35399999Y-39438545D02*
X35285713Y-39476640D01*
X35285713Y-39476640D02*
X35209523Y-39552830D01*
X35209523Y-39552830D02*
X35171428Y-39629021D01*
X35171428Y-39629021D02*
X35133332Y-39781402D01*
X35133332Y-39781402D02*
X35133332Y-39895688D01*
X35133332Y-39895688D02*
X35171428Y-40048069D01*
X35171428Y-40048069D02*
X35209523Y-40124259D01*
X35209523Y-40124259D02*
X35285713Y-40200450D01*
X35285713Y-40200450D02*
X35399999Y-40238545D01*
X35399999Y-40238545D02*
X35590475Y-40238545D01*
X34371428Y-40238545D02*
X34828571Y-40238545D01*
X34599999Y-40238545D02*
X34599999Y-39438545D01*
X34599999Y-39438545D02*
X34676190Y-39552830D01*
X34676190Y-39552830D02*
X34752380Y-39629021D01*
X34752380Y-39629021D02*
X34828571Y-39667116D01*
D12*
%TO.C,D1*%
X31100000Y-31100000D02*
X31100000Y-32800000D01*
X31100000Y-37200000D02*
X31100000Y-38900000D01*
X31100000Y-38900000D02*
X32800000Y-38900000D01*
X32800000Y-31100000D02*
X31100000Y-31100000D01*
X37200000Y-38900000D02*
X38900000Y-38900000D01*
X38900000Y-31100000D02*
X37200000Y-31100000D01*
X38900000Y-32800000D02*
X38900000Y-31100000D01*
X38900000Y-38900000D02*
X38900000Y-37200000D01*
D13*
X31000000Y-30850000D02*
G75*
G02*
X30700000Y-30850000I-150000J0D01*
G01*
X30700000Y-30850000D02*
G75*
G02*
X31000000Y-30850000I150000J0D01*
G01*
%TD*%
%LPC*%
D14*
%TO.C,H1*%
X5000000Y-5000000D03*
%TD*%
D15*
%TO.C,J1*%
X23750000Y-62000000D03*
D16*
X26250000Y-62000000D03*
X28750000Y-62000000D03*
X31250000Y-62000000D03*
X33750000Y-62000000D03*
X36250000Y-62000000D03*
X38750000Y-62000000D03*
X41250000Y-62000000D03*
X43750000Y-62000000D03*
X46250000Y-62000000D03*
%TD*%
D17*
%TO.C,J2*%
X3400000Y-24000000D03*
D18*
X5940000Y-24000000D03*
%TD*%
D14*
%TO.C,H2*%
X65000000Y-5000000D03*
%TD*%
D19*
%TO.C,TP17*%
X64400000Y-22000000D03*
X64400000Y-17000000D03*
%TD*%
%TO.C,TP18*%
X61600000Y-41400000D03*
X61600000Y-46400000D03*
%TD*%
D20*
%TO.C,RV1*%
X51000000Y-5400000D03*
X48460000Y-5400000D03*
X45920000Y-5400000D03*
%TD*%
D14*
%TO.C,H3*%
X65000000Y-65000000D03*
%TD*%
D19*
%TO.C,TP19*%
X2600000Y-43000000D03*
X7600000Y-43000000D03*
%TD*%
D14*
%TO.C,H4*%
X5000000Y-65000000D03*
%TD*%
D19*
%TO.C,TP14*%
X16200000Y-63600000D03*
X11200000Y-63600000D03*
%TD*%
%TO.C,TP15*%
X7600000Y-28000000D03*
X2600000Y-28000000D03*
%TD*%
%TO.C,TP20*%
X2600000Y-51000000D03*
X7600000Y-51000000D03*
%TD*%
%TO.C,TP16*%
X2600000Y-20000000D03*
X7600000Y-20000000D03*
%TD*%
D21*
%TO.C,D1*%
X32150000Y-32000000D03*
D22*
X38000000Y-32150000D03*
D21*
X37850000Y-38000000D03*
D22*
X32000000Y-37850000D03*
%TD*%
%LPD*%
M02*
