M48
; DRILL file {KiCad 9.0.9} date 2026-09-11T15:24:10-0700
; FORMAT={-:-/ absolute / metric / decimal}
; #@! TF.CreationDate,2026-09-11T15:24:10-07:00
; #@! TF.GenerationSoftware,Kicad,Pcbnew,9.0.9
; #@! TF.FileFunction,Plated,1,2,PTH
FMAT,2
METRIC
; #@! TA.AperFunction,Plated,PTH,ViaDrill
T1C0.600
; #@! TA.AperFunction,Plated,PTH,ComponentDrill
T2C0.800
; #@! TA.AperFunction,Plated,PTH,ComponentDrill
T3C0.950
; #@! TA.AperFunction,Plated,PTH,ComponentDrill
T4C1.000
%
G90
G05
T1
X3.3Y-33.3
X3.3Y-37.9
X6.3Y-30.3
X7.9Y-32.7
X8.3Y-29.5
X8.7Y-24.3
X8.7Y-25.9
X11.2Y-24.3
X11.2Y-25.9
X11.6Y-41.25
X18.1Y-46.9
X19.0Y-39.91
X20.4Y-55.3
X20.6Y-31.3
X20.6Y-33.0
X21.0Y-25.1
X21.6Y-27.9
X22.3Y-31.3
X24.4Y-28.4
X25.0Y-20.4
X25.0Y-22.9
X25.6Y-33.8
X25.7Y-29.7
X25.7Y-32.2
X27.1Y-52.1
X27.8Y-39.1
X27.9Y-29.0
X28.8Y-11.9
X28.9Y-50.3
X29.7Y-51.6
X31.4Y-11.5
X31.6Y-32.7
X33.0Y-54.3
X33.2Y-27.1
X34.9Y-28.8
X35.6Y-50.3
X36.8Y-22.8
X37.0Y-4.1
X37.3Y-48.6
X37.9Y-15.4
X37.9Y-47.1
X38.3Y-18.6
X38.3Y-21.1
X38.3Y-38.7
X39.7Y-48.9
X40.4Y-11.9
X40.4Y-55.1
X40.5Y-56.9
X40.6Y-15.4
X40.7Y-18.6
X40.7Y-21.1
X42.1Y-53.4
X42.2Y-56.9
X42.2Y-58.6
X42.4Y-37.0
X42.8Y-12.9
X42.9Y-3.5
X43.8Y-42.1
X43.9Y-55.2
X45.6Y-17.3
X45.6Y-22.3
X46.7Y-12.9
X50.6Y-21.5
X50.7Y-25.6
X51.1Y-14.6
X51.1Y-17.1
X51.8Y-22.5
X52.0Y-11.4
X53.2Y-26.7
X53.7Y-40.0
X54.2Y-25.5
X55.5Y-41.8
X55.6Y-17.5
X56.5Y-26.1
X57.4Y-19.3
X58.2Y-14.8
X60.2Y-29.6
T2
X45.92Y-5.4
X48.46Y-5.4
X51.0Y-5.4
T3
X23.75Y-62.0
X26.25Y-62.0
X28.75Y-62.0
X31.25Y-62.0
X33.75Y-62.0
X36.25Y-62.0
X38.75Y-62.0
X41.25Y-62.0
X43.75Y-62.0
X46.25Y-62.0
T4
X2.6Y-20.0
X2.6Y-28.0
X2.6Y-43.0
X2.6Y-51.0
X3.4Y-24.0
X5.94Y-24.0
X7.6Y-20.0
X7.6Y-28.0
X7.6Y-43.0
X7.6Y-51.0
X11.2Y-63.6
X16.2Y-63.6
X61.6Y-41.4
X61.6Y-46.4
X64.4Y-17.0
X64.4Y-22.0
M30
