%TF.GenerationSoftware,KiCad,Pcbnew,9.0.9*%
%TF.CreationDate,2026-09-14T13:57:28-07:00*%
%TF.ProjectId,power_interface,706f7765-725f-4696-9e74-657266616365,rev?*%
%TF.SameCoordinates,Original*%
%TF.FileFunction,Copper,L2,Bot*%
%TF.FilePolarity,Positive*%
%FSLAX46Y46*%
G04 Gerber Fmt 4.6, Leading zero omitted, Abs format (unit mm)*
G04 Created by KiCad (PCBNEW 9.0.9) date 2026-09-14 13:57:28*
%MOMM*%
%LPD*%
G01*
G04 APERTURE LIST*
G04 Aperture macros list*
%AMRoundRect*
0 Rectangle with rounded corners*
0 $1 Rounding radius*
0 $2 $3 $4 $5 $6 $7 $8 $9 X,Y pos of 4 corners*
0 Add a 4 corners polygon primitive as box body*
4,1,4,$2,$3,$4,$5,$6,$7,$8,$9,$2,$3,0*
0 Add four circle primitives for the rounded corners*
1,1,$1+$1,$2,$3*
1,1,$1+$1,$4,$5*
1,1,$1+$1,$6,$7*
1,1,$1+$1,$8,$9*
0 Add four rect primitives between the rounded corners*
20,1,$1+$1,$2,$3,$4,$5,0*
20,1,$1+$1,$4,$5,$6,$7,0*
20,1,$1+$1,$6,$7,$8,$9,0*
20,1,$1+$1,$8,$9,$2,$3,0*%
G04 Aperture macros list end*
%TA.AperFunction,ComponentPad*%
%ADD10RoundRect,0.250000X-0.725000X0.600000X-0.725000X-0.600000X0.725000X-0.600000X0.725000X0.600000X0*%
%TD*%
%TA.AperFunction,ComponentPad*%
%ADD11O,1.950000X1.700000*%
%TD*%
%TA.AperFunction,ComponentPad*%
%ADD12R,2.600000X2.600000*%
%TD*%
%TA.AperFunction,ComponentPad*%
%ADD13C,2.600000*%
%TD*%
%TA.AperFunction,ComponentPad*%
%ADD14R,1.700000X1.700000*%
%TD*%
%TA.AperFunction,ComponentPad*%
%ADD15C,1.700000*%
%TD*%
%TA.AperFunction,ComponentPad*%
%ADD16C,1.800000*%
%TD*%
%TA.AperFunction,ComponentPad*%
%ADD17C,1.440000*%
%TD*%
%TA.AperFunction,ViaPad*%
%ADD18C,1.000000*%
%TD*%
%TA.AperFunction,Conductor*%
%ADD19C,0.400000*%
%TD*%
%TA.AperFunction,Conductor*%
%ADD20C,0.600000*%
%TD*%
G04 APERTURE END LIST*
D10*
%TO.P,J4,1*%
%TO.N,/BIAS_27V*%
X82000000Y-5750000D03*
D11*
%TO.P,J4,2*%
%TO.N,GND*%
X82000000Y-8250000D03*
%TO.P,J4,3*%
%TO.N,/+5VA*%
X82000000Y-10750000D03*
%TO.P,J4,4*%
%TO.N,GND*%
X82000000Y-13250000D03*
%TO.P,J4,5*%
%TO.N,/+3V3_LOCAL*%
X82000000Y-15750000D03*
%TO.P,J4,6*%
%TO.N,GND*%
X82000000Y-18250000D03*
%TO.P,J4,7*%
%TO.N,/TRIG_B*%
X82000000Y-20750000D03*
%TO.P,J4,8*%
%TO.N,GND*%
X82000000Y-23250000D03*
%TO.P,J4,9*%
%TO.N,/PEAK_B*%
X82000000Y-25750000D03*
%TO.P,J4,10*%
%TO.N,/PEAK_RESET_B*%
X82000000Y-28250000D03*
%TD*%
D12*
%TO.P,J1,1*%
%TO.N,/VIN*%
X13700000Y-46000000D03*
D13*
%TO.P,J1,2*%
%TO.N,GND*%
X7700000Y-46000000D03*
%TO.P,J1,3*%
X10700000Y-50700000D03*
%TD*%
D14*
%TO.P,J2,1*%
%TO.N,/SHDN*%
X10000000Y-13500000D03*
D15*
%TO.P,J2,2*%
%TO.N,/+5VA*%
X10000000Y-16040000D03*
%TD*%
D16*
%TO.P,TP4,1*%
%TO.N,GND*%
X26600000Y-37400000D03*
X21600000Y-37400000D03*
%TD*%
D10*
%TO.P,J3,1*%
%TO.N,/BIAS_27V*%
X62000000Y-5750000D03*
D11*
%TO.P,J3,2*%
%TO.N,GND*%
X62000000Y-8250000D03*
%TO.P,J3,3*%
%TO.N,/+5VA*%
X62000000Y-10750000D03*
%TO.P,J3,4*%
%TO.N,GND*%
X62000000Y-13250000D03*
%TO.P,J3,5*%
%TO.N,/+3V3_LOCAL*%
X62000000Y-15750000D03*
%TO.P,J3,6*%
%TO.N,GND*%
X62000000Y-18250000D03*
%TO.P,J3,7*%
%TO.N,/TRIG_A*%
X62000000Y-20750000D03*
%TO.P,J3,8*%
%TO.N,GND*%
X62000000Y-23250000D03*
%TO.P,J3,9*%
%TO.N,/PEAK_A*%
X62000000Y-25750000D03*
%TO.P,J3,10*%
%TO.N,/PEAK_RESET_A*%
X62000000Y-28250000D03*
%TD*%
D14*
%TO.P,J5,1*%
%TO.N,/TRIG_A*%
X89420000Y-39650000D03*
D15*
%TO.P,J5,2*%
%TO.N,/TRIG_B*%
X89420000Y-42190000D03*
%TO.P,J5,3*%
%TO.N,/JA_CS_N*%
X89420000Y-44730000D03*
%TO.P,J5,4*%
%TO.N,/JA_SCLK*%
X89420000Y-47270000D03*
%TO.P,J5,5*%
%TO.N,GND*%
X89420000Y-49810000D03*
%TO.P,J5,6*%
%TO.N,unconnected-(J5-Pin_6-Pad6)*%
X89420000Y-52350000D03*
%TO.P,J5,7*%
%TO.N,/JA_MOSI*%
X91960000Y-39650000D03*
%TO.P,J5,8*%
%TO.N,/JA_MISO*%
X91960000Y-42190000D03*
%TO.P,J5,9*%
%TO.N,/PEAK_RESET*%
X91960000Y-44730000D03*
%TO.P,J5,10*%
%TO.N,unconnected-(J5-Pin_10-Pad10)*%
X91960000Y-47270000D03*
%TO.P,J5,11*%
%TO.N,GND*%
X91960000Y-49810000D03*
%TO.P,J5,12*%
%TO.N,unconnected-(J5-Pin_12-Pad12)*%
X91960000Y-52350000D03*
%TD*%
D16*
%TO.P,TP6,1*%
%TO.N,GND*%
X38000000Y-37400000D03*
X33000000Y-37400000D03*
%TD*%
D17*
%TO.P,RV1,1*%
%TO.N,GND*%
X27000000Y-10000000D03*
%TO.P,RV1,2*%
X24460000Y-10000000D03*
%TO.P,RV1,3*%
%TO.N,Net-(R3-Pad2)*%
X21920000Y-10000000D03*
%TD*%
D18*
%TO.N,/ADC_MOSI*%
X73900000Y-50300000D03*
X74500000Y-47000000D03*
X86800000Y-46000000D03*
X86800000Y-48500000D03*
%TO.N,/ADC_SCLK*%
X78500000Y-46000000D03*
X81300000Y-48700000D03*
%TO.N,/JA_CS_N*%
X88100000Y-43600000D03*
X85600000Y-43600000D03*
%TO.N,/JA_MISO*%
X81500000Y-43000000D03*
X86800000Y-50200000D03*
%TO.N,/PEAK_A*%
X60200000Y-41300000D03*
X60200000Y-38600000D03*
%TO.N,/PEAK_B*%
X64300000Y-46200000D03*
X66800000Y-38600000D03*
X66800000Y-41700000D03*
X62600000Y-48100000D03*
%TO.N,/PEAK_RESET*%
X72600000Y-31100000D03*
X74300000Y-32799999D03*
%TO.N,/PEAK_RESET_B*%
X79600000Y-32299999D03*
X79600000Y-29800000D03*
%TO.N,/TRIG_A*%
X87100000Y-39200000D03*
X73100000Y-33900000D03*
X71400000Y-29800000D03*
X83000000Y-35500000D03*
%TO.N,/TRIG_B*%
X83100000Y-32299999D03*
X91300000Y-32799999D03*
X81500000Y-36400000D03*
X83100000Y-29800000D03*
X81600000Y-41100000D03*
X81500000Y-33900000D03*
X89600000Y-34500000D03*
X88100000Y-41500000D03*
%TO.N,GND*%
X85100000Y-57900000D03*
X63500000Y-57300000D03*
X24400000Y-25500000D03*
X59700000Y-11000000D03*
X83800000Y-27300000D03*
X47400000Y-41000000D03*
X36000000Y-28000000D03*
X72700000Y-49200000D03*
X70400000Y-40900000D03*
X39200000Y-49400000D03*
X37900000Y-40500000D03*
X39600000Y-42600000D03*
X45400000Y-36300000D03*
X15400000Y-18700000D03*
X66200000Y-50200000D03*
X66200000Y-57200000D03*
X63500000Y-50300000D03*
X81700000Y-53100000D03*
X81900000Y-55400000D03*
X86900000Y-35500000D03*
X79300000Y-53100000D03*
X33299999Y-27700000D03*
X69900000Y-51100000D03*
X36300000Y-49100000D03*
X38500000Y-28100000D03*
X47200000Y-38100000D03*
X84600000Y-35500000D03*
X16200000Y-16200000D03*
X67400000Y-51100000D03*
X18700000Y-39900000D03*
X30300000Y-31600000D03*
X21300000Y-18100000D03*
X26100000Y-27200000D03*
X42100000Y-44800000D03*
X21300000Y-23600000D03*
X74400000Y-45400000D03*
X59700000Y-16000000D03*
%TD*%
D19*
%TO.N,/ADC_MOSI*%
X86800000Y-46000000D02*
X86800000Y-48500000D01*
X73900000Y-47600000D02*
X74500000Y-47000000D01*
X73900000Y-50300000D02*
X73900000Y-47600000D01*
%TO.N,/ADC_SCLK*%
X81300000Y-48700000D02*
X78600000Y-46000000D01*
X78600000Y-46000000D02*
X78500000Y-46000000D01*
%TO.N,/JA_CS_N*%
X88100000Y-43600000D02*
X85600000Y-43600000D01*
%TO.N,/JA_MISO*%
X81900000Y-45300000D02*
X86800000Y-50200000D01*
X81800000Y-43300000D02*
X81500000Y-43000000D01*
X81800000Y-43400000D02*
X81800000Y-43300000D01*
X81900000Y-43600000D02*
X81900000Y-45300000D01*
%TO.N,/PEAK_A*%
X60200000Y-38600000D02*
X60200000Y-41300000D01*
%TO.N,/PEAK_B*%
X62600000Y-47900000D02*
X62600000Y-48100000D01*
X66800000Y-38600000D02*
X66800000Y-41700000D01*
X64300000Y-46200000D02*
X62600000Y-47900000D01*
%TO.N,/PEAK_RESET*%
X74300000Y-32799999D02*
X72600000Y-31100000D01*
%TO.N,/PEAK_RESET_B*%
X79600000Y-29800000D02*
X79600000Y-32299999D01*
%TO.N,/TRIG_A*%
X87100000Y-39200000D02*
X86600000Y-39200000D01*
X73100000Y-33900000D02*
X71400000Y-32200000D01*
X83000000Y-35600000D02*
X83000000Y-35500000D01*
X86600000Y-39200000D02*
X83000000Y-35600000D01*
X71400000Y-32200000D02*
X71400000Y-29800000D01*
%TO.N,/TRIG_B*%
X81600000Y-41100000D02*
X82000000Y-41500000D01*
X82000000Y-41500000D02*
X88100000Y-41500000D01*
X83100000Y-29800000D02*
X83100000Y-32299999D01*
X81500000Y-33900000D02*
X81500000Y-36400000D01*
X91300000Y-32799999D02*
X89600000Y-34500000D01*
D20*
%TO.N,GND*%
X59700000Y-11000000D02*
X61200000Y-12500000D01*
X61200000Y-12500000D02*
X61300000Y-12500000D01*
X18700000Y-39900000D02*
X20800000Y-37800000D01*
X81900000Y-53600000D02*
X81900000Y-55400000D01*
X15400000Y-17000000D02*
X16200000Y-16200000D01*
X39400000Y-42000000D02*
X37900000Y-40500000D01*
X74200000Y-45400000D02*
X72900000Y-46700000D01*
X39400000Y-42100000D02*
X39400000Y-42000000D01*
X61300000Y-12500000D02*
X62000000Y-13250000D01*
X45400000Y-36300000D02*
X47200000Y-38100000D01*
X24400000Y-25500000D02*
X26100000Y-27200000D01*
X20800000Y-37800000D02*
X21600000Y-37400000D01*
X62000000Y-18250000D02*
X61300000Y-17500000D01*
X61200000Y-17500000D02*
X59700000Y-16000000D01*
X21300000Y-23600000D02*
X21300000Y-18100000D01*
X74400000Y-45400000D02*
X74200000Y-45400000D01*
X84300000Y-35000000D02*
X84300000Y-27800000D01*
X42100000Y-44800000D02*
X41900000Y-44800000D01*
X15400000Y-18700000D02*
X15400000Y-17000000D01*
X61300000Y-17500000D02*
X61200000Y-17500000D01*
X41900000Y-44800000D02*
X40000000Y-42900000D01*
X84300000Y-27800000D02*
X83800000Y-27300000D01*
X69900000Y-51100000D02*
X67400000Y-51100000D01*
X72900000Y-46700000D02*
X72900000Y-48700000D01*
%TD*%
%TA.AperFunction,Conductor*%
%TO.N,GND*%
G36*
X91494075Y-50002993D02*
G01*
X91559901Y-50117007D01*
X91652993Y-50210099D01*
X91767007Y-50275925D01*
X91830590Y-50292962D01*
X91198282Y-50925269D01*
X91198282Y-50925270D01*
X91252449Y-50964624D01*
X91371629Y-51025350D01*
X91422425Y-51073325D01*
X91439220Y-51141146D01*
X91416682Y-51207281D01*
X91371630Y-51246319D01*
X91304597Y-51280474D01*
X91248267Y-51321401D01*
X91145354Y-51396172D01*
X91145352Y-51396174D01*
X91145351Y-51396174D01*
X91006174Y-51535351D01*
X91006174Y-51535352D01*
X91006172Y-51535354D01*
X90956485Y-51603741D01*
X90890476Y-51694594D01*
X90800485Y-51871213D01*
X90752511Y-51922009D01*
X90684690Y-51938804D01*
X90618555Y-51916267D01*
X90579515Y-51871213D01*
X90493389Y-51702181D01*
X90489524Y-51694595D01*
X90373828Y-51535354D01*
X90234646Y-51396172D01*
X90075405Y-51280476D01*
X90008370Y-51246320D01*
X89957574Y-51198345D01*
X89940779Y-51130524D01*
X89963316Y-51064389D01*
X90008370Y-51025350D01*
X90127554Y-50964622D01*
X90181716Y-50925270D01*
X90181717Y-50925270D01*
X89549408Y-50292962D01*
X89612993Y-50275925D01*
X89727007Y-50210099D01*
X89820099Y-50117007D01*
X89885925Y-50002993D01*
X89902962Y-49939408D01*
X90535270Y-50571717D01*
X90535270Y-50571716D01*
X90574622Y-50517554D01*
X90579514Y-50507954D01*
X90627488Y-50457157D01*
X90695308Y-50440361D01*
X90761444Y-50462897D01*
X90800486Y-50507954D01*
X90805375Y-50517550D01*
X90844728Y-50571716D01*
X91477037Y-49939408D01*
X91494075Y-50002993D01*
G37*
%TD.AperFunction*%
%TA.AperFunction,Conductor*%
G36*
X90761445Y-47703732D02*
G01*
X90800485Y-47748787D01*
X90890474Y-47925403D01*
X90910356Y-47952767D01*
X91006172Y-48084646D01*
X91145354Y-48223828D01*
X91213647Y-48273446D01*
X91304596Y-48339525D01*
X91371628Y-48373679D01*
X91422425Y-48421653D01*
X91439220Y-48489474D01*
X91416683Y-48555609D01*
X91371630Y-48594648D01*
X91252443Y-48655378D01*
X91252440Y-48655380D01*
X91198282Y-48694727D01*
X91198282Y-48694728D01*
X91830591Y-49327037D01*
X91767007Y-49344075D01*
X91652993Y-49409901D01*
X91559901Y-49502993D01*
X91494075Y-49617007D01*
X91477037Y-49680591D01*
X90844728Y-49048282D01*
X90844727Y-49048282D01*
X90805380Y-49102440D01*
X90800483Y-49112051D01*
X90752506Y-49162845D01*
X90684684Y-49179638D01*
X90618550Y-49157098D01*
X90579516Y-49112048D01*
X90574626Y-49102452D01*
X90535270Y-49048282D01*
X90535269Y-49048282D01*
X89902962Y-49680590D01*
X89885925Y-49617007D01*
X89820099Y-49502993D01*
X89727007Y-49409901D01*
X89612993Y-49344075D01*
X89549409Y-49327037D01*
X90181716Y-48694728D01*
X90127547Y-48655373D01*
X90127542Y-48655370D01*
X90008370Y-48594648D01*
X89957574Y-48546674D01*
X89940779Y-48478853D01*
X89963317Y-48412718D01*
X90008370Y-48373679D01*
X90075405Y-48339524D01*
X90234646Y-48223828D01*
X90373828Y-48084646D01*
X90489524Y-47925405D01*
X90553421Y-47799999D01*
X90579515Y-47748787D01*
X90627489Y-47697990D01*
X90695310Y-47681195D01*
X90761445Y-47703732D01*
G37*
%TD.AperFunction*%
%TA.AperFunction,Conductor*%
G36*
X94004418Y-500816D02*
G01*
X94204561Y-515130D01*
X94222063Y-517647D01*
X94413797Y-559355D01*
X94430755Y-564334D01*
X94614609Y-632909D01*
X94630701Y-640259D01*
X94802904Y-734288D01*
X94817784Y-743849D01*
X94974866Y-861440D01*
X94988236Y-873026D01*
X95126974Y-1011764D01*
X95138560Y-1025135D01*
X95256143Y-1182208D01*
X95265708Y-1197091D01*
X95359741Y-1369298D01*
X95367091Y-1385391D01*
X95435662Y-1569235D01*
X95440645Y-1586209D01*
X95440646Y-1586211D01*
X95482351Y-1777930D01*
X95484869Y-1795441D01*
X95499184Y-1995579D01*
X95499500Y-2004426D01*
X95499500Y-61995572D01*
X95499184Y-62004419D01*
X95484869Y-62204556D01*
X95482351Y-62222067D01*
X95440644Y-62413789D01*
X95435660Y-62430764D01*
X95367092Y-62614604D01*
X95359742Y-62630698D01*
X95265708Y-62802907D01*
X95256143Y-62817790D01*
X95138560Y-62974863D01*
X95126974Y-62988234D01*
X94988234Y-63126974D01*
X94974863Y-63138560D01*
X94817790Y-63256143D01*
X94802907Y-63265708D01*
X94630698Y-63359742D01*
X94614604Y-63367092D01*
X94430764Y-63435660D01*
X94413789Y-63440644D01*
X94222067Y-63482351D01*
X94204556Y-63484869D01*
X94021731Y-63497945D01*
X94004417Y-63499184D01*
X93995572Y-63499500D01*
X2004428Y-63499500D01*
X1995582Y-63499184D01*
X1973622Y-63497613D01*
X1795442Y-63484869D01*
X1777931Y-63482351D01*
X1586212Y-63440646D01*
X1569236Y-63435662D01*
X1385390Y-63367090D01*
X1369298Y-63359740D01*
X1197095Y-63265711D01*
X1182210Y-63256146D01*
X1025132Y-63138558D01*
X1011762Y-63126972D01*
X873027Y-62988237D01*
X861441Y-62974867D01*
X743854Y-62817790D01*
X743849Y-62817784D01*
X734288Y-62802904D01*
X640259Y-62630701D01*
X632909Y-62614609D01*
X608810Y-62549998D01*
X564334Y-62430755D01*
X559354Y-62413789D01*
X517647Y-62222064D01*
X515130Y-62204556D01*
X500816Y-62004418D01*
X500500Y-61995572D01*
X500500Y-60000000D01*
X1400000Y-60000000D01*
X1449999Y-60507198D01*
X1450001Y-60507206D01*
X1597898Y-60994995D01*
X1597900Y-60995000D01*
X1749148Y-61277921D01*
X1838198Y-61444497D01*
X2161499Y-61838500D01*
X2382685Y-62019995D01*
X2555500Y-62161800D01*
X3005000Y-62402100D01*
X3492800Y-62550000D01*
X4000000Y-62600000D01*
X4507200Y-62550000D01*
X4995000Y-62402100D01*
X5444500Y-62161800D01*
X5838500Y-61838500D01*
X6161800Y-61444500D01*
X6402100Y-60995000D01*
X6550000Y-60507200D01*
X6600000Y-60000000D01*
X89400000Y-60000000D01*
X89449999Y-60507198D01*
X89450001Y-60507206D01*
X89597898Y-60994995D01*
X89597900Y-60995000D01*
X89749148Y-61277921D01*
X89838198Y-61444497D01*
X90161499Y-61838500D01*
X90382685Y-62019995D01*
X90555500Y-62161800D01*
X91005000Y-62402100D01*
X91492800Y-62550000D01*
X92000000Y-62600000D01*
X92507200Y-62550000D01*
X92995000Y-62402100D01*
X93444500Y-62161800D01*
X93838500Y-61838500D01*
X94161800Y-61444500D01*
X94402100Y-60995000D01*
X94550000Y-60507200D01*
X94600000Y-60000000D01*
X94550000Y-59492800D01*
X94402100Y-59005000D01*
X94161800Y-58555500D01*
X94019995Y-58382685D01*
X93838500Y-58161499D01*
X93568944Y-57940313D01*
X93444500Y-57838200D01*
X93444498Y-57838199D01*
X93444497Y-57838198D01*
X93277921Y-57749148D01*
X92995000Y-57597900D01*
X92994997Y-57597899D01*
X92994995Y-57597898D01*
X92507206Y-57450001D01*
X92507198Y-57449999D01*
X92000000Y-57400000D01*
X91492801Y-57449999D01*
X91492793Y-57450001D01*
X91005004Y-57597898D01*
X90555502Y-57838198D01*
X90161499Y-58161499D01*
X89838198Y-58555502D01*
X89597898Y-59005004D01*
X89450001Y-59492793D01*
X89449999Y-59492801D01*
X89400000Y-60000000D01*
X6600000Y-60000000D01*
X6550000Y-59492800D01*
X6402100Y-59005000D01*
X6161800Y-58555500D01*
X6019995Y-58382685D01*
X5838500Y-58161499D01*
X5568944Y-57940313D01*
X5444500Y-57838200D01*
X5444498Y-57838199D01*
X5444497Y-57838198D01*
X5277921Y-57749148D01*
X4995000Y-57597900D01*
X4994997Y-57597899D01*
X4994995Y-57597898D01*
X4507206Y-57450001D01*
X4507198Y-57449999D01*
X4000000Y-57400000D01*
X3492801Y-57449999D01*
X3492793Y-57450001D01*
X3005004Y-57597898D01*
X2555502Y-57838198D01*
X2161499Y-58161499D01*
X1838198Y-58555502D01*
X1597898Y-59005004D01*
X1450001Y-59492793D01*
X1449999Y-59492801D01*
X1400000Y-60000000D01*
X500500Y-60000000D01*
X500500Y-50582014D01*
X8900000Y-50582014D01*
X8900000Y-50817985D01*
X8930799Y-51051914D01*
X8991870Y-51279837D01*
X9082160Y-51497819D01*
X9082165Y-51497828D01*
X9200144Y-51702171D01*
X9200145Y-51702172D01*
X9262721Y-51783723D01*
X9984152Y-51062292D01*
X9991049Y-51078942D01*
X10078599Y-51209970D01*
X10190030Y-51321401D01*
X10321058Y-51408951D01*
X10337706Y-51415846D01*
X9616275Y-52137277D01*
X9697827Y-52199854D01*
X9697828Y-52199855D01*
X9902171Y-52317834D01*
X9902180Y-52317839D01*
X10120163Y-52408129D01*
X10120161Y-52408129D01*
X10348085Y-52469200D01*
X10582014Y-52499999D01*
X10582029Y-52500000D01*
X10817971Y-52500000D01*
X10817985Y-52499999D01*
X11051914Y-52469200D01*
X11279837Y-52408129D01*
X11497819Y-52317839D01*
X11497828Y-52317834D01*
X11702177Y-52199852D01*
X11769313Y-52148336D01*
X11769315Y-52148335D01*
X11783723Y-52137279D01*
X11783723Y-52137276D01*
X11062293Y-51415847D01*
X11078942Y-51408951D01*
X11209970Y-51321401D01*
X11321401Y-51209970D01*
X11408951Y-51078942D01*
X11415847Y-51062293D01*
X12137276Y-51783723D01*
X12137279Y-51783723D01*
X12199850Y-51702181D01*
X12317834Y-51497828D01*
X12317839Y-51497819D01*
X12408129Y-51279837D01*
X12469200Y-51051914D01*
X12499999Y-50817985D01*
X12500000Y-50817971D01*
X12500000Y-50582028D01*
X12499999Y-50582014D01*
X12469200Y-50348085D01*
X12439519Y-50237310D01*
X12432551Y-50211304D01*
X72999500Y-50211304D01*
X72999500Y-50388695D01*
X73034103Y-50562658D01*
X73034106Y-50562667D01*
X73101983Y-50726540D01*
X73101990Y-50726553D01*
X73200535Y-50874034D01*
X73200538Y-50874038D01*
X73325961Y-50999461D01*
X73325965Y-50999464D01*
X73473446Y-51098009D01*
X73473459Y-51098016D01*
X73551942Y-51130524D01*
X73637334Y-51165894D01*
X73637336Y-51165894D01*
X73637341Y-51165896D01*
X73811304Y-51200499D01*
X73811307Y-51200500D01*
X73811309Y-51200500D01*
X73988693Y-51200500D01*
X73988694Y-51200499D01*
X74046682Y-51188964D01*
X74162658Y-51165896D01*
X74162661Y-51165894D01*
X74162666Y-51165894D01*
X74326547Y-51098013D01*
X74474035Y-50999464D01*
X74599464Y-50874035D01*
X74698013Y-50726547D01*
X74765894Y-50562666D01*
X74774868Y-50517554D01*
X74800499Y-50388695D01*
X74800500Y-50388693D01*
X74800500Y-50211306D01*
X74800499Y-50211304D01*
X74765896Y-50037341D01*
X74765893Y-50037332D01*
X74698016Y-49873459D01*
X74698009Y-49873446D01*
X74599464Y-49725965D01*
X74599461Y-49725961D01*
X74536819Y-49663319D01*
X74503334Y-49601996D01*
X74500500Y-49575638D01*
X74500500Y-48019806D01*
X74520185Y-47952767D01*
X74572989Y-47907012D01*
X74600309Y-47898189D01*
X74762658Y-47865896D01*
X74762661Y-47865894D01*
X74762666Y-47865894D01*
X74921750Y-47800000D01*
X74926540Y-47798016D01*
X74926540Y-47798015D01*
X74926547Y-47798013D01*
X75074035Y-47699464D01*
X75199464Y-47574035D01*
X75298013Y-47426547D01*
X75365894Y-47262666D01*
X75371576Y-47234104D01*
X75400499Y-47088695D01*
X75400500Y-47088693D01*
X75400500Y-46911306D01*
X75400499Y-46911304D01*
X75365896Y-46737341D01*
X75365893Y-46737332D01*
X75354137Y-46708951D01*
X75320002Y-46626540D01*
X75298016Y-46573459D01*
X75298009Y-46573446D01*
X75199464Y-46425965D01*
X75199461Y-46425961D01*
X75074038Y-46300538D01*
X75074034Y-46300535D01*
X74926553Y-46201990D01*
X74926540Y-46201983D01*
X74762667Y-46134106D01*
X74762658Y-46134103D01*
X74588694Y-46099500D01*
X74588691Y-46099500D01*
X74411309Y-46099500D01*
X74411306Y-46099500D01*
X74237341Y-46134103D01*
X74237332Y-46134106D01*
X74073459Y-46201983D01*
X74073446Y-46201990D01*
X73925965Y-46300535D01*
X73925961Y-46300538D01*
X73800538Y-46425961D01*
X73800535Y-46425965D01*
X73701990Y-46573446D01*
X73701983Y-46573459D01*
X73634106Y-46737332D01*
X73634103Y-46737341D01*
X73599500Y-46911304D01*
X73599500Y-46999901D01*
X73590855Y-47029340D01*
X73584333Y-47059326D01*
X73580577Y-47064342D01*
X73579815Y-47066940D01*
X73563183Y-47087581D01*
X73531286Y-47119478D01*
X73531284Y-47119479D01*
X73531283Y-47119480D01*
X73531284Y-47119480D01*
X73419481Y-47231282D01*
X73419477Y-47231287D01*
X73401363Y-47262664D01*
X73401362Y-47262666D01*
X73340423Y-47368215D01*
X73299499Y-47520943D01*
X73299499Y-47520945D01*
X73299499Y-47689046D01*
X73299500Y-47689059D01*
X73299500Y-49575638D01*
X73279815Y-49642677D01*
X73263181Y-49663319D01*
X73200538Y-49725961D01*
X73200535Y-49725965D01*
X73101990Y-49873446D01*
X73101983Y-49873459D01*
X73034106Y-50037332D01*
X73034103Y-50037341D01*
X72999500Y-50211304D01*
X12432551Y-50211304D01*
X12408128Y-50120160D01*
X12317839Y-49902180D01*
X12317834Y-49902171D01*
X12199855Y-49697828D01*
X12199854Y-49697827D01*
X12137277Y-49616275D01*
X11415846Y-50337705D01*
X11408951Y-50321058D01*
X11321401Y-50190030D01*
X11209970Y-50078599D01*
X11078942Y-49991049D01*
X11062293Y-49984152D01*
X11783723Y-49262721D01*
X11702172Y-49200145D01*
X11702171Y-49200144D01*
X11497828Y-49082165D01*
X11497819Y-49082160D01*
X11279836Y-48991870D01*
X11279838Y-48991870D01*
X11051914Y-48930799D01*
X10817985Y-48900000D01*
X10582014Y-48900000D01*
X10348085Y-48930799D01*
X10120162Y-48991870D01*
X9902180Y-49082160D01*
X9902171Y-49082165D01*
X9697828Y-49200144D01*
X9697818Y-49200150D01*
X9616275Y-49262720D01*
X9616275Y-49262721D01*
X10337706Y-49984152D01*
X10321058Y-49991049D01*
X10190030Y-50078599D01*
X10078599Y-50190030D01*
X9991049Y-50321058D01*
X9984152Y-50337706D01*
X9262721Y-49616275D01*
X9262720Y-49616275D01*
X9200150Y-49697818D01*
X9200144Y-49697828D01*
X9082165Y-49902171D01*
X9082160Y-49902180D01*
X8991870Y-50120162D01*
X8930799Y-50348085D01*
X8900000Y-50582014D01*
X500500Y-50582014D01*
X500500Y-48011304D01*
X61699500Y-48011304D01*
X61699500Y-48188695D01*
X61734103Y-48362658D01*
X61734106Y-48362667D01*
X61801983Y-48526540D01*
X61801990Y-48526553D01*
X61900535Y-48674034D01*
X61900538Y-48674038D01*
X62025961Y-48799461D01*
X62025965Y-48799464D01*
X62173446Y-48898009D01*
X62173459Y-48898016D01*
X62242355Y-48926553D01*
X62337334Y-48965894D01*
X62337336Y-48965894D01*
X62337341Y-48965896D01*
X62511304Y-49000499D01*
X62511307Y-49000500D01*
X62511309Y-49000500D01*
X62688693Y-49000500D01*
X62688694Y-49000499D01*
X62746682Y-48988964D01*
X62862658Y-48965896D01*
X62862661Y-48965894D01*
X62862666Y-48965894D01*
X63026547Y-48898013D01*
X63174035Y-48799464D01*
X63299464Y-48674035D01*
X63398013Y-48526547D01*
X63465894Y-48362666D01*
X63470498Y-48339524D01*
X63500499Y-48188695D01*
X63500500Y-48188693D01*
X63500500Y-48011307D01*
X63488855Y-47952767D01*
X63486457Y-47940711D01*
X63492684Y-47871122D01*
X63520390Y-47828843D01*
X64212416Y-47136819D01*
X64273739Y-47103334D01*
X64300097Y-47100500D01*
X64388693Y-47100500D01*
X64388694Y-47100499D01*
X64453639Y-47087581D01*
X64562658Y-47065896D01*
X64562661Y-47065894D01*
X64562666Y-47065894D01*
X64702535Y-47007958D01*
X64726540Y-46998016D01*
X64726540Y-46998015D01*
X64726547Y-46998013D01*
X64874035Y-46899464D01*
X64999464Y-46774035D01*
X65098013Y-46626547D01*
X65165894Y-46462666D01*
X65167349Y-46455354D01*
X65200499Y-46288695D01*
X65200500Y-46288693D01*
X65200500Y-46111306D01*
X65200499Y-46111304D01*
X65165895Y-45937339D01*
X65165894Y-45937334D01*
X65155112Y-45911304D01*
X77599500Y-45911304D01*
X77599500Y-46088695D01*
X77634103Y-46262658D01*
X77634106Y-46262667D01*
X77701983Y-46426540D01*
X77701990Y-46426553D01*
X77800535Y-46574034D01*
X77800538Y-46574038D01*
X77925961Y-46699461D01*
X77925965Y-46699464D01*
X78073446Y-46798009D01*
X78073459Y-46798016D01*
X78165807Y-46836267D01*
X78237334Y-46865894D01*
X78237336Y-46865894D01*
X78237341Y-46865896D01*
X78411304Y-46900499D01*
X78411307Y-46900500D01*
X78594783Y-46900500D01*
X78594783Y-46902058D01*
X78655938Y-46913658D01*
X78687125Y-46936360D01*
X80363181Y-48612416D01*
X80396666Y-48673739D01*
X80399500Y-48700097D01*
X80399500Y-48788695D01*
X80434103Y-48962658D01*
X80434106Y-48962667D01*
X80501983Y-49126540D01*
X80501990Y-49126553D01*
X80600535Y-49274034D01*
X80600538Y-49274038D01*
X80725961Y-49399461D01*
X80725965Y-49399464D01*
X80873446Y-49498009D01*
X80873459Y-49498016D01*
X80996363Y-49548923D01*
X81037334Y-49565894D01*
X81037336Y-49565894D01*
X81037341Y-49565896D01*
X81211304Y-49600499D01*
X81211307Y-49600500D01*
X81211309Y-49600500D01*
X81388693Y-49600500D01*
X81388694Y-49600499D01*
X81446682Y-49588964D01*
X81562658Y-49565896D01*
X81562661Y-49565894D01*
X81562666Y-49565894D01*
X81726547Y-49498013D01*
X81874035Y-49399464D01*
X81999464Y-49274035D01*
X82098013Y-49126547D01*
X82165894Y-48962666D01*
X82173078Y-48926553D01*
X82200499Y-48788695D01*
X82200500Y-48788693D01*
X82200500Y-48611306D01*
X82200499Y-48611304D01*
X82165896Y-48437341D01*
X82165893Y-48437332D01*
X82098016Y-48273459D01*
X82098009Y-48273446D01*
X81999464Y-48125965D01*
X81999461Y-48125961D01*
X81874038Y-48000538D01*
X81874034Y-48000535D01*
X81726553Y-47901990D01*
X81726540Y-47901983D01*
X81562667Y-47834106D01*
X81562658Y-47834103D01*
X81388694Y-47799500D01*
X81388691Y-47799500D01*
X81300098Y-47799500D01*
X81233059Y-47779815D01*
X81212417Y-47763181D01*
X79436238Y-45987002D01*
X79402753Y-45925679D01*
X79400515Y-45911465D01*
X79400500Y-45911317D01*
X79400500Y-45911309D01*
X79396165Y-45889515D01*
X79365896Y-45737341D01*
X79365893Y-45737332D01*
X79298016Y-45573459D01*
X79298009Y-45573446D01*
X79199464Y-45425965D01*
X79199461Y-45425961D01*
X79074038Y-45300538D01*
X79074034Y-45300535D01*
X78926553Y-45201990D01*
X78926540Y-45201983D01*
X78762667Y-45134106D01*
X78762658Y-45134103D01*
X78588694Y-45099500D01*
X78588691Y-45099500D01*
X78411309Y-45099500D01*
X78411306Y-45099500D01*
X78237341Y-45134103D01*
X78237332Y-45134106D01*
X78073459Y-45201983D01*
X78073446Y-45201990D01*
X77925965Y-45300535D01*
X77925961Y-45300538D01*
X77800538Y-45425961D01*
X77800535Y-45425965D01*
X77701990Y-45573446D01*
X77701983Y-45573459D01*
X77634106Y-45737332D01*
X77634103Y-45737341D01*
X77599500Y-45911304D01*
X65155112Y-45911304D01*
X65098016Y-45773459D01*
X65098009Y-45773446D01*
X64999464Y-45625965D01*
X64999461Y-45625961D01*
X64874038Y-45500538D01*
X64874034Y-45500535D01*
X64726553Y-45401990D01*
X64726540Y-45401983D01*
X64562667Y-45334106D01*
X64562658Y-45334103D01*
X64388694Y-45299500D01*
X64388691Y-45299500D01*
X64211309Y-45299500D01*
X64211306Y-45299500D01*
X64037341Y-45334103D01*
X64037332Y-45334106D01*
X63873459Y-45401983D01*
X63873446Y-45401990D01*
X63725965Y-45500535D01*
X63725961Y-45500538D01*
X63600538Y-45625961D01*
X63600535Y-45625965D01*
X63501990Y-45773446D01*
X63501983Y-45773459D01*
X63434106Y-45937332D01*
X63434103Y-45937341D01*
X63399500Y-46111304D01*
X63399500Y-46199902D01*
X63379815Y-46266941D01*
X63363181Y-46287583D01*
X62462952Y-47187811D01*
X62401629Y-47221296D01*
X62399463Y-47221747D01*
X62337339Y-47234104D01*
X62337329Y-47234107D01*
X62173459Y-47301983D01*
X62173446Y-47301990D01*
X62025965Y-47400535D01*
X62025961Y-47400538D01*
X61900538Y-47525961D01*
X61900535Y-47525965D01*
X61801990Y-47673446D01*
X61801983Y-47673459D01*
X61734106Y-47837332D01*
X61734103Y-47837341D01*
X61699500Y-48011304D01*
X500500Y-48011304D01*
X500500Y-45882014D01*
X5900000Y-45882014D01*
X5900000Y-46117985D01*
X5930799Y-46351914D01*
X5991870Y-46579837D01*
X6082160Y-46797819D01*
X6082165Y-46797828D01*
X6200144Y-47002171D01*
X6200145Y-47002172D01*
X6262721Y-47083723D01*
X6984152Y-46362292D01*
X6991049Y-46378942D01*
X7078599Y-46509970D01*
X7190030Y-46621401D01*
X7321058Y-46708951D01*
X7337706Y-46715846D01*
X6616275Y-47437277D01*
X6697827Y-47499854D01*
X6697828Y-47499855D01*
X6902171Y-47617834D01*
X6902180Y-47617839D01*
X7120163Y-47708129D01*
X7120161Y-47708129D01*
X7348085Y-47769200D01*
X7582014Y-47799999D01*
X7582029Y-47800000D01*
X7817971Y-47800000D01*
X7817985Y-47799999D01*
X8051914Y-47769200D01*
X8279837Y-47708129D01*
X8497819Y-47617839D01*
X8497828Y-47617834D01*
X8702181Y-47499850D01*
X8783723Y-47437279D01*
X8783723Y-47437276D01*
X8062293Y-46715847D01*
X8078942Y-46708951D01*
X8209970Y-46621401D01*
X8321401Y-46509970D01*
X8408951Y-46378942D01*
X8415847Y-46362293D01*
X9137276Y-47083723D01*
X9137279Y-47083723D01*
X9199850Y-47002181D01*
X9317834Y-46797828D01*
X9317839Y-46797819D01*
X9408129Y-46579837D01*
X9469200Y-46351914D01*
X9499999Y-46117985D01*
X9500000Y-46117971D01*
X9500000Y-45882028D01*
X9499999Y-45882014D01*
X9469200Y-45648085D01*
X9408129Y-45420162D01*
X9317839Y-45202180D01*
X9317834Y-45202171D01*
X9199855Y-44997828D01*
X9199854Y-44997827D01*
X9137277Y-44916275D01*
X8415846Y-45637705D01*
X8408951Y-45621058D01*
X8321401Y-45490030D01*
X8209970Y-45378599D01*
X8078942Y-45291049D01*
X8062293Y-45284152D01*
X8677970Y-44668475D01*
X11999500Y-44668475D01*
X11999500Y-47331517D01*
X12010292Y-47399657D01*
X12014354Y-47425304D01*
X12071950Y-47538342D01*
X12071952Y-47538344D01*
X12071954Y-47538347D01*
X12161652Y-47628045D01*
X12161654Y-47628046D01*
X12161658Y-47628050D01*
X12274694Y-47685645D01*
X12274698Y-47685647D01*
X12368475Y-47700499D01*
X12368481Y-47700500D01*
X15031518Y-47700499D01*
X15125304Y-47685646D01*
X15238342Y-47628050D01*
X15328050Y-47538342D01*
X15385646Y-47425304D01*
X15385646Y-47425302D01*
X15385647Y-47425301D01*
X15400499Y-47331524D01*
X15400500Y-47331519D01*
X15400499Y-44668482D01*
X15385646Y-44574696D01*
X15328050Y-44461658D01*
X15328046Y-44461654D01*
X15328045Y-44461652D01*
X15238347Y-44371954D01*
X15238344Y-44371952D01*
X15238342Y-44371950D01*
X15134038Y-44318804D01*
X15125301Y-44314352D01*
X15031524Y-44299500D01*
X12368482Y-44299500D01*
X12287519Y-44312323D01*
X12274696Y-44314354D01*
X12161658Y-44371950D01*
X12161657Y-44371951D01*
X12161652Y-44371954D01*
X12071954Y-44461652D01*
X12071951Y-44461657D01*
X12071950Y-44461658D01*
X12069792Y-44465894D01*
X12014352Y-44574698D01*
X11999500Y-44668475D01*
X8677970Y-44668475D01*
X8770517Y-44575928D01*
X8783723Y-44562721D01*
X8702172Y-44500145D01*
X8702171Y-44500144D01*
X8497828Y-44382165D01*
X8497819Y-44382160D01*
X8279836Y-44291870D01*
X8279838Y-44291870D01*
X8051914Y-44230799D01*
X7817985Y-44200000D01*
X7582014Y-44200000D01*
X7348085Y-44230799D01*
X7120162Y-44291870D01*
X6902180Y-44382160D01*
X6902171Y-44382165D01*
X6697828Y-44500144D01*
X6697818Y-44500150D01*
X6616275Y-44562720D01*
X6616275Y-44562721D01*
X7337706Y-45284152D01*
X7321058Y-45291049D01*
X7190030Y-45378599D01*
X7078599Y-45490030D01*
X6991049Y-45621058D01*
X6984152Y-45637706D01*
X6262721Y-44916275D01*
X6262720Y-44916275D01*
X6200150Y-44997818D01*
X6200144Y-44997828D01*
X6082165Y-45202171D01*
X6082160Y-45202180D01*
X5991870Y-45420162D01*
X5930799Y-45648085D01*
X5900000Y-45882014D01*
X500500Y-45882014D01*
X500500Y-37289818D01*
X20200000Y-37289818D01*
X20200000Y-37510181D01*
X20234473Y-37727835D01*
X20302567Y-37937410D01*
X20402611Y-38133756D01*
X20448932Y-38197513D01*
X21117037Y-37529408D01*
X21134075Y-37592993D01*
X21199901Y-37707007D01*
X21292993Y-37800099D01*
X21407007Y-37865925D01*
X21470590Y-37882962D01*
X20802485Y-38551065D01*
X20802485Y-38551066D01*
X20866243Y-38597388D01*
X21062589Y-38697432D01*
X21272164Y-38765526D01*
X21489819Y-38800000D01*
X21710181Y-38800000D01*
X21927835Y-38765526D01*
X22137410Y-38697432D01*
X22333760Y-38597386D01*
X22397513Y-38551066D01*
X22397514Y-38551066D01*
X21729409Y-37882962D01*
X21792993Y-37865925D01*
X21907007Y-37800099D01*
X22000099Y-37707007D01*
X22065925Y-37592993D01*
X22082962Y-37529409D01*
X22751066Y-38197514D01*
X22751066Y-38197513D01*
X22797386Y-38133760D01*
X22897432Y-37937410D01*
X22965526Y-37727835D01*
X23000000Y-37510181D01*
X23000000Y-37289818D01*
X25200000Y-37289818D01*
X25200000Y-37510181D01*
X25234473Y-37727835D01*
X25302567Y-37937410D01*
X25402611Y-38133756D01*
X25448932Y-38197513D01*
X26117037Y-37529408D01*
X26134075Y-37592993D01*
X26199901Y-37707007D01*
X26292993Y-37800099D01*
X26407007Y-37865925D01*
X26470590Y-37882962D01*
X25802485Y-38551065D01*
X25802485Y-38551066D01*
X25866243Y-38597388D01*
X26062589Y-38697432D01*
X26272164Y-38765526D01*
X26489819Y-38800000D01*
X26710181Y-38800000D01*
X26927835Y-38765526D01*
X27137410Y-38697432D01*
X27333760Y-38597386D01*
X27397513Y-38551066D01*
X27397514Y-38551066D01*
X26729409Y-37882962D01*
X26792993Y-37865925D01*
X26907007Y-37800099D01*
X27000099Y-37707007D01*
X27065925Y-37592993D01*
X27082962Y-37529409D01*
X27751066Y-38197514D01*
X27751066Y-38197513D01*
X27797386Y-38133760D01*
X27897432Y-37937410D01*
X27965526Y-37727835D01*
X28000000Y-37510181D01*
X28000000Y-37289818D01*
X31600000Y-37289818D01*
X31600000Y-37510181D01*
X31634473Y-37727835D01*
X31702567Y-37937410D01*
X31802611Y-38133756D01*
X31848932Y-38197513D01*
X32517037Y-37529408D01*
X32534075Y-37592993D01*
X32599901Y-37707007D01*
X32692993Y-37800099D01*
X32807007Y-37865925D01*
X32870590Y-37882962D01*
X32202485Y-38551065D01*
X32202485Y-38551066D01*
X32266243Y-38597388D01*
X32462589Y-38697432D01*
X32672164Y-38765526D01*
X32889819Y-38800000D01*
X33110181Y-38800000D01*
X33327835Y-38765526D01*
X33537410Y-38697432D01*
X33733760Y-38597386D01*
X33797513Y-38551066D01*
X33797514Y-38551066D01*
X33129409Y-37882962D01*
X33192993Y-37865925D01*
X33307007Y-37800099D01*
X33400099Y-37707007D01*
X33465925Y-37592993D01*
X33482962Y-37529409D01*
X34151066Y-38197514D01*
X34151066Y-38197513D01*
X34197386Y-38133760D01*
X34297432Y-37937410D01*
X34365526Y-37727835D01*
X34400000Y-37510181D01*
X34400000Y-37289818D01*
X36600000Y-37289818D01*
X36600000Y-37510181D01*
X36634473Y-37727835D01*
X36702567Y-37937410D01*
X36802611Y-38133756D01*
X36848932Y-38197513D01*
X37517037Y-37529408D01*
X37534075Y-37592993D01*
X37599901Y-37707007D01*
X37692993Y-37800099D01*
X37807007Y-37865925D01*
X37870590Y-37882962D01*
X37202485Y-38551065D01*
X37202485Y-38551066D01*
X37266243Y-38597388D01*
X37462589Y-38697432D01*
X37672164Y-38765526D01*
X37889819Y-38800000D01*
X38110181Y-38800000D01*
X38327835Y-38765526D01*
X38537410Y-38697432D01*
X38733760Y-38597386D01*
X38797513Y-38551066D01*
X38797514Y-38551066D01*
X38757752Y-38511304D01*
X59299500Y-38511304D01*
X59299500Y-38688695D01*
X59334103Y-38862658D01*
X59334106Y-38862667D01*
X59401983Y-39026540D01*
X59401990Y-39026553D01*
X59500534Y-39174033D01*
X59500535Y-39174034D01*
X59500536Y-39174035D01*
X59563182Y-39236681D01*
X59596666Y-39298002D01*
X59599500Y-39324361D01*
X59599500Y-40575638D01*
X59579815Y-40642677D01*
X59563181Y-40663319D01*
X59500538Y-40725961D01*
X59500535Y-40725965D01*
X59401990Y-40873446D01*
X59401983Y-40873459D01*
X59334106Y-41037332D01*
X59334103Y-41037341D01*
X59299500Y-41211304D01*
X59299500Y-41388695D01*
X59334103Y-41562658D01*
X59334106Y-41562667D01*
X59401983Y-41726540D01*
X59401990Y-41726553D01*
X59500535Y-41874034D01*
X59500538Y-41874038D01*
X59625961Y-41999461D01*
X59625965Y-41999464D01*
X59773446Y-42098009D01*
X59773459Y-42098016D01*
X59896363Y-42148923D01*
X59937334Y-42165894D01*
X59937336Y-42165894D01*
X59937341Y-42165896D01*
X60111304Y-42200499D01*
X60111307Y-42200500D01*
X60111309Y-42200500D01*
X60288693Y-42200500D01*
X60288694Y-42200499D01*
X60346682Y-42188964D01*
X60462658Y-42165896D01*
X60462661Y-42165894D01*
X60462666Y-42165894D01*
X60626547Y-42098013D01*
X60774035Y-41999464D01*
X60899464Y-41874035D01*
X60998013Y-41726547D01*
X61004365Y-41711213D01*
X61019764Y-41674034D01*
X61065894Y-41562666D01*
X61073078Y-41526553D01*
X61100499Y-41388695D01*
X61100500Y-41388693D01*
X61100500Y-41211306D01*
X61100499Y-41211304D01*
X61065896Y-41037341D01*
X61065893Y-41037332D01*
X60998016Y-40873459D01*
X60998009Y-40873446D01*
X60899464Y-40725965D01*
X60899461Y-40725961D01*
X60836819Y-40663319D01*
X60803334Y-40601996D01*
X60800500Y-40575638D01*
X60800500Y-39324361D01*
X60820185Y-39257322D01*
X60836814Y-39236684D01*
X60899464Y-39174035D01*
X60998013Y-39026547D01*
X61065894Y-38862666D01*
X61071328Y-38835351D01*
X61098761Y-38697432D01*
X61100500Y-38688691D01*
X61100500Y-38511309D01*
X61100500Y-38511306D01*
X61100499Y-38511304D01*
X65899500Y-38511304D01*
X65899500Y-38688695D01*
X65934103Y-38862658D01*
X65934106Y-38862667D01*
X66001983Y-39026540D01*
X66001990Y-39026553D01*
X66100534Y-39174033D01*
X66100535Y-39174034D01*
X66100536Y-39174035D01*
X66163182Y-39236681D01*
X66196666Y-39298002D01*
X66199500Y-39324361D01*
X66199500Y-40975638D01*
X66179815Y-41042677D01*
X66163181Y-41063319D01*
X66100538Y-41125961D01*
X66100535Y-41125965D01*
X66001990Y-41273446D01*
X66001983Y-41273459D01*
X65934106Y-41437332D01*
X65934103Y-41437341D01*
X65899500Y-41611304D01*
X65899500Y-41788695D01*
X65934103Y-41962658D01*
X65934106Y-41962667D01*
X66001983Y-42126540D01*
X66001990Y-42126553D01*
X66100535Y-42274034D01*
X66100538Y-42274038D01*
X66225961Y-42399461D01*
X66225965Y-42399464D01*
X66373446Y-42498009D01*
X66373459Y-42498016D01*
X66468016Y-42537182D01*
X66537334Y-42565894D01*
X66537336Y-42565894D01*
X66537341Y-42565896D01*
X66711304Y-42600499D01*
X66711307Y-42600500D01*
X66711309Y-42600500D01*
X66888693Y-42600500D01*
X66888694Y-42600499D01*
X66946682Y-42588964D01*
X67062658Y-42565896D01*
X67062661Y-42565894D01*
X67062666Y-42565894D01*
X67226547Y-42498013D01*
X67374035Y-42399464D01*
X67499464Y-42274035D01*
X67598013Y-42126547D01*
X67665894Y-41962666D01*
X67666710Y-41958568D01*
X67700499Y-41788695D01*
X67700500Y-41788693D01*
X67700500Y-41611306D01*
X67700499Y-41611304D01*
X67665896Y-41437341D01*
X67665893Y-41437332D01*
X67598016Y-41273459D01*
X67598009Y-41273446D01*
X67499464Y-41125965D01*
X67499461Y-41125961D01*
X67436819Y-41063319D01*
X67403334Y-41001996D01*
X67400500Y-40975638D01*
X67400500Y-39324361D01*
X67420185Y-39257322D01*
X67436814Y-39236684D01*
X67499464Y-39174035D01*
X67598013Y-39026547D01*
X67665894Y-38862666D01*
X67671328Y-38835351D01*
X67698761Y-38697432D01*
X67700500Y-38688691D01*
X67700500Y-38511309D01*
X67700500Y-38511306D01*
X67700499Y-38511304D01*
X67665896Y-38337341D01*
X67665893Y-38337332D01*
X67664556Y-38334105D01*
X67648923Y-38296363D01*
X67598016Y-38173459D01*
X67598009Y-38173446D01*
X67499464Y-38025965D01*
X67499461Y-38025961D01*
X67374038Y-37900538D01*
X67374034Y-37900535D01*
X67226553Y-37801990D01*
X67226540Y-37801983D01*
X67062667Y-37734106D01*
X67062658Y-37734103D01*
X66888694Y-37699500D01*
X66888691Y-37699500D01*
X66711309Y-37699500D01*
X66711306Y-37699500D01*
X66537341Y-37734103D01*
X66537332Y-37734106D01*
X66373459Y-37801983D01*
X66373446Y-37801990D01*
X66225965Y-37900535D01*
X66225961Y-37900538D01*
X66100538Y-38025961D01*
X66100535Y-38025965D01*
X66001990Y-38173446D01*
X66001983Y-38173459D01*
X65934106Y-38337332D01*
X65934103Y-38337341D01*
X65899500Y-38511304D01*
X61100499Y-38511304D01*
X61065896Y-38337341D01*
X61065893Y-38337332D01*
X61064556Y-38334105D01*
X61048923Y-38296363D01*
X60998016Y-38173459D01*
X60998009Y-38173446D01*
X60899464Y-38025965D01*
X60899461Y-38025961D01*
X60774038Y-37900538D01*
X60774034Y-37900535D01*
X60626553Y-37801990D01*
X60626540Y-37801983D01*
X60462667Y-37734106D01*
X60462658Y-37734103D01*
X60288694Y-37699500D01*
X60288691Y-37699500D01*
X60111309Y-37699500D01*
X60111306Y-37699500D01*
X59937341Y-37734103D01*
X59937332Y-37734106D01*
X59773459Y-37801983D01*
X59773446Y-37801990D01*
X59625965Y-37900535D01*
X59625961Y-37900538D01*
X59500538Y-38025961D01*
X59500535Y-38025965D01*
X59401990Y-38173446D01*
X59401983Y-38173459D01*
X59334106Y-38337332D01*
X59334103Y-38337341D01*
X59299500Y-38511304D01*
X38757752Y-38511304D01*
X38129409Y-37882962D01*
X38192993Y-37865925D01*
X38307007Y-37800099D01*
X38400099Y-37707007D01*
X38465925Y-37592993D01*
X38482962Y-37529410D01*
X39151066Y-38197514D01*
X39151066Y-38197513D01*
X39197386Y-38133760D01*
X39297432Y-37937410D01*
X39365526Y-37727835D01*
X39400000Y-37510181D01*
X39400000Y-37289818D01*
X39365526Y-37072164D01*
X39297432Y-36862589D01*
X39197388Y-36666243D01*
X39151066Y-36602485D01*
X39151065Y-36602485D01*
X38482962Y-37270589D01*
X38465925Y-37207007D01*
X38400099Y-37092993D01*
X38307007Y-36999901D01*
X38192993Y-36934075D01*
X38129407Y-36917037D01*
X38797513Y-36248932D01*
X38733756Y-36202611D01*
X38537410Y-36102567D01*
X38327835Y-36034473D01*
X38110181Y-36000000D01*
X37889819Y-36000000D01*
X37672164Y-36034473D01*
X37462589Y-36102567D01*
X37266233Y-36202616D01*
X37202485Y-36248931D01*
X37202485Y-36248932D01*
X37870590Y-36917037D01*
X37807007Y-36934075D01*
X37692993Y-36999901D01*
X37599901Y-37092993D01*
X37534075Y-37207007D01*
X37517037Y-37270590D01*
X36848932Y-36602485D01*
X36848931Y-36602485D01*
X36802616Y-36666233D01*
X36702567Y-36862589D01*
X36634473Y-37072164D01*
X36600000Y-37289818D01*
X34400000Y-37289818D01*
X34365526Y-37072164D01*
X34297432Y-36862589D01*
X34197388Y-36666243D01*
X34151066Y-36602485D01*
X33482962Y-37270589D01*
X33465925Y-37207007D01*
X33400099Y-37092993D01*
X33307007Y-36999901D01*
X33192993Y-36934075D01*
X33129407Y-36917037D01*
X33797513Y-36248932D01*
X33733756Y-36202611D01*
X33537410Y-36102567D01*
X33327835Y-36034473D01*
X33110181Y-36000000D01*
X32889819Y-36000000D01*
X32672164Y-36034473D01*
X32462589Y-36102567D01*
X32266233Y-36202616D01*
X32202485Y-36248931D01*
X32202485Y-36248932D01*
X32870590Y-36917037D01*
X32807007Y-36934075D01*
X32692993Y-36999901D01*
X32599901Y-37092993D01*
X32534075Y-37207007D01*
X32517037Y-37270590D01*
X31848932Y-36602485D01*
X31848931Y-36602485D01*
X31802616Y-36666233D01*
X31702567Y-36862589D01*
X31634473Y-37072164D01*
X31600000Y-37289818D01*
X28000000Y-37289818D01*
X27965526Y-37072164D01*
X27897432Y-36862589D01*
X27797388Y-36666243D01*
X27751066Y-36602485D01*
X27751065Y-36602485D01*
X27082962Y-37270589D01*
X27065925Y-37207007D01*
X27000099Y-37092993D01*
X26907007Y-36999901D01*
X26792993Y-36934075D01*
X26729407Y-36917037D01*
X27397513Y-36248932D01*
X27333756Y-36202611D01*
X27137410Y-36102567D01*
X26927835Y-36034473D01*
X26710181Y-36000000D01*
X26489819Y-36000000D01*
X26272164Y-36034473D01*
X26062589Y-36102567D01*
X25866233Y-36202616D01*
X25802485Y-36248931D01*
X25802485Y-36248932D01*
X26470590Y-36917037D01*
X26407007Y-36934075D01*
X26292993Y-36999901D01*
X26199901Y-37092993D01*
X26134075Y-37207007D01*
X26117037Y-37270590D01*
X25448932Y-36602485D01*
X25448931Y-36602485D01*
X25402616Y-36666233D01*
X25302567Y-36862589D01*
X25234473Y-37072164D01*
X25200000Y-37289818D01*
X23000000Y-37289818D01*
X22965526Y-37072164D01*
X22897432Y-36862589D01*
X22797388Y-36666243D01*
X22751066Y-36602485D01*
X22082962Y-37270589D01*
X22065925Y-37207007D01*
X22000099Y-37092993D01*
X21907007Y-36999901D01*
X21792993Y-36934075D01*
X21729407Y-36917037D01*
X22397513Y-36248932D01*
X22333756Y-36202611D01*
X22137410Y-36102567D01*
X21927835Y-36034473D01*
X21710181Y-36000000D01*
X21489819Y-36000000D01*
X21272164Y-36034473D01*
X21062589Y-36102567D01*
X20866233Y-36202616D01*
X20802485Y-36248931D01*
X20802485Y-36248932D01*
X21470590Y-36917037D01*
X21407007Y-36934075D01*
X21292993Y-36999901D01*
X21199901Y-37092993D01*
X21134075Y-37207007D01*
X21117037Y-37270590D01*
X20448932Y-36602485D01*
X20448931Y-36602485D01*
X20402616Y-36666233D01*
X20302567Y-36862589D01*
X20234473Y-37072164D01*
X20200000Y-37289818D01*
X500500Y-37289818D01*
X500500Y-29711304D01*
X70499500Y-29711304D01*
X70499500Y-29888695D01*
X70534103Y-30062658D01*
X70534106Y-30062667D01*
X70601983Y-30226540D01*
X70601990Y-30226553D01*
X70700534Y-30374033D01*
X70700535Y-30374034D01*
X70700536Y-30374035D01*
X70763182Y-30436681D01*
X70796666Y-30498002D01*
X70799500Y-30524361D01*
X70799500Y-32113330D01*
X70799499Y-32113348D01*
X70799499Y-32279054D01*
X70799498Y-32279054D01*
X70840423Y-32431785D01*
X70861439Y-32468184D01*
X70861440Y-32468188D01*
X70861441Y-32468188D01*
X70919479Y-32568714D01*
X70919481Y-32568717D01*
X71038349Y-32687585D01*
X71038355Y-32687590D01*
X72163181Y-33812416D01*
X72196666Y-33873739D01*
X72199500Y-33900097D01*
X72199500Y-33988695D01*
X72234103Y-34162658D01*
X72234106Y-34162667D01*
X72301983Y-34326540D01*
X72301990Y-34326553D01*
X72400535Y-34474034D01*
X72400538Y-34474038D01*
X72525961Y-34599461D01*
X72525965Y-34599464D01*
X72673446Y-34698009D01*
X72673459Y-34698016D01*
X72796363Y-34748923D01*
X72837334Y-34765894D01*
X72837336Y-34765894D01*
X72837341Y-34765896D01*
X73011304Y-34800499D01*
X73011307Y-34800500D01*
X73011309Y-34800500D01*
X73188693Y-34800500D01*
X73188694Y-34800499D01*
X73246682Y-34788964D01*
X73362658Y-34765896D01*
X73362661Y-34765894D01*
X73362666Y-34765894D01*
X73516953Y-34701987D01*
X73526540Y-34698016D01*
X73526540Y-34698015D01*
X73526547Y-34698013D01*
X73674035Y-34599464D01*
X73799464Y-34474035D01*
X73898013Y-34326547D01*
X73965894Y-34162666D01*
X73983639Y-34073459D01*
X74000499Y-33988695D01*
X74000500Y-33988693D01*
X74000500Y-33811304D01*
X80599500Y-33811304D01*
X80599500Y-33988695D01*
X80634103Y-34162658D01*
X80634106Y-34162667D01*
X80701983Y-34326540D01*
X80701990Y-34326553D01*
X80800534Y-34474033D01*
X80800535Y-34474034D01*
X80800536Y-34474035D01*
X80863182Y-34536681D01*
X80896666Y-34598002D01*
X80899500Y-34624361D01*
X80899500Y-35675638D01*
X80879815Y-35742677D01*
X80863181Y-35763319D01*
X80800538Y-35825961D01*
X80800535Y-35825965D01*
X80701990Y-35973446D01*
X80701983Y-35973459D01*
X80634106Y-36137332D01*
X80634103Y-36137341D01*
X80599500Y-36311304D01*
X80599500Y-36488695D01*
X80634103Y-36662658D01*
X80634106Y-36662667D01*
X80701983Y-36826540D01*
X80701990Y-36826553D01*
X80800535Y-36974034D01*
X80800538Y-36974038D01*
X80925961Y-37099461D01*
X80925965Y-37099464D01*
X81073446Y-37198009D01*
X81073459Y-37198016D01*
X81196363Y-37248923D01*
X81237334Y-37265894D01*
X81237336Y-37265894D01*
X81237341Y-37265896D01*
X81411304Y-37300499D01*
X81411307Y-37300500D01*
X81411309Y-37300500D01*
X81588693Y-37300500D01*
X81588694Y-37300499D01*
X81646682Y-37288964D01*
X81762658Y-37265896D01*
X81762661Y-37265894D01*
X81762666Y-37265894D01*
X81926547Y-37198013D01*
X82074035Y-37099464D01*
X82199464Y-36974035D01*
X82298013Y-36826547D01*
X82365894Y-36662666D01*
X82400500Y-36488691D01*
X82400500Y-36411952D01*
X82420185Y-36344913D01*
X82472989Y-36299158D01*
X82542147Y-36289214D01*
X82571952Y-36297391D01*
X82573451Y-36298012D01*
X82573453Y-36298013D01*
X82737334Y-36365894D01*
X82737336Y-36365894D01*
X82737341Y-36365896D01*
X82908243Y-36399890D01*
X82911309Y-36400500D01*
X82911318Y-36400500D01*
X82911464Y-36400515D01*
X82911544Y-36400547D01*
X82917283Y-36401689D01*
X82917066Y-36402776D01*
X82976254Y-36426670D01*
X82987003Y-36436238D01*
X86115139Y-39564374D01*
X86115149Y-39564385D01*
X86119479Y-39568715D01*
X86119480Y-39568716D01*
X86231284Y-39680520D01*
X86318095Y-39730639D01*
X86368215Y-39759577D01*
X86374693Y-39761312D01*
X86387584Y-39768310D01*
X86399241Y-39779909D01*
X86416108Y-39789607D01*
X86525962Y-39899461D01*
X86525966Y-39899465D01*
X86673446Y-39998009D01*
X86673459Y-39998016D01*
X86796363Y-40048923D01*
X86837334Y-40065894D01*
X86837336Y-40065894D01*
X86837341Y-40065896D01*
X87011304Y-40100499D01*
X87011307Y-40100500D01*
X87011309Y-40100500D01*
X87188693Y-40100500D01*
X87188694Y-40100499D01*
X87246682Y-40088964D01*
X87362658Y-40065896D01*
X87362661Y-40065894D01*
X87362666Y-40065894D01*
X87526547Y-39998013D01*
X87674035Y-39899464D01*
X87799464Y-39774035D01*
X87898013Y-39626547D01*
X87930939Y-39547053D01*
X87974779Y-39492652D01*
X88041073Y-39470586D01*
X88108772Y-39487864D01*
X88156383Y-39539001D01*
X88169500Y-39594507D01*
X88169501Y-40475500D01*
X88149817Y-40542539D01*
X88097013Y-40588294D01*
X88045501Y-40599500D01*
X88011306Y-40599500D01*
X87837341Y-40634103D01*
X87837332Y-40634106D01*
X87673459Y-40701983D01*
X87673446Y-40701990D01*
X87525966Y-40800534D01*
X87503549Y-40822952D01*
X87463318Y-40863182D01*
X87401998Y-40896666D01*
X87375639Y-40899500D01*
X82574498Y-40899500D01*
X82507459Y-40879815D01*
X82461704Y-40827011D01*
X82459937Y-40822952D01*
X82398016Y-40673459D01*
X82398009Y-40673446D01*
X82299464Y-40525965D01*
X82299461Y-40525961D01*
X82174038Y-40400538D01*
X82174034Y-40400535D01*
X82026553Y-40301990D01*
X82026540Y-40301983D01*
X81862667Y-40234106D01*
X81862658Y-40234103D01*
X81688694Y-40199500D01*
X81688691Y-40199500D01*
X81511309Y-40199500D01*
X81511306Y-40199500D01*
X81337341Y-40234103D01*
X81337332Y-40234106D01*
X81173459Y-40301983D01*
X81173446Y-40301990D01*
X81025965Y-40400535D01*
X81025961Y-40400538D01*
X80900538Y-40525961D01*
X80900535Y-40525965D01*
X80801990Y-40673446D01*
X80801983Y-40673459D01*
X80734106Y-40837332D01*
X80734103Y-40837341D01*
X80699500Y-41011304D01*
X80699500Y-41188695D01*
X80734103Y-41362658D01*
X80734106Y-41362667D01*
X80801983Y-41526540D01*
X80801990Y-41526553D01*
X80900535Y-41674034D01*
X80900538Y-41674038D01*
X81025961Y-41799461D01*
X81025965Y-41799464D01*
X81173446Y-41898009D01*
X81173453Y-41898013D01*
X81213807Y-41914728D01*
X81268210Y-41958568D01*
X81290276Y-42024861D01*
X81272998Y-42092561D01*
X81221861Y-42140172D01*
X81213808Y-42143850D01*
X81073455Y-42201985D01*
X81073446Y-42201990D01*
X80925965Y-42300535D01*
X80925961Y-42300538D01*
X80800538Y-42425961D01*
X80800535Y-42425965D01*
X80701990Y-42573446D01*
X80701983Y-42573459D01*
X80634106Y-42737332D01*
X80634103Y-42737341D01*
X80599500Y-42911304D01*
X80599500Y-43088695D01*
X80634103Y-43262658D01*
X80634106Y-43262667D01*
X80701983Y-43426540D01*
X80701990Y-43426553D01*
X80800535Y-43574034D01*
X80800538Y-43574038D01*
X80925961Y-43699461D01*
X80925965Y-43699464D01*
X81073446Y-43798009D01*
X81073453Y-43798013D01*
X81222954Y-43859937D01*
X81277355Y-43903776D01*
X81299421Y-43970070D01*
X81299500Y-43974497D01*
X81299500Y-45213330D01*
X81299499Y-45213348D01*
X81299499Y-45379054D01*
X81299498Y-45379054D01*
X81299499Y-45379057D01*
X81332050Y-45500538D01*
X81340424Y-45531787D01*
X81352935Y-45553456D01*
X81352936Y-45553458D01*
X81419477Y-45668712D01*
X81419481Y-45668717D01*
X81538349Y-45787585D01*
X81538355Y-45787590D01*
X85863181Y-50112416D01*
X85896666Y-50173739D01*
X85899500Y-50200097D01*
X85899500Y-50288695D01*
X85934103Y-50462658D01*
X85934106Y-50462667D01*
X86001983Y-50626540D01*
X86001990Y-50626553D01*
X86100535Y-50774034D01*
X86100538Y-50774038D01*
X86225961Y-50899461D01*
X86225965Y-50899464D01*
X86373446Y-50998009D01*
X86373459Y-50998016D01*
X86496363Y-51048923D01*
X86537334Y-51065894D01*
X86537336Y-51065894D01*
X86537341Y-51065896D01*
X86711304Y-51100499D01*
X86711307Y-51100500D01*
X86711309Y-51100500D01*
X86888693Y-51100500D01*
X86888694Y-51100499D01*
X86946682Y-51088964D01*
X87062658Y-51065896D01*
X87062661Y-51065894D01*
X87062666Y-51065894D01*
X87226547Y-50998013D01*
X87374035Y-50899464D01*
X87499464Y-50774035D01*
X87598013Y-50626547D01*
X87665894Y-50462666D01*
X87700500Y-50288691D01*
X87700500Y-50111309D01*
X87700500Y-50111306D01*
X87700499Y-50111304D01*
X87665896Y-49937341D01*
X87665893Y-49937332D01*
X87598016Y-49773459D01*
X87598007Y-49773443D01*
X87594217Y-49767770D01*
X87499464Y-49625965D01*
X87499461Y-49625961D01*
X87374038Y-49500538D01*
X87374034Y-49500535D01*
X87303046Y-49453102D01*
X87258241Y-49399490D01*
X87249534Y-49330165D01*
X87279689Y-49267137D01*
X87303046Y-49246898D01*
X87327201Y-49230757D01*
X87374035Y-49199464D01*
X87499464Y-49074035D01*
X87598013Y-48926547D01*
X87665894Y-48762666D01*
X87700500Y-48588691D01*
X87700500Y-48411309D01*
X87700500Y-48411306D01*
X87700499Y-48411304D01*
X87665896Y-48237341D01*
X87665893Y-48237332D01*
X87598016Y-48073459D01*
X87598009Y-48073446D01*
X87499464Y-47925965D01*
X87499461Y-47925961D01*
X87436819Y-47863319D01*
X87403334Y-47801996D01*
X87400500Y-47775638D01*
X87400500Y-46724361D01*
X87420185Y-46657322D01*
X87436814Y-46636684D01*
X87499464Y-46574035D01*
X87598013Y-46426547D01*
X87665894Y-46262666D01*
X87678265Y-46200476D01*
X87696001Y-46111309D01*
X87700500Y-46088691D01*
X87700500Y-45911309D01*
X87700500Y-45911306D01*
X87700499Y-45911304D01*
X87665896Y-45737341D01*
X87665893Y-45737332D01*
X87598016Y-45573459D01*
X87598009Y-45573446D01*
X87499464Y-45425965D01*
X87499461Y-45425961D01*
X87374038Y-45300538D01*
X87374034Y-45300535D01*
X87226553Y-45201990D01*
X87226540Y-45201983D01*
X87062667Y-45134106D01*
X87062658Y-45134103D01*
X86888694Y-45099500D01*
X86888691Y-45099500D01*
X86711309Y-45099500D01*
X86711306Y-45099500D01*
X86537341Y-45134103D01*
X86537332Y-45134106D01*
X86373459Y-45201983D01*
X86373446Y-45201990D01*
X86225965Y-45300535D01*
X86225961Y-45300538D01*
X86100538Y-45425961D01*
X86100535Y-45425965D01*
X86001990Y-45573446D01*
X86001983Y-45573459D01*
X85934106Y-45737332D01*
X85934103Y-45737341D01*
X85899500Y-45911304D01*
X85899500Y-46088695D01*
X85934103Y-46262658D01*
X85934106Y-46262667D01*
X86001983Y-46426540D01*
X86001990Y-46426553D01*
X86100534Y-46574033D01*
X86100535Y-46574034D01*
X86100536Y-46574035D01*
X86163182Y-46636681D01*
X86196666Y-46698002D01*
X86199500Y-46724361D01*
X86199500Y-47775638D01*
X86179815Y-47842677D01*
X86163181Y-47863319D01*
X86100538Y-47925961D01*
X86100535Y-47925965D01*
X86001990Y-48073446D01*
X86001983Y-48073459D01*
X85932622Y-48240916D01*
X85888782Y-48295320D01*
X85822487Y-48317385D01*
X85754788Y-48300106D01*
X85730380Y-48281145D01*
X82536819Y-45087584D01*
X82503334Y-45026261D01*
X82500500Y-44999903D01*
X82500500Y-43520945D01*
X82500500Y-43520943D01*
X82459577Y-43368216D01*
X82417112Y-43294663D01*
X82402133Y-43252723D01*
X82400500Y-43242761D01*
X82400500Y-43220943D01*
X82391287Y-43186562D01*
X82390292Y-43180488D01*
X82392030Y-43166440D01*
X82391042Y-43136235D01*
X82400500Y-43088691D01*
X82400500Y-42911306D01*
X82400499Y-42911304D01*
X82365896Y-42737341D01*
X82365893Y-42737332D01*
X82298016Y-42573459D01*
X82298009Y-42573446D01*
X82199464Y-42425965D01*
X82199461Y-42425961D01*
X82085681Y-42312181D01*
X82052196Y-42250858D01*
X82057180Y-42181166D01*
X82099052Y-42125233D01*
X82164516Y-42100816D01*
X82173362Y-42100500D01*
X87375639Y-42100500D01*
X87442678Y-42120185D01*
X87463315Y-42136814D01*
X87507667Y-42181166D01*
X87525966Y-42199465D01*
X87673446Y-42298009D01*
X87673459Y-42298016D01*
X87796363Y-42348923D01*
X87837334Y-42365894D01*
X87837336Y-42365894D01*
X87837341Y-42365896D01*
X88011304Y-42400499D01*
X88011307Y-42400500D01*
X88011309Y-42400500D01*
X88083450Y-42400500D01*
X88107164Y-42407463D01*
X88131719Y-42410281D01*
X88140100Y-42417134D01*
X88150489Y-42420185D01*
X88166673Y-42438863D01*
X88185808Y-42454509D01*
X88193123Y-42469388D01*
X88196244Y-42472989D01*
X88201381Y-42486182D01*
X88217952Y-42537182D01*
X88219947Y-42607023D01*
X88183867Y-42666856D01*
X88121166Y-42697684D01*
X88100021Y-42699500D01*
X88011306Y-42699500D01*
X87837341Y-42734103D01*
X87837332Y-42734106D01*
X87673459Y-42801983D01*
X87673446Y-42801990D01*
X87525966Y-42900534D01*
X87494643Y-42931857D01*
X87463318Y-42963182D01*
X87401998Y-42996666D01*
X87375639Y-42999500D01*
X86324361Y-42999500D01*
X86257322Y-42979815D01*
X86236684Y-42963185D01*
X86174035Y-42900536D01*
X86174034Y-42900535D01*
X86174033Y-42900534D01*
X86026553Y-42801990D01*
X86026540Y-42801983D01*
X85862667Y-42734106D01*
X85862658Y-42734103D01*
X85688694Y-42699500D01*
X85688691Y-42699500D01*
X85511309Y-42699500D01*
X85511306Y-42699500D01*
X85337341Y-42734103D01*
X85337332Y-42734106D01*
X85173459Y-42801983D01*
X85173446Y-42801990D01*
X85025965Y-42900535D01*
X85025961Y-42900538D01*
X84900538Y-43025961D01*
X84900535Y-43025965D01*
X84801990Y-43173446D01*
X84801983Y-43173459D01*
X84734106Y-43337332D01*
X84734103Y-43337341D01*
X84699500Y-43511304D01*
X84699500Y-43688695D01*
X84734103Y-43862658D01*
X84734106Y-43862667D01*
X84801983Y-44026540D01*
X84801990Y-44026553D01*
X84900535Y-44174034D01*
X84900538Y-44174038D01*
X85025961Y-44299461D01*
X85025965Y-44299464D01*
X85173446Y-44398009D01*
X85173459Y-44398016D01*
X85267997Y-44437174D01*
X85337334Y-44465894D01*
X85337336Y-44465894D01*
X85337341Y-44465896D01*
X85511304Y-44500499D01*
X85511307Y-44500500D01*
X85511309Y-44500500D01*
X85688693Y-44500500D01*
X85688694Y-44500499D01*
X85746682Y-44488964D01*
X85862658Y-44465896D01*
X85862661Y-44465894D01*
X85862666Y-44465894D01*
X86026547Y-44398013D01*
X86174035Y-44299464D01*
X86236681Y-44236817D01*
X86298002Y-44203334D01*
X86324361Y-44200500D01*
X87375639Y-44200500D01*
X87442678Y-44220185D01*
X87463315Y-44236814D01*
X87518371Y-44291870D01*
X87525966Y-44299465D01*
X87673446Y-44398009D01*
X87673459Y-44398016D01*
X87767997Y-44437174D01*
X87837334Y-44465894D01*
X87837336Y-44465894D01*
X87837341Y-44465896D01*
X88011304Y-44500499D01*
X88011307Y-44500500D01*
X88045674Y-44500500D01*
X88112713Y-44520185D01*
X88158468Y-44572989D01*
X88167963Y-44626711D01*
X88169500Y-44626711D01*
X88169500Y-44828422D01*
X88200290Y-45022826D01*
X88261117Y-45210029D01*
X88307233Y-45300536D01*
X88350476Y-45385405D01*
X88466172Y-45544646D01*
X88605354Y-45683828D01*
X88764595Y-45799524D01*
X88887992Y-45862397D01*
X88941213Y-45889515D01*
X88992009Y-45937489D01*
X89008804Y-46005310D01*
X88986267Y-46071445D01*
X88941213Y-46110485D01*
X88764594Y-46200476D01*
X88694690Y-46251265D01*
X88605354Y-46316172D01*
X88605352Y-46316174D01*
X88605351Y-46316174D01*
X88466174Y-46455351D01*
X88466174Y-46455352D01*
X88466172Y-46455354D01*
X88460859Y-46462667D01*
X88350476Y-46614594D01*
X88261117Y-46789970D01*
X88200290Y-46977173D01*
X88169500Y-47171577D01*
X88169500Y-47368422D01*
X88200290Y-47562826D01*
X88261117Y-47750029D01*
X88341104Y-47907012D01*
X88350476Y-47925405D01*
X88466172Y-48084646D01*
X88605354Y-48223828D01*
X88673647Y-48273446D01*
X88764596Y-48339525D01*
X88831628Y-48373679D01*
X88882425Y-48421653D01*
X88899220Y-48489474D01*
X88876683Y-48555609D01*
X88831630Y-48594648D01*
X88712443Y-48655378D01*
X88712440Y-48655380D01*
X88658282Y-48694727D01*
X88658282Y-48694728D01*
X89290591Y-49327037D01*
X89227007Y-49344075D01*
X89112993Y-49409901D01*
X89019901Y-49502993D01*
X88954075Y-49617007D01*
X88937037Y-49680591D01*
X88304728Y-49048282D01*
X88304727Y-49048282D01*
X88265380Y-49102439D01*
X88168904Y-49291782D01*
X88103242Y-49493869D01*
X88103242Y-49493872D01*
X88070000Y-49703753D01*
X88070000Y-49916246D01*
X88103242Y-50126127D01*
X88103242Y-50126130D01*
X88168904Y-50328217D01*
X88265375Y-50517550D01*
X88304728Y-50571716D01*
X88937037Y-49939408D01*
X88954075Y-50002993D01*
X89019901Y-50117007D01*
X89112993Y-50210099D01*
X89227007Y-50275925D01*
X89290590Y-50292962D01*
X88658282Y-50925269D01*
X88658282Y-50925270D01*
X88712449Y-50964624D01*
X88831629Y-51025350D01*
X88882425Y-51073325D01*
X88899220Y-51141146D01*
X88876682Y-51207281D01*
X88831630Y-51246319D01*
X88764597Y-51280474D01*
X88708267Y-51321401D01*
X88605354Y-51396172D01*
X88605352Y-51396174D01*
X88605351Y-51396174D01*
X88466174Y-51535351D01*
X88466174Y-51535352D01*
X88466172Y-51535354D01*
X88416485Y-51603741D01*
X88350476Y-51694594D01*
X88261117Y-51869970D01*
X88200290Y-52057173D01*
X88169500Y-52251577D01*
X88169500Y-52448422D01*
X88200290Y-52642826D01*
X88261117Y-52830029D01*
X88350475Y-53005403D01*
X88350476Y-53005405D01*
X88466172Y-53164646D01*
X88605354Y-53303828D01*
X88764595Y-53419524D01*
X88847455Y-53461743D01*
X88939970Y-53508882D01*
X88939972Y-53508882D01*
X88939975Y-53508884D01*
X89040317Y-53541487D01*
X89127173Y-53569709D01*
X89321578Y-53600500D01*
X89321583Y-53600500D01*
X89518422Y-53600500D01*
X89712826Y-53569709D01*
X89900025Y-53508884D01*
X90075405Y-53419524D01*
X90234646Y-53303828D01*
X90373828Y-53164646D01*
X90489524Y-53005405D01*
X90578884Y-52830025D01*
X90579515Y-52828787D01*
X90627489Y-52777990D01*
X90695310Y-52761195D01*
X90761445Y-52783732D01*
X90800485Y-52828787D01*
X90890474Y-53005403D01*
X90925234Y-53053246D01*
X91006172Y-53164646D01*
X91145354Y-53303828D01*
X91304595Y-53419524D01*
X91387455Y-53461743D01*
X91479970Y-53508882D01*
X91479972Y-53508882D01*
X91479975Y-53508884D01*
X91580317Y-53541487D01*
X91667173Y-53569709D01*
X91861578Y-53600500D01*
X91861583Y-53600500D01*
X92058422Y-53600500D01*
X92252826Y-53569709D01*
X92440025Y-53508884D01*
X92615405Y-53419524D01*
X92774646Y-53303828D01*
X92913828Y-53164646D01*
X93029524Y-53005405D01*
X93118884Y-52830025D01*
X93179709Y-52642826D01*
X93210500Y-52448422D01*
X93210500Y-52251577D01*
X93179709Y-52057173D01*
X93118882Y-51869970D01*
X93033389Y-51702181D01*
X93029524Y-51694595D01*
X92913828Y-51535354D01*
X92774646Y-51396172D01*
X92615405Y-51280476D01*
X92548370Y-51246320D01*
X92497574Y-51198345D01*
X92480779Y-51130524D01*
X92503316Y-51064389D01*
X92548370Y-51025350D01*
X92667554Y-50964622D01*
X92721716Y-50925270D01*
X92721717Y-50925270D01*
X92089408Y-50292962D01*
X92152993Y-50275925D01*
X92267007Y-50210099D01*
X92360099Y-50117007D01*
X92425925Y-50002993D01*
X92442962Y-49939408D01*
X93075270Y-50571717D01*
X93075270Y-50571716D01*
X93114622Y-50517554D01*
X93211095Y-50328217D01*
X93276757Y-50126130D01*
X93276757Y-50126127D01*
X93310000Y-49916246D01*
X93310000Y-49703753D01*
X93276757Y-49493872D01*
X93276757Y-49493869D01*
X93211095Y-49291782D01*
X93114624Y-49102449D01*
X93075270Y-49048282D01*
X93075269Y-49048282D01*
X92442962Y-49680590D01*
X92425925Y-49617007D01*
X92360099Y-49502993D01*
X92267007Y-49409901D01*
X92152993Y-49344075D01*
X92089409Y-49327037D01*
X92721716Y-48694728D01*
X92667547Y-48655373D01*
X92667542Y-48655370D01*
X92548370Y-48594648D01*
X92497574Y-48546674D01*
X92480779Y-48478853D01*
X92503317Y-48412718D01*
X92548370Y-48373679D01*
X92615405Y-48339524D01*
X92774646Y-48223828D01*
X92913828Y-48084646D01*
X93029524Y-47925405D01*
X93118884Y-47750025D01*
X93179709Y-47562826D01*
X93189683Y-47499854D01*
X93210500Y-47368422D01*
X93210500Y-47171577D01*
X93179709Y-46977173D01*
X93122141Y-46800000D01*
X93118884Y-46789975D01*
X93118882Y-46789972D01*
X93118882Y-46789970D01*
X93040776Y-46636679D01*
X93029524Y-46614595D01*
X92913828Y-46455354D01*
X92774646Y-46316172D01*
X92685310Y-46251265D01*
X92615403Y-46200474D01*
X92438787Y-46110485D01*
X92387990Y-46062511D01*
X92371195Y-45994690D01*
X92393732Y-45928555D01*
X92438787Y-45889515D01*
X92615403Y-45799525D01*
X92615402Y-45799525D01*
X92615405Y-45799524D01*
X92774646Y-45683828D01*
X92913828Y-45544646D01*
X93029524Y-45385405D01*
X93118884Y-45210025D01*
X93179709Y-45022826D01*
X93183668Y-44997828D01*
X93210500Y-44828422D01*
X93210500Y-44631577D01*
X93179709Y-44437173D01*
X93133925Y-44296267D01*
X93118884Y-44249975D01*
X93118882Y-44249972D01*
X93118882Y-44249970D01*
X93029523Y-44074594D01*
X92994619Y-44026553D01*
X92913828Y-43915354D01*
X92774646Y-43776172D01*
X92654245Y-43688695D01*
X92615403Y-43660474D01*
X92438787Y-43570485D01*
X92387990Y-43522511D01*
X92371195Y-43454690D01*
X92393732Y-43388555D01*
X92438787Y-43349515D01*
X92615403Y-43259525D01*
X92615402Y-43259525D01*
X92615405Y-43259524D01*
X92774646Y-43143828D01*
X92913828Y-43004646D01*
X93029524Y-42845405D01*
X93118884Y-42670025D01*
X93179709Y-42482826D01*
X93188715Y-42425965D01*
X93210500Y-42288422D01*
X93210500Y-42091577D01*
X93179709Y-41897173D01*
X93144461Y-41788693D01*
X93118884Y-41709975D01*
X93118882Y-41709972D01*
X93118882Y-41709970D01*
X93043827Y-41562667D01*
X93029524Y-41534595D01*
X92913828Y-41375354D01*
X92774646Y-41236172D01*
X92695025Y-41178324D01*
X92615403Y-41120474D01*
X92438787Y-41030485D01*
X92387990Y-40982511D01*
X92371195Y-40914690D01*
X92393732Y-40848555D01*
X92438787Y-40809515D01*
X92615403Y-40719525D01*
X92615402Y-40719525D01*
X92615405Y-40719524D01*
X92774646Y-40603828D01*
X92913828Y-40464646D01*
X93029524Y-40305405D01*
X93118884Y-40130025D01*
X93179709Y-39942826D01*
X93186577Y-39899461D01*
X93210500Y-39748422D01*
X93210500Y-39551577D01*
X93179709Y-39357173D01*
X93147265Y-39257322D01*
X93118884Y-39169975D01*
X93118882Y-39169972D01*
X93118882Y-39169970D01*
X93045804Y-39026547D01*
X93029524Y-38994595D01*
X92913828Y-38835354D01*
X92774646Y-38696172D01*
X92615405Y-38580476D01*
X92440029Y-38491117D01*
X92252826Y-38430290D01*
X92058422Y-38399500D01*
X92058417Y-38399500D01*
X91861583Y-38399500D01*
X91861578Y-38399500D01*
X91667173Y-38430290D01*
X91479970Y-38491117D01*
X91304594Y-38580476D01*
X91241985Y-38625965D01*
X91145354Y-38696172D01*
X91145352Y-38696174D01*
X91145351Y-38696174D01*
X91006173Y-38835352D01*
X90894817Y-38988620D01*
X90839486Y-39031285D01*
X90769873Y-39037264D01*
X90708078Y-39004658D01*
X90673721Y-38943819D01*
X90670499Y-38915734D01*
X90670499Y-38768482D01*
X90670031Y-38765526D01*
X90655646Y-38674696D01*
X90598050Y-38561658D01*
X90598046Y-38561654D01*
X90598045Y-38561652D01*
X90508347Y-38471954D01*
X90508344Y-38471952D01*
X90508342Y-38471950D01*
X90426580Y-38430290D01*
X90395301Y-38414352D01*
X90301524Y-38399500D01*
X88538482Y-38399500D01*
X88466562Y-38410891D01*
X88444696Y-38414354D01*
X88331658Y-38471950D01*
X88331657Y-38471951D01*
X88331652Y-38471954D01*
X88241954Y-38561652D01*
X88241951Y-38561657D01*
X88184352Y-38674698D01*
X88169500Y-38768475D01*
X88169500Y-38805491D01*
X88149815Y-38872530D01*
X88097011Y-38918285D01*
X88027853Y-38928229D01*
X87964297Y-38899204D01*
X87930939Y-38852943D01*
X87898016Y-38773459D01*
X87898009Y-38773446D01*
X87799464Y-38625965D01*
X87799461Y-38625961D01*
X87674038Y-38500538D01*
X87674034Y-38500535D01*
X87526553Y-38401990D01*
X87526540Y-38401983D01*
X87362667Y-38334106D01*
X87362658Y-38334103D01*
X87188694Y-38299500D01*
X87188691Y-38299500D01*
X87011309Y-38299500D01*
X87011306Y-38299500D01*
X86837341Y-38334103D01*
X86837337Y-38334105D01*
X86837335Y-38334105D01*
X86837334Y-38334106D01*
X86829546Y-38337332D01*
X86734278Y-38376792D01*
X86664809Y-38384259D01*
X86602330Y-38352984D01*
X86599146Y-38349911D01*
X83936360Y-35687125D01*
X83902875Y-35625802D01*
X83901073Y-35594783D01*
X83900500Y-35594783D01*
X83900500Y-35411306D01*
X83900499Y-35411304D01*
X83865896Y-35237341D01*
X83865893Y-35237332D01*
X83798016Y-35073459D01*
X83798009Y-35073446D01*
X83699464Y-34925965D01*
X83699461Y-34925961D01*
X83574038Y-34800538D01*
X83574034Y-34800535D01*
X83426553Y-34701990D01*
X83426540Y-34701983D01*
X83262667Y-34634106D01*
X83262658Y-34634103D01*
X83088694Y-34599500D01*
X83088691Y-34599500D01*
X82911309Y-34599500D01*
X82911306Y-34599500D01*
X82737341Y-34634103D01*
X82737332Y-34634106D01*
X82573459Y-34701983D01*
X82573446Y-34701990D01*
X82425965Y-34800535D01*
X82425961Y-34800538D01*
X82312181Y-34914319D01*
X82292744Y-34924931D01*
X82276011Y-34939432D01*
X82262679Y-34941348D01*
X82250858Y-34947804D01*
X82228771Y-34946224D01*
X82206853Y-34949376D01*
X82194601Y-34943780D01*
X82181166Y-34942820D01*
X82163439Y-34929549D01*
X82143297Y-34920351D01*
X82136014Y-34909019D01*
X82125233Y-34900948D01*
X82117495Y-34880202D01*
X82105523Y-34861573D01*
X82102371Y-34839654D01*
X82100816Y-34835484D01*
X82100500Y-34826638D01*
X82100500Y-34624361D01*
X82120185Y-34557322D01*
X82136814Y-34536684D01*
X82199464Y-34474035D01*
X82241380Y-34411304D01*
X88699500Y-34411304D01*
X88699500Y-34588695D01*
X88734103Y-34762658D01*
X88734106Y-34762667D01*
X88801983Y-34926540D01*
X88801990Y-34926553D01*
X88900535Y-35074034D01*
X88900538Y-35074038D01*
X89025961Y-35199461D01*
X89025965Y-35199464D01*
X89173446Y-35298009D01*
X89173459Y-35298016D01*
X89296363Y-35348923D01*
X89337334Y-35365894D01*
X89337336Y-35365894D01*
X89337341Y-35365896D01*
X89511304Y-35400499D01*
X89511307Y-35400500D01*
X89511309Y-35400500D01*
X89688693Y-35400500D01*
X89688694Y-35400499D01*
X89746682Y-35388964D01*
X89862658Y-35365896D01*
X89862661Y-35365894D01*
X89862666Y-35365894D01*
X90026547Y-35298013D01*
X90174035Y-35199464D01*
X90299464Y-35074035D01*
X90398013Y-34926547D01*
X90400580Y-34920351D01*
X90408616Y-34900948D01*
X90465894Y-34762666D01*
X90478755Y-34698013D01*
X90500499Y-34588695D01*
X90500500Y-34588693D01*
X90500500Y-34500097D01*
X90520185Y-34433058D01*
X90536819Y-34412416D01*
X91212417Y-33736818D01*
X91273740Y-33703333D01*
X91300098Y-33700499D01*
X91388693Y-33700499D01*
X91388694Y-33700498D01*
X91456942Y-33686923D01*
X91562658Y-33665895D01*
X91562661Y-33665893D01*
X91562666Y-33665893D01*
X91726547Y-33598012D01*
X91874035Y-33499463D01*
X91999464Y-33374034D01*
X92098013Y-33226546D01*
X92165894Y-33062665D01*
X92171576Y-33034103D01*
X92200499Y-32888694D01*
X92200500Y-32888692D01*
X92200500Y-32711305D01*
X92200499Y-32711303D01*
X92165896Y-32537340D01*
X92165893Y-32537331D01*
X92098016Y-32373458D01*
X92098009Y-32373445D01*
X91999464Y-32225964D01*
X91999461Y-32225960D01*
X91874038Y-32100537D01*
X91874034Y-32100534D01*
X91726553Y-32001989D01*
X91726540Y-32001982D01*
X91562667Y-31934105D01*
X91562658Y-31934102D01*
X91388694Y-31899499D01*
X91388691Y-31899499D01*
X91211309Y-31899499D01*
X91211306Y-31899499D01*
X91037341Y-31934102D01*
X91037332Y-31934105D01*
X90873459Y-32001982D01*
X90873446Y-32001989D01*
X90725965Y-32100534D01*
X90725961Y-32100537D01*
X90600538Y-32225960D01*
X90600535Y-32225964D01*
X90501990Y-32373445D01*
X90501983Y-32373458D01*
X90434106Y-32537331D01*
X90434103Y-32537340D01*
X90399500Y-32711303D01*
X90399500Y-32799902D01*
X90379815Y-32866941D01*
X90363181Y-32887583D01*
X89687584Y-33563181D01*
X89626261Y-33596666D01*
X89599903Y-33599500D01*
X89511306Y-33599500D01*
X89337341Y-33634103D01*
X89337332Y-33634106D01*
X89173459Y-33701983D01*
X89173446Y-33701990D01*
X89025965Y-33800535D01*
X89025961Y-33800538D01*
X88900538Y-33925961D01*
X88900535Y-33925965D01*
X88801990Y-34073446D01*
X88801983Y-34073459D01*
X88734106Y-34237332D01*
X88734103Y-34237341D01*
X88699500Y-34411304D01*
X82241380Y-34411304D01*
X82298013Y-34326547D01*
X82365894Y-34162666D01*
X82383639Y-34073459D01*
X82400499Y-33988695D01*
X82400500Y-33988693D01*
X82400500Y-33811306D01*
X82400499Y-33811304D01*
X82365896Y-33637341D01*
X82365893Y-33637332D01*
X82298016Y-33473459D01*
X82298009Y-33473446D01*
X82199464Y-33325965D01*
X82199461Y-33325961D01*
X82074038Y-33200538D01*
X82074034Y-33200535D01*
X81926553Y-33101990D01*
X81926540Y-33101983D01*
X81762667Y-33034106D01*
X81762658Y-33034103D01*
X81588694Y-32999500D01*
X81588691Y-32999500D01*
X81411309Y-32999500D01*
X81411306Y-32999500D01*
X81237341Y-33034103D01*
X81237332Y-33034106D01*
X81073459Y-33101983D01*
X81073446Y-33101990D01*
X80925965Y-33200535D01*
X80925961Y-33200538D01*
X80800538Y-33325961D01*
X80800535Y-33325965D01*
X80701990Y-33473446D01*
X80701983Y-33473459D01*
X80634106Y-33637332D01*
X80634103Y-33637341D01*
X80599500Y-33811304D01*
X74000500Y-33811304D01*
X74000500Y-33809661D01*
X74020185Y-33742622D01*
X74072989Y-33696867D01*
X74142147Y-33686923D01*
X74148692Y-33688044D01*
X74211306Y-33700499D01*
X74211309Y-33700499D01*
X74388693Y-33700499D01*
X74473649Y-33683600D01*
X74473649Y-33683599D01*
X74522462Y-33673889D01*
X74562658Y-33665895D01*
X74562661Y-33665893D01*
X74562666Y-33665893D01*
X74726547Y-33598012D01*
X74874035Y-33499463D01*
X74999464Y-33374034D01*
X75098013Y-33226546D01*
X75165894Y-33062665D01*
X75171576Y-33034103D01*
X75200499Y-32888694D01*
X75200500Y-32888692D01*
X75200500Y-32711305D01*
X75200499Y-32711303D01*
X75165896Y-32537340D01*
X75165893Y-32537331D01*
X75098016Y-32373458D01*
X75098009Y-32373445D01*
X74999464Y-32225964D01*
X74999461Y-32225960D01*
X74874038Y-32100537D01*
X74874034Y-32100534D01*
X74726553Y-32001989D01*
X74726540Y-32001982D01*
X74562667Y-31934105D01*
X74562658Y-31934102D01*
X74388694Y-31899499D01*
X74388691Y-31899499D01*
X74300097Y-31899499D01*
X74233058Y-31879814D01*
X74212416Y-31863180D01*
X73536819Y-31187583D01*
X73503334Y-31126260D01*
X73500500Y-31099902D01*
X73500500Y-31011306D01*
X73500499Y-31011304D01*
X73465896Y-30837341D01*
X73465893Y-30837332D01*
X73398016Y-30673459D01*
X73398009Y-30673446D01*
X73299464Y-30525965D01*
X73299461Y-30525961D01*
X73174038Y-30400538D01*
X73174034Y-30400535D01*
X73026553Y-30301990D01*
X73026540Y-30301983D01*
X72862667Y-30234106D01*
X72862658Y-30234103D01*
X72688694Y-30199500D01*
X72688691Y-30199500D01*
X72511309Y-30199500D01*
X72511304Y-30199500D01*
X72408867Y-30219876D01*
X72339275Y-30213649D01*
X72284098Y-30170786D01*
X72260854Y-30104896D01*
X72265233Y-30068745D01*
X72264706Y-30068641D01*
X72300499Y-29888695D01*
X72300500Y-29888693D01*
X72300500Y-29711306D01*
X72300499Y-29711304D01*
X78699500Y-29711304D01*
X78699500Y-29888695D01*
X78734103Y-30062658D01*
X78734106Y-30062667D01*
X78801983Y-30226540D01*
X78801990Y-30226553D01*
X78900534Y-30374033D01*
X78900535Y-30374034D01*
X78900536Y-30374035D01*
X78963182Y-30436681D01*
X78996666Y-30498002D01*
X78999500Y-30524361D01*
X78999500Y-31575637D01*
X78979815Y-31642676D01*
X78963181Y-31663318D01*
X78900538Y-31725960D01*
X78900535Y-31725964D01*
X78801990Y-31873445D01*
X78801983Y-31873458D01*
X78734106Y-32037331D01*
X78734103Y-32037340D01*
X78699500Y-32211303D01*
X78699500Y-32388694D01*
X78734103Y-32562657D01*
X78734106Y-32562666D01*
X78801983Y-32726539D01*
X78801990Y-32726552D01*
X78900535Y-32874033D01*
X78900538Y-32874037D01*
X79025961Y-32999460D01*
X79025965Y-32999463D01*
X79173446Y-33098008D01*
X79173459Y-33098015D01*
X79296363Y-33148922D01*
X79337334Y-33165893D01*
X79337336Y-33165893D01*
X79337341Y-33165895D01*
X79511304Y-33200498D01*
X79511307Y-33200499D01*
X79511309Y-33200499D01*
X79688693Y-33200499D01*
X79688694Y-33200498D01*
X79746682Y-33188963D01*
X79862658Y-33165895D01*
X79862661Y-33165893D01*
X79862666Y-33165893D01*
X80016943Y-33101990D01*
X80026540Y-33098015D01*
X80026540Y-33098014D01*
X80026547Y-33098012D01*
X80174035Y-32999463D01*
X80299464Y-32874034D01*
X80398013Y-32726546D01*
X80465894Y-32562665D01*
X80470932Y-32537340D01*
X80500499Y-32388694D01*
X80500500Y-32388692D01*
X80500500Y-32211305D01*
X80500499Y-32211303D01*
X80465896Y-32037340D01*
X80465893Y-32037331D01*
X80398016Y-31873458D01*
X80398009Y-31873445D01*
X80299464Y-31725964D01*
X80299461Y-31725960D01*
X80236819Y-31663318D01*
X80203334Y-31601995D01*
X80200500Y-31575637D01*
X80200500Y-30524361D01*
X80220185Y-30457322D01*
X80236814Y-30436684D01*
X80299464Y-30374035D01*
X80398013Y-30226547D01*
X80403356Y-30213649D01*
X80448402Y-30104896D01*
X80465894Y-30062666D01*
X80500500Y-29888691D01*
X80500500Y-29711309D01*
X80500500Y-29711306D01*
X80500499Y-29711304D01*
X80465896Y-29537341D01*
X80465893Y-29537332D01*
X80398016Y-29373459D01*
X80398009Y-29373446D01*
X80299464Y-29225965D01*
X80299461Y-29225961D01*
X80174038Y-29100538D01*
X80174034Y-29100535D01*
X80026553Y-29001990D01*
X80026540Y-29001983D01*
X79862667Y-28934106D01*
X79862658Y-28934103D01*
X79688694Y-28899500D01*
X79688691Y-28899500D01*
X79511309Y-28899500D01*
X79511306Y-28899500D01*
X79337341Y-28934103D01*
X79337332Y-28934106D01*
X79173459Y-29001983D01*
X79173446Y-29001990D01*
X79025965Y-29100535D01*
X79025961Y-29100538D01*
X78900538Y-29225961D01*
X78900535Y-29225965D01*
X78801990Y-29373446D01*
X78801983Y-29373459D01*
X78734106Y-29537332D01*
X78734103Y-29537341D01*
X78699500Y-29711304D01*
X72300499Y-29711304D01*
X72265896Y-29537341D01*
X72265893Y-29537332D01*
X72198016Y-29373459D01*
X72198009Y-29373446D01*
X72099464Y-29225965D01*
X72099461Y-29225961D01*
X71974038Y-29100538D01*
X71974034Y-29100535D01*
X71826553Y-29001990D01*
X71826540Y-29001983D01*
X71662667Y-28934106D01*
X71662658Y-28934103D01*
X71488694Y-28899500D01*
X71488691Y-28899500D01*
X71311309Y-28899500D01*
X71311306Y-28899500D01*
X71137341Y-28934103D01*
X71137332Y-28934106D01*
X70973459Y-29001983D01*
X70973446Y-29001990D01*
X70825965Y-29100535D01*
X70825961Y-29100538D01*
X70700538Y-29225961D01*
X70700535Y-29225965D01*
X70601990Y-29373446D01*
X70601983Y-29373459D01*
X70534106Y-29537332D01*
X70534103Y-29537341D01*
X70499500Y-29711304D01*
X500500Y-29711304D01*
X500500Y-28500000D01*
X11300000Y-28500000D01*
X17500000Y-28500000D01*
X17500000Y-22300000D01*
X11300000Y-22300000D01*
X11300000Y-28500000D01*
X500500Y-28500000D01*
X500500Y-12618475D01*
X8749500Y-12618475D01*
X8749500Y-14381517D01*
X8759610Y-14445350D01*
X8764354Y-14475304D01*
X8821950Y-14588342D01*
X8821952Y-14588344D01*
X8821954Y-14588347D01*
X8911652Y-14678045D01*
X8911654Y-14678046D01*
X8911658Y-14678050D01*
X9024694Y-14735645D01*
X9024698Y-14735647D01*
X9118475Y-14750499D01*
X9118481Y-14750500D01*
X9265735Y-14750499D01*
X9332772Y-14770183D01*
X9378527Y-14822987D01*
X9388471Y-14892145D01*
X9359446Y-14955701D01*
X9338619Y-14974816D01*
X9185360Y-15086167D01*
X9185351Y-15086174D01*
X9046174Y-15225351D01*
X9046174Y-15225352D01*
X9046172Y-15225354D01*
X9013753Y-15269975D01*
X8930476Y-15384594D01*
X8841117Y-15559970D01*
X8780290Y-15747173D01*
X8749500Y-15941577D01*
X8749500Y-16138422D01*
X8780290Y-16332826D01*
X8841117Y-16520029D01*
X8863852Y-16564648D01*
X8930476Y-16695405D01*
X9046172Y-16854646D01*
X9185354Y-16993828D01*
X9344595Y-17109524D01*
X9427455Y-17151743D01*
X9519970Y-17198882D01*
X9519972Y-17198882D01*
X9519975Y-17198884D01*
X9620317Y-17231487D01*
X9707173Y-17259709D01*
X9901578Y-17290500D01*
X9901583Y-17290500D01*
X10098422Y-17290500D01*
X10292826Y-17259709D01*
X10480025Y-17198884D01*
X10655405Y-17109524D01*
X10814646Y-16993828D01*
X10953828Y-16854646D01*
X11069524Y-16695405D01*
X11158884Y-16520025D01*
X11219709Y-16332826D01*
X11250500Y-16138422D01*
X11250500Y-15941577D01*
X11219709Y-15747173D01*
X11158882Y-15559970D01*
X11069523Y-15384594D01*
X10953828Y-15225354D01*
X10814646Y-15086172D01*
X10661377Y-14974815D01*
X10618714Y-14919487D01*
X10612735Y-14849873D01*
X10645341Y-14788078D01*
X10706180Y-14753721D01*
X10734264Y-14750499D01*
X10881518Y-14750499D01*
X10975304Y-14735646D01*
X11088342Y-14678050D01*
X11178050Y-14588342D01*
X11235646Y-14475304D01*
X11235646Y-14475302D01*
X11235647Y-14475301D01*
X11250499Y-14381524D01*
X11250500Y-14381519D01*
X11250499Y-12618482D01*
X11235646Y-12524696D01*
X11178050Y-12411658D01*
X11178046Y-12411654D01*
X11178045Y-12411652D01*
X11088347Y-12321954D01*
X11088344Y-12321952D01*
X11088342Y-12321950D01*
X11011517Y-12282805D01*
X10975301Y-12264352D01*
X10881524Y-12249500D01*
X9118482Y-12249500D01*
X9037519Y-12262323D01*
X9024696Y-12264354D01*
X8911658Y-12321950D01*
X8911657Y-12321951D01*
X8911652Y-12321954D01*
X8821954Y-12411652D01*
X8821951Y-12411657D01*
X8764352Y-12524698D01*
X8749500Y-12618475D01*
X500500Y-12618475D01*
X500500Y-9911809D01*
X20799500Y-9911809D01*
X20799500Y-10088190D01*
X20827089Y-10262384D01*
X20881593Y-10430127D01*
X20961662Y-10587270D01*
X21065330Y-10729957D01*
X21190043Y-10854670D01*
X21332730Y-10958338D01*
X21406975Y-10996167D01*
X21489872Y-11038406D01*
X21489874Y-11038406D01*
X21489877Y-11038408D01*
X21505352Y-11043436D01*
X21657615Y-11092910D01*
X21831810Y-11120500D01*
X21831815Y-11120500D01*
X22008190Y-11120500D01*
X22182384Y-11092910D01*
X22350123Y-11038408D01*
X22507270Y-10958338D01*
X22649957Y-10854670D01*
X22774670Y-10729957D01*
X22878338Y-10587270D01*
X22958408Y-10430123D01*
X23012910Y-10262384D01*
X23017157Y-10235567D01*
X23047085Y-10172434D01*
X23106396Y-10135503D01*
X23176259Y-10136499D01*
X23234492Y-10175109D01*
X23262103Y-10235568D01*
X23270040Y-10285684D01*
X23329383Y-10468321D01*
X23416561Y-10639415D01*
X23437798Y-10668646D01*
X24060000Y-10046445D01*
X24060000Y-10052661D01*
X24087259Y-10154394D01*
X24139920Y-10245606D01*
X24214394Y-10320080D01*
X24305606Y-10372741D01*
X24407339Y-10400000D01*
X24413554Y-10400000D01*
X23791351Y-11022200D01*
X23791352Y-11022201D01*
X23820577Y-11043434D01*
X23991678Y-11130616D01*
X24174315Y-11189959D01*
X24363985Y-11220000D01*
X24556015Y-11220000D01*
X24745684Y-11189959D01*
X24928321Y-11130616D01*
X25099419Y-11043436D01*
X25128646Y-11022201D01*
X25128646Y-11022200D01*
X24506447Y-10400000D01*
X24512661Y-10400000D01*
X24614394Y-10372741D01*
X24705606Y-10320080D01*
X24780080Y-10245606D01*
X24832741Y-10154394D01*
X24860000Y-10052661D01*
X24860000Y-10046446D01*
X25482200Y-10668646D01*
X25482201Y-10668646D01*
X25503436Y-10639419D01*
X25590616Y-10468319D01*
X25612069Y-10402297D01*
X25651507Y-10344621D01*
X25715865Y-10317423D01*
X25784712Y-10329338D01*
X25836187Y-10376582D01*
X25847931Y-10402297D01*
X25869383Y-10468319D01*
X25956561Y-10639415D01*
X25977798Y-10668646D01*
X26600000Y-10046445D01*
X26600000Y-10052661D01*
X26627259Y-10154394D01*
X26679920Y-10245606D01*
X26754394Y-10320080D01*
X26845606Y-10372741D01*
X26947339Y-10400000D01*
X26953554Y-10400000D01*
X26331351Y-11022200D01*
X26331352Y-11022201D01*
X26360577Y-11043434D01*
X26531678Y-11130616D01*
X26714315Y-11189959D01*
X26903985Y-11220000D01*
X27096015Y-11220000D01*
X27285684Y-11189959D01*
X27468321Y-11130616D01*
X27639419Y-11043436D01*
X27668646Y-11022201D01*
X27668646Y-11022200D01*
X27046447Y-10400000D01*
X27052661Y-10400000D01*
X27154394Y-10372741D01*
X27245606Y-10320080D01*
X27320080Y-10245606D01*
X27372741Y-10154394D01*
X27400000Y-10052661D01*
X27400000Y-10046446D01*
X28022200Y-10668646D01*
X28022201Y-10668646D01*
X28043436Y-10639419D01*
X28130616Y-10468321D01*
X28189959Y-10285684D01*
X28220000Y-10096015D01*
X28220000Y-9903984D01*
X28189959Y-9714315D01*
X28130616Y-9531678D01*
X28043434Y-9360577D01*
X28022201Y-9331352D01*
X28022200Y-9331351D01*
X27400000Y-9953552D01*
X27400000Y-9947339D01*
X27372741Y-9845606D01*
X27320080Y-9754394D01*
X27245606Y-9679920D01*
X27154394Y-9627259D01*
X27052661Y-9600000D01*
X27046447Y-9600000D01*
X27668646Y-8977798D01*
X27639415Y-8956561D01*
X27468321Y-8869383D01*
X27285684Y-8810040D01*
X27096015Y-8780000D01*
X26903985Y-8780000D01*
X26714315Y-8810040D01*
X26531678Y-8869383D01*
X26360578Y-8956564D01*
X26331352Y-8977798D01*
X26331351Y-8977798D01*
X26953554Y-9600000D01*
X26947339Y-9600000D01*
X26845606Y-9627259D01*
X26754394Y-9679920D01*
X26679920Y-9754394D01*
X26627259Y-9845606D01*
X26600000Y-9947339D01*
X26600000Y-9953553D01*
X25977798Y-9331351D01*
X25977798Y-9331352D01*
X25956564Y-9360578D01*
X25869383Y-9531678D01*
X25847931Y-9597703D01*
X25808493Y-9655378D01*
X25744134Y-9682576D01*
X25675288Y-9670661D01*
X25623812Y-9623417D01*
X25612069Y-9597703D01*
X25590616Y-9531678D01*
X25503434Y-9360577D01*
X25482201Y-9331352D01*
X25482200Y-9331351D01*
X24860000Y-9953552D01*
X24860000Y-9947339D01*
X24832741Y-9845606D01*
X24780080Y-9754394D01*
X24705606Y-9679920D01*
X24614394Y-9627259D01*
X24512661Y-9600000D01*
X24506447Y-9600000D01*
X25128646Y-8977798D01*
X25099415Y-8956561D01*
X24928321Y-8869383D01*
X24745684Y-8810040D01*
X24556015Y-8780000D01*
X24363985Y-8780000D01*
X24174315Y-8810040D01*
X23991678Y-8869383D01*
X23820578Y-8956564D01*
X23791352Y-8977798D01*
X23791351Y-8977798D01*
X24413554Y-9600000D01*
X24407339Y-9600000D01*
X24305606Y-9627259D01*
X24214394Y-9679920D01*
X24139920Y-9754394D01*
X24087259Y-9845606D01*
X24060000Y-9947339D01*
X24060000Y-9953553D01*
X23437798Y-9331351D01*
X23437798Y-9331352D01*
X23416564Y-9360578D01*
X23329383Y-9531678D01*
X23270041Y-9714314D01*
X23262103Y-9764432D01*
X23232173Y-9827566D01*
X23172861Y-9864497D01*
X23102999Y-9863499D01*
X23044766Y-9824889D01*
X23017157Y-9764430D01*
X23012910Y-9737615D01*
X22974156Y-9618345D01*
X22958408Y-9569877D01*
X22958406Y-9569874D01*
X22958406Y-9569872D01*
X22914850Y-9484390D01*
X22878338Y-9412730D01*
X22774670Y-9270043D01*
X22649957Y-9145330D01*
X22507270Y-9041662D01*
X22350127Y-8961593D01*
X22182384Y-8907089D01*
X22008190Y-8879500D01*
X22008185Y-8879500D01*
X21831815Y-8879500D01*
X21831810Y-8879500D01*
X21657615Y-8907089D01*
X21489872Y-8961593D01*
X21332729Y-9041662D01*
X21190040Y-9145332D01*
X21065332Y-9270040D01*
X20961662Y-9412729D01*
X20881593Y-9569872D01*
X20827089Y-9737615D01*
X20799500Y-9911809D01*
X500500Y-9911809D01*
X500500Y-8000000D01*
X60547769Y-8000000D01*
X61595854Y-8000000D01*
X61557370Y-8066657D01*
X61525000Y-8187465D01*
X61525000Y-8312535D01*
X61557370Y-8433343D01*
X61595854Y-8500000D01*
X60547769Y-8500000D01*
X60558242Y-8566126D01*
X60558242Y-8566129D01*
X60623904Y-8768217D01*
X60720379Y-8957557D01*
X60845272Y-9129459D01*
X60845276Y-9129464D01*
X60995535Y-9279723D01*
X60995540Y-9279727D01*
X61167442Y-9404620D01*
X61247377Y-9445350D01*
X61298173Y-9493325D01*
X61314968Y-9561146D01*
X61292430Y-9627281D01*
X61247378Y-9666319D01*
X61219597Y-9680474D01*
X61173021Y-9714314D01*
X61060354Y-9796172D01*
X61060352Y-9796174D01*
X61060351Y-9796174D01*
X60921174Y-9935351D01*
X60921174Y-9935352D01*
X60921172Y-9935354D01*
X60874204Y-9999999D01*
X60805476Y-10094594D01*
X60716117Y-10269970D01*
X60655290Y-10457173D01*
X60624500Y-10651577D01*
X60624500Y-10848422D01*
X60655290Y-11042826D01*
X60716117Y-11230029D01*
X60805476Y-11405405D01*
X60921172Y-11564646D01*
X61060354Y-11703828D01*
X61219595Y-11819524D01*
X61219598Y-11819526D01*
X61247375Y-11833679D01*
X61298172Y-11881652D01*
X61314968Y-11949473D01*
X61292432Y-12015608D01*
X61247378Y-12054648D01*
X61167444Y-12095377D01*
X60995540Y-12220272D01*
X60995535Y-12220276D01*
X60845276Y-12370535D01*
X60845272Y-12370540D01*
X60720379Y-12542442D01*
X60623904Y-12731782D01*
X60558242Y-12933870D01*
X60558242Y-12933873D01*
X60547769Y-13000000D01*
X61595854Y-13000000D01*
X61557370Y-13066657D01*
X61525000Y-13187465D01*
X61525000Y-13312535D01*
X61557370Y-13433343D01*
X61595854Y-13500000D01*
X60547769Y-13500000D01*
X60558242Y-13566126D01*
X60558242Y-13566129D01*
X60623904Y-13768217D01*
X60720379Y-13957557D01*
X60845272Y-14129459D01*
X60845276Y-14129464D01*
X60995535Y-14279723D01*
X60995540Y-14279727D01*
X61167442Y-14404620D01*
X61247377Y-14445350D01*
X61298173Y-14493325D01*
X61314968Y-14561146D01*
X61292430Y-14627281D01*
X61247378Y-14666319D01*
X61219597Y-14680474D01*
X61143662Y-14735645D01*
X61060354Y-14796172D01*
X61060352Y-14796174D01*
X61060351Y-14796174D01*
X60921174Y-14935351D01*
X60921174Y-14935352D01*
X60921172Y-14935354D01*
X60871485Y-15003741D01*
X60805476Y-15094594D01*
X60716117Y-15269970D01*
X60655290Y-15457173D01*
X60624500Y-15651577D01*
X60624500Y-15848422D01*
X60655290Y-16042826D01*
X60716117Y-16230029D01*
X60768495Y-16332826D01*
X60805476Y-16405405D01*
X60921172Y-16564646D01*
X61060354Y-16703828D01*
X61219595Y-16819524D01*
X61219598Y-16819526D01*
X61247375Y-16833679D01*
X61298172Y-16881652D01*
X61314968Y-16949473D01*
X61292432Y-17015608D01*
X61247378Y-17054648D01*
X61167444Y-17095377D01*
X60995540Y-17220272D01*
X60995535Y-17220276D01*
X60845276Y-17370535D01*
X60845272Y-17370540D01*
X60720379Y-17542442D01*
X60623904Y-17731782D01*
X60558242Y-17933870D01*
X60558242Y-17933873D01*
X60547769Y-18000000D01*
X61595854Y-18000000D01*
X61557370Y-18066657D01*
X61525000Y-18187465D01*
X61525000Y-18312535D01*
X61557370Y-18433343D01*
X61595854Y-18500000D01*
X60547769Y-18500000D01*
X60558242Y-18566126D01*
X60558242Y-18566129D01*
X60623904Y-18768217D01*
X60720379Y-18957557D01*
X60845272Y-19129459D01*
X60845276Y-19129464D01*
X60995535Y-19279723D01*
X60995540Y-19279727D01*
X61167442Y-19404620D01*
X61247377Y-19445350D01*
X61298173Y-19493325D01*
X61314968Y-19561146D01*
X61292430Y-19627281D01*
X61247378Y-19666319D01*
X61219597Y-19680474D01*
X61139974Y-19738324D01*
X61060354Y-19796172D01*
X61060352Y-19796174D01*
X61060351Y-19796174D01*
X60921174Y-19935351D01*
X60921174Y-19935352D01*
X60921172Y-19935354D01*
X60871485Y-20003741D01*
X60805476Y-20094594D01*
X60716117Y-20269970D01*
X60655290Y-20457173D01*
X60624500Y-20651577D01*
X60624500Y-20848422D01*
X60655290Y-21042826D01*
X60716117Y-21230029D01*
X60805476Y-21405405D01*
X60921172Y-21564646D01*
X61060354Y-21703828D01*
X61219595Y-21819524D01*
X61219598Y-21819526D01*
X61247375Y-21833679D01*
X61298172Y-21881652D01*
X61314968Y-21949473D01*
X61292432Y-22015608D01*
X61247378Y-22054648D01*
X61167444Y-22095377D01*
X60995540Y-22220272D01*
X60995535Y-22220276D01*
X60845276Y-22370535D01*
X60845272Y-22370540D01*
X60720379Y-22542442D01*
X60623904Y-22731782D01*
X60558242Y-22933870D01*
X60558242Y-22933873D01*
X60547769Y-23000000D01*
X61595854Y-23000000D01*
X61557370Y-23066657D01*
X61525000Y-23187465D01*
X61525000Y-23312535D01*
X61557370Y-23433343D01*
X61595854Y-23500000D01*
X60547769Y-23500000D01*
X60558242Y-23566126D01*
X60558242Y-23566129D01*
X60623904Y-23768217D01*
X60720379Y-23957557D01*
X60845272Y-24129459D01*
X60845276Y-24129464D01*
X60995535Y-24279723D01*
X60995540Y-24279727D01*
X61167442Y-24404620D01*
X61247377Y-24445350D01*
X61298173Y-24493325D01*
X61314968Y-24561146D01*
X61292430Y-24627281D01*
X61247378Y-24666319D01*
X61219597Y-24680474D01*
X61139974Y-24738324D01*
X61060354Y-24796172D01*
X61060352Y-24796174D01*
X61060351Y-24796174D01*
X60921174Y-24935351D01*
X60921174Y-24935352D01*
X60921172Y-24935354D01*
X60871485Y-25003741D01*
X60805476Y-25094594D01*
X60716117Y-25269970D01*
X60655290Y-25457173D01*
X60624500Y-25651577D01*
X60624500Y-25848422D01*
X60655290Y-26042826D01*
X60716117Y-26230029D01*
X60805476Y-26405405D01*
X60921172Y-26564646D01*
X61060354Y-26703828D01*
X61219595Y-26819524D01*
X61288613Y-26854690D01*
X61356960Y-26889515D01*
X61407756Y-26937490D01*
X61424551Y-27005311D01*
X61402014Y-27071446D01*
X61356960Y-27110485D01*
X61219594Y-27180476D01*
X61128741Y-27246485D01*
X61060354Y-27296172D01*
X61060352Y-27296174D01*
X61060351Y-27296174D01*
X60921174Y-27435351D01*
X60921174Y-27435352D01*
X60921172Y-27435354D01*
X60871485Y-27503741D01*
X60805476Y-27594594D01*
X60716117Y-27769970D01*
X60655290Y-27957173D01*
X60624500Y-28151577D01*
X60624500Y-28348422D01*
X60655290Y-28542826D01*
X60716117Y-28730029D01*
X60802467Y-28899500D01*
X60805476Y-28905405D01*
X60921172Y-29064646D01*
X61060354Y-29203828D01*
X61219595Y-29319524D01*
X61302455Y-29361743D01*
X61394970Y-29408882D01*
X61394972Y-29408882D01*
X61394975Y-29408884D01*
X61495317Y-29441487D01*
X61582173Y-29469709D01*
X61776578Y-29500500D01*
X61776583Y-29500500D01*
X62223422Y-29500500D01*
X62417826Y-29469709D01*
X62605025Y-29408884D01*
X62780405Y-29319524D01*
X62939646Y-29203828D01*
X63078828Y-29064646D01*
X63194524Y-28905405D01*
X63283884Y-28730025D01*
X63344709Y-28542826D01*
X63351492Y-28500000D01*
X63375500Y-28348422D01*
X63375500Y-28151577D01*
X63344709Y-27957173D01*
X63283882Y-27769970D01*
X63194523Y-27594594D01*
X63078828Y-27435354D01*
X62939646Y-27296172D01*
X62780405Y-27180476D01*
X62643038Y-27110484D01*
X62592243Y-27062511D01*
X62575448Y-26994690D01*
X62597985Y-26928555D01*
X62643039Y-26889515D01*
X62780405Y-26819524D01*
X62939646Y-26703828D01*
X63078828Y-26564646D01*
X63194524Y-26405405D01*
X63283884Y-26230025D01*
X63344709Y-26042826D01*
X63375500Y-25848422D01*
X63375500Y-25651577D01*
X63344709Y-25457173D01*
X63283882Y-25269970D01*
X63194523Y-25094594D01*
X63078828Y-24935354D01*
X62939646Y-24796172D01*
X62780405Y-24680476D01*
X62752621Y-24666319D01*
X62701826Y-24618345D01*
X62685031Y-24550524D01*
X62707568Y-24484390D01*
X62752622Y-24445350D01*
X62832558Y-24404620D01*
X63004459Y-24279727D01*
X63004464Y-24279723D01*
X63154723Y-24129464D01*
X63154727Y-24129459D01*
X63279620Y-23957557D01*
X63376095Y-23768217D01*
X63441757Y-23566129D01*
X63441757Y-23566126D01*
X63452231Y-23500000D01*
X62404146Y-23500000D01*
X62442630Y-23433343D01*
X62475000Y-23312535D01*
X62475000Y-23187465D01*
X62442630Y-23066657D01*
X62404146Y-23000000D01*
X63452231Y-23000000D01*
X63441757Y-22933873D01*
X63441757Y-22933870D01*
X63376095Y-22731782D01*
X63279620Y-22542442D01*
X63154727Y-22370540D01*
X63154723Y-22370535D01*
X63004464Y-22220276D01*
X63004459Y-22220272D01*
X62832555Y-22095377D01*
X62752621Y-22054648D01*
X62701826Y-22006674D01*
X62685031Y-21938853D01*
X62707569Y-21872718D01*
X62752623Y-21833679D01*
X62780405Y-21819524D01*
X62939646Y-21703828D01*
X63078828Y-21564646D01*
X63194524Y-21405405D01*
X63283884Y-21230025D01*
X63344709Y-21042826D01*
X63375500Y-20848422D01*
X63375500Y-20651577D01*
X63344709Y-20457173D01*
X63283882Y-20269970D01*
X63194523Y-20094594D01*
X63078828Y-19935354D01*
X62939646Y-19796172D01*
X62780405Y-19680476D01*
X62752621Y-19666319D01*
X62701826Y-19618345D01*
X62685031Y-19550524D01*
X62707568Y-19484390D01*
X62752622Y-19445350D01*
X62832558Y-19404620D01*
X63004459Y-19279727D01*
X63004464Y-19279723D01*
X63154723Y-19129464D01*
X63154727Y-19129459D01*
X63279620Y-18957557D01*
X63376095Y-18768217D01*
X63441757Y-18566129D01*
X63441757Y-18566126D01*
X63452231Y-18500000D01*
X62404146Y-18500000D01*
X62442630Y-18433343D01*
X62475000Y-18312535D01*
X62475000Y-18187465D01*
X62442630Y-18066657D01*
X62404146Y-18000000D01*
X63452231Y-18000000D01*
X63441757Y-17933873D01*
X63441757Y-17933870D01*
X63376095Y-17731782D01*
X63279620Y-17542442D01*
X63154727Y-17370540D01*
X63154723Y-17370535D01*
X63004464Y-17220276D01*
X63004459Y-17220272D01*
X62832555Y-17095377D01*
X62752621Y-17054648D01*
X62701826Y-17006674D01*
X62685031Y-16938853D01*
X62707569Y-16872718D01*
X62752623Y-16833679D01*
X62780405Y-16819524D01*
X62939646Y-16703828D01*
X63078828Y-16564646D01*
X63194524Y-16405405D01*
X63283884Y-16230025D01*
X63344709Y-16042826D01*
X63375500Y-15848422D01*
X63375500Y-15651577D01*
X63344709Y-15457173D01*
X63283882Y-15269970D01*
X63194523Y-15094594D01*
X63078828Y-14935354D01*
X62939646Y-14796172D01*
X62780405Y-14680476D01*
X62752621Y-14666319D01*
X62701826Y-14618345D01*
X62685031Y-14550524D01*
X62707568Y-14484390D01*
X62752622Y-14445350D01*
X62832558Y-14404620D01*
X63004459Y-14279727D01*
X63004464Y-14279723D01*
X63154723Y-14129464D01*
X63154727Y-14129459D01*
X63279620Y-13957557D01*
X63376095Y-13768217D01*
X63441757Y-13566129D01*
X63441757Y-13566126D01*
X63452231Y-13500000D01*
X62404146Y-13500000D01*
X62442630Y-13433343D01*
X62475000Y-13312535D01*
X62475000Y-13187465D01*
X62442630Y-13066657D01*
X62404146Y-13000000D01*
X63452231Y-13000000D01*
X63441757Y-12933873D01*
X63441757Y-12933870D01*
X63376095Y-12731782D01*
X63279620Y-12542442D01*
X63154727Y-12370540D01*
X63154723Y-12370535D01*
X63004464Y-12220276D01*
X63004459Y-12220272D01*
X62832555Y-12095377D01*
X62752621Y-12054648D01*
X62701826Y-12006674D01*
X62685031Y-11938853D01*
X62707569Y-11872718D01*
X62752623Y-11833679D01*
X62780405Y-11819524D01*
X62939646Y-11703828D01*
X63078828Y-11564646D01*
X63194524Y-11405405D01*
X63283884Y-11230025D01*
X63344709Y-11042826D01*
X63347976Y-11022200D01*
X63375500Y-10848422D01*
X63375500Y-10651577D01*
X63344709Y-10457173D01*
X63283882Y-10269970D01*
X63215875Y-10136499D01*
X63194524Y-10094595D01*
X63078828Y-9935354D01*
X62939646Y-9796172D01*
X62780405Y-9680476D01*
X62752621Y-9666319D01*
X62701826Y-9618345D01*
X62685031Y-9550524D01*
X62707568Y-9484390D01*
X62752622Y-9445350D01*
X62832558Y-9404620D01*
X63004459Y-9279727D01*
X63004464Y-9279723D01*
X63154723Y-9129464D01*
X63154727Y-9129459D01*
X63279620Y-8957557D01*
X63376095Y-8768217D01*
X63441757Y-8566129D01*
X63441757Y-8566126D01*
X63452231Y-8500000D01*
X62404146Y-8500000D01*
X62442630Y-8433343D01*
X62475000Y-8312535D01*
X62475000Y-8187465D01*
X62442630Y-8066657D01*
X62404146Y-8000000D01*
X63452231Y-8000000D01*
X80547769Y-8000000D01*
X81595854Y-8000000D01*
X81557370Y-8066657D01*
X81525000Y-8187465D01*
X81525000Y-8312535D01*
X81557370Y-8433343D01*
X81595854Y-8500000D01*
X80547769Y-8500000D01*
X80558242Y-8566126D01*
X80558242Y-8566129D01*
X80623904Y-8768217D01*
X80720379Y-8957557D01*
X80845272Y-9129459D01*
X80845276Y-9129464D01*
X80995535Y-9279723D01*
X80995540Y-9279727D01*
X81167442Y-9404620D01*
X81247377Y-9445350D01*
X81298173Y-9493325D01*
X81314968Y-9561146D01*
X81292430Y-9627281D01*
X81247378Y-9666319D01*
X81219597Y-9680474D01*
X81173021Y-9714314D01*
X81060354Y-9796172D01*
X81060352Y-9796174D01*
X81060351Y-9796174D01*
X80921174Y-9935351D01*
X80921174Y-9935352D01*
X80921172Y-9935354D01*
X80874204Y-9999999D01*
X80805476Y-10094594D01*
X80716117Y-10269970D01*
X80655290Y-10457173D01*
X80624500Y-10651577D01*
X80624500Y-10848422D01*
X80655290Y-11042826D01*
X80716117Y-11230029D01*
X80805476Y-11405405D01*
X80921172Y-11564646D01*
X81060354Y-11703828D01*
X81219595Y-11819524D01*
X81219598Y-11819526D01*
X81247375Y-11833679D01*
X81298172Y-11881652D01*
X81314968Y-11949473D01*
X81292432Y-12015608D01*
X81247378Y-12054648D01*
X81167444Y-12095377D01*
X80995540Y-12220272D01*
X80995535Y-12220276D01*
X80845276Y-12370535D01*
X80845272Y-12370540D01*
X80720379Y-12542442D01*
X80623904Y-12731782D01*
X80558242Y-12933870D01*
X80558242Y-12933873D01*
X80547769Y-13000000D01*
X81595854Y-13000000D01*
X81557370Y-13066657D01*
X81525000Y-13187465D01*
X81525000Y-13312535D01*
X81557370Y-13433343D01*
X81595854Y-13500000D01*
X80547769Y-13500000D01*
X80558242Y-13566126D01*
X80558242Y-13566129D01*
X80623904Y-13768217D01*
X80720379Y-13957557D01*
X80845272Y-14129459D01*
X80845276Y-14129464D01*
X80995535Y-14279723D01*
X80995540Y-14279727D01*
X81167442Y-14404620D01*
X81247377Y-14445350D01*
X81298173Y-14493325D01*
X81314968Y-14561146D01*
X81292430Y-14627281D01*
X81247378Y-14666319D01*
X81219597Y-14680474D01*
X81143662Y-14735645D01*
X81060354Y-14796172D01*
X81060352Y-14796174D01*
X81060351Y-14796174D01*
X80921174Y-14935351D01*
X80921174Y-14935352D01*
X80921172Y-14935354D01*
X80871485Y-15003741D01*
X80805476Y-15094594D01*
X80716117Y-15269970D01*
X80655290Y-15457173D01*
X80624500Y-15651577D01*
X80624500Y-15848422D01*
X80655290Y-16042826D01*
X80716117Y-16230029D01*
X80768495Y-16332826D01*
X80805476Y-16405405D01*
X80921172Y-16564646D01*
X81060354Y-16703828D01*
X81219595Y-16819524D01*
X81219598Y-16819526D01*
X81247375Y-16833679D01*
X81298172Y-16881652D01*
X81314968Y-16949473D01*
X81292432Y-17015608D01*
X81247378Y-17054648D01*
X81167444Y-17095377D01*
X80995540Y-17220272D01*
X80995535Y-17220276D01*
X80845276Y-17370535D01*
X80845272Y-17370540D01*
X80720379Y-17542442D01*
X80623904Y-17731782D01*
X80558242Y-17933870D01*
X80558242Y-17933873D01*
X80547769Y-18000000D01*
X81595854Y-18000000D01*
X81557370Y-18066657D01*
X81525000Y-18187465D01*
X81525000Y-18312535D01*
X81557370Y-18433343D01*
X81595854Y-18500000D01*
X80547769Y-18500000D01*
X80558242Y-18566126D01*
X80558242Y-18566129D01*
X80623904Y-18768217D01*
X80720379Y-18957557D01*
X80845272Y-19129459D01*
X80845276Y-19129464D01*
X80995535Y-19279723D01*
X80995540Y-19279727D01*
X81167442Y-19404620D01*
X81247377Y-19445350D01*
X81298173Y-19493325D01*
X81314968Y-19561146D01*
X81292430Y-19627281D01*
X81247378Y-19666319D01*
X81219597Y-19680474D01*
X81139974Y-19738324D01*
X81060354Y-19796172D01*
X81060352Y-19796174D01*
X81060351Y-19796174D01*
X80921174Y-19935351D01*
X80921174Y-19935352D01*
X80921172Y-19935354D01*
X80871485Y-20003741D01*
X80805476Y-20094594D01*
X80716117Y-20269970D01*
X80655290Y-20457173D01*
X80624500Y-20651577D01*
X80624500Y-20848422D01*
X80655290Y-21042826D01*
X80716117Y-21230029D01*
X80805476Y-21405405D01*
X80921172Y-21564646D01*
X81060354Y-21703828D01*
X81219595Y-21819524D01*
X81219598Y-21819526D01*
X81247375Y-21833679D01*
X81298172Y-21881652D01*
X81314968Y-21949473D01*
X81292432Y-22015608D01*
X81247378Y-22054648D01*
X81167444Y-22095377D01*
X80995540Y-22220272D01*
X80995535Y-22220276D01*
X80845276Y-22370535D01*
X80845272Y-22370540D01*
X80720379Y-22542442D01*
X80623904Y-22731782D01*
X80558242Y-22933870D01*
X80558242Y-22933873D01*
X80547769Y-23000000D01*
X81595854Y-23000000D01*
X81557370Y-23066657D01*
X81525000Y-23187465D01*
X81525000Y-23312535D01*
X81557370Y-23433343D01*
X81595854Y-23500000D01*
X80547769Y-23500000D01*
X80558242Y-23566126D01*
X80558242Y-23566129D01*
X80623904Y-23768217D01*
X80720379Y-23957557D01*
X80845272Y-24129459D01*
X80845276Y-24129464D01*
X80995535Y-24279723D01*
X80995540Y-24279727D01*
X81167442Y-24404620D01*
X81247377Y-24445350D01*
X81298173Y-24493325D01*
X81314968Y-24561146D01*
X81292430Y-24627281D01*
X81247378Y-24666319D01*
X81219597Y-24680474D01*
X81139974Y-24738324D01*
X81060354Y-24796172D01*
X81060352Y-24796174D01*
X81060351Y-24796174D01*
X80921174Y-24935351D01*
X80921174Y-24935352D01*
X80921172Y-24935354D01*
X80871485Y-25003741D01*
X80805476Y-25094594D01*
X80716117Y-25269970D01*
X80655290Y-25457173D01*
X80624500Y-25651577D01*
X80624500Y-25848422D01*
X80655290Y-26042826D01*
X80716117Y-26230029D01*
X80805476Y-26405405D01*
X80921172Y-26564646D01*
X81060354Y-26703828D01*
X81219595Y-26819524D01*
X81288613Y-26854690D01*
X81356960Y-26889515D01*
X81407756Y-26937490D01*
X81424551Y-27005311D01*
X81402014Y-27071446D01*
X81356960Y-27110485D01*
X81219594Y-27180476D01*
X81128741Y-27246485D01*
X81060354Y-27296172D01*
X81060352Y-27296174D01*
X81060351Y-27296174D01*
X80921174Y-27435351D01*
X80921174Y-27435352D01*
X80921172Y-27435354D01*
X80871485Y-27503741D01*
X80805476Y-27594594D01*
X80716117Y-27769970D01*
X80655290Y-27957173D01*
X80624500Y-28151577D01*
X80624500Y-28348422D01*
X80655290Y-28542826D01*
X80716117Y-28730029D01*
X80802467Y-28899500D01*
X80805476Y-28905405D01*
X80921172Y-29064646D01*
X81060354Y-29203828D01*
X81219595Y-29319524D01*
X81302455Y-29361743D01*
X81394970Y-29408882D01*
X81394972Y-29408882D01*
X81394975Y-29408884D01*
X81495317Y-29441487D01*
X81582173Y-29469709D01*
X81776578Y-29500500D01*
X82090338Y-29500500D01*
X82157377Y-29520185D01*
X82203132Y-29572989D01*
X82213076Y-29642147D01*
X82211955Y-29648692D01*
X82199500Y-29711306D01*
X82199500Y-29888695D01*
X82234103Y-30062658D01*
X82234106Y-30062667D01*
X82301983Y-30226540D01*
X82301990Y-30226553D01*
X82400534Y-30374033D01*
X82400535Y-30374034D01*
X82400536Y-30374035D01*
X82463182Y-30436681D01*
X82496666Y-30498002D01*
X82499500Y-30524361D01*
X82499500Y-31575637D01*
X82479815Y-31642676D01*
X82463181Y-31663318D01*
X82400538Y-31725960D01*
X82400535Y-31725964D01*
X82301990Y-31873445D01*
X82301983Y-31873458D01*
X82234106Y-32037331D01*
X82234103Y-32037340D01*
X82199500Y-32211303D01*
X82199500Y-32388694D01*
X82234103Y-32562657D01*
X82234106Y-32562666D01*
X82301983Y-32726539D01*
X82301990Y-32726552D01*
X82400535Y-32874033D01*
X82400538Y-32874037D01*
X82525961Y-32999460D01*
X82525965Y-32999463D01*
X82673446Y-33098008D01*
X82673459Y-33098015D01*
X82796363Y-33148922D01*
X82837334Y-33165893D01*
X82837336Y-33165893D01*
X82837341Y-33165895D01*
X83011304Y-33200498D01*
X83011307Y-33200499D01*
X83011309Y-33200499D01*
X83188693Y-33200499D01*
X83188694Y-33200498D01*
X83246682Y-33188963D01*
X83362658Y-33165895D01*
X83362661Y-33165893D01*
X83362666Y-33165893D01*
X83516943Y-33101990D01*
X83526540Y-33098015D01*
X83526540Y-33098014D01*
X83526547Y-33098012D01*
X83674035Y-32999463D01*
X83799464Y-32874034D01*
X83898013Y-32726546D01*
X83965894Y-32562665D01*
X83970932Y-32537340D01*
X84000499Y-32388694D01*
X84000500Y-32388692D01*
X84000500Y-32211305D01*
X84000499Y-32211303D01*
X83965896Y-32037340D01*
X83965893Y-32037331D01*
X83898016Y-31873458D01*
X83898009Y-31873445D01*
X83799464Y-31725964D01*
X83799461Y-31725960D01*
X83736819Y-31663318D01*
X83703334Y-31601995D01*
X83700500Y-31575637D01*
X83700500Y-30524361D01*
X83720185Y-30457322D01*
X83736814Y-30436684D01*
X83799464Y-30374035D01*
X83898013Y-30226547D01*
X83903356Y-30213649D01*
X83948402Y-30104896D01*
X83965894Y-30062666D01*
X84000500Y-29888691D01*
X84000500Y-29711309D01*
X84000500Y-29711306D01*
X84000499Y-29711304D01*
X83965896Y-29537341D01*
X83965893Y-29537332D01*
X83898016Y-29373459D01*
X83898009Y-29373446D01*
X83799464Y-29225965D01*
X83799461Y-29225961D01*
X83674038Y-29100538D01*
X83674034Y-29100535D01*
X83526553Y-29001990D01*
X83526540Y-29001983D01*
X83362670Y-28934107D01*
X83362660Y-28934104D01*
X83357379Y-28933054D01*
X83295468Y-28900669D01*
X83260894Y-28839953D01*
X83264634Y-28770184D01*
X83271087Y-28755141D01*
X83283881Y-28730031D01*
X83283882Y-28730029D01*
X83283884Y-28730025D01*
X83344709Y-28542826D01*
X83351492Y-28500000D01*
X83375500Y-28348422D01*
X83375500Y-28151577D01*
X83344709Y-27957173D01*
X83283882Y-27769970D01*
X83194523Y-27594594D01*
X83078828Y-27435354D01*
X82939646Y-27296172D01*
X82780405Y-27180476D01*
X82643038Y-27110484D01*
X82592243Y-27062511D01*
X82575448Y-26994690D01*
X82597985Y-26928555D01*
X82643039Y-26889515D01*
X82780405Y-26819524D01*
X82939646Y-26703828D01*
X83078828Y-26564646D01*
X83194524Y-26405405D01*
X83283884Y-26230025D01*
X83344709Y-26042826D01*
X83375500Y-25848422D01*
X83375500Y-25651577D01*
X83344709Y-25457173D01*
X83283882Y-25269970D01*
X83194523Y-25094594D01*
X83078828Y-24935354D01*
X82939646Y-24796172D01*
X82780405Y-24680476D01*
X82752621Y-24666319D01*
X82701826Y-24618345D01*
X82685031Y-24550524D01*
X82707568Y-24484390D01*
X82752622Y-24445350D01*
X82832558Y-24404620D01*
X83004459Y-24279727D01*
X83004464Y-24279723D01*
X83154723Y-24129464D01*
X83154727Y-24129459D01*
X83279620Y-23957557D01*
X83376095Y-23768217D01*
X83441757Y-23566129D01*
X83441757Y-23566126D01*
X83452231Y-23500000D01*
X82404146Y-23500000D01*
X82442630Y-23433343D01*
X82475000Y-23312535D01*
X82475000Y-23187465D01*
X82442630Y-23066657D01*
X82404146Y-23000000D01*
X83452231Y-23000000D01*
X83441757Y-22933873D01*
X83441757Y-22933870D01*
X83376095Y-22731782D01*
X83279620Y-22542442D01*
X83154727Y-22370540D01*
X83154723Y-22370535D01*
X83004464Y-22220276D01*
X83004459Y-22220272D01*
X82832555Y-22095377D01*
X82752621Y-22054648D01*
X82701826Y-22006674D01*
X82685031Y-21938853D01*
X82707569Y-21872718D01*
X82752623Y-21833679D01*
X82780405Y-21819524D01*
X82939646Y-21703828D01*
X83078828Y-21564646D01*
X83194524Y-21405405D01*
X83283884Y-21230025D01*
X83344709Y-21042826D01*
X83375500Y-20848422D01*
X83375500Y-20651577D01*
X83344709Y-20457173D01*
X83283882Y-20269970D01*
X83194523Y-20094594D01*
X83078828Y-19935354D01*
X82939646Y-19796172D01*
X82780405Y-19680476D01*
X82752621Y-19666319D01*
X82701826Y-19618345D01*
X82685031Y-19550524D01*
X82707568Y-19484390D01*
X82752622Y-19445350D01*
X82832558Y-19404620D01*
X83004459Y-19279727D01*
X83004464Y-19279723D01*
X83154723Y-19129464D01*
X83154727Y-19129459D01*
X83279620Y-18957557D01*
X83376095Y-18768217D01*
X83441757Y-18566129D01*
X83441757Y-18566126D01*
X83452231Y-18500000D01*
X82404146Y-18500000D01*
X82442630Y-18433343D01*
X82475000Y-18312535D01*
X82475000Y-18187465D01*
X82442630Y-18066657D01*
X82404146Y-18000000D01*
X83452231Y-18000000D01*
X83441757Y-17933873D01*
X83441757Y-17933870D01*
X83376095Y-17731782D01*
X83279620Y-17542442D01*
X83154727Y-17370540D01*
X83154723Y-17370535D01*
X83004464Y-17220276D01*
X83004459Y-17220272D01*
X82832555Y-17095377D01*
X82752621Y-17054648D01*
X82701826Y-17006674D01*
X82685031Y-16938853D01*
X82707569Y-16872718D01*
X82752623Y-16833679D01*
X82780405Y-16819524D01*
X82939646Y-16703828D01*
X83078828Y-16564646D01*
X83194524Y-16405405D01*
X83283884Y-16230025D01*
X83344709Y-16042826D01*
X83375500Y-15848422D01*
X83375500Y-15651577D01*
X83344709Y-15457173D01*
X83283882Y-15269970D01*
X83194523Y-15094594D01*
X83078828Y-14935354D01*
X82939646Y-14796172D01*
X82780405Y-14680476D01*
X82752621Y-14666319D01*
X82701826Y-14618345D01*
X82685031Y-14550524D01*
X82707568Y-14484390D01*
X82752622Y-14445350D01*
X82832558Y-14404620D01*
X83004459Y-14279727D01*
X83004464Y-14279723D01*
X83154723Y-14129464D01*
X83154727Y-14129459D01*
X83279620Y-13957557D01*
X83376095Y-13768217D01*
X83441757Y-13566129D01*
X83441757Y-13566126D01*
X83452231Y-13500000D01*
X82404146Y-13500000D01*
X82442630Y-13433343D01*
X82475000Y-13312535D01*
X82475000Y-13187465D01*
X82442630Y-13066657D01*
X82404146Y-13000000D01*
X83452231Y-13000000D01*
X83441757Y-12933873D01*
X83441757Y-12933870D01*
X83376095Y-12731782D01*
X83279620Y-12542442D01*
X83154727Y-12370540D01*
X83154723Y-12370535D01*
X83004464Y-12220276D01*
X83004459Y-12220272D01*
X82832555Y-12095377D01*
X82752621Y-12054648D01*
X82701826Y-12006674D01*
X82685031Y-11938853D01*
X82707569Y-11872718D01*
X82752623Y-11833679D01*
X82780405Y-11819524D01*
X82939646Y-11703828D01*
X83078828Y-11564646D01*
X83194524Y-11405405D01*
X83283884Y-11230025D01*
X83344709Y-11042826D01*
X83347976Y-11022200D01*
X83375500Y-10848422D01*
X83375500Y-10651577D01*
X83344709Y-10457173D01*
X83283882Y-10269970D01*
X83215875Y-10136499D01*
X83194524Y-10094595D01*
X83078828Y-9935354D01*
X82939646Y-9796172D01*
X82780405Y-9680476D01*
X82752621Y-9666319D01*
X82701826Y-9618345D01*
X82685031Y-9550524D01*
X82707568Y-9484390D01*
X82752622Y-9445350D01*
X82832558Y-9404620D01*
X83004459Y-9279727D01*
X83004464Y-9279723D01*
X83154723Y-9129464D01*
X83154727Y-9129459D01*
X83279620Y-8957557D01*
X83376095Y-8768217D01*
X83441757Y-8566129D01*
X83441757Y-8566126D01*
X83452231Y-8500000D01*
X82404146Y-8500000D01*
X82442630Y-8433343D01*
X82475000Y-8312535D01*
X82475000Y-8187465D01*
X82442630Y-8066657D01*
X82404146Y-8000000D01*
X83452231Y-8000000D01*
X83441757Y-7933873D01*
X83441757Y-7933870D01*
X83376095Y-7731782D01*
X83279620Y-7542442D01*
X83154727Y-7370540D01*
X83154723Y-7370535D01*
X83004466Y-7220278D01*
X82939767Y-7173272D01*
X82897101Y-7117942D01*
X82891122Y-7048328D01*
X82923727Y-6986533D01*
X82978060Y-6953876D01*
X82978771Y-6953669D01*
X82985398Y-6951744D01*
X83126865Y-6868081D01*
X83243081Y-6751865D01*
X83326744Y-6610398D01*
X83372598Y-6452569D01*
X83375500Y-6415694D01*
X83375500Y-5084306D01*
X83372598Y-5047431D01*
X83326744Y-4889602D01*
X83243081Y-4748135D01*
X83243079Y-4748133D01*
X83243076Y-4748129D01*
X83126870Y-4631923D01*
X83126862Y-4631917D01*
X82985396Y-4548255D01*
X82985393Y-4548254D01*
X82827573Y-4502402D01*
X82827567Y-4502401D01*
X82790701Y-4499500D01*
X82790694Y-4499500D01*
X81209306Y-4499500D01*
X81209298Y-4499500D01*
X81172432Y-4502401D01*
X81172426Y-4502402D01*
X81014606Y-4548254D01*
X81014603Y-4548255D01*
X80873137Y-4631917D01*
X80873129Y-4631923D01*
X80756923Y-4748129D01*
X80756917Y-4748137D01*
X80673255Y-4889603D01*
X80673254Y-4889606D01*
X80627402Y-5047426D01*
X80627401Y-5047432D01*
X80624500Y-5084298D01*
X80624500Y-6415701D01*
X80627401Y-6452567D01*
X80627402Y-6452573D01*
X80673254Y-6610393D01*
X80673255Y-6610396D01*
X80756917Y-6751862D01*
X80756923Y-6751870D01*
X80873129Y-6868076D01*
X80873133Y-6868079D01*
X80873135Y-6868081D01*
X81014602Y-6951744D01*
X81021941Y-6953876D01*
X81080827Y-6991482D01*
X81110034Y-7054955D01*
X81100288Y-7124141D01*
X81060232Y-7173271D01*
X80995540Y-7220272D01*
X80995535Y-7220276D01*
X80845276Y-7370535D01*
X80845272Y-7370540D01*
X80720379Y-7542442D01*
X80623904Y-7731782D01*
X80558242Y-7933870D01*
X80558242Y-7933873D01*
X80547769Y-8000000D01*
X63452231Y-8000000D01*
X63441757Y-7933873D01*
X63441757Y-7933870D01*
X63376095Y-7731782D01*
X63279620Y-7542442D01*
X63154727Y-7370540D01*
X63154723Y-7370535D01*
X63004466Y-7220278D01*
X62939767Y-7173272D01*
X62897101Y-7117942D01*
X62891122Y-7048328D01*
X62923727Y-6986533D01*
X62978060Y-6953876D01*
X62978771Y-6953669D01*
X62985398Y-6951744D01*
X63126865Y-6868081D01*
X63243081Y-6751865D01*
X63326744Y-6610398D01*
X63372598Y-6452569D01*
X63375500Y-6415694D01*
X63375500Y-5084306D01*
X63372598Y-5047431D01*
X63326744Y-4889602D01*
X63243081Y-4748135D01*
X63243079Y-4748133D01*
X63243076Y-4748129D01*
X63126870Y-4631923D01*
X63126862Y-4631917D01*
X62985396Y-4548255D01*
X62985393Y-4548254D01*
X62827573Y-4502402D01*
X62827567Y-4502401D01*
X62790701Y-4499500D01*
X62790694Y-4499500D01*
X61209306Y-4499500D01*
X61209298Y-4499500D01*
X61172432Y-4502401D01*
X61172426Y-4502402D01*
X61014606Y-4548254D01*
X61014603Y-4548255D01*
X60873137Y-4631917D01*
X60873129Y-4631923D01*
X60756923Y-4748129D01*
X60756917Y-4748137D01*
X60673255Y-4889603D01*
X60673254Y-4889606D01*
X60627402Y-5047426D01*
X60627401Y-5047432D01*
X60624500Y-5084298D01*
X60624500Y-6415701D01*
X60627401Y-6452567D01*
X60627402Y-6452573D01*
X60673254Y-6610393D01*
X60673255Y-6610396D01*
X60756917Y-6751862D01*
X60756923Y-6751870D01*
X60873129Y-6868076D01*
X60873133Y-6868079D01*
X60873135Y-6868081D01*
X61014602Y-6951744D01*
X61021941Y-6953876D01*
X61080827Y-6991482D01*
X61110034Y-7054955D01*
X61100288Y-7124141D01*
X61060232Y-7173271D01*
X60995540Y-7220272D01*
X60995535Y-7220276D01*
X60845276Y-7370535D01*
X60845272Y-7370540D01*
X60720379Y-7542442D01*
X60623904Y-7731782D01*
X60558242Y-7933870D01*
X60558242Y-7933873D01*
X60547769Y-8000000D01*
X500500Y-8000000D01*
X500500Y-4000000D01*
X1400000Y-4000000D01*
X1449999Y-4507198D01*
X1450001Y-4507206D01*
X1597898Y-4994995D01*
X1597900Y-4995000D01*
X1749148Y-5277921D01*
X1838198Y-5444497D01*
X2161499Y-5838500D01*
X2382685Y-6019995D01*
X2555500Y-6161800D01*
X3005000Y-6402100D01*
X3492800Y-6550000D01*
X4000000Y-6600000D01*
X4507200Y-6550000D01*
X4995000Y-6402100D01*
X5444500Y-6161800D01*
X5838500Y-5838500D01*
X6161800Y-5444500D01*
X6402100Y-4995000D01*
X6550000Y-4507200D01*
X6600000Y-4000000D01*
X89400000Y-4000000D01*
X89449999Y-4507198D01*
X89450001Y-4507206D01*
X89597898Y-4994995D01*
X89597900Y-4995000D01*
X89749148Y-5277921D01*
X89838198Y-5444497D01*
X90161499Y-5838500D01*
X90382685Y-6019995D01*
X90555500Y-6161800D01*
X91005000Y-6402100D01*
X91492800Y-6550000D01*
X92000000Y-6600000D01*
X92507200Y-6550000D01*
X92995000Y-6402100D01*
X93444500Y-6161800D01*
X93838500Y-5838500D01*
X94161800Y-5444500D01*
X94402100Y-4995000D01*
X94550000Y-4507200D01*
X94600000Y-4000000D01*
X94550000Y-3492800D01*
X94402100Y-3005000D01*
X94161800Y-2555500D01*
X94019995Y-2382685D01*
X93838500Y-2161499D01*
X93561381Y-1934108D01*
X93444500Y-1838200D01*
X93444498Y-1838199D01*
X93444497Y-1838198D01*
X93277921Y-1749148D01*
X92995000Y-1597900D01*
X92994997Y-1597899D01*
X92994995Y-1597898D01*
X92507206Y-1450001D01*
X92507198Y-1449999D01*
X92000000Y-1400000D01*
X91492801Y-1449999D01*
X91492793Y-1450001D01*
X91005004Y-1597898D01*
X90555502Y-1838198D01*
X90161499Y-2161499D01*
X89838198Y-2555502D01*
X89597898Y-3005004D01*
X89450001Y-3492793D01*
X89449999Y-3492801D01*
X89400000Y-4000000D01*
X6600000Y-4000000D01*
X6550000Y-3492800D01*
X6402100Y-3005000D01*
X6161800Y-2555500D01*
X6019995Y-2382685D01*
X5838500Y-2161499D01*
X5561381Y-1934108D01*
X5444500Y-1838200D01*
X5444498Y-1838199D01*
X5444497Y-1838198D01*
X5277921Y-1749148D01*
X4995000Y-1597900D01*
X4994997Y-1597899D01*
X4994995Y-1597898D01*
X4507206Y-1450001D01*
X4507198Y-1449999D01*
X4000000Y-1400000D01*
X3492801Y-1449999D01*
X3492793Y-1450001D01*
X3005004Y-1597898D01*
X2555502Y-1838198D01*
X2161499Y-2161499D01*
X1838198Y-2555502D01*
X1597898Y-3005004D01*
X1450001Y-3492793D01*
X1449999Y-3492801D01*
X1400000Y-4000000D01*
X500500Y-4000000D01*
X500500Y-2004426D01*
X500816Y-1995580D01*
X515130Y-1795443D01*
X515131Y-1795441D01*
X515130Y-1795436D01*
X517646Y-1777938D01*
X559356Y-1586200D01*
X564338Y-1569235D01*
X632911Y-1385382D01*
X640251Y-1369310D01*
X734294Y-1197083D01*
X743850Y-1182214D01*
X861443Y-1025128D01*
X873017Y-1011771D01*
X1011769Y-873019D01*
X1025123Y-861447D01*
X1182220Y-743845D01*
X1197088Y-734291D01*
X1369297Y-640258D01*
X1385384Y-632911D01*
X1569247Y-564333D01*
X1586198Y-559356D01*
X1777937Y-517646D01*
X1795435Y-515130D01*
X1995581Y-500816D01*
X2004427Y-500500D01*
X2065891Y-500500D01*
X93934108Y-500500D01*
X93995572Y-500500D01*
X94004418Y-500816D01*
G37*
%TD.AperFunction*%
%TD*%
M02*
