%TF.GenerationSoftware,KiCad,Pcbnew,9.0.9*%
%TF.CreationDate,2026-09-13T14:13:28-07:00*%
%TF.ProjectId,power_interface,706f7765-725f-4696-9e74-657266616365,rev?*%
%TF.SameCoordinates,Original*%
%TF.FileFunction,Soldermask,Top*%
%TF.FilePolarity,Negative*%
%FSLAX46Y46*%
G04 Gerber Fmt 4.6, Leading zero omitted, Abs format (unit mm)*
G04 Created by KiCad (PCBNEW 9.0.9) date 2026-09-13 14:13:28*
%MOMM*%
%LPD*%
G01*
G04 APERTURE LIST*
G04 Aperture macros list*
%AMRoundRect*
0 Rectangle with rounded corners*
0 $1 Rounding radius*
0 $2 $3 $4 $5 $6 $7 $8 $9 X,Y pos of 4 corners*
0 Add a 4 corners polygon primitive as box body*
4,1,4,$2,$3,$4,$5,$6,$7,$8,$9,$2,$3,0*
0 Add four circle primitives for the rounded corners*
1,1,$1+$1,$2,$3*
1,1,$1+$1,$4,$5*
1,1,$1+$1,$6,$7*
1,1,$1+$1,$8,$9*
0 Add four rect primitives between the rounded corners*
20,1,$1+$1,$2,$3,$4,$5,0*
20,1,$1+$1,$4,$5,$6,$7,0*
20,1,$1+$1,$6,$7,$8,$9,0*
20,1,$1+$1,$8,$9,$2,$3,0*%
G04 Aperture macros list end*
%ADD10RoundRect,0.250000X-0.450000X0.262500X-0.450000X-0.262500X0.450000X-0.262500X0.450000X0.262500X0*%
%ADD11RoundRect,0.250000X0.262500X0.450000X-0.262500X0.450000X-0.262500X-0.450000X0.262500X-0.450000X0*%
%ADD12C,2.000000*%
%ADD13RoundRect,0.250000X-0.725000X0.600000X-0.725000X-0.600000X0.725000X-0.600000X0.725000X0.600000X0*%
%ADD14O,1.950000X1.700000*%
%ADD15RoundRect,0.250000X-0.475000X0.250000X-0.475000X-0.250000X0.475000X-0.250000X0.475000X0.250000X0*%
%ADD16RoundRect,0.250000X-0.650000X0.325000X-0.650000X-0.325000X0.650000X-0.325000X0.650000X0.325000X0*%
%ADD17RoundRect,0.250000X-0.250000X-0.475000X0.250000X-0.475000X0.250000X0.475000X-0.250000X0.475000X0*%
%ADD18RoundRect,0.250000X-0.262500X-0.450000X0.262500X-0.450000X0.262500X0.450000X-0.262500X0.450000X0*%
%ADD19RoundRect,0.250000X0.475000X-0.250000X0.475000X0.250000X-0.475000X0.250000X-0.475000X-0.250000X0*%
%ADD20R,2.600000X2.600000*%
%ADD21C,2.600000*%
%ADD22R,1.700000X1.700000*%
%ADD23C,1.700000*%
%ADD24C,3.200000*%
%ADD25RoundRect,0.250000X0.450000X-0.262500X0.450000X0.262500X-0.450000X0.262500X-0.450000X-0.262500X0*%
%ADD26RoundRect,0.150000X-0.512500X-0.150000X0.512500X-0.150000X0.512500X0.150000X-0.512500X0.150000X0*%
%ADD27C,1.800000*%
%ADD28RoundRect,0.250000X1.000000X0.650000X-1.000000X0.650000X-1.000000X-0.650000X1.000000X-0.650000X0*%
%ADD29C,1.440000*%
%ADD30R,2.000000X1.100000*%
%ADD31R,0.800000X1.000000*%
%ADD32RoundRect,0.150000X-0.825000X-0.150000X0.825000X-0.150000X0.825000X0.150000X-0.825000X0.150000X0*%
%ADD33RoundRect,0.250000X-0.375000X-0.625000X0.375000X-0.625000X0.375000X0.625000X-0.375000X0.625000X0*%
%ADD34R,2.000000X6.000000*%
%ADD35RoundRect,0.150000X0.512500X0.150000X-0.512500X0.150000X-0.512500X-0.150000X0.512500X-0.150000X0*%
G04 APERTURE END LIST*
D10*
%TO.C,R10*%
X64400000Y-47887500D03*
X64400000Y-49712500D03*
%TD*%
D11*
%TO.C,R2*%
X25512500Y-20200000D03*
X23687500Y-20200000D03*
%TD*%
D12*
%TO.C,TP8*%
X13800000Y-13200000D03*
%TD*%
D13*
%TO.C,J4*%
X82000000Y-5750000D03*
D14*
X82000000Y-8250000D03*
X82000000Y-10750000D03*
X82000000Y-13250000D03*
X82000000Y-15750000D03*
X82000000Y-18250000D03*
X82000000Y-20750000D03*
X82000000Y-23250000D03*
X82000000Y-25750000D03*
X82000000Y-28250000D03*
%TD*%
D10*
%TO.C,R18*%
X82600000Y-50687500D03*
X82600000Y-52512500D03*
%TD*%
D15*
%TO.C,C13*%
X67200000Y-47850000D03*
X67200000Y-49750000D03*
%TD*%
D16*
%TO.C,C9*%
X34400000Y-25525000D03*
X34400000Y-28475000D03*
%TD*%
D15*
%TO.C,C10*%
X37000000Y-25650000D03*
X37000000Y-27550000D03*
%TD*%
%TO.C,C3*%
X40600000Y-40250000D03*
X40600000Y-42150000D03*
%TD*%
D10*
%TO.C,R23*%
X87800000Y-33087500D03*
X87800000Y-34912500D03*
%TD*%
%TO.C,R19*%
X86000000Y-55487500D03*
X86000000Y-57312500D03*
%TD*%
D17*
%TO.C,C11*%
X67850000Y-40200000D03*
X69750000Y-40200000D03*
%TD*%
D18*
%TO.C,R7*%
X63887500Y-40200000D03*
X65712500Y-40200000D03*
%TD*%
D16*
%TO.C,C7*%
X24000000Y-25525000D03*
X24000000Y-28475000D03*
%TD*%
D19*
%TO.C,C5*%
X13200000Y-21950000D03*
X13200000Y-20050000D03*
%TD*%
D20*
%TO.C,J1*%
X13700000Y-46000000D03*
D21*
X7700000Y-46000000D03*
X10700000Y-50700000D03*
%TD*%
D22*
%TO.C,J2*%
X10000000Y-13500000D03*
D23*
X10000000Y-16040000D03*
%TD*%
D16*
%TO.C,C8*%
X26600000Y-25525000D03*
X26600000Y-28475000D03*
%TD*%
D18*
%TO.C,R11*%
X59687500Y-53400000D03*
X61512500Y-53400000D03*
%TD*%
%TO.C,R5*%
X29287500Y-25000000D03*
X31112500Y-25000000D03*
%TD*%
D24*
%TO.C,H4*%
X92000000Y-60000000D03*
%TD*%
D25*
%TO.C,R4*%
X15800000Y-18112500D03*
X15800000Y-16287500D03*
%TD*%
D10*
%TO.C,R17*%
X80200000Y-50687500D03*
X80200000Y-52512500D03*
%TD*%
D26*
%TO.C,U1*%
X43362500Y-40050000D03*
X43362500Y-41000000D03*
X43362500Y-41950000D03*
X45637500Y-41950000D03*
X45637500Y-40050000D03*
%TD*%
D16*
%TO.C,C1*%
X37400000Y-46925000D03*
X37400000Y-49875000D03*
%TD*%
D10*
%TO.C,R6*%
X39400000Y-25687500D03*
X39400000Y-27512500D03*
%TD*%
D15*
%TO.C,C14*%
X67200000Y-54850000D03*
X67200000Y-56750000D03*
%TD*%
D12*
%TO.C,TP10*%
X72800000Y-39400000D03*
%TD*%
D24*
%TO.C,H2*%
X92000000Y-4000000D03*
%TD*%
D18*
%TO.C,R20*%
X67087500Y-32500000D03*
X68912500Y-32500000D03*
%TD*%
D12*
%TO.C,TP1*%
X37500000Y-54500000D03*
%TD*%
D11*
%TO.C,R13*%
X85512500Y-44730000D03*
X83687500Y-44730000D03*
%TD*%
D27*
%TO.C,TP4*%
X26600000Y-37400000D03*
X21600000Y-37400000D03*
%TD*%
D15*
%TO.C,C2*%
X40200000Y-47050000D03*
X40200000Y-48950000D03*
%TD*%
D25*
%TO.C,R3*%
X22400000Y-17712500D03*
X22400000Y-15887500D03*
%TD*%
D13*
%TO.C,J3*%
X62000000Y-5750000D03*
D14*
X62000000Y-8250000D03*
X62000000Y-10750000D03*
X62000000Y-13250000D03*
X62000000Y-15750000D03*
X62000000Y-18250000D03*
X62000000Y-20750000D03*
X62000000Y-23250000D03*
X62000000Y-25750000D03*
X62000000Y-28250000D03*
%TD*%
D11*
%TO.C,R14*%
X85512500Y-47270000D03*
X83687500Y-47270000D03*
%TD*%
D10*
%TO.C,R22*%
X85500000Y-33087500D03*
X85500000Y-34912500D03*
%TD*%
D12*
%TO.C,TP9*%
X31200000Y-32600000D03*
%TD*%
%TO.C,TP3*%
X27500000Y-32600000D03*
%TD*%
D15*
%TO.C,C4*%
X48400000Y-39650000D03*
X48400000Y-41550000D03*
%TD*%
D22*
%TO.C,J5*%
X89420000Y-39650000D03*
D23*
X89420000Y-42190000D03*
X89420000Y-44730000D03*
X89420000Y-47270000D03*
X89420000Y-49810000D03*
X89420000Y-52350000D03*
X91960000Y-39650000D03*
X91960000Y-42190000D03*
X91960000Y-44730000D03*
X91960000Y-47270000D03*
X91960000Y-49810000D03*
X91960000Y-52350000D03*
%TD*%
D12*
%TO.C,TP2*%
X48500000Y-35500000D03*
%TD*%
D18*
%TO.C,R21*%
X76087500Y-32500000D03*
X77912500Y-32500000D03*
%TD*%
D24*
%TO.C,H3*%
X4000000Y-60000000D03*
%TD*%
D27*
%TO.C,TP6*%
X38000000Y-37400000D03*
X33000000Y-37400000D03*
%TD*%
D28*
%TO.C,D1*%
X28800000Y-46000000D03*
X24800000Y-46000000D03*
%TD*%
D24*
%TO.C,H1*%
X4000000Y-4000000D03*
%TD*%
D29*
%TO.C,RV1*%
X27000000Y-10000000D03*
X24460000Y-10000000D03*
X21920000Y-10000000D03*
%TD*%
D30*
%TO.C,D2*%
X20050000Y-26600000D03*
D31*
X18150000Y-26600000D03*
%TD*%
D12*
%TO.C,TP7*%
X26000000Y-15600000D03*
%TD*%
D32*
%TO.C,U3*%
X71525000Y-45095000D03*
X71525000Y-46365000D03*
X71525000Y-47635000D03*
X71525000Y-48905000D03*
X76475000Y-48905000D03*
X76475000Y-47635000D03*
X76475000Y-46365000D03*
X76475000Y-45095000D03*
%TD*%
D33*
%TO.C,F1*%
X18400000Y-46000000D03*
X21200000Y-46000000D03*
%TD*%
D18*
%TO.C,R8*%
X68487500Y-43400000D03*
X70312500Y-43400000D03*
%TD*%
%TO.C,R9*%
X59687500Y-46400000D03*
X61512500Y-46400000D03*
%TD*%
D11*
%TO.C,R15*%
X85512500Y-38200000D03*
X83687500Y-38200000D03*
%TD*%
D15*
%TO.C,C12*%
X79400000Y-41850000D03*
X79400000Y-43750000D03*
%TD*%
D34*
%TO.C,L1*%
X11250000Y-28800000D03*
X15550000Y-28800000D03*
%TD*%
D18*
%TO.C,R1*%
X32287500Y-46000000D03*
X34112500Y-46000000D03*
%TD*%
D12*
%TO.C,TP5*%
X36600000Y-32600000D03*
%TD*%
D11*
%TO.C,R16*%
X85512500Y-41400000D03*
X83687500Y-41400000D03*
%TD*%
D35*
%TO.C,U2*%
X21137500Y-22950000D03*
X21137500Y-22000000D03*
X21137500Y-21050000D03*
X18862500Y-21050000D03*
X18862500Y-22000000D03*
X18862500Y-22950000D03*
%TD*%
D19*
%TO.C,C6*%
X15800000Y-21950000D03*
X15800000Y-20050000D03*
%TD*%
D10*
%TO.C,R12*%
X64400000Y-54887500D03*
X64400000Y-56712500D03*
%TD*%
M02*
