%TF.GenerationSoftware,KiCad,Pcbnew,9.0.9*%
%TF.CreationDate,2026-09-14T13:57:28-07:00*%
%TF.ProjectId,power_interface,706f7765-725f-4696-9e74-657266616365,rev?*%
%TF.SameCoordinates,Original*%
%TF.FileFunction,Copper,L1,Top*%
%TF.FilePolarity,Positive*%
%FSLAX46Y46*%
G04 Gerber Fmt 4.6, Leading zero omitted, Abs format (unit mm)*
G04 Created by KiCad (PCBNEW 9.0.9) date 2026-09-14 13:57:28*
%MOMM*%
%LPD*%
G01*
G04 APERTURE LIST*
G04 Aperture macros list*
%AMRoundRect*
0 Rectangle with rounded corners*
0 $1 Rounding radius*
0 $2 $3 $4 $5 $6 $7 $8 $9 X,Y pos of 4 corners*
0 Add a 4 corners polygon primitive as box body*
4,1,4,$2,$3,$4,$5,$6,$7,$8,$9,$2,$3,0*
0 Add four circle primitives for the rounded corners*
1,1,$1+$1,$2,$3*
1,1,$1+$1,$4,$5*
1,1,$1+$1,$6,$7*
1,1,$1+$1,$8,$9*
0 Add four rect primitives between the rounded corners*
20,1,$1+$1,$2,$3,$4,$5,0*
20,1,$1+$1,$4,$5,$6,$7,0*
20,1,$1+$1,$6,$7,$8,$9,0*
20,1,$1+$1,$8,$9,$2,$3,0*%
G04 Aperture macros list end*
%TA.AperFunction,SMDPad,CuDef*%
%ADD10RoundRect,0.250000X-0.450000X0.262500X-0.450000X-0.262500X0.450000X-0.262500X0.450000X0.262500X0*%
%TD*%
%TA.AperFunction,SMDPad,CuDef*%
%ADD11RoundRect,0.250000X0.450000X-0.262500X0.450000X0.262500X-0.450000X0.262500X-0.450000X-0.262500X0*%
%TD*%
%TA.AperFunction,SMDPad,CuDef*%
%ADD12C,2.000000*%
%TD*%
%TA.AperFunction,ComponentPad*%
%ADD13RoundRect,0.250000X-0.725000X0.600000X-0.725000X-0.600000X0.725000X-0.600000X0.725000X0.600000X0*%
%TD*%
%TA.AperFunction,ComponentPad*%
%ADD14O,1.950000X1.700000*%
%TD*%
%TA.AperFunction,SMDPad,CuDef*%
%ADD15RoundRect,0.250000X-0.475000X0.250000X-0.475000X-0.250000X0.475000X-0.250000X0.475000X0.250000X0*%
%TD*%
%TA.AperFunction,SMDPad,CuDef*%
%ADD16RoundRect,0.250000X-0.650000X0.325000X-0.650000X-0.325000X0.650000X-0.325000X0.650000X0.325000X0*%
%TD*%
%TA.AperFunction,SMDPad,CuDef*%
%ADD17RoundRect,0.250000X-0.250000X-0.475000X0.250000X-0.475000X0.250000X0.475000X-0.250000X0.475000X0*%
%TD*%
%TA.AperFunction,SMDPad,CuDef*%
%ADD18RoundRect,0.250000X-0.262500X-0.450000X0.262500X-0.450000X0.262500X0.450000X-0.262500X0.450000X0*%
%TD*%
%TA.AperFunction,SMDPad,CuDef*%
%ADD19RoundRect,0.250000X0.650000X-0.325000X0.650000X0.325000X-0.650000X0.325000X-0.650000X-0.325000X0*%
%TD*%
%TA.AperFunction,ComponentPad*%
%ADD20R,2.600000X2.600000*%
%TD*%
%TA.AperFunction,ComponentPad*%
%ADD21C,2.600000*%
%TD*%
%TA.AperFunction,ComponentPad*%
%ADD22R,1.700000X1.700000*%
%TD*%
%TA.AperFunction,ComponentPad*%
%ADD23C,1.700000*%
%TD*%
%TA.AperFunction,SMDPad,CuDef*%
%ADD24RoundRect,0.150000X-0.512500X-0.150000X0.512500X-0.150000X0.512500X0.150000X-0.512500X0.150000X0*%
%TD*%
%TA.AperFunction,SMDPad,CuDef*%
%ADD25RoundRect,0.250000X0.262500X0.450000X-0.262500X0.450000X-0.262500X-0.450000X0.262500X-0.450000X0*%
%TD*%
%TA.AperFunction,ComponentPad*%
%ADD26C,1.800000*%
%TD*%
%TA.AperFunction,SMDPad,CuDef*%
%ADD27RoundRect,0.250000X0.250000X0.475000X-0.250000X0.475000X-0.250000X-0.475000X0.250000X-0.475000X0*%
%TD*%
%TA.AperFunction,SMDPad,CuDef*%
%ADD28RoundRect,0.250000X1.000000X0.650000X-1.000000X0.650000X-1.000000X-0.650000X1.000000X-0.650000X0*%
%TD*%
%TA.AperFunction,ComponentPad*%
%ADD29C,1.440000*%
%TD*%
%TA.AperFunction,SMDPad,CuDef*%
%ADD30R,1.100000X2.000000*%
%TD*%
%TA.AperFunction,SMDPad,CuDef*%
%ADD31R,1.000000X0.800000*%
%TD*%
%TA.AperFunction,SMDPad,CuDef*%
%ADD32RoundRect,0.150000X-0.825000X-0.150000X0.825000X-0.150000X0.825000X0.150000X-0.825000X0.150000X0*%
%TD*%
%TA.AperFunction,SMDPad,CuDef*%
%ADD33RoundRect,0.250000X-0.375000X-0.625000X0.375000X-0.625000X0.375000X0.625000X-0.375000X0.625000X0*%
%TD*%
%TA.AperFunction,SMDPad,CuDef*%
%ADD34R,2.000000X6.000000*%
%TD*%
%TA.AperFunction,SMDPad,CuDef*%
%ADD35RoundRect,0.150000X0.512500X0.150000X-0.512500X0.150000X-0.512500X-0.150000X0.512500X-0.150000X0*%
%TD*%
%TA.AperFunction,ViaPad*%
%ADD36C,1.000000*%
%TD*%
%TA.AperFunction,Conductor*%
%ADD37C,0.600000*%
%TD*%
%TA.AperFunction,Conductor*%
%ADD38C,0.300000*%
%TD*%
%TA.AperFunction,Conductor*%
%ADD39C,0.400000*%
%TD*%
%TA.AperFunction,Conductor*%
%ADD40C,0.500000*%
%TD*%
G04 APERTURE END LIST*
D10*
%TO.P,R10,1*%
%TO.N,/ADC_A*%
X64400000Y-47887500D03*
%TO.P,R10,2*%
%TO.N,GND*%
X64400000Y-49712500D03*
%TD*%
D11*
%TO.P,R2,1*%
%TO.N,/HV_RAW*%
X23100000Y-22912500D03*
%TO.P,R2,2*%
%TO.N,/FB*%
X23100000Y-21087500D03*
%TD*%
D12*
%TO.P,TP8,1*%
%TO.N,/SHDN*%
X13800000Y-13200000D03*
%TD*%
D13*
%TO.P,J4,1*%
%TO.N,/BIAS_27V*%
X82000000Y-5750000D03*
D14*
%TO.P,J4,2*%
%TO.N,GND*%
X82000000Y-8250000D03*
%TO.P,J4,3*%
%TO.N,/+5VA*%
X82000000Y-10750000D03*
%TO.P,J4,4*%
%TO.N,GND*%
X82000000Y-13250000D03*
%TO.P,J4,5*%
%TO.N,/+3V3_LOCAL*%
X82000000Y-15750000D03*
%TO.P,J4,6*%
%TO.N,GND*%
X82000000Y-18250000D03*
%TO.P,J4,7*%
%TO.N,/TRIG_B*%
X82000000Y-20750000D03*
%TO.P,J4,8*%
%TO.N,GND*%
X82000000Y-23250000D03*
%TO.P,J4,9*%
%TO.N,/PEAK_B*%
X82000000Y-25750000D03*
%TO.P,J4,10*%
%TO.N,/PEAK_RESET_B*%
X82000000Y-28250000D03*
%TD*%
D10*
%TO.P,R18,1*%
%TO.N,/ADC_MOSI*%
X82600000Y-50687500D03*
%TO.P,R18,2*%
%TO.N,GND*%
X82600000Y-52512500D03*
%TD*%
D15*
%TO.P,C13,1*%
%TO.N,/ADC_A*%
X67200000Y-47850000D03*
%TO.P,C13,2*%
%TO.N,GND*%
X67200000Y-49750000D03*
%TD*%
D16*
%TO.P,C9,1*%
%TO.N,/BIAS_27V*%
X34400000Y-25525000D03*
%TO.P,C9,2*%
%TO.N,GND*%
X34400000Y-28475000D03*
%TD*%
D15*
%TO.P,C10,1*%
%TO.N,/BIAS_27V*%
X37000000Y-25650000D03*
%TO.P,C10,2*%
%TO.N,GND*%
X37000000Y-27550000D03*
%TD*%
%TO.P,C3,1*%
%TO.N,/+5VA*%
X40600000Y-40250000D03*
%TO.P,C3,2*%
%TO.N,GND*%
X40600000Y-42150000D03*
%TD*%
D10*
%TO.P,R23,1*%
%TO.N,/TRIG_B*%
X87800000Y-33087500D03*
%TO.P,R23,2*%
%TO.N,GND*%
X87800000Y-34912500D03*
%TD*%
%TO.P,R19,1*%
%TO.N,/JA_MISO*%
X86000000Y-55487500D03*
%TO.P,R19,2*%
%TO.N,GND*%
X86000000Y-57312500D03*
%TD*%
D17*
%TO.P,C11,1*%
%TO.N,/+3V3_ADC*%
X67850000Y-40200000D03*
%TO.P,C11,2*%
%TO.N,GND*%
X69750000Y-40200000D03*
%TD*%
D18*
%TO.P,R7,1*%
%TO.N,/+3V3_LOCAL*%
X63887500Y-40200000D03*
%TO.P,R7,2*%
%TO.N,/+3V3_ADC*%
X65712500Y-40200000D03*
%TD*%
D19*
%TO.P,C7,1*%
%TO.N,/HV_RAW*%
X21400000Y-27575000D03*
%TO.P,C7,2*%
%TO.N,GND*%
X21400000Y-24625000D03*
%TD*%
D17*
%TO.P,C5,1*%
%TO.N,/+5VA*%
X12650000Y-18400000D03*
%TO.P,C5,2*%
%TO.N,GND*%
X14550000Y-18400000D03*
%TD*%
D20*
%TO.P,J1,1*%
%TO.N,/VIN*%
X13700000Y-46000000D03*
D21*
%TO.P,J1,2*%
%TO.N,GND*%
X7700000Y-46000000D03*
%TO.P,J1,3*%
X10700000Y-50700000D03*
%TD*%
D22*
%TO.P,J2,1*%
%TO.N,/SHDN*%
X10000000Y-13500000D03*
D23*
%TO.P,J2,2*%
%TO.N,/+5VA*%
X10000000Y-16040000D03*
%TD*%
D19*
%TO.P,C8,1*%
%TO.N,/HV_RAW*%
X23800000Y-27575000D03*
%TO.P,C8,2*%
%TO.N,GND*%
X23800000Y-24625000D03*
%TD*%
D18*
%TO.P,R11,1*%
%TO.N,/PEAK_B*%
X59687500Y-53400000D03*
%TO.P,R11,2*%
%TO.N,/ADC_B*%
X61512500Y-53400000D03*
%TD*%
%TO.P,R5,1*%
%TO.N,/HV_RAW*%
X29287500Y-25000000D03*
%TO.P,R5,2*%
%TO.N,/BIAS_27V*%
X31112500Y-25000000D03*
%TD*%
D11*
%TO.P,R4,1*%
%TO.N,/SHDN*%
X17200000Y-18612500D03*
%TO.P,R4,2*%
%TO.N,GND*%
X17200000Y-16787500D03*
%TD*%
D10*
%TO.P,R17,1*%
%TO.N,/ADC_SCLK*%
X80200000Y-50687500D03*
%TO.P,R17,2*%
%TO.N,GND*%
X80200000Y-52512500D03*
%TD*%
D24*
%TO.P,U1,1*%
%TO.N,/+5VA*%
X43362500Y-40050000D03*
%TO.P,U1,2*%
%TO.N,GND*%
X43362500Y-41000000D03*
%TO.P,U1,3*%
%TO.N,/+5VA*%
X43362500Y-41950000D03*
%TO.P,U1,4*%
%TO.N,unconnected-(U1-NC-Pad4)*%
X45637500Y-41950000D03*
%TO.P,U1,5*%
%TO.N,/+3V3_LOCAL*%
X45637500Y-40050000D03*
%TD*%
D16*
%TO.P,C1,1*%
%TO.N,/+5VA*%
X37400000Y-46925000D03*
%TO.P,C1,2*%
%TO.N,GND*%
X37400000Y-49875000D03*
%TD*%
D10*
%TO.P,R6,1*%
%TO.N,/BIAS_27V*%
X39400000Y-25687500D03*
%TO.P,R6,2*%
%TO.N,GND*%
X39400000Y-27512500D03*
%TD*%
D15*
%TO.P,C14,1*%
%TO.N,/ADC_B*%
X67200000Y-54850000D03*
%TO.P,C14,2*%
%TO.N,GND*%
X67200000Y-56750000D03*
%TD*%
D12*
%TO.P,TP10,1*%
%TO.N,/+3V3_ADC*%
X72800000Y-39400000D03*
%TD*%
D18*
%TO.P,R20,1*%
%TO.N,/PEAK_RESET*%
X67087500Y-32500000D03*
%TO.P,R20,2*%
%TO.N,/PEAK_RESET_A*%
X68912500Y-32500000D03*
%TD*%
D12*
%TO.P,TP1,1*%
%TO.N,/+5VA*%
X37500000Y-54500000D03*
%TD*%
D25*
%TO.P,R13,1*%
%TO.N,/JA_CS_N*%
X85512500Y-44730000D03*
%TO.P,R13,2*%
%TO.N,/ADC_CS_N*%
X83687500Y-44730000D03*
%TD*%
D26*
%TO.P,TP4,1*%
%TO.N,GND*%
X26600000Y-37400000D03*
X21600000Y-37400000D03*
%TD*%
D15*
%TO.P,C2,1*%
%TO.N,/+5VA*%
X40200000Y-47050000D03*
%TO.P,C2,2*%
%TO.N,GND*%
X40200000Y-48950000D03*
%TD*%
D11*
%TO.P,R3,1*%
%TO.N,/FB*%
X23100000Y-19412500D03*
%TO.P,R3,2*%
%TO.N,Net-(R3-Pad2)*%
X23100000Y-17587500D03*
%TD*%
D13*
%TO.P,J3,1*%
%TO.N,/BIAS_27V*%
X62000000Y-5750000D03*
D14*
%TO.P,J3,2*%
%TO.N,GND*%
X62000000Y-8250000D03*
%TO.P,J3,3*%
%TO.N,/+5VA*%
X62000000Y-10750000D03*
%TO.P,J3,4*%
%TO.N,GND*%
X62000000Y-13250000D03*
%TO.P,J3,5*%
%TO.N,/+3V3_LOCAL*%
X62000000Y-15750000D03*
%TO.P,J3,6*%
%TO.N,GND*%
X62000000Y-18250000D03*
%TO.P,J3,7*%
%TO.N,/TRIG_A*%
X62000000Y-20750000D03*
%TO.P,J3,8*%
%TO.N,GND*%
X62000000Y-23250000D03*
%TO.P,J3,9*%
%TO.N,/PEAK_A*%
X62000000Y-25750000D03*
%TO.P,J3,10*%
%TO.N,/PEAK_RESET_A*%
X62000000Y-28250000D03*
%TD*%
D25*
%TO.P,R14,1*%
%TO.N,/JA_SCLK*%
X85512500Y-47270000D03*
%TO.P,R14,2*%
%TO.N,/ADC_SCLK*%
X83687500Y-47270000D03*
%TD*%
D10*
%TO.P,R22,1*%
%TO.N,/TRIG_A*%
X85500000Y-33087500D03*
%TO.P,R22,2*%
%TO.N,GND*%
X85500000Y-34912500D03*
%TD*%
D12*
%TO.P,TP9,1*%
%TO.N,GND*%
X31200000Y-32600000D03*
%TD*%
%TO.P,TP3,1*%
%TO.N,/HV_RAW*%
X27500000Y-32600000D03*
%TD*%
D27*
%TO.P,C4,1*%
%TO.N,/+3V3_LOCAL*%
X45450000Y-38200000D03*
%TO.P,C4,2*%
%TO.N,GND*%
X43550000Y-38200000D03*
%TD*%
D22*
%TO.P,J5,1*%
%TO.N,/TRIG_A*%
X89420000Y-39650000D03*
D23*
%TO.P,J5,2*%
%TO.N,/TRIG_B*%
X89420000Y-42190000D03*
%TO.P,J5,3*%
%TO.N,/JA_CS_N*%
X89420000Y-44730000D03*
%TO.P,J5,4*%
%TO.N,/JA_SCLK*%
X89420000Y-47270000D03*
%TO.P,J5,5*%
%TO.N,GND*%
X89420000Y-49810000D03*
%TO.P,J5,6*%
%TO.N,unconnected-(J5-Pin_6-Pad6)*%
X89420000Y-52350000D03*
%TO.P,J5,7*%
%TO.N,/JA_MOSI*%
X91960000Y-39650000D03*
%TO.P,J5,8*%
%TO.N,/JA_MISO*%
X91960000Y-42190000D03*
%TO.P,J5,9*%
%TO.N,/PEAK_RESET*%
X91960000Y-44730000D03*
%TO.P,J5,10*%
%TO.N,unconnected-(J5-Pin_10-Pad10)*%
X91960000Y-47270000D03*
%TO.P,J5,11*%
%TO.N,GND*%
X91960000Y-49810000D03*
%TO.P,J5,12*%
%TO.N,unconnected-(J5-Pin_12-Pad12)*%
X91960000Y-52350000D03*
%TD*%
D12*
%TO.P,TP2,1*%
%TO.N,/+3V3_LOCAL*%
X48500000Y-35500000D03*
%TD*%
D18*
%TO.P,R21,1*%
%TO.N,/PEAK_RESET*%
X76087500Y-32500000D03*
%TO.P,R21,2*%
%TO.N,/PEAK_RESET_B*%
X77912500Y-32500000D03*
%TD*%
D26*
%TO.P,TP6,1*%
%TO.N,GND*%
X38000000Y-37400000D03*
X33000000Y-37400000D03*
%TD*%
D28*
%TO.P,D1,1*%
%TO.N,/+5VA_PRELINK*%
X28800000Y-46000000D03*
%TO.P,D1,2*%
%TO.N,/VIN_FUSED*%
X24800000Y-46000000D03*
%TD*%
D29*
%TO.P,RV1,1*%
%TO.N,GND*%
X27000000Y-10000000D03*
%TO.P,RV1,2*%
X24460000Y-10000000D03*
%TO.P,RV1,3*%
%TO.N,Net-(R3-Pad2)*%
X21920000Y-10000000D03*
%TD*%
D30*
%TO.P,D2,1*%
%TO.N,/HV_RAW*%
X19300000Y-26350000D03*
D31*
%TO.P,D2,2*%
%TO.N,/LX*%
X19300000Y-24450000D03*
%TD*%
D12*
%TO.P,TP7,1*%
%TO.N,/FB*%
X26000000Y-15600000D03*
%TD*%
D32*
%TO.P,U3,1*%
%TO.N,/ADC_CS_N*%
X71525000Y-45095000D03*
%TO.P,U3,2*%
%TO.N,/ADC_A*%
X71525000Y-46365000D03*
%TO.P,U3,3*%
%TO.N,/ADC_B*%
X71525000Y-47635000D03*
%TO.P,U3,4*%
%TO.N,GND*%
X71525000Y-48905000D03*
%TO.P,U3,5*%
%TO.N,/ADC_MOSI*%
X76475000Y-48905000D03*
%TO.P,U3,6*%
%TO.N,/ADC_MISO*%
X76475000Y-47635000D03*
%TO.P,U3,7*%
%TO.N,/ADC_SCLK*%
X76475000Y-46365000D03*
%TO.P,U3,8*%
%TO.N,/+3V3_ADC*%
X76475000Y-45095000D03*
%TD*%
D33*
%TO.P,F1,1*%
%TO.N,/VIN*%
X18400000Y-46000000D03*
%TO.P,F1,2*%
%TO.N,/VIN_FUSED*%
X21200000Y-46000000D03*
%TD*%
D18*
%TO.P,R8,1*%
%TO.N,/+3V3_ADC*%
X68487500Y-43400000D03*
%TO.P,R8,2*%
%TO.N,/ADC_CS_N*%
X70312500Y-43400000D03*
%TD*%
%TO.P,R9,1*%
%TO.N,/PEAK_A*%
X59687500Y-46400000D03*
%TO.P,R9,2*%
%TO.N,/ADC_A*%
X61512500Y-46400000D03*
%TD*%
D25*
%TO.P,R15,1*%
%TO.N,/JA_MOSI*%
X85512500Y-38200000D03*
%TO.P,R15,2*%
%TO.N,/ADC_MOSI*%
X83687500Y-38200000D03*
%TD*%
D27*
%TO.P,C12,1*%
%TO.N,/+3V3_ADC*%
X75250000Y-43200000D03*
%TO.P,C12,2*%
%TO.N,GND*%
X73350000Y-43200000D03*
%TD*%
D34*
%TO.P,L1,1*%
%TO.N,/+5VA*%
X12250000Y-25400000D03*
%TO.P,L1,2*%
%TO.N,/LX*%
X16550000Y-25400000D03*
%TD*%
D18*
%TO.P,R1,1*%
%TO.N,/+5VA_PRELINK*%
X32287500Y-46000000D03*
%TO.P,R1,2*%
%TO.N,/+5VA*%
X34112500Y-46000000D03*
%TD*%
D12*
%TO.P,TP5,1*%
%TO.N,/BIAS_27V*%
X36600000Y-32600000D03*
%TD*%
D25*
%TO.P,R16,1*%
%TO.N,/ADC_MISO*%
X85512500Y-41400000D03*
%TO.P,R16,2*%
%TO.N,/JA_MISO*%
X83687500Y-41400000D03*
%TD*%
D35*
%TO.P,U2,1*%
%TO.N,GND*%
X21137500Y-22950000D03*
%TO.P,U2,2*%
X21137500Y-22000000D03*
%TO.P,U2,3*%
%TO.N,/FB*%
X21137500Y-21050000D03*
%TO.P,U2,4*%
%TO.N,/SHDN*%
X18862500Y-21050000D03*
%TO.P,U2,5*%
%TO.N,/+5VA*%
X18862500Y-22000000D03*
%TO.P,U2,6*%
%TO.N,/LX*%
X18862500Y-22950000D03*
%TD*%
D17*
%TO.P,C6,1*%
%TO.N,/+5VA*%
X19050000Y-19200000D03*
%TO.P,C6,2*%
%TO.N,GND*%
X20950000Y-19200000D03*
%TD*%
D10*
%TO.P,R12,1*%
%TO.N,/ADC_B*%
X64400000Y-54887500D03*
%TO.P,R12,2*%
%TO.N,GND*%
X64400000Y-56712500D03*
%TD*%
D36*
%TO.N,/ADC_MOSI*%
X73900000Y-50300000D03*
X74500000Y-47000000D03*
X86800000Y-46000000D03*
X86800000Y-48500000D03*
%TO.N,/ADC_SCLK*%
X78500000Y-46000000D03*
X81300000Y-48700000D03*
%TO.N,/JA_CS_N*%
X88100000Y-43600000D03*
X85600000Y-43600000D03*
%TO.N,/JA_MISO*%
X81500000Y-43000000D03*
X86800000Y-50200000D03*
%TO.N,/PEAK_A*%
X60200000Y-41300000D03*
X60200000Y-38600000D03*
%TO.N,/PEAK_B*%
X64300000Y-46200000D03*
X66800000Y-38600000D03*
X66800000Y-41700000D03*
X62600000Y-48100000D03*
%TO.N,/PEAK_RESET*%
X72600000Y-31100000D03*
X74300000Y-32799999D03*
%TO.N,/PEAK_RESET_B*%
X79600000Y-32299999D03*
X79600000Y-29800000D03*
%TO.N,/TRIG_A*%
X87100000Y-39200000D03*
X73100000Y-33900000D03*
X71400000Y-29800000D03*
X83000000Y-35500000D03*
%TO.N,/TRIG_B*%
X83100000Y-32299999D03*
X91300000Y-32799999D03*
X81500000Y-36400000D03*
X83100000Y-29800000D03*
X81600000Y-41100000D03*
X81500000Y-33900000D03*
X89600000Y-34500000D03*
X88100000Y-41500000D03*
%TO.N,GND*%
X85100000Y-57900000D03*
X63500000Y-57300000D03*
X24400000Y-25500000D03*
X59700000Y-11000000D03*
X83800000Y-27300000D03*
X47400000Y-41000000D03*
X36000000Y-28000000D03*
X72700000Y-49200000D03*
X70400000Y-40900000D03*
X39200000Y-49400000D03*
X37900000Y-40500000D03*
X39600000Y-42600000D03*
X45400000Y-36300000D03*
X15400000Y-18700000D03*
X66200000Y-50200000D03*
X66200000Y-57200000D03*
X63500000Y-50300000D03*
X81700000Y-53100000D03*
X81900000Y-55400000D03*
X86900000Y-35500000D03*
X79300000Y-53100000D03*
X33299999Y-27700000D03*
X69900000Y-51100000D03*
X36300000Y-49100000D03*
X38500000Y-28100000D03*
X47200000Y-38100000D03*
X84600000Y-35500000D03*
X16200000Y-16200000D03*
X67400000Y-51100000D03*
X18700000Y-39900000D03*
X30300000Y-31600000D03*
X21300000Y-18100000D03*
X26100000Y-27200000D03*
X42100000Y-44800000D03*
X21300000Y-23600000D03*
X74400000Y-45400000D03*
X59700000Y-16000000D03*
%TD*%
D37*
%TO.N,/+3V3_ADC*%
X67300000Y-40200000D02*
X66200000Y-40200000D01*
X67850000Y-40200000D02*
X68100000Y-40900000D01*
X69000000Y-38600000D02*
X68100000Y-39500000D01*
X75250000Y-43200000D02*
X74900000Y-42400000D01*
X75600000Y-44700000D02*
X75400000Y-44500000D01*
X76475000Y-45095000D02*
X75600000Y-44700000D01*
X67850000Y-40200000D02*
X67300000Y-40200000D01*
X74900000Y-41900000D02*
X73300000Y-40300000D01*
X68100000Y-39500000D02*
X67850000Y-40200000D01*
X75400000Y-43900000D02*
X75250000Y-43200000D01*
X68100000Y-42700000D02*
X68487000Y-43400000D01*
X72800000Y-39400000D02*
X71800000Y-39100000D01*
X72800000Y-39400000D02*
X73000000Y-40300000D01*
X71800000Y-39100000D02*
X71300000Y-38600000D01*
X74900000Y-42400000D02*
X74900000Y-41900000D01*
X71300000Y-38600000D02*
X69000000Y-38600000D01*
X75400000Y-44500000D02*
X75400000Y-43900000D01*
X68100000Y-40900000D02*
X68100000Y-42700000D01*
X66200000Y-40200000D02*
X65712999Y-40200000D01*
%TO.N,/+3V3_LOCAL*%
X45200000Y-39700000D02*
X45200000Y-38900000D01*
X45638000Y-40050000D02*
X45200000Y-39700000D01*
X45900000Y-37600000D02*
X47300000Y-36200000D01*
X47800000Y-36200000D02*
X48500000Y-35500000D01*
X62000000Y-15750000D02*
X62900000Y-15800000D01*
X63300000Y-39900000D02*
X63888000Y-40200000D01*
X81000000Y-15800000D02*
X82000000Y-15750000D01*
X61300000Y-16300000D02*
X49200000Y-28400000D01*
X62900000Y-39900000D02*
X53600000Y-39900000D01*
X49200000Y-28400000D02*
X49200000Y-34800000D01*
X62900000Y-15800000D02*
X81000000Y-15800000D01*
X62000000Y-15750000D02*
X61300000Y-16300000D01*
X53600000Y-39900000D02*
X49400000Y-35700000D01*
X47300000Y-36200000D02*
X47800000Y-36200000D01*
X45200000Y-38900000D02*
X45450000Y-38200000D01*
X49400000Y-35700000D02*
X48500000Y-35500000D01*
X45450000Y-38200000D02*
X45900000Y-37600000D01*
%TO.N,/+5VA*%
X32900000Y-44300000D02*
X33800000Y-45200000D01*
X43700000Y-29000000D02*
X42200000Y-30500000D01*
D38*
X19050000Y-19200000D02*
X19050000Y-19900000D01*
D37*
X42700000Y-42200000D02*
X42700000Y-42400000D01*
X40700000Y-46500000D02*
X40700000Y-44700000D01*
D38*
X20000000Y-22000000D02*
X18860000Y-22000000D01*
D37*
X38200000Y-47000000D02*
X39400000Y-47000000D01*
D39*
X12250000Y-21900000D02*
X12650000Y-21500000D01*
D37*
X42700000Y-42400000D02*
X40700000Y-44400000D01*
D38*
X19050000Y-19900000D02*
X20000000Y-20500000D01*
D37*
X38300000Y-43200000D02*
X38300000Y-42000000D01*
X43362000Y-41950000D02*
X42700000Y-42200000D01*
X43362000Y-40050000D02*
X42700000Y-39900000D01*
D39*
X18860000Y-22000000D02*
X18000000Y-22000000D01*
D37*
X34600000Y-46500000D02*
X36500000Y-46500000D01*
D39*
X12650000Y-21500000D02*
X12650000Y-18400000D01*
D37*
X39400000Y-47000000D02*
X40200000Y-47050000D01*
D39*
X18000000Y-22000000D02*
X17700000Y-21900000D01*
D37*
X36500000Y-46500000D02*
X37400000Y-46925000D01*
X42200000Y-30500000D02*
X42200000Y-39100000D01*
X40700000Y-44700000D02*
X39800000Y-44700000D01*
X10700000Y-16399999D02*
X12100000Y-17800000D01*
X39800000Y-44700000D02*
X38300000Y-43200000D01*
X43900000Y-28700000D02*
X61300000Y-11300000D01*
X36800000Y-53700000D02*
X37500000Y-54500000D01*
X37400000Y-46925000D02*
X38200000Y-47000000D01*
X10000000Y-16040000D02*
X10700000Y-16399999D01*
X13200000Y-32600000D02*
X24500000Y-43900000D01*
X24700000Y-44300000D02*
X32900000Y-44300000D01*
X33800000Y-45200000D02*
X34112000Y-46000000D01*
D38*
X20000000Y-20500000D02*
X20000000Y-22000000D01*
D37*
X35000000Y-46500000D02*
X35000000Y-51900000D01*
X41500000Y-39900000D02*
X41300000Y-40100000D01*
X62900000Y-10800000D02*
X81000000Y-10800000D01*
X42700000Y-39900000D02*
X41500000Y-39900000D01*
X35000000Y-51900000D02*
X36800000Y-53700000D01*
X62000000Y-10750000D02*
X62900000Y-10800000D01*
D39*
X12250000Y-21900000D02*
X12250000Y-22600000D01*
D37*
X40200000Y-47050000D02*
X40700000Y-46500000D01*
D39*
X17700000Y-21900000D02*
X12250000Y-21900000D01*
D37*
X42200000Y-39100000D02*
X42700000Y-39600000D01*
X38300000Y-42000000D02*
X40400000Y-39900000D01*
X12250000Y-25400000D02*
X13200000Y-28300000D01*
X12100000Y-17800000D02*
X12650000Y-18400000D01*
X61300000Y-11300000D02*
X62000000Y-10750000D01*
X41300000Y-40100000D02*
X40600000Y-40250000D01*
X13200000Y-28300000D02*
X13200000Y-32600000D01*
X34112000Y-46000000D02*
X34600000Y-46500000D01*
X81000000Y-10800000D02*
X82000000Y-10750000D01*
%TO.N,/+5VA_PRELINK*%
X30000000Y-46000000D02*
X31700000Y-46000000D01*
X31700000Y-46000000D02*
X32287999Y-46000000D01*
X28800000Y-46000000D02*
X30000000Y-46000000D01*
D39*
%TO.N,/ADC_A*%
X66400000Y-47900000D02*
X65000000Y-47900000D01*
X64400000Y-47888000D02*
X63700000Y-47400000D01*
X63200000Y-46900000D02*
X62000000Y-46900000D01*
X68800000Y-46600000D02*
X70500000Y-46600000D01*
X67200000Y-47850000D02*
X66400000Y-47900000D01*
X70500000Y-46600000D02*
X71525000Y-46365000D01*
X65000000Y-47900000D02*
X64400000Y-47888000D01*
X67900000Y-47500000D02*
X68800000Y-46600000D01*
X67200000Y-47850000D02*
X67900000Y-47500000D01*
X63700000Y-47400000D02*
X63200000Y-46900000D01*
X62000000Y-46900000D02*
X61513000Y-46400000D01*
%TO.N,/ADC_B*%
X67700000Y-54300000D02*
X68700000Y-53300000D01*
X67200000Y-54850000D02*
X66400000Y-54900000D01*
X65000000Y-54900000D02*
X64400000Y-54888000D01*
X70500000Y-47600000D02*
X71525000Y-47635000D01*
X68700000Y-53300000D02*
X68700000Y-49400000D01*
X66400000Y-54900000D02*
X65000000Y-54900000D01*
X63700000Y-54400000D02*
X63200000Y-53900000D01*
X62000000Y-53900000D02*
X61513000Y-53400000D01*
X68700000Y-49400000D02*
X70500000Y-47600000D01*
X64400000Y-54888000D02*
X63700000Y-54400000D01*
X67200000Y-54850000D02*
X67700000Y-54300000D01*
X63200000Y-53900000D02*
X62000000Y-53900000D01*
%TO.N,/ADC_CS_N*%
X73300000Y-45900000D02*
X73300000Y-47900000D01*
X71525000Y-45095000D02*
X70500000Y-44800000D01*
X73300000Y-47900000D02*
X75300000Y-49900000D01*
X70500000Y-44800000D02*
X70500000Y-44300000D01*
X71525000Y-45095000D02*
X72500000Y-45200000D01*
X78400000Y-49900000D02*
X83100000Y-45200000D01*
X70312000Y-43400000D02*
X70500000Y-44100000D01*
X72500000Y-45200000D02*
X72700000Y-45200000D01*
X72700000Y-45200000D02*
X73100000Y-45600000D01*
X83100000Y-45200000D02*
X83688000Y-44730000D01*
X75300000Y-49900000D02*
X78400000Y-49900000D01*
%TO.N,/ADC_MISO*%
X77400000Y-47300000D02*
X76475000Y-47635000D01*
X85100000Y-42000000D02*
X84100000Y-43000000D01*
X79100000Y-47100000D02*
X83000000Y-43200000D01*
X85513000Y-41400000D02*
X85100000Y-42000000D01*
X84100000Y-43000000D02*
X83200000Y-43000000D01*
X83000000Y-43200000D02*
X83000000Y-43100000D01*
X78900000Y-47300000D02*
X77400000Y-47300000D01*
%TO.N,/ADC_MOSI*%
X86800000Y-40600000D02*
X86800000Y-46000000D01*
X82600000Y-50688000D02*
X83200000Y-51000000D01*
X86000000Y-39800000D02*
X86800000Y-40600000D01*
X83688000Y-38200000D02*
X84000000Y-38800000D01*
X75500000Y-48900000D02*
X76475000Y-48905000D01*
X85000000Y-39800000D02*
X86000000Y-39800000D01*
X82800000Y-54300000D02*
X77900000Y-54300000D01*
X83900000Y-53200000D02*
X82800000Y-54300000D01*
X77900000Y-54300000D02*
X73900000Y-50300000D01*
X83200000Y-50200000D02*
X82600000Y-50688000D01*
X84000000Y-38800000D02*
X85000000Y-39800000D01*
X86800000Y-48500000D02*
X85100000Y-50200000D01*
X74500000Y-47900000D02*
X75500000Y-48900000D01*
X83900000Y-51700000D02*
X83900000Y-53200000D01*
X85100000Y-50200000D02*
X83200000Y-50200000D01*
X74500000Y-47000000D02*
X74500000Y-47900000D01*
X83200000Y-51000000D02*
X83900000Y-51700000D01*
%TO.N,/ADC_SCLK*%
X80800000Y-50200000D02*
X83200000Y-47800000D01*
X83200000Y-47800000D02*
X83688000Y-47270000D01*
X78500000Y-46000000D02*
X77300000Y-46000000D01*
X80200000Y-50688000D02*
X80800000Y-50200000D01*
X81800000Y-49200000D02*
X81300000Y-48700000D01*
X77300000Y-46000000D02*
X76475000Y-46365000D01*
D37*
%TO.N,/BIAS_27V*%
X61000000Y-6500000D02*
X42300000Y-25200000D01*
X42300000Y-25200000D02*
X40000000Y-25200000D01*
X62000000Y-5750000D02*
X61000000Y-6500000D01*
X34400000Y-25525000D02*
X33500000Y-25000000D01*
X40900000Y-28300000D02*
X37300000Y-31900000D01*
X39400000Y-25688000D02*
X38700000Y-25600000D01*
X40900000Y-26700000D02*
X40900000Y-28300000D01*
X81000000Y-5800000D02*
X82000000Y-5750000D01*
X39400000Y-25688000D02*
X40100000Y-25900000D01*
X37000000Y-25650000D02*
X36200000Y-25500000D01*
X38700000Y-25600000D02*
X37700000Y-25600000D01*
X37300000Y-31900000D02*
X36600000Y-32600000D01*
X36200000Y-25500000D02*
X35200000Y-25500000D01*
X37700000Y-25600000D02*
X37000000Y-25650000D01*
X40100000Y-25900000D02*
X40900000Y-26700000D01*
X35200000Y-25500000D02*
X34400000Y-25525000D01*
X62900000Y-5800000D02*
X81000000Y-5800000D01*
X62000000Y-5750000D02*
X62900000Y-5800000D01*
X31600000Y-25000000D02*
X31113000Y-25000000D01*
X40000000Y-25200000D02*
X39400000Y-25688000D01*
X33500000Y-25000000D02*
X31600000Y-25000000D01*
D39*
%TO.N,/FB*%
X26000000Y-15600000D02*
X25700000Y-16500000D01*
X23600000Y-18900000D02*
X23100000Y-19413000D01*
X25700000Y-16500000D02*
X25700000Y-17000000D01*
X25700000Y-17000000D02*
X23800000Y-18900000D01*
X21140000Y-21050000D02*
X23100000Y-21090000D01*
X23800000Y-18900000D02*
X23600000Y-18900000D01*
X23100000Y-21090000D02*
X23100000Y-19410000D01*
%TO.N,/HV_RAW*%
X27200000Y-31600000D02*
X27200000Y-30800000D01*
X24500000Y-28100000D02*
X23800000Y-27575000D01*
D37*
X19300000Y-26600000D02*
X21400000Y-27570000D01*
D39*
X24600000Y-23100000D02*
X25900000Y-24400000D01*
X27500000Y-32600000D02*
X27200000Y-31600000D01*
X28700000Y-25500000D02*
X26100000Y-25500000D01*
X25900000Y-24400000D02*
X25900000Y-25400000D01*
X26100000Y-25500000D02*
X24600000Y-27000000D01*
X27200000Y-30800000D02*
X24500000Y-28100000D01*
X23800000Y-23100000D02*
X24600000Y-23100000D01*
X23100000Y-22913000D02*
X23800000Y-23100000D01*
X29288000Y-25000000D02*
X28700000Y-25500000D01*
X24600000Y-27000000D02*
X23800000Y-27575000D01*
D37*
X21400000Y-27570000D02*
X23800000Y-27570000D01*
D39*
%TO.N,/JA_CS_N*%
X85600000Y-44000000D02*
X85513000Y-44730000D01*
X89420000Y-44730000D02*
X88700000Y-44200000D01*
X88700000Y-44200000D02*
X88100000Y-43600000D01*
X85600000Y-43600000D02*
X85600000Y-44000000D01*
%TO.N,/JA_MISO*%
X83100000Y-41900000D02*
X82600000Y-41900000D01*
X91300000Y-36800000D02*
X82900000Y-36800000D01*
X93500000Y-39000000D02*
X91300000Y-36800000D01*
X82900000Y-36800000D02*
X82400000Y-37300000D01*
X83688000Y-41400000D02*
X83100000Y-41900000D01*
X86800000Y-50200000D02*
X86500000Y-50500000D01*
X82400000Y-40100000D02*
X83100000Y-40800000D01*
X92300000Y-41400000D02*
X93500000Y-40200000D01*
X82400000Y-37300000D02*
X82400000Y-40100000D01*
X91960000Y-42190000D02*
X92300000Y-41400000D01*
X83100000Y-40800000D02*
X83688000Y-41400000D01*
X81500000Y-43000000D02*
X82500000Y-42000000D01*
X93500000Y-40200000D02*
X93500000Y-39000000D01*
X86500000Y-50500000D02*
X86500000Y-54900000D01*
X86500000Y-54900000D02*
X86000000Y-55487000D01*
%TO.N,/JA_MOSI*%
X91400000Y-38900000D02*
X90500000Y-38000000D01*
X91960000Y-39650000D02*
X91400000Y-38900000D01*
X90500000Y-38000000D02*
X86000000Y-38000000D01*
X86000000Y-38000000D02*
X85513000Y-38200000D01*
%TO.N,/JA_SCLK*%
X86000000Y-47300000D02*
X85513000Y-47270000D01*
X89420000Y-47270000D02*
X88500000Y-47300000D01*
X88500000Y-47300000D02*
X86000000Y-47300000D01*
D40*
%TO.N,/LX*%
X18860000Y-22950000D02*
X19300000Y-24450000D01*
X18860000Y-22950000D02*
X16900000Y-22950000D01*
D39*
%TO.N,/PEAK_A*%
X62000000Y-25750000D02*
X61300000Y-26400000D01*
X61300000Y-26400000D02*
X60200000Y-27500000D01*
X60200000Y-45900000D02*
X59688000Y-46400000D01*
X60200000Y-27500000D02*
X60200000Y-38600000D01*
X60200000Y-41300000D02*
X60200000Y-45900000D01*
%TO.N,/PEAK_B*%
X82000000Y-25750000D02*
X81000000Y-25900000D01*
X66800000Y-41700000D02*
X64300000Y-44200000D01*
X62600000Y-48100000D02*
X60200000Y-50500000D01*
X60200000Y-52900000D02*
X59688000Y-53400000D01*
X81000000Y-25900000D02*
X79500000Y-25900000D01*
X64300000Y-44200000D02*
X64300000Y-46200000D01*
X79500000Y-25900000D02*
X66800000Y-38600000D01*
X60200000Y-50500000D02*
X60200000Y-52900000D01*
%TO.N,/PEAK_RESET*%
X77100000Y-31100000D02*
X76400000Y-31800000D01*
X92400000Y-44000000D02*
X94400000Y-42000000D01*
X94400000Y-37600000D02*
X87900000Y-31100000D01*
X75500000Y-32799999D02*
X74300000Y-32799999D01*
X67400000Y-31800000D02*
X67087999Y-32500000D01*
X68100000Y-31100000D02*
X67400000Y-31800000D01*
X72600000Y-31100000D02*
X68100000Y-31100000D01*
X94400000Y-42000000D02*
X94400000Y-37600000D01*
X76400000Y-31800000D02*
X76088000Y-32500000D01*
X91960000Y-44730000D02*
X92400000Y-44000000D01*
X76088000Y-32500000D02*
X75500000Y-32799999D01*
X87900000Y-31100000D02*
X77100000Y-31100000D01*
%TO.N,/PEAK_RESET_A*%
X62000000Y-28250000D02*
X62600000Y-28900000D01*
X62600000Y-28900000D02*
X62600000Y-30100000D01*
X67700000Y-33900000D02*
X68500000Y-33100000D01*
X66400000Y-33900000D02*
X67700000Y-33900000D01*
X62600000Y-30100000D02*
X66400000Y-33900000D01*
X68500000Y-33100000D02*
X68912000Y-32500000D01*
%TO.N,/PEAK_RESET_B*%
X78400000Y-32299999D02*
X77912000Y-32500000D01*
X81000000Y-28400000D02*
X79600000Y-29800000D01*
X82000000Y-28250000D02*
X81000000Y-28400000D01*
X79600000Y-32299999D02*
X78400000Y-32299999D01*
%TO.N,/SHDN*%
X16500000Y-18200000D02*
X14400000Y-16100000D01*
X14400000Y-13900000D02*
X13800000Y-13200000D01*
X17200000Y-20350000D02*
X17200000Y-18610000D01*
X17200000Y-18613000D02*
X16500000Y-18200000D01*
X14400000Y-16100000D02*
X14400000Y-13900000D01*
X10700000Y-12900000D02*
X10000000Y-13500000D01*
X17900000Y-21050000D02*
X17200000Y-20350000D01*
X18860000Y-21050000D02*
X17900000Y-21050000D01*
X13800000Y-13200000D02*
X12800000Y-12900000D01*
X12800000Y-12900000D02*
X10700000Y-12900000D01*
%TO.N,/TRIG_A*%
X83000000Y-35500000D02*
X83000000Y-35200000D01*
X89420000Y-39650000D02*
X88500000Y-39200000D01*
X88500000Y-39200000D02*
X87100000Y-39200000D01*
X71400000Y-29800000D02*
X62700000Y-21100000D01*
X62700000Y-21100000D02*
X62000000Y-20750000D01*
X83000000Y-35200000D02*
X84800000Y-33400000D01*
X83000000Y-35200000D02*
X74400000Y-35200000D01*
X84800000Y-33400000D02*
X85500000Y-33087000D01*
X74400000Y-35200000D02*
X73100000Y-33900000D01*
%TO.N,/TRIG_B*%
X88100000Y-41500000D02*
X88600000Y-42000000D01*
X82600000Y-21400000D02*
X91300000Y-30100000D01*
X82000000Y-20750000D02*
X82600000Y-21400000D01*
X89600000Y-34500000D02*
X88400000Y-33299999D01*
X88600000Y-42000000D02*
X89420000Y-42190000D01*
X81300000Y-40600000D02*
X81300000Y-36800000D01*
X91300000Y-30100000D02*
X91300000Y-32799999D01*
X87000000Y-25900000D02*
X83100000Y-29800000D01*
X88400000Y-33299999D02*
X87800000Y-33087000D01*
X83100000Y-32299999D02*
X81500000Y-33900000D01*
D37*
%TO.N,/VIN*%
X17700000Y-46000000D02*
X18400000Y-46000000D01*
X13700000Y-46000000D02*
X15000000Y-46000000D01*
X15000000Y-46000000D02*
X17700000Y-46000000D01*
%TO.N,/VIN_FUSED*%
X24800000Y-46000000D02*
X23500000Y-46000000D01*
X21800000Y-46000000D02*
X21200000Y-46000000D01*
X23500000Y-46000000D02*
X21800000Y-46000000D01*
%TO.N,GND*%
X86700000Y-57000000D02*
X87700000Y-56000000D01*
X64400000Y-49712000D02*
X65000000Y-50100000D01*
X86000000Y-57312000D02*
X86700000Y-57000000D01*
X31200000Y-32600000D02*
X30500000Y-31800000D01*
X80200000Y-19900000D02*
X81100000Y-19000000D01*
X73350000Y-43200000D02*
X72800000Y-42600000D01*
X24460000Y-10000000D02*
X25100000Y-9900000D01*
X71525000Y-48905000D02*
X70700000Y-49200000D01*
X61000000Y-14100000D02*
X61800000Y-14100000D01*
X47100000Y-41500000D02*
X47100000Y-42500000D01*
X82800000Y-24000000D02*
X82200000Y-24000000D01*
X62000000Y-18250000D02*
X62900000Y-18400000D01*
X23800000Y-9600000D02*
X22600000Y-8400000D01*
X87700000Y-51200000D02*
X88700000Y-50200000D01*
X82600000Y-52513000D02*
X81900000Y-52900000D01*
X47100000Y-42500000D02*
X45300000Y-44300000D01*
X60200000Y-21500000D02*
X61200000Y-22500000D01*
X83800000Y-27300000D02*
X83800000Y-25000000D01*
X73600000Y-44600000D02*
X74400000Y-45400000D01*
X7700000Y-46000000D02*
X8100000Y-47200000D01*
X17800000Y-17200000D02*
X19400000Y-17200000D01*
X33800000Y-37100000D02*
X33000000Y-37400000D01*
X67400000Y-50000000D02*
X67200000Y-49750000D01*
X61300000Y-8800000D02*
X59700000Y-10400000D01*
X33600000Y-29700000D02*
X31600000Y-31700000D01*
X81400000Y-55200000D02*
X77000000Y-55200000D01*
X38700000Y-49300000D02*
X38200000Y-49300000D01*
D40*
X21140000Y-22950000D02*
X21140000Y-22000000D01*
D37*
X29200000Y-37100000D02*
X31100000Y-35200000D01*
X21200000Y-8400000D02*
X20400000Y-9200000D01*
X38200000Y-49300000D02*
X37400000Y-49875000D01*
X73600000Y-43900000D02*
X73600000Y-44600000D01*
X27400000Y-37100000D02*
X29200000Y-37100000D01*
X23800000Y-24625000D02*
X24400000Y-25100000D01*
X8100000Y-47600000D02*
X10000000Y-49500000D01*
X86400000Y-35300000D02*
X86100000Y-35300000D01*
X83300000Y-56800000D02*
X85400000Y-56800000D01*
X36500000Y-49300000D02*
X36300000Y-49100000D01*
X83800000Y-25000000D02*
X82800000Y-24000000D01*
X21300000Y-18700000D02*
X20950000Y-19200000D01*
X24400000Y-25100000D02*
X24400000Y-25500000D01*
X83700000Y-14900000D02*
X82900000Y-14100000D01*
X21400000Y-24620000D02*
X23800000Y-24620000D01*
X62000000Y-18250000D02*
X61300000Y-18800000D01*
X71525000Y-48905000D02*
X72500000Y-49000000D01*
X44900000Y-36300000D02*
X45400000Y-36300000D01*
X70200000Y-40700000D02*
X70400000Y-40900000D01*
X63700000Y-57100000D02*
X63500000Y-57300000D01*
X81700000Y-19000000D02*
X82000000Y-18250000D01*
X47200000Y-38100000D02*
X47100000Y-38200000D01*
X40200000Y-48950000D02*
X39400000Y-49200000D01*
X20600000Y-18400000D02*
X20950000Y-19200000D01*
X8900000Y-45500000D02*
X14500000Y-39900000D01*
X67200000Y-49750000D02*
X66400000Y-50000000D01*
X61200000Y-22500000D02*
X61300000Y-22500000D01*
X85400000Y-56800000D02*
X86000000Y-57312000D01*
X25700000Y-37100000D02*
X26600000Y-37400000D01*
X66400000Y-57000000D02*
X66200000Y-57200000D01*
X59700000Y-15400000D02*
X61000000Y-14100000D01*
X47100000Y-38200000D02*
X47100000Y-40500000D01*
X30000000Y-31100000D02*
X30100000Y-31100000D01*
X61800000Y-14100000D02*
X62000000Y-13250000D01*
X30500000Y-31800000D02*
X30300000Y-31600000D01*
X82900000Y-14100000D02*
X82000000Y-14100000D01*
X64400000Y-56712000D02*
X65000000Y-57100000D01*
X34400000Y-28475000D02*
X35200000Y-28100000D01*
X65000000Y-50100000D02*
X65700000Y-50100000D01*
X7700000Y-46000000D02*
X8900000Y-45500000D01*
X69700000Y-54600000D02*
X69700000Y-51600000D01*
X15000000Y-18700000D02*
X15400000Y-18700000D01*
X81900000Y-55400000D02*
X83300000Y-56800000D01*
X67200000Y-56750000D02*
X67900000Y-56400000D01*
X31200000Y-32600000D02*
X31400000Y-33500000D01*
X88700000Y-50200000D02*
X89420000Y-49810000D01*
X82000000Y-14100000D02*
X82000000Y-13250000D01*
X69750000Y-40200000D02*
X70200000Y-40700000D01*
X34400000Y-28475000D02*
X33500000Y-27900000D01*
X22600000Y-8400000D02*
X21200000Y-8400000D01*
X67900000Y-56400000D02*
X69700000Y-54600000D01*
X70700000Y-49200000D02*
X69900000Y-50000000D01*
D40*
X21400000Y-24620000D02*
X21140000Y-22950000D01*
D37*
X21600000Y-37400000D02*
X22400000Y-37100000D01*
X82000000Y-8250000D02*
X82600000Y-8800000D01*
X91960000Y-49810000D02*
X91100000Y-49600000D01*
X59700000Y-16000000D02*
X59700000Y-15400000D01*
X67400000Y-51100000D02*
X67400000Y-50000000D01*
X91100000Y-49600000D02*
X90200000Y-49600000D01*
X21300000Y-18100000D02*
X21300000Y-18700000D01*
X16500000Y-16500000D02*
X17200000Y-16788000D01*
X45300000Y-44300000D02*
X42300000Y-44300000D01*
X14500000Y-39900000D02*
X18700000Y-39900000D01*
X61300000Y-18800000D02*
X60200000Y-19900000D01*
X17200000Y-16788000D02*
X17800000Y-17200000D01*
X84800000Y-35300000D02*
X84600000Y-35500000D01*
X8100000Y-47200000D02*
X8100000Y-47600000D01*
X66400000Y-50000000D02*
X66200000Y-50200000D01*
X80900000Y-52700000D02*
X80200000Y-52513000D01*
X38100000Y-40300000D02*
X38100000Y-38200000D01*
X40600000Y-42150000D02*
X39800000Y-42400000D01*
X82200000Y-12400000D02*
X82000000Y-13250000D01*
X79500000Y-52900000D02*
X79300000Y-53100000D01*
X87700000Y-56000000D02*
X87700000Y-51200000D01*
X31400000Y-35200000D02*
X32700000Y-36500000D01*
X37700000Y-27700000D02*
X37000000Y-27550000D01*
X25100000Y-9900000D02*
X26200000Y-9900000D01*
X85300000Y-57700000D02*
X85100000Y-57900000D01*
X16200000Y-16200000D02*
X16500000Y-16500000D01*
X26100000Y-27200000D02*
X30000000Y-31100000D01*
X62000000Y-8250000D02*
X61300000Y-8800000D01*
X77000000Y-55200000D02*
X72600000Y-50800000D01*
X81300000Y-22600000D02*
X80200000Y-21500000D01*
X60200000Y-19900000D02*
X60200000Y-21500000D01*
X31600000Y-31700000D02*
X31200000Y-32600000D01*
X36200000Y-27800000D02*
X36000000Y-28000000D01*
X80200000Y-21500000D02*
X80200000Y-19900000D01*
X35200000Y-28100000D02*
X35500000Y-28100000D01*
X72800000Y-42600000D02*
X72500000Y-42600000D01*
X33500000Y-27900000D02*
X33299999Y-27700000D01*
X81900000Y-52900000D02*
X81700000Y-53100000D01*
X81200000Y-53000000D02*
X80900000Y-52700000D01*
X38100000Y-38200000D02*
X38000000Y-37400000D01*
X37400000Y-49875000D02*
X36500000Y-49300000D01*
X26600000Y-37400000D02*
X27400000Y-37100000D01*
X67200000Y-56750000D02*
X66400000Y-57000000D01*
X22400000Y-37100000D02*
X25700000Y-37100000D01*
X14550000Y-18400000D02*
X15000000Y-18700000D01*
X86100000Y-35300000D02*
X85500000Y-34913000D01*
X24460000Y-10000000D02*
X23800000Y-9600000D01*
X73350000Y-43200000D02*
X73600000Y-43900000D01*
X86000000Y-57312000D02*
X85300000Y-57700000D01*
X62900000Y-18400000D02*
X66000000Y-21500000D01*
X43550000Y-38200000D02*
X43800000Y-37400000D01*
X72500000Y-49000000D02*
X72700000Y-49200000D01*
X87100000Y-35300000D02*
X86900000Y-35500000D01*
X39400000Y-27512000D02*
X38700000Y-27900000D01*
X66000000Y-21500000D02*
X79900000Y-21500000D01*
X19400000Y-17200000D02*
X20600000Y-18400000D01*
X82000000Y-18250000D02*
X82600000Y-17600000D01*
X39800000Y-42400000D02*
X39600000Y-42600000D01*
X82200000Y-24000000D02*
X82000000Y-23250000D01*
X69900000Y-50000000D02*
X69900000Y-51100000D01*
X20400000Y-9200000D02*
X20400000Y-16500000D01*
X82600000Y-17600000D02*
X83700000Y-16500000D01*
X43800000Y-37400000D02*
X44900000Y-36300000D01*
X80200000Y-52513000D02*
X79500000Y-52900000D01*
X34400000Y-28475000D02*
X33600000Y-29000000D01*
X64400000Y-49712000D02*
X63700000Y-50100000D01*
X42100000Y-47400000D02*
X42100000Y-44800000D01*
X65000000Y-57100000D02*
X65700000Y-57100000D01*
X26200000Y-9900000D02*
X27000000Y-10000000D01*
X83700000Y-16500000D02*
X83700000Y-14900000D01*
X37000000Y-27550000D02*
X36200000Y-27800000D01*
X38700000Y-27900000D02*
X38500000Y-28100000D01*
X10000000Y-49500000D02*
X10700000Y-50700000D01*
X33600000Y-29000000D02*
X33600000Y-29700000D01*
X72600000Y-50800000D02*
X72600000Y-49500000D01*
X40200000Y-48950000D02*
X40900000Y-48600000D01*
X32700000Y-36500000D02*
X33000000Y-37400000D01*
X20400000Y-16500000D02*
X21500000Y-17600000D01*
X64400000Y-56712000D02*
X63700000Y-57100000D01*
X39400000Y-49200000D02*
X39200000Y-49400000D01*
X40900000Y-48600000D02*
X42100000Y-47400000D01*
X38000000Y-37400000D02*
X37100000Y-37100000D01*
X31400000Y-33500000D02*
X31400000Y-35200000D01*
X85500000Y-34913000D02*
X84800000Y-35300000D01*
D38*
X43360000Y-41000000D02*
X47400000Y-41000000D01*
D37*
X82600000Y-8800000D02*
X83700000Y-9900000D01*
X38000000Y-28000000D02*
X37700000Y-27700000D01*
X82000000Y-23250000D02*
X81300000Y-22600000D01*
X59700000Y-10400000D02*
X59700000Y-11000000D01*
X37100000Y-37100000D02*
X33800000Y-37100000D01*
X63700000Y-50100000D02*
X63500000Y-50300000D01*
X83700000Y-9900000D02*
X83700000Y-11500000D01*
X61300000Y-22500000D02*
X62000000Y-23250000D01*
X82800000Y-12400000D02*
X82200000Y-12400000D01*
X81100000Y-19000000D02*
X81700000Y-19000000D01*
X90200000Y-49600000D02*
X89420000Y-49810000D01*
X87800000Y-34913000D02*
X87100000Y-35300000D01*
X72500000Y-42600000D02*
X70900000Y-41000000D01*
X83700000Y-11500000D02*
X82800000Y-12400000D01*
X37900000Y-40500000D02*
X38100000Y-40300000D01*
D39*
%TO.N,Net-(R3-Pad2)*%
X22500000Y-17000000D02*
X22500000Y-11100000D01*
X22500000Y-11100000D02*
X22100000Y-10700000D01*
X21920000Y-10000000D02*
X22200000Y-10600000D01*
X23100000Y-17587000D02*
X22500000Y-17000000D01*
%TD*%
M02*
