%TF.GenerationSoftware,KiCad,Pcbnew,9.0.9*%
%TF.CreationDate,2026-09-13T14:13:28-07:00*%
%TF.ProjectId,power_interface,706f7765-725f-4696-9e74-657266616365,rev?*%
%TF.SameCoordinates,Original*%
%TF.FileFunction,Legend,Bot*%
%TF.FilePolarity,Positive*%
%FSLAX46Y46*%
G04 Gerber Fmt 4.6, Leading zero omitted, Abs format (unit mm)*
G04 Created by KiCad (PCBNEW 9.0.9) date 2026-09-13 14:13:28*
%MOMM*%
%LPD*%
G01*
G04 APERTURE LIST*
G04 Aperture macros list*
%AMRoundRect*
0 Rectangle with rounded corners*
0 $1 Rounding radius*
0 $2 $3 $4 $5 $6 $7 $8 $9 X,Y pos of 4 corners*
0 Add a 4 corners polygon primitive as box body*
4,1,4,$2,$3,$4,$5,$6,$7,$8,$9,$2,$3,0*
0 Add four circle primitives for the rounded corners*
1,1,$1+$1,$2,$3*
1,1,$1+$1,$4,$5*
1,1,$1+$1,$6,$7*
1,1,$1+$1,$8,$9*
0 Add four rect primitives between the rounded corners*
20,1,$1+$1,$2,$3,$4,$5,0*
20,1,$1+$1,$4,$5,$6,$7,0*
20,1,$1+$1,$6,$7,$8,$9,0*
20,1,$1+$1,$8,$9,$2,$3,0*%
G04 Aperture macros list end*
%ADD10C,0.100000*%
%ADD11C,0.150000*%
%ADD12C,0.180000*%
%ADD13RoundRect,0.250000X-0.725000X0.600000X-0.725000X-0.600000X0.725000X-0.600000X0.725000X0.600000X0*%
%ADD14O,1.950000X1.700000*%
%ADD15R,2.600000X2.600000*%
%ADD16C,2.600000*%
%ADD17R,1.700000X1.700000*%
%ADD18C,1.700000*%
%ADD19C,3.200000*%
%ADD20C,1.800000*%
%ADD21C,1.440000*%
G04 APERTURE END LIST*
D10*
X88400000Y-39650000D02*
X87400000Y-40150000D01*
X87400000Y-39150000D01*
X88400000Y-39650000D01*
G36*
X88400000Y-39650000D02*
G01*
X87400000Y-40150000D01*
X87400000Y-39150000D01*
X88400000Y-39650000D01*
G37*
D11*
X5948935Y-13824200D02*
X5834649Y-13862295D01*
X5834649Y-13862295D02*
X5644173Y-13862295D01*
X5644173Y-13862295D02*
X5567982Y-13824200D01*
X5567982Y-13824200D02*
X5529887Y-13786104D01*
X5529887Y-13786104D02*
X5491792Y-13709914D01*
X5491792Y-13709914D02*
X5491792Y-13633723D01*
X5491792Y-13633723D02*
X5529887Y-13557533D01*
X5529887Y-13557533D02*
X5567982Y-13519438D01*
X5567982Y-13519438D02*
X5644173Y-13481342D01*
X5644173Y-13481342D02*
X5796554Y-13443247D01*
X5796554Y-13443247D02*
X5872744Y-13405152D01*
X5872744Y-13405152D02*
X5910839Y-13367057D01*
X5910839Y-13367057D02*
X5948935Y-13290866D01*
X5948935Y-13290866D02*
X5948935Y-13214676D01*
X5948935Y-13214676D02*
X5910839Y-13138485D01*
X5910839Y-13138485D02*
X5872744Y-13100390D01*
X5872744Y-13100390D02*
X5796554Y-13062295D01*
X5796554Y-13062295D02*
X5606077Y-13062295D01*
X5606077Y-13062295D02*
X5491792Y-13100390D01*
X5148934Y-13862295D02*
X5148934Y-13062295D01*
X5148934Y-13443247D02*
X4691791Y-13443247D01*
X4691791Y-13862295D02*
X4691791Y-13062295D01*
X4310839Y-13862295D02*
X4310839Y-13062295D01*
X4310839Y-13062295D02*
X4120363Y-13062295D01*
X4120363Y-13062295D02*
X4006077Y-13100390D01*
X4006077Y-13100390D02*
X3929887Y-13176580D01*
X3929887Y-13176580D02*
X3891792Y-13252771D01*
X3891792Y-13252771D02*
X3853696Y-13405152D01*
X3853696Y-13405152D02*
X3853696Y-13519438D01*
X3853696Y-13519438D02*
X3891792Y-13671819D01*
X3891792Y-13671819D02*
X3929887Y-13748009D01*
X3929887Y-13748009D02*
X4006077Y-13824200D01*
X4006077Y-13824200D02*
X4120363Y-13862295D01*
X4120363Y-13862295D02*
X4310839Y-13862295D01*
X3510839Y-13862295D02*
X3510839Y-13062295D01*
X3510839Y-13062295D02*
X3053696Y-13862295D01*
X3053696Y-13862295D02*
X3053696Y-13062295D01*
X5529887Y-15602295D02*
X5910839Y-15602295D01*
X5910839Y-15602295D02*
X5948935Y-15983247D01*
X5948935Y-15983247D02*
X5910839Y-15945152D01*
X5910839Y-15945152D02*
X5834649Y-15907057D01*
X5834649Y-15907057D02*
X5644173Y-15907057D01*
X5644173Y-15907057D02*
X5567982Y-15945152D01*
X5567982Y-15945152D02*
X5529887Y-15983247D01*
X5529887Y-15983247D02*
X5491792Y-16059438D01*
X5491792Y-16059438D02*
X5491792Y-16249914D01*
X5491792Y-16249914D02*
X5529887Y-16326104D01*
X5529887Y-16326104D02*
X5567982Y-16364200D01*
X5567982Y-16364200D02*
X5644173Y-16402295D01*
X5644173Y-16402295D02*
X5834649Y-16402295D01*
X5834649Y-16402295D02*
X5910839Y-16364200D01*
X5910839Y-16364200D02*
X5948935Y-16326104D01*
X5263220Y-15602295D02*
X4996553Y-16402295D01*
X4996553Y-16402295D02*
X4729887Y-15602295D01*
X57191792Y-6112295D02*
X57648935Y-6112295D01*
X57420363Y-6112295D02*
X57420363Y-5312295D01*
X57420363Y-5312295D02*
X57496554Y-5426580D01*
X57496554Y-5426580D02*
X57572744Y-5502771D01*
X57572744Y-5502771D02*
X57648935Y-5540866D01*
X56848934Y-6036104D02*
X56810839Y-6074200D01*
X56810839Y-6074200D02*
X56848934Y-6112295D01*
X56848934Y-6112295D02*
X56887030Y-6074200D01*
X56887030Y-6074200D02*
X56848934Y-6036104D01*
X56848934Y-6036104D02*
X56848934Y-6112295D01*
X56848934Y-5617057D02*
X56810839Y-5655152D01*
X56810839Y-5655152D02*
X56848934Y-5693247D01*
X56848934Y-5693247D02*
X56887030Y-5655152D01*
X56887030Y-5655152D02*
X56848934Y-5617057D01*
X56848934Y-5617057D02*
X56848934Y-5693247D01*
X56506078Y-5388485D02*
X56467982Y-5350390D01*
X56467982Y-5350390D02*
X56391792Y-5312295D01*
X56391792Y-5312295D02*
X56201316Y-5312295D01*
X56201316Y-5312295D02*
X56125125Y-5350390D01*
X56125125Y-5350390D02*
X56087030Y-5388485D01*
X56087030Y-5388485D02*
X56048935Y-5464676D01*
X56048935Y-5464676D02*
X56048935Y-5540866D01*
X56048935Y-5540866D02*
X56087030Y-5655152D01*
X56087030Y-5655152D02*
X56544173Y-6112295D01*
X56544173Y-6112295D02*
X56048935Y-6112295D01*
X55782268Y-5312295D02*
X55248934Y-5312295D01*
X55248934Y-5312295D02*
X55591792Y-6112295D01*
X55058458Y-5312295D02*
X54791791Y-6112295D01*
X54791791Y-6112295D02*
X54525125Y-5312295D01*
X57687030Y-10312295D02*
X57191792Y-10312295D01*
X57191792Y-10312295D02*
X57458458Y-10617057D01*
X57458458Y-10617057D02*
X57344173Y-10617057D01*
X57344173Y-10617057D02*
X57267982Y-10655152D01*
X57267982Y-10655152D02*
X57229887Y-10693247D01*
X57229887Y-10693247D02*
X57191792Y-10769438D01*
X57191792Y-10769438D02*
X57191792Y-10959914D01*
X57191792Y-10959914D02*
X57229887Y-11036104D01*
X57229887Y-11036104D02*
X57267982Y-11074200D01*
X57267982Y-11074200D02*
X57344173Y-11112295D01*
X57344173Y-11112295D02*
X57572744Y-11112295D01*
X57572744Y-11112295D02*
X57648935Y-11074200D01*
X57648935Y-11074200D02*
X57687030Y-11036104D01*
X56848934Y-11036104D02*
X56810839Y-11074200D01*
X56810839Y-11074200D02*
X56848934Y-11112295D01*
X56848934Y-11112295D02*
X56887030Y-11074200D01*
X56887030Y-11074200D02*
X56848934Y-11036104D01*
X56848934Y-11036104D02*
X56848934Y-11112295D01*
X56848934Y-10617057D02*
X56810839Y-10655152D01*
X56810839Y-10655152D02*
X56848934Y-10693247D01*
X56848934Y-10693247D02*
X56887030Y-10655152D01*
X56887030Y-10655152D02*
X56848934Y-10617057D01*
X56848934Y-10617057D02*
X56848934Y-10693247D01*
X56087030Y-10312295D02*
X56467982Y-10312295D01*
X56467982Y-10312295D02*
X56506078Y-10693247D01*
X56506078Y-10693247D02*
X56467982Y-10655152D01*
X56467982Y-10655152D02*
X56391792Y-10617057D01*
X56391792Y-10617057D02*
X56201316Y-10617057D01*
X56201316Y-10617057D02*
X56125125Y-10655152D01*
X56125125Y-10655152D02*
X56087030Y-10693247D01*
X56087030Y-10693247D02*
X56048935Y-10769438D01*
X56048935Y-10769438D02*
X56048935Y-10959914D01*
X56048935Y-10959914D02*
X56087030Y-11036104D01*
X56087030Y-11036104D02*
X56125125Y-11074200D01*
X56125125Y-11074200D02*
X56201316Y-11112295D01*
X56201316Y-11112295D02*
X56391792Y-11112295D01*
X56391792Y-11112295D02*
X56467982Y-11074200D01*
X56467982Y-11074200D02*
X56506078Y-11036104D01*
X55820363Y-10312295D02*
X55553696Y-11112295D01*
X55553696Y-11112295D02*
X55287030Y-10312295D01*
X57229887Y-15312295D02*
X57610839Y-15312295D01*
X57610839Y-15312295D02*
X57648935Y-15693247D01*
X57648935Y-15693247D02*
X57610839Y-15655152D01*
X57610839Y-15655152D02*
X57534649Y-15617057D01*
X57534649Y-15617057D02*
X57344173Y-15617057D01*
X57344173Y-15617057D02*
X57267982Y-15655152D01*
X57267982Y-15655152D02*
X57229887Y-15693247D01*
X57229887Y-15693247D02*
X57191792Y-15769438D01*
X57191792Y-15769438D02*
X57191792Y-15959914D01*
X57191792Y-15959914D02*
X57229887Y-16036104D01*
X57229887Y-16036104D02*
X57267982Y-16074200D01*
X57267982Y-16074200D02*
X57344173Y-16112295D01*
X57344173Y-16112295D02*
X57534649Y-16112295D01*
X57534649Y-16112295D02*
X57610839Y-16074200D01*
X57610839Y-16074200D02*
X57648935Y-16036104D01*
X56848934Y-16036104D02*
X56810839Y-16074200D01*
X56810839Y-16074200D02*
X56848934Y-16112295D01*
X56848934Y-16112295D02*
X56887030Y-16074200D01*
X56887030Y-16074200D02*
X56848934Y-16036104D01*
X56848934Y-16036104D02*
X56848934Y-16112295D01*
X56848934Y-15617057D02*
X56810839Y-15655152D01*
X56810839Y-15655152D02*
X56848934Y-15693247D01*
X56848934Y-15693247D02*
X56887030Y-15655152D01*
X56887030Y-15655152D02*
X56848934Y-15617057D01*
X56848934Y-15617057D02*
X56848934Y-15693247D01*
X56544173Y-15312295D02*
X56048935Y-15312295D01*
X56048935Y-15312295D02*
X56315601Y-15617057D01*
X56315601Y-15617057D02*
X56201316Y-15617057D01*
X56201316Y-15617057D02*
X56125125Y-15655152D01*
X56125125Y-15655152D02*
X56087030Y-15693247D01*
X56087030Y-15693247D02*
X56048935Y-15769438D01*
X56048935Y-15769438D02*
X56048935Y-15959914D01*
X56048935Y-15959914D02*
X56087030Y-16036104D01*
X56087030Y-16036104D02*
X56125125Y-16074200D01*
X56125125Y-16074200D02*
X56201316Y-16112295D01*
X56201316Y-16112295D02*
X56429887Y-16112295D01*
X56429887Y-16112295D02*
X56506078Y-16074200D01*
X56506078Y-16074200D02*
X56544173Y-16036104D01*
X55706077Y-16036104D02*
X55667982Y-16074200D01*
X55667982Y-16074200D02*
X55706077Y-16112295D01*
X55706077Y-16112295D02*
X55744173Y-16074200D01*
X55744173Y-16074200D02*
X55706077Y-16036104D01*
X55706077Y-16036104D02*
X55706077Y-16112295D01*
X55401316Y-15312295D02*
X54906078Y-15312295D01*
X54906078Y-15312295D02*
X55172744Y-15617057D01*
X55172744Y-15617057D02*
X55058459Y-15617057D01*
X55058459Y-15617057D02*
X54982268Y-15655152D01*
X54982268Y-15655152D02*
X54944173Y-15693247D01*
X54944173Y-15693247D02*
X54906078Y-15769438D01*
X54906078Y-15769438D02*
X54906078Y-15959914D01*
X54906078Y-15959914D02*
X54944173Y-16036104D01*
X54944173Y-16036104D02*
X54982268Y-16074200D01*
X54982268Y-16074200D02*
X55058459Y-16112295D01*
X55058459Y-16112295D02*
X55287030Y-16112295D01*
X55287030Y-16112295D02*
X55363221Y-16074200D01*
X55363221Y-16074200D02*
X55401316Y-16036104D01*
X54677506Y-15312295D02*
X54410839Y-16112295D01*
X54410839Y-16112295D02*
X54144173Y-15312295D01*
X57191792Y-28612295D02*
X57648935Y-28612295D01*
X57420363Y-28612295D02*
X57420363Y-27812295D01*
X57420363Y-27812295D02*
X57496554Y-27926580D01*
X57496554Y-27926580D02*
X57572744Y-28002771D01*
X57572744Y-28002771D02*
X57648935Y-28040866D01*
X56696553Y-27812295D02*
X56620363Y-27812295D01*
X56620363Y-27812295D02*
X56544172Y-27850390D01*
X56544172Y-27850390D02*
X56506077Y-27888485D01*
X56506077Y-27888485D02*
X56467982Y-27964676D01*
X56467982Y-27964676D02*
X56429887Y-28117057D01*
X56429887Y-28117057D02*
X56429887Y-28307533D01*
X56429887Y-28307533D02*
X56467982Y-28459914D01*
X56467982Y-28459914D02*
X56506077Y-28536104D01*
X56506077Y-28536104D02*
X56544172Y-28574200D01*
X56544172Y-28574200D02*
X56620363Y-28612295D01*
X56620363Y-28612295D02*
X56696553Y-28612295D01*
X56696553Y-28612295D02*
X56772744Y-28574200D01*
X56772744Y-28574200D02*
X56810839Y-28536104D01*
X56810839Y-28536104D02*
X56848934Y-28459914D01*
X56848934Y-28459914D02*
X56887030Y-28307533D01*
X56887030Y-28307533D02*
X56887030Y-28117057D01*
X56887030Y-28117057D02*
X56848934Y-27964676D01*
X56848934Y-27964676D02*
X56810839Y-27888485D01*
X56810839Y-27888485D02*
X56772744Y-27850390D01*
X56772744Y-27850390D02*
X56696553Y-27812295D01*
X77191792Y-6112295D02*
X77648935Y-6112295D01*
X77420363Y-6112295D02*
X77420363Y-5312295D01*
X77420363Y-5312295D02*
X77496554Y-5426580D01*
X77496554Y-5426580D02*
X77572744Y-5502771D01*
X77572744Y-5502771D02*
X77648935Y-5540866D01*
X76848934Y-6036104D02*
X76810839Y-6074200D01*
X76810839Y-6074200D02*
X76848934Y-6112295D01*
X76848934Y-6112295D02*
X76887030Y-6074200D01*
X76887030Y-6074200D02*
X76848934Y-6036104D01*
X76848934Y-6036104D02*
X76848934Y-6112295D01*
X76848934Y-5617057D02*
X76810839Y-5655152D01*
X76810839Y-5655152D02*
X76848934Y-5693247D01*
X76848934Y-5693247D02*
X76887030Y-5655152D01*
X76887030Y-5655152D02*
X76848934Y-5617057D01*
X76848934Y-5617057D02*
X76848934Y-5693247D01*
X76506078Y-5388485D02*
X76467982Y-5350390D01*
X76467982Y-5350390D02*
X76391792Y-5312295D01*
X76391792Y-5312295D02*
X76201316Y-5312295D01*
X76201316Y-5312295D02*
X76125125Y-5350390D01*
X76125125Y-5350390D02*
X76087030Y-5388485D01*
X76087030Y-5388485D02*
X76048935Y-5464676D01*
X76048935Y-5464676D02*
X76048935Y-5540866D01*
X76048935Y-5540866D02*
X76087030Y-5655152D01*
X76087030Y-5655152D02*
X76544173Y-6112295D01*
X76544173Y-6112295D02*
X76048935Y-6112295D01*
X75782268Y-5312295D02*
X75248934Y-5312295D01*
X75248934Y-5312295D02*
X75591792Y-6112295D01*
X75058458Y-5312295D02*
X74791791Y-6112295D01*
X74791791Y-6112295D02*
X74525125Y-5312295D01*
X77687030Y-10312295D02*
X77191792Y-10312295D01*
X77191792Y-10312295D02*
X77458458Y-10617057D01*
X77458458Y-10617057D02*
X77344173Y-10617057D01*
X77344173Y-10617057D02*
X77267982Y-10655152D01*
X77267982Y-10655152D02*
X77229887Y-10693247D01*
X77229887Y-10693247D02*
X77191792Y-10769438D01*
X77191792Y-10769438D02*
X77191792Y-10959914D01*
X77191792Y-10959914D02*
X77229887Y-11036104D01*
X77229887Y-11036104D02*
X77267982Y-11074200D01*
X77267982Y-11074200D02*
X77344173Y-11112295D01*
X77344173Y-11112295D02*
X77572744Y-11112295D01*
X77572744Y-11112295D02*
X77648935Y-11074200D01*
X77648935Y-11074200D02*
X77687030Y-11036104D01*
X76848934Y-11036104D02*
X76810839Y-11074200D01*
X76810839Y-11074200D02*
X76848934Y-11112295D01*
X76848934Y-11112295D02*
X76887030Y-11074200D01*
X76887030Y-11074200D02*
X76848934Y-11036104D01*
X76848934Y-11036104D02*
X76848934Y-11112295D01*
X76848934Y-10617057D02*
X76810839Y-10655152D01*
X76810839Y-10655152D02*
X76848934Y-10693247D01*
X76848934Y-10693247D02*
X76887030Y-10655152D01*
X76887030Y-10655152D02*
X76848934Y-10617057D01*
X76848934Y-10617057D02*
X76848934Y-10693247D01*
X76087030Y-10312295D02*
X76467982Y-10312295D01*
X76467982Y-10312295D02*
X76506078Y-10693247D01*
X76506078Y-10693247D02*
X76467982Y-10655152D01*
X76467982Y-10655152D02*
X76391792Y-10617057D01*
X76391792Y-10617057D02*
X76201316Y-10617057D01*
X76201316Y-10617057D02*
X76125125Y-10655152D01*
X76125125Y-10655152D02*
X76087030Y-10693247D01*
X76087030Y-10693247D02*
X76048935Y-10769438D01*
X76048935Y-10769438D02*
X76048935Y-10959914D01*
X76048935Y-10959914D02*
X76087030Y-11036104D01*
X76087030Y-11036104D02*
X76125125Y-11074200D01*
X76125125Y-11074200D02*
X76201316Y-11112295D01*
X76201316Y-11112295D02*
X76391792Y-11112295D01*
X76391792Y-11112295D02*
X76467982Y-11074200D01*
X76467982Y-11074200D02*
X76506078Y-11036104D01*
X75820363Y-10312295D02*
X75553696Y-11112295D01*
X75553696Y-11112295D02*
X75287030Y-10312295D01*
X77229887Y-15312295D02*
X77610839Y-15312295D01*
X77610839Y-15312295D02*
X77648935Y-15693247D01*
X77648935Y-15693247D02*
X77610839Y-15655152D01*
X77610839Y-15655152D02*
X77534649Y-15617057D01*
X77534649Y-15617057D02*
X77344173Y-15617057D01*
X77344173Y-15617057D02*
X77267982Y-15655152D01*
X77267982Y-15655152D02*
X77229887Y-15693247D01*
X77229887Y-15693247D02*
X77191792Y-15769438D01*
X77191792Y-15769438D02*
X77191792Y-15959914D01*
X77191792Y-15959914D02*
X77229887Y-16036104D01*
X77229887Y-16036104D02*
X77267982Y-16074200D01*
X77267982Y-16074200D02*
X77344173Y-16112295D01*
X77344173Y-16112295D02*
X77534649Y-16112295D01*
X77534649Y-16112295D02*
X77610839Y-16074200D01*
X77610839Y-16074200D02*
X77648935Y-16036104D01*
X76848934Y-16036104D02*
X76810839Y-16074200D01*
X76810839Y-16074200D02*
X76848934Y-16112295D01*
X76848934Y-16112295D02*
X76887030Y-16074200D01*
X76887030Y-16074200D02*
X76848934Y-16036104D01*
X76848934Y-16036104D02*
X76848934Y-16112295D01*
X76848934Y-15617057D02*
X76810839Y-15655152D01*
X76810839Y-15655152D02*
X76848934Y-15693247D01*
X76848934Y-15693247D02*
X76887030Y-15655152D01*
X76887030Y-15655152D02*
X76848934Y-15617057D01*
X76848934Y-15617057D02*
X76848934Y-15693247D01*
X76544173Y-15312295D02*
X76048935Y-15312295D01*
X76048935Y-15312295D02*
X76315601Y-15617057D01*
X76315601Y-15617057D02*
X76201316Y-15617057D01*
X76201316Y-15617057D02*
X76125125Y-15655152D01*
X76125125Y-15655152D02*
X76087030Y-15693247D01*
X76087030Y-15693247D02*
X76048935Y-15769438D01*
X76048935Y-15769438D02*
X76048935Y-15959914D01*
X76048935Y-15959914D02*
X76087030Y-16036104D01*
X76087030Y-16036104D02*
X76125125Y-16074200D01*
X76125125Y-16074200D02*
X76201316Y-16112295D01*
X76201316Y-16112295D02*
X76429887Y-16112295D01*
X76429887Y-16112295D02*
X76506078Y-16074200D01*
X76506078Y-16074200D02*
X76544173Y-16036104D01*
X75706077Y-16036104D02*
X75667982Y-16074200D01*
X75667982Y-16074200D02*
X75706077Y-16112295D01*
X75706077Y-16112295D02*
X75744173Y-16074200D01*
X75744173Y-16074200D02*
X75706077Y-16036104D01*
X75706077Y-16036104D02*
X75706077Y-16112295D01*
X75401316Y-15312295D02*
X74906078Y-15312295D01*
X74906078Y-15312295D02*
X75172744Y-15617057D01*
X75172744Y-15617057D02*
X75058459Y-15617057D01*
X75058459Y-15617057D02*
X74982268Y-15655152D01*
X74982268Y-15655152D02*
X74944173Y-15693247D01*
X74944173Y-15693247D02*
X74906078Y-15769438D01*
X74906078Y-15769438D02*
X74906078Y-15959914D01*
X74906078Y-15959914D02*
X74944173Y-16036104D01*
X74944173Y-16036104D02*
X74982268Y-16074200D01*
X74982268Y-16074200D02*
X75058459Y-16112295D01*
X75058459Y-16112295D02*
X75287030Y-16112295D01*
X75287030Y-16112295D02*
X75363221Y-16074200D01*
X75363221Y-16074200D02*
X75401316Y-16036104D01*
X74677506Y-15312295D02*
X74410839Y-16112295D01*
X74410839Y-16112295D02*
X74144173Y-15312295D01*
X77191792Y-28612295D02*
X77648935Y-28612295D01*
X77420363Y-28612295D02*
X77420363Y-27812295D01*
X77420363Y-27812295D02*
X77496554Y-27926580D01*
X77496554Y-27926580D02*
X77572744Y-28002771D01*
X77572744Y-28002771D02*
X77648935Y-28040866D01*
X76696553Y-27812295D02*
X76620363Y-27812295D01*
X76620363Y-27812295D02*
X76544172Y-27850390D01*
X76544172Y-27850390D02*
X76506077Y-27888485D01*
X76506077Y-27888485D02*
X76467982Y-27964676D01*
X76467982Y-27964676D02*
X76429887Y-28117057D01*
X76429887Y-28117057D02*
X76429887Y-28307533D01*
X76429887Y-28307533D02*
X76467982Y-28459914D01*
X76467982Y-28459914D02*
X76506077Y-28536104D01*
X76506077Y-28536104D02*
X76544172Y-28574200D01*
X76544172Y-28574200D02*
X76620363Y-28612295D01*
X76620363Y-28612295D02*
X76696553Y-28612295D01*
X76696553Y-28612295D02*
X76772744Y-28574200D01*
X76772744Y-28574200D02*
X76810839Y-28536104D01*
X76810839Y-28536104D02*
X76848934Y-28459914D01*
X76848934Y-28459914D02*
X76887030Y-28307533D01*
X76887030Y-28307533D02*
X76887030Y-28117057D01*
X76887030Y-28117057D02*
X76848934Y-27964676D01*
X76848934Y-27964676D02*
X76810839Y-27888485D01*
X76810839Y-27888485D02*
X76772744Y-27850390D01*
X76772744Y-27850390D02*
X76696553Y-27812295D01*
X8999999Y-40286104D02*
X9038095Y-40324200D01*
X9038095Y-40324200D02*
X9152380Y-40362295D01*
X9152380Y-40362295D02*
X9228571Y-40362295D01*
X9228571Y-40362295D02*
X9342857Y-40324200D01*
X9342857Y-40324200D02*
X9419047Y-40248009D01*
X9419047Y-40248009D02*
X9457142Y-40171819D01*
X9457142Y-40171819D02*
X9495238Y-40019438D01*
X9495238Y-40019438D02*
X9495238Y-39905152D01*
X9495238Y-39905152D02*
X9457142Y-39752771D01*
X9457142Y-39752771D02*
X9419047Y-39676580D01*
X9419047Y-39676580D02*
X9342857Y-39600390D01*
X9342857Y-39600390D02*
X9228571Y-39562295D01*
X9228571Y-39562295D02*
X9152380Y-39562295D01*
X9152380Y-39562295D02*
X9038095Y-39600390D01*
X9038095Y-39600390D02*
X8999999Y-39638485D01*
X8657142Y-39943247D02*
X8390476Y-39943247D01*
X8276190Y-40362295D02*
X8657142Y-40362295D01*
X8657142Y-40362295D02*
X8657142Y-39562295D01*
X8657142Y-39562295D02*
X8276190Y-39562295D01*
X7933332Y-40362295D02*
X7933332Y-39562295D01*
X7933332Y-39562295D02*
X7476189Y-40362295D01*
X7476189Y-40362295D02*
X7476189Y-39562295D01*
X7209523Y-39562295D02*
X6752380Y-39562295D01*
X6980952Y-40362295D02*
X6980952Y-39562295D01*
X6485713Y-39943247D02*
X6219047Y-39943247D01*
X6104761Y-40362295D02*
X6485713Y-40362295D01*
X6485713Y-40362295D02*
X6485713Y-39562295D01*
X6485713Y-39562295D02*
X6104761Y-39562295D01*
X5304760Y-40362295D02*
X5571427Y-39981342D01*
X5761903Y-40362295D02*
X5761903Y-39562295D01*
X5761903Y-39562295D02*
X5457141Y-39562295D01*
X5457141Y-39562295D02*
X5380951Y-39600390D01*
X5380951Y-39600390D02*
X5342856Y-39638485D01*
X5342856Y-39638485D02*
X5304760Y-39714676D01*
X5304760Y-39714676D02*
X5304760Y-39828961D01*
X5304760Y-39828961D02*
X5342856Y-39905152D01*
X5342856Y-39905152D02*
X5380951Y-39943247D01*
X5380951Y-39943247D02*
X5457141Y-39981342D01*
X5457141Y-39981342D02*
X5761903Y-39981342D01*
X4352379Y-40057533D02*
X3742856Y-40057533D01*
X4047617Y-40362295D02*
X4047617Y-39752771D01*
X11942857Y-10843247D02*
X11828571Y-10881342D01*
X11828571Y-10881342D02*
X11790476Y-10919438D01*
X11790476Y-10919438D02*
X11752380Y-10995628D01*
X11752380Y-10995628D02*
X11752380Y-11109914D01*
X11752380Y-11109914D02*
X11790476Y-11186104D01*
X11790476Y-11186104D02*
X11828571Y-11224200D01*
X11828571Y-11224200D02*
X11904761Y-11262295D01*
X11904761Y-11262295D02*
X12209523Y-11262295D01*
X12209523Y-11262295D02*
X12209523Y-10462295D01*
X12209523Y-10462295D02*
X11942857Y-10462295D01*
X11942857Y-10462295D02*
X11866666Y-10500390D01*
X11866666Y-10500390D02*
X11828571Y-10538485D01*
X11828571Y-10538485D02*
X11790476Y-10614676D01*
X11790476Y-10614676D02*
X11790476Y-10690866D01*
X11790476Y-10690866D02*
X11828571Y-10767057D01*
X11828571Y-10767057D02*
X11866666Y-10805152D01*
X11866666Y-10805152D02*
X11942857Y-10843247D01*
X11942857Y-10843247D02*
X12209523Y-10843247D01*
X11409523Y-11262295D02*
X11409523Y-10462295D01*
X11066667Y-11033723D02*
X10685714Y-11033723D01*
X11142857Y-11262295D02*
X10876190Y-10462295D01*
X10876190Y-10462295D02*
X10609524Y-11262295D01*
X10380953Y-11224200D02*
X10266667Y-11262295D01*
X10266667Y-11262295D02*
X10076191Y-11262295D01*
X10076191Y-11262295D02*
X10000000Y-11224200D01*
X10000000Y-11224200D02*
X9961905Y-11186104D01*
X9961905Y-11186104D02*
X9923810Y-11109914D01*
X9923810Y-11109914D02*
X9923810Y-11033723D01*
X9923810Y-11033723D02*
X9961905Y-10957533D01*
X9961905Y-10957533D02*
X10000000Y-10919438D01*
X10000000Y-10919438D02*
X10076191Y-10881342D01*
X10076191Y-10881342D02*
X10228572Y-10843247D01*
X10228572Y-10843247D02*
X10304762Y-10805152D01*
X10304762Y-10805152D02*
X10342857Y-10767057D01*
X10342857Y-10767057D02*
X10380953Y-10690866D01*
X10380953Y-10690866D02*
X10380953Y-10614676D01*
X10380953Y-10614676D02*
X10342857Y-10538485D01*
X10342857Y-10538485D02*
X10304762Y-10500390D01*
X10304762Y-10500390D02*
X10228572Y-10462295D01*
X10228572Y-10462295D02*
X10038095Y-10462295D01*
X10038095Y-10462295D02*
X9923810Y-10500390D01*
X8971428Y-10843247D02*
X8704762Y-10843247D01*
X8590476Y-11262295D02*
X8971428Y-11262295D01*
X8971428Y-11262295D02*
X8971428Y-10462295D01*
X8971428Y-10462295D02*
X8590476Y-10462295D01*
X8247618Y-11262295D02*
X8247618Y-10462295D01*
X8247618Y-10462295D02*
X7790475Y-11262295D01*
X7790475Y-11262295D02*
X7790475Y-10462295D01*
X87747618Y-51912295D02*
X87899999Y-51912295D01*
X87899999Y-51912295D02*
X87976190Y-51950390D01*
X87976190Y-51950390D02*
X88014285Y-51988485D01*
X88014285Y-51988485D02*
X88090475Y-52102771D01*
X88090475Y-52102771D02*
X88128571Y-52255152D01*
X88128571Y-52255152D02*
X88128571Y-52559914D01*
X88128571Y-52559914D02*
X88090475Y-52636104D01*
X88090475Y-52636104D02*
X88052380Y-52674200D01*
X88052380Y-52674200D02*
X87976190Y-52712295D01*
X87976190Y-52712295D02*
X87823809Y-52712295D01*
X87823809Y-52712295D02*
X87747618Y-52674200D01*
X87747618Y-52674200D02*
X87709523Y-52636104D01*
X87709523Y-52636104D02*
X87671428Y-52559914D01*
X87671428Y-52559914D02*
X87671428Y-52369438D01*
X87671428Y-52369438D02*
X87709523Y-52293247D01*
X87709523Y-52293247D02*
X87747618Y-52255152D01*
X87747618Y-52255152D02*
X87823809Y-52217057D01*
X87823809Y-52217057D02*
X87976190Y-52217057D01*
X87976190Y-52217057D02*
X88052380Y-52255152D01*
X88052380Y-52255152D02*
X88090475Y-52293247D01*
X88090475Y-52293247D02*
X88128571Y-52369438D01*
X93628571Y-36408557D02*
X93628571Y-37051414D01*
X93628571Y-37051414D02*
X93671428Y-37179985D01*
X93671428Y-37179985D02*
X93757142Y-37265700D01*
X93757142Y-37265700D02*
X93885714Y-37308557D01*
X93885714Y-37308557D02*
X93971428Y-37308557D01*
X93242857Y-37051414D02*
X92814286Y-37051414D01*
X93328571Y-37308557D02*
X93028571Y-36408557D01*
X93028571Y-36408557D02*
X92728571Y-37308557D01*
X91271428Y-37308557D02*
X91785714Y-37308557D01*
X91528571Y-37308557D02*
X91528571Y-36408557D01*
X91528571Y-36408557D02*
X91614285Y-36537128D01*
X91614285Y-36537128D02*
X91700000Y-36622842D01*
X91700000Y-36622842D02*
X91785714Y-36665700D01*
D12*
X7933333Y-38053259D02*
X8409523Y-38053259D01*
X8409523Y-38053259D02*
X8457142Y-38529449D01*
X8457142Y-38529449D02*
X8409523Y-38481830D01*
X8409523Y-38481830D02*
X8314285Y-38434211D01*
X8314285Y-38434211D02*
X8076190Y-38434211D01*
X8076190Y-38434211D02*
X7980952Y-38481830D01*
X7980952Y-38481830D02*
X7933333Y-38529449D01*
X7933333Y-38529449D02*
X7885714Y-38624687D01*
X7885714Y-38624687D02*
X7885714Y-38862782D01*
X7885714Y-38862782D02*
X7933333Y-38958020D01*
X7933333Y-38958020D02*
X7980952Y-39005640D01*
X7980952Y-39005640D02*
X8076190Y-39053259D01*
X8076190Y-39053259D02*
X8314285Y-39053259D01*
X8314285Y-39053259D02*
X8409523Y-39005640D01*
X8409523Y-39005640D02*
X8457142Y-38958020D01*
X7599999Y-38053259D02*
X7266666Y-39053259D01*
X7266666Y-39053259D02*
X6933333Y-38053259D01*
X5838094Y-39053259D02*
X5838094Y-38053259D01*
X5361904Y-39053259D02*
X5361904Y-38053259D01*
X5361904Y-38053259D02*
X4790476Y-39053259D01*
X4790476Y-39053259D02*
X4790476Y-38053259D01*
X64476190Y-33453259D02*
X64476190Y-32453259D01*
X64476190Y-32929449D02*
X63904762Y-32929449D01*
X63904762Y-33453259D02*
X63904762Y-32453259D01*
X63428571Y-32929449D02*
X63095238Y-32929449D01*
X62952381Y-33453259D02*
X63428571Y-33453259D01*
X63428571Y-33453259D02*
X63428571Y-32453259D01*
X63428571Y-32453259D02*
X62952381Y-32453259D01*
X62571428Y-33167544D02*
X62095238Y-33167544D01*
X62666666Y-33453259D02*
X62333333Y-32453259D01*
X62333333Y-32453259D02*
X62000000Y-33453259D01*
X61666666Y-33453259D02*
X61666666Y-32453259D01*
X61666666Y-32453259D02*
X61428571Y-32453259D01*
X61428571Y-32453259D02*
X61285714Y-32500878D01*
X61285714Y-32500878D02*
X61190476Y-32596116D01*
X61190476Y-32596116D02*
X61142857Y-32691354D01*
X61142857Y-32691354D02*
X61095238Y-32881830D01*
X61095238Y-32881830D02*
X61095238Y-33024687D01*
X61095238Y-33024687D02*
X61142857Y-33215163D01*
X61142857Y-33215163D02*
X61190476Y-33310401D01*
X61190476Y-33310401D02*
X61285714Y-33405640D01*
X61285714Y-33405640D02*
X61428571Y-33453259D01*
X61428571Y-33453259D02*
X61666666Y-33453259D01*
X59952380Y-33167544D02*
X59476190Y-33167544D01*
X60047618Y-33453259D02*
X59714285Y-32453259D01*
X59714285Y-32453259D02*
X59380952Y-33453259D01*
X84547618Y-33453259D02*
X84547618Y-32453259D01*
X84547618Y-32929449D02*
X83976190Y-32929449D01*
X83976190Y-33453259D02*
X83976190Y-32453259D01*
X83499999Y-32929449D02*
X83166666Y-32929449D01*
X83023809Y-33453259D02*
X83499999Y-33453259D01*
X83499999Y-33453259D02*
X83499999Y-32453259D01*
X83499999Y-32453259D02*
X83023809Y-32453259D01*
X82642856Y-33167544D02*
X82166666Y-33167544D01*
X82738094Y-33453259D02*
X82404761Y-32453259D01*
X82404761Y-32453259D02*
X82071428Y-33453259D01*
X81738094Y-33453259D02*
X81738094Y-32453259D01*
X81738094Y-32453259D02*
X81499999Y-32453259D01*
X81499999Y-32453259D02*
X81357142Y-32500878D01*
X81357142Y-32500878D02*
X81261904Y-32596116D01*
X81261904Y-32596116D02*
X81214285Y-32691354D01*
X81214285Y-32691354D02*
X81166666Y-32881830D01*
X81166666Y-32881830D02*
X81166666Y-33024687D01*
X81166666Y-33024687D02*
X81214285Y-33215163D01*
X81214285Y-33215163D02*
X81261904Y-33310401D01*
X81261904Y-33310401D02*
X81357142Y-33405640D01*
X81357142Y-33405640D02*
X81499999Y-33453259D01*
X81499999Y-33453259D02*
X81738094Y-33453259D01*
X79642856Y-32929449D02*
X79499999Y-32977068D01*
X79499999Y-32977068D02*
X79452380Y-33024687D01*
X79452380Y-33024687D02*
X79404761Y-33119925D01*
X79404761Y-33119925D02*
X79404761Y-33262782D01*
X79404761Y-33262782D02*
X79452380Y-33358020D01*
X79452380Y-33358020D02*
X79499999Y-33405640D01*
X79499999Y-33405640D02*
X79595237Y-33453259D01*
X79595237Y-33453259D02*
X79976189Y-33453259D01*
X79976189Y-33453259D02*
X79976189Y-32453259D01*
X79976189Y-32453259D02*
X79642856Y-32453259D01*
X79642856Y-32453259D02*
X79547618Y-32500878D01*
X79547618Y-32500878D02*
X79499999Y-32548497D01*
X79499999Y-32548497D02*
X79452380Y-32643735D01*
X79452380Y-32643735D02*
X79452380Y-32738973D01*
X79452380Y-32738973D02*
X79499999Y-32834211D01*
X79499999Y-32834211D02*
X79547618Y-32881830D01*
X79547618Y-32881830D02*
X79642856Y-32929449D01*
X79642856Y-32929449D02*
X79976189Y-32929449D01*
%LPC*%
D13*
%TO.C,J4*%
X82000000Y-5750000D03*
D14*
X82000000Y-8250000D03*
X82000000Y-10750000D03*
X82000000Y-13250000D03*
X82000000Y-15750000D03*
X82000000Y-18250000D03*
X82000000Y-20750000D03*
X82000000Y-23250000D03*
X82000000Y-25750000D03*
X82000000Y-28250000D03*
%TD*%
D15*
%TO.C,J1*%
X13700000Y-46000000D03*
D16*
X7700000Y-46000000D03*
X10700000Y-50700000D03*
%TD*%
D17*
%TO.C,J2*%
X10000000Y-13500000D03*
D18*
X10000000Y-16040000D03*
%TD*%
D19*
%TO.C,H4*%
X92000000Y-60000000D03*
%TD*%
%TO.C,H2*%
X92000000Y-4000000D03*
%TD*%
D20*
%TO.C,TP4*%
X26600000Y-37400000D03*
X21600000Y-37400000D03*
%TD*%
D13*
%TO.C,J3*%
X62000000Y-5750000D03*
D14*
X62000000Y-8250000D03*
X62000000Y-10750000D03*
X62000000Y-13250000D03*
X62000000Y-15750000D03*
X62000000Y-18250000D03*
X62000000Y-20750000D03*
X62000000Y-23250000D03*
X62000000Y-25750000D03*
X62000000Y-28250000D03*
%TD*%
D17*
%TO.C,J5*%
X89420000Y-39650000D03*
D18*
X89420000Y-42190000D03*
X89420000Y-44730000D03*
X89420000Y-47270000D03*
X89420000Y-49810000D03*
X89420000Y-52350000D03*
X91960000Y-39650000D03*
X91960000Y-42190000D03*
X91960000Y-44730000D03*
X91960000Y-47270000D03*
X91960000Y-49810000D03*
X91960000Y-52350000D03*
%TD*%
D19*
%TO.C,H3*%
X4000000Y-60000000D03*
%TD*%
D20*
%TO.C,TP6*%
X38000000Y-37400000D03*
X33000000Y-37400000D03*
%TD*%
D19*
%TO.C,H1*%
X4000000Y-4000000D03*
%TD*%
D21*
%TO.C,RV1*%
X27000000Y-10000000D03*
X24460000Y-10000000D03*
X21920000Y-10000000D03*
%TD*%
%LPD*%
M02*
