%TF.GenerationSoftware,KiCad,Pcbnew,9.0.9*%
%TF.CreationDate,2026-09-14T13:57:28-07:00*%
%TF.ProjectId,power_interface,706f7765-725f-4696-9e74-657266616365,rev?*%
%TF.SameCoordinates,Original*%
%TF.FileFunction,Paste,Top*%
%TF.FilePolarity,Positive*%
%FSLAX46Y46*%
G04 Gerber Fmt 4.6, Leading zero omitted, Abs format (unit mm)*
G04 Created by KiCad (PCBNEW 9.0.9) date 2026-09-14 13:57:28*
%MOMM*%
%LPD*%
G01*
G04 APERTURE LIST*
G04 Aperture macros list*
%AMRoundRect*
0 Rectangle with rounded corners*
0 $1 Rounding radius*
0 $2 $3 $4 $5 $6 $7 $8 $9 X,Y pos of 4 corners*
0 Add a 4 corners polygon primitive as box body*
4,1,4,$2,$3,$4,$5,$6,$7,$8,$9,$2,$3,0*
0 Add four circle primitives for the rounded corners*
1,1,$1+$1,$2,$3*
1,1,$1+$1,$4,$5*
1,1,$1+$1,$6,$7*
1,1,$1+$1,$8,$9*
0 Add four rect primitives between the rounded corners*
20,1,$1+$1,$2,$3,$4,$5,0*
20,1,$1+$1,$4,$5,$6,$7,0*
20,1,$1+$1,$6,$7,$8,$9,0*
20,1,$1+$1,$8,$9,$2,$3,0*%
G04 Aperture macros list end*
%ADD10RoundRect,0.250000X-0.450000X0.262500X-0.450000X-0.262500X0.450000X-0.262500X0.450000X0.262500X0*%
%ADD11RoundRect,0.250000X0.450000X-0.262500X0.450000X0.262500X-0.450000X0.262500X-0.450000X-0.262500X0*%
%ADD12RoundRect,0.250000X-0.475000X0.250000X-0.475000X-0.250000X0.475000X-0.250000X0.475000X0.250000X0*%
%ADD13RoundRect,0.250000X-0.650000X0.325000X-0.650000X-0.325000X0.650000X-0.325000X0.650000X0.325000X0*%
%ADD14RoundRect,0.250000X-0.250000X-0.475000X0.250000X-0.475000X0.250000X0.475000X-0.250000X0.475000X0*%
%ADD15RoundRect,0.250000X-0.262500X-0.450000X0.262500X-0.450000X0.262500X0.450000X-0.262500X0.450000X0*%
%ADD16RoundRect,0.250000X0.650000X-0.325000X0.650000X0.325000X-0.650000X0.325000X-0.650000X-0.325000X0*%
%ADD17RoundRect,0.150000X-0.512500X-0.150000X0.512500X-0.150000X0.512500X0.150000X-0.512500X0.150000X0*%
%ADD18RoundRect,0.250000X0.262500X0.450000X-0.262500X0.450000X-0.262500X-0.450000X0.262500X-0.450000X0*%
%ADD19RoundRect,0.250000X0.250000X0.475000X-0.250000X0.475000X-0.250000X-0.475000X0.250000X-0.475000X0*%
%ADD20RoundRect,0.250000X1.000000X0.650000X-1.000000X0.650000X-1.000000X-0.650000X1.000000X-0.650000X0*%
%ADD21R,1.100000X2.000000*%
%ADD22R,1.000000X0.800000*%
%ADD23RoundRect,0.150000X-0.825000X-0.150000X0.825000X-0.150000X0.825000X0.150000X-0.825000X0.150000X0*%
%ADD24RoundRect,0.250000X-0.375000X-0.625000X0.375000X-0.625000X0.375000X0.625000X-0.375000X0.625000X0*%
%ADD25R,2.000000X6.000000*%
%ADD26RoundRect,0.150000X0.512500X0.150000X-0.512500X0.150000X-0.512500X-0.150000X0.512500X-0.150000X0*%
G04 APERTURE END LIST*
D10*
%TO.C,R10*%
X64400000Y-47887500D03*
X64400000Y-49712500D03*
%TD*%
D11*
%TO.C,R2*%
X23100000Y-22912500D03*
X23100000Y-21087500D03*
%TD*%
D10*
%TO.C,R18*%
X82600000Y-50687500D03*
X82600000Y-52512500D03*
%TD*%
D12*
%TO.C,C13*%
X67200000Y-47850000D03*
X67200000Y-49750000D03*
%TD*%
D13*
%TO.C,C9*%
X34400000Y-25525000D03*
X34400000Y-28475000D03*
%TD*%
D12*
%TO.C,C10*%
X37000000Y-25650000D03*
X37000000Y-27550000D03*
%TD*%
%TO.C,C3*%
X40600000Y-40250000D03*
X40600000Y-42150000D03*
%TD*%
D10*
%TO.C,R23*%
X87800000Y-33087500D03*
X87800000Y-34912500D03*
%TD*%
%TO.C,R19*%
X86000000Y-55487500D03*
X86000000Y-57312500D03*
%TD*%
D14*
%TO.C,C11*%
X67850000Y-40200000D03*
X69750000Y-40200000D03*
%TD*%
D15*
%TO.C,R7*%
X63887500Y-40200000D03*
X65712500Y-40200000D03*
%TD*%
D16*
%TO.C,C7*%
X21400000Y-27575000D03*
X21400000Y-24625000D03*
%TD*%
D14*
%TO.C,C5*%
X12650000Y-18400000D03*
X14550000Y-18400000D03*
%TD*%
D16*
%TO.C,C8*%
X23800000Y-27575000D03*
X23800000Y-24625000D03*
%TD*%
D15*
%TO.C,R11*%
X59687500Y-53400000D03*
X61512500Y-53400000D03*
%TD*%
%TO.C,R5*%
X29287500Y-25000000D03*
X31112500Y-25000000D03*
%TD*%
D11*
%TO.C,R4*%
X17200000Y-18612500D03*
X17200000Y-16787500D03*
%TD*%
D10*
%TO.C,R17*%
X80200000Y-50687500D03*
X80200000Y-52512500D03*
%TD*%
D17*
%TO.C,U1*%
X43362500Y-40050000D03*
X43362500Y-41000000D03*
X43362500Y-41950000D03*
X45637500Y-41950000D03*
X45637500Y-40050000D03*
%TD*%
D13*
%TO.C,C1*%
X37400000Y-46925000D03*
X37400000Y-49875000D03*
%TD*%
D10*
%TO.C,R6*%
X39400000Y-25687500D03*
X39400000Y-27512500D03*
%TD*%
D12*
%TO.C,C14*%
X67200000Y-54850000D03*
X67200000Y-56750000D03*
%TD*%
D15*
%TO.C,R20*%
X67087500Y-32500000D03*
X68912500Y-32500000D03*
%TD*%
D18*
%TO.C,R13*%
X85512500Y-44730000D03*
X83687500Y-44730000D03*
%TD*%
D12*
%TO.C,C2*%
X40200000Y-47050000D03*
X40200000Y-48950000D03*
%TD*%
D11*
%TO.C,R3*%
X23100000Y-19412500D03*
X23100000Y-17587500D03*
%TD*%
D18*
%TO.C,R14*%
X85512500Y-47270000D03*
X83687500Y-47270000D03*
%TD*%
D10*
%TO.C,R22*%
X85500000Y-33087500D03*
X85500000Y-34912500D03*
%TD*%
D19*
%TO.C,C4*%
X45450000Y-38200000D03*
X43550000Y-38200000D03*
%TD*%
D15*
%TO.C,R21*%
X76087500Y-32500000D03*
X77912500Y-32500000D03*
%TD*%
D20*
%TO.C,D1*%
X28800000Y-46000000D03*
X24800000Y-46000000D03*
%TD*%
D21*
%TO.C,D2*%
X19300000Y-26350000D03*
D22*
X19300000Y-24450000D03*
%TD*%
D23*
%TO.C,U3*%
X71525000Y-45095000D03*
X71525000Y-46365000D03*
X71525000Y-47635000D03*
X71525000Y-48905000D03*
X76475000Y-48905000D03*
X76475000Y-47635000D03*
X76475000Y-46365000D03*
X76475000Y-45095000D03*
%TD*%
D24*
%TO.C,F1*%
X18400000Y-46000000D03*
X21200000Y-46000000D03*
%TD*%
D15*
%TO.C,R8*%
X68487500Y-43400000D03*
X70312500Y-43400000D03*
%TD*%
%TO.C,R9*%
X59687500Y-46400000D03*
X61512500Y-46400000D03*
%TD*%
D18*
%TO.C,R15*%
X85512500Y-38200000D03*
X83687500Y-38200000D03*
%TD*%
D19*
%TO.C,C12*%
X75250000Y-43200000D03*
X73350000Y-43200000D03*
%TD*%
D25*
%TO.C,L1*%
X12250000Y-25400000D03*
X16550000Y-25400000D03*
%TD*%
D15*
%TO.C,R1*%
X32287500Y-46000000D03*
X34112500Y-46000000D03*
%TD*%
D18*
%TO.C,R16*%
X85512500Y-41400000D03*
X83687500Y-41400000D03*
%TD*%
D26*
%TO.C,U2*%
X21137500Y-22950000D03*
X21137500Y-22000000D03*
X21137500Y-21050000D03*
X18862500Y-21050000D03*
X18862500Y-22000000D03*
X18862500Y-22950000D03*
%TD*%
D14*
%TO.C,C6*%
X19050000Y-19200000D03*
X20950000Y-19200000D03*
%TD*%
D10*
%TO.C,R12*%
X64400000Y-54887500D03*
X64400000Y-56712500D03*
%TD*%
M02*
