M48
; DRILL file {KiCad 9.0.9} date 2026-09-13T14:13:28-0700
; FORMAT={-:-/ absolute / metric / decimal}
; #@! TF.CreationDate,2026-09-13T14:13:28-07:00
; #@! TF.GenerationSoftware,Kicad,Pcbnew,9.0.9
; #@! TF.FileFunction,Plated,1,2,PTH
FMAT,2
METRIC
; #@! TA.AperFunction,Plated,PTH,ViaDrill
T1C0.600
; #@! TA.AperFunction,Plated,PTH,ComponentDrill
T2C0.800
; #@! TA.AperFunction,Plated,PTH,ComponentDrill
T3C0.950
; #@! TA.AperFunction,Plated,PTH,ComponentDrill
T4C1.000
; #@! TA.AperFunction,Plated,PTH,ComponentDrill
T5C1.600
%
G90
G05
T1
X12.4Y-19.3
X14.7Y-19.6
X15.0Y-15.5
X20.6Y-23.6
X21.9Y-22.4
X22.9Y-27.7
X25.5Y-27.7
X30.3Y-31.6
X33.3Y-27.7
X36.0Y-28.0
X36.3Y-49.1
X38.5Y-28.1
X39.2Y-49.4
X39.6Y-42.6
X47.4Y-42.0
X60.2Y-38.6
X60.2Y-41.3
X62.6Y-48.1
X63.5Y-50.3
X63.5Y-57.3
X64.3Y-46.2
X66.2Y-50.2
X66.2Y-57.2
X66.8Y-38.6
X66.8Y-41.7
X70.4Y-40.9
X71.4Y-29.8
X72.6Y-31.1
X72.7Y-49.2
X73.1Y-33.9
X73.9Y-50.3
X74.3Y-32.8
X74.5Y-47.0
X78.5Y-46.0
X79.3Y-53.1
X79.6Y-29.8
X79.6Y-32.3
X80.3Y-44.2
X81.3Y-48.7
X81.4Y-43.1
X81.5Y-33.9
X81.5Y-36.4
X81.6Y-41.1
X81.7Y-53.1
X83.0Y-35.5
X83.1Y-29.8
X83.1Y-32.3
X84.6Y-35.5
X85.1Y-57.9
X85.6Y-43.6
X86.8Y-46.0
X86.8Y-48.5
X86.8Y-50.2
X86.9Y-35.5
X87.1Y-39.2
X88.1Y-41.5
X88.1Y-43.6
X89.6Y-34.5
X91.3Y-32.8
T2
X21.92Y-10.0
X24.46Y-10.0
X27.0Y-10.0
T3
X62.0Y-5.75
X62.0Y-8.25
X62.0Y-10.75
X62.0Y-13.25
X62.0Y-15.75
X62.0Y-18.25
X62.0Y-20.75
X62.0Y-23.25
X62.0Y-25.75
X62.0Y-28.25
X82.0Y-5.75
X82.0Y-8.25
X82.0Y-10.75
X82.0Y-13.25
X82.0Y-15.75
X82.0Y-18.25
X82.0Y-20.75
X82.0Y-23.25
X82.0Y-25.75
X82.0Y-28.25
T4
X10.0Y-13.5
X10.0Y-16.04
X21.6Y-37.4
X26.6Y-37.4
X33.0Y-37.4
X38.0Y-37.4
X89.42Y-39.65
X89.42Y-42.19
X89.42Y-44.73
X89.42Y-47.27
X89.42Y-49.81
X89.42Y-52.35
X91.96Y-39.65
X91.96Y-42.19
X91.96Y-44.73
X91.96Y-47.27
X91.96Y-49.81
X91.96Y-52.35
T5
X7.7Y-46.0
X10.7Y-50.7
X13.7Y-46.0
M30
